%TF.GenerationSoftware,KiCad,Pcbnew,9.0.5*%
%TF.CreationDate,2025-12-30T00:31:24-08:00*%
%TF.ProjectId,vrb,7672622e-6b69-4636-9164-5f7063625858,rev?*%
%TF.SameCoordinates,Original*%
%TF.FileFunction,Paste,Bot*%
%TF.FilePolarity,Positive*%
%FSLAX46Y46*%
G04 Gerber Fmt 4.6, Leading zero omitted, Abs format (unit mm)*
G04 Created by KiCad (PCBNEW 9.0.5) date 2025-12-30 00:31:24*
%MOMM*%
%LPD*%
G01*
G04 APERTURE LIST*
%ADD10R,0.350000X2.500000*%
%ADD11R,2.500000X2.000000*%
G04 APERTURE END LIST*
D10*
%TO.C,J12*%
X103618610Y-126650000D03*
X104253610Y-126650000D03*
X104888610Y-126650000D03*
X105523610Y-126650000D03*
X106158610Y-126650000D03*
X106793610Y-126650000D03*
X107428610Y-126650000D03*
X108063610Y-126650000D03*
X108698610Y-126650000D03*
X109333610Y-126650000D03*
X109968610Y-126650000D03*
X110603610Y-126650000D03*
X111238610Y-126650000D03*
X111873610Y-126650000D03*
X112508610Y-126650000D03*
X113143610Y-126650000D03*
X113778610Y-126650000D03*
X114413610Y-126650000D03*
X115048610Y-126650000D03*
X115683610Y-126650000D03*
X103618610Y-131350000D03*
X104253610Y-131350000D03*
X104888610Y-131350000D03*
X105523610Y-131350000D03*
X106158610Y-131350000D03*
X106793610Y-131350000D03*
X107428610Y-131350000D03*
X108063610Y-131350000D03*
X108698610Y-131350000D03*
X109333610Y-131350000D03*
X109968610Y-131350000D03*
X110603610Y-131350000D03*
X111238610Y-131350000D03*
X111873610Y-131350000D03*
X112508610Y-131350000D03*
X113143610Y-131350000D03*
X113778610Y-131350000D03*
X114413610Y-131350000D03*
X115048610Y-131350000D03*
X115683610Y-131350000D03*
D11*
X99916130Y-129000000D03*
X119386090Y-129000000D03*
%TD*%
M02*
