M48
; DRILL file {KiCad 9.0.6} date 2026-01-12T10:20:29-0800
; FORMAT={-:-/ absolute / metric / decimal}
; #@! TF.CreationDate,2026-01-12T10:20:29-08:00
; #@! TF.GenerationSoftware,Kicad,Pcbnew,9.0.6
; #@! TF.FileFunction,Plated,1,6,PTH
FMAT,2
METRIC
; #@! TA.AperFunction,Plated,PTH,ViaDrill
T1C0.250
; #@! TA.AperFunction,Plated,PTH,ViaDrill
T2C0.300
; #@! TA.AperFunction,Plated,PTH,ViaDrill
T3C0.400
; #@! TA.AperFunction,Plated,PTH,ComponentDrill
T4C0.500
; #@! TA.AperFunction,Plated,PTH,ComponentDrill
T5C1.000
; #@! TA.AperFunction,Plated,PTH,ComponentDrill
T6C1.220
; #@! TA.AperFunction,Plated,PTH,ComponentDrill
T7C1.770
; #@! TA.AperFunction,Plated,PTH,ComponentDrill
T8C1.800
; #@! TA.AperFunction,Plated,PTH,ComponentDrill
T9C1.900
; #@! TA.AperFunction,Plated,PTH,ComponentDrill
T10C3.200
%
G90
G05
T1
X118.25Y-130.75
X120.8Y-130.6
X138.0Y-126.95
X138.85Y-120.8
X139.2Y-125.3
X140.3Y-125.4
T2
X74.987Y-92.942
X74.987Y-96.842
X74.987Y-113.186
X74.987Y-117.086
X75.787Y-88.256
X75.787Y-97.856
X75.787Y-108.5
X75.787Y-118.1
X76.48Y-90.756
X76.48Y-100.356
X76.48Y-111.0
X76.48Y-120.6
X76.687Y-86.406
X76.687Y-103.442
X76.687Y-106.65
X76.687Y-123.686
X77.03Y-89.506
X77.03Y-99.106
X77.03Y-109.75
X77.03Y-119.35
X79.337Y-99.656
X79.337Y-119.9
X79.38Y-92.006
X79.38Y-101.606
X79.38Y-112.25
X79.38Y-121.85
X79.78Y-93.456
X79.78Y-113.7
X79.987Y-97.992
X79.987Y-118.236
X80.537Y-100.356
X80.537Y-120.6
X81.18Y-90.556
X81.18Y-110.8
X81.28Y-93.856
X81.28Y-114.1
X81.5Y-103.3
X81.573Y-99.319
X81.573Y-119.562
X81.58Y-97.156
X81.58Y-102.156
X81.58Y-117.4
X81.58Y-122.4
X83.08Y-89.806
X83.08Y-110.05
X83.18Y-96.506
X83.18Y-116.75
X83.78Y-98.106
X83.78Y-101.156
X83.78Y-118.35
X83.78Y-121.4
X84.16Y-88.354
X84.16Y-108.598
X84.35Y-102.75
X84.35Y-122.994
X84.38Y-96.506
X84.38Y-116.75
X84.65Y-123.9
X85.93Y-98.656
X85.93Y-100.606
X85.95Y-127.85
X85.98Y-102.156
X85.98Y-117.4
X85.98Y-122.4
X86.43Y-99.306
X86.43Y-119.55
X86.6Y-95.0
X86.65Y-129.57
X87.5Y-114.15
X87.5Y-131.95
X87.85Y-124.3
X88.3Y-127.05
X89.05Y-72.7
X89.4Y-91.55
X89.5Y-133.4
X89.75Y-74.15
X89.785Y-126.9
X90.0Y-119.4
X90.0Y-121.8
X90.377Y-89.677
X90.4Y-72.1
X90.4Y-114.0
X90.4Y-114.7
X90.4Y-115.4
X90.4Y-116.1
X90.4Y-116.8
X90.775Y-131.8
X90.9Y-126.95
X91.125Y-74.5
X91.125Y-78.45
X91.125Y-81.55
X91.125Y-91.9
X91.125Y-95.85
X91.125Y-98.95
X91.15Y-132.7
X91.4Y-116.8
X91.82Y-74.15
X91.82Y-91.55
X92.125Y-63.65
X92.3Y-116.8
X92.47Y-70.862
X92.47Y-88.263
X92.5Y-128.35
X92.5Y-129.9
X92.77Y-74.15
X92.77Y-91.55
X92.85Y-112.45
X92.925Y-81.55
X92.925Y-98.95
X93.1Y-107.1
X93.1Y-110.75
X93.4Y-121.85
X94.5Y-112.35
X94.55Y-70.45
X94.55Y-71.25
X94.55Y-87.9
X94.55Y-88.65
X94.675Y-82.2
X94.675Y-99.6
X95.076Y-118.65
X95.1Y-119.6
X95.675Y-82.2
X95.675Y-99.6
X96.4Y-129.3
X96.55Y-128.35
X97.375Y-82.2
X97.375Y-99.6
X97.75Y-127.05
X98.0Y-132.2
X98.45Y-66.35
X98.475Y-82.2
X98.475Y-99.6
X99.2Y-133.2
X100.255Y-70.75
X100.255Y-88.15
X100.4Y-133.2
X100.475Y-65.95
X100.8Y-76.3
X100.9Y-93.7
X101.25Y-70.75
X101.25Y-88.15
X101.6Y-133.2
X102.6Y-133.2
X102.75Y-131.5
X103.4Y-68.1
X103.4Y-128.65
X103.6Y-133.2
X104.225Y-72.7
X104.225Y-90.1
X104.35Y-128.65
X104.45Y-71.9
X104.45Y-89.3
X104.6Y-133.2
X105.4Y-68.1
X105.6Y-133.2
X105.9Y-129.1
X106.825Y-63.65
X107.0Y-76.3
X107.05Y-93.7
X108.85Y-88.2
X109.7Y-74.15
X110.45Y-91.55
X110.9Y-72.1
X110.9Y-89.875
X111.244Y-133.058
X111.625Y-74.5
X111.625Y-78.45
X111.625Y-81.55
X111.625Y-91.9
X111.625Y-95.85
X111.625Y-98.95
X111.875Y-132.9
X112.32Y-74.15
X112.32Y-91.55
X112.509Y-133.053
X112.625Y-63.65
X112.97Y-70.862
X112.97Y-88.263
X113.145Y-132.919
X113.27Y-74.15
X113.27Y-91.55
X113.425Y-81.55
X113.425Y-98.95
X113.781Y-133.054
X114.415Y-132.91
X115.045Y-133.07
X115.05Y-70.5
X115.05Y-71.3
X115.05Y-86.95
X115.05Y-87.85
X115.175Y-82.2
X115.175Y-99.6
X115.684Y-132.95
X116.175Y-82.2
X116.175Y-99.6
X116.25Y-122.75
X117.0Y-127.95
X117.875Y-82.2
X117.875Y-99.6
X118.1Y-117.6
X118.1Y-126.5
X118.162Y-132.95
X118.975Y-66.4
X118.975Y-82.2
X118.975Y-99.6
X119.5Y-126.65
X119.976Y-119.775
X120.0Y-132.1
X120.082Y-116.198
X120.1Y-110.6
X120.75Y-122.2
X120.755Y-70.75
X120.755Y-88.15
X120.975Y-65.7
X121.4Y-76.3
X121.4Y-93.7
X121.75Y-70.75
X121.75Y-88.15
X121.8Y-133.0
X122.85Y-125.975
X123.2Y-130.8
X123.3Y-116.0
X123.535Y-126.95
X123.535Y-125.95
X123.85Y-113.2
X123.9Y-68.1
X123.95Y-126.45
X124.725Y-72.7
X124.725Y-90.1
X124.95Y-71.9
X124.95Y-89.3
X125.05Y-113.2
X125.35Y-119.6
X125.35Y-129.35
X125.85Y-111.3
X125.85Y-128.85
X125.85Y-120.135
X125.9Y-68.1
X126.35Y-129.265
X126.4Y-111.8
X126.65Y-116.7
X126.85Y-128.85
X126.9Y-108.95
X127.301Y-107.2
X127.325Y-63.65
X127.401Y-109.531
X127.55Y-76.3
X127.55Y-93.7
X127.85Y-119.3
X127.85Y-128.85
X128.0Y-112.9
X128.283Y-112.205
X128.35Y-129.3
X128.45Y-114.5
X128.778Y-117.075
X128.8Y-119.4
X128.8Y-120.2
X128.85Y-128.85
X129.25Y-114.6
X129.35Y-129.265
X129.85Y-88.15
X129.85Y-120.1
X129.85Y-128.85
X130.0Y-71.4
X130.1Y-117.1
X131.45Y-64.987
X131.45Y-83.0
X131.575Y-131.021
X131.65Y-71.737
X131.65Y-89.75
X132.05Y-131.6
X132.25Y-122.95
X132.25Y-123.95
X132.25Y-124.95
X132.25Y-125.95
X132.45Y-74.612
X132.45Y-92.625
X132.665Y-125.45
X132.665Y-124.45
X132.665Y-126.45
X132.678Y-127.439
X133.05Y-65.608
X133.05Y-83.62
X134.396Y-72.446
X134.4Y-65.837
X134.4Y-71.65
X134.4Y-83.85
X134.4Y-89.65
X134.4Y-90.4
X134.6Y-74.612
X134.6Y-92.625
X135.2Y-129.0
X135.3Y-122.2
X135.8Y-65.438
X135.8Y-83.45
X136.55Y-74.612
X136.55Y-92.625
X136.6Y-67.987
X136.6Y-72.337
X136.6Y-86.0
X136.6Y-90.35
X136.997Y-70.601
X136.997Y-88.613
X137.0Y-122.8
X137.0Y-123.8
X137.3Y-67.987
X137.3Y-72.337
X137.3Y-86.0
X137.3Y-90.35
X137.3Y-121.175
X137.549Y-74.197
X137.549Y-92.21
X137.85Y-70.688
X137.85Y-88.7
X138.35Y-67.987
X138.35Y-72.337
X138.35Y-86.0
X138.825Y-69.632
X138.825Y-71.657
X138.825Y-87.645
X138.825Y-89.67
X139.425Y-72.438
X139.425Y-90.45
X140.35Y-119.5
X140.75Y-83.25
X144.2Y-123.3
X145.0Y-119.3
X146.4Y-120.7
T3
X85.8Y-123.825
X87.4Y-105.4
X89.4Y-63.1
X94.4Y-66.0
X95.5Y-65.4
X96.6Y-66.0
X99.2Y-126.2
X99.2Y-127.2
X99.2Y-131.0
X99.2Y-132.2
X100.4Y-126.2
X100.4Y-127.2
X100.4Y-131.0
X100.4Y-132.2
X101.6Y-126.2
X101.6Y-127.2
X101.6Y-131.0
X101.6Y-132.2
X102.8Y-122.6
X104.2Y-122.6
X105.6Y-122.6
X107.0Y-122.6
X108.4Y-122.6
X109.7Y-62.7
X109.8Y-122.6
X111.2Y-122.6
X112.6Y-122.6
X113.4Y-86.0
X114.0Y-122.6
X115.0Y-66.0
X116.1Y-65.4
X117.2Y-66.0
X130.0Y-82.2
T4
X75.6Y-65.0
X75.6Y-130.0
X76.303Y-63.303
X76.303Y-66.697
X76.303Y-128.303
X76.303Y-131.697
X78.0Y-62.6
X78.0Y-67.4
X78.0Y-127.6
X78.0Y-132.4
X79.697Y-63.303
X79.697Y-66.697
X79.697Y-128.303
X79.697Y-131.697
X80.4Y-65.0
X80.4Y-130.0
X140.6Y-65.0
X140.6Y-130.0
X141.303Y-63.303
X141.303Y-66.697
X141.303Y-128.303
X141.303Y-131.697
X143.0Y-62.6
X143.0Y-67.4
X143.0Y-127.6
X143.0Y-132.4
X144.697Y-63.303
X144.697Y-66.697
X144.697Y-128.303
X144.697Y-131.697
X145.4Y-65.0
X145.4Y-130.0
T5
X76.6Y-70.977
X76.6Y-81.977
X85.0Y-65.0
X126.42Y-133.1
X128.96Y-133.1
X131.5Y-133.1
X134.04Y-133.1
X136.58Y-133.1
X145.25Y-84.5
X145.25Y-87.04
T6
X99.931Y-120.85
X103.741Y-107.25
X107.551Y-107.25
X107.551Y-120.85
X115.171Y-120.85
T7
X99.931Y-107.25
X115.171Y-107.25
T8
X134.5Y-78.8
X134.5Y-97.45
X134.5Y-104.2
X134.5Y-110.82
X134.5Y-115.02
X140.0Y-78.8
X140.0Y-97.45
X140.0Y-104.2
X140.0Y-110.82
X140.0Y-115.02
T9
X86.6Y-73.977
X86.6Y-78.977
T10
X78.0Y-65.0
X78.0Y-130.0
X143.0Y-65.0
X143.0Y-130.0
M30
