%TF.GenerationSoftware,KiCad,Pcbnew,9.0.5*%
%TF.CreationDate,2025-12-30T00:31:24-08:00*%
%TF.ProjectId,vrb,7672622e-6b69-4636-9164-5f7063625858,rev?*%
%TF.SameCoordinates,Original*%
%TF.FileFunction,Legend,Top*%
%TF.FilePolarity,Positive*%
%FSLAX46Y46*%
G04 Gerber Fmt 4.6, Leading zero omitted, Abs format (unit mm)*
G04 Created by KiCad (PCBNEW 9.0.5) date 2025-12-30 00:31:24*
%MOMM*%
%LPD*%
G01*
G04 APERTURE LIST*
%ADD10C,0.100000*%
%ADD11C,0.150000*%
%ADD12C,0.120000*%
%ADD13C,0.127000*%
%ADD14C,0.200000*%
G04 APERTURE END LIST*
D10*
X117200000Y-125000000D02*
X123200000Y-125000000D01*
X123200000Y-130600000D01*
X117200000Y-130600000D01*
X117200000Y-125000000D01*
G36*
X119470738Y-126659883D02*
G01*
X119532888Y-126668966D01*
X119586111Y-126682806D01*
X119636467Y-126702136D01*
X119678994Y-126723955D01*
X119678994Y-126904390D01*
X119640459Y-126934820D01*
X119599494Y-126959580D01*
X119511429Y-126992286D01*
X119409149Y-127004986D01*
X119395519Y-127005140D01*
X119346675Y-127002269D01*
X119302245Y-126993895D01*
X119263825Y-126980845D01*
X119230507Y-126963278D01*
X119204075Y-126942774D01*
X119183031Y-126918791D01*
X119168450Y-126893185D01*
X119159364Y-126864957D01*
X119156100Y-126833132D01*
X119158993Y-126801684D01*
X119167523Y-126772786D01*
X119199923Y-126724094D01*
X119253216Y-126686752D01*
X119329480Y-126663020D01*
X119403946Y-126656911D01*
X119470738Y-126659883D01*
G37*
G36*
X122590828Y-127335114D02*
G01*
X117717233Y-127335114D01*
X117717233Y-127145000D01*
X117883900Y-127145000D01*
X118104451Y-127145000D01*
X118104451Y-126837803D01*
X118954508Y-126837803D01*
X118957396Y-126881565D01*
X118965884Y-126922940D01*
X118998702Y-126997844D01*
X119051756Y-127061540D01*
X119124447Y-127112163D01*
X119215943Y-127146845D01*
X119324430Y-127162149D01*
X119347251Y-127162585D01*
X119410056Y-127159634D01*
X119469350Y-127150702D01*
X119522162Y-127136738D01*
X119572361Y-127117279D01*
X119664296Y-127062667D01*
X119678994Y-127051302D01*
X119678994Y-127145000D01*
X119884799Y-127145000D01*
X119884799Y-126748410D01*
X120111303Y-126748410D01*
X120114194Y-126803402D01*
X120122705Y-126855536D01*
X120136506Y-126904308D01*
X120155391Y-126949756D01*
X120178989Y-126991426D01*
X120207149Y-127029315D01*
X120239515Y-127063068D01*
X120275946Y-127092583D01*
X120316173Y-127117597D01*
X120359995Y-127137899D01*
X120407274Y-127153272D01*
X120457698Y-127163431D01*
X120529233Y-127168447D01*
X120585189Y-127165523D01*
X120638457Y-127156776D01*
X120687264Y-127142817D01*
X120733253Y-127123484D01*
X120775460Y-127099350D01*
X120814673Y-127070122D01*
X120848428Y-127038296D01*
X120848428Y-127145000D01*
X121058447Y-127145000D01*
X121058447Y-126078147D01*
X120848428Y-126078147D01*
X120848428Y-126845039D01*
X120822991Y-126880079D01*
X120793714Y-126910412D01*
X120761336Y-126935534D01*
X120725677Y-126955764D01*
X120645509Y-126980890D01*
X120585928Y-126985814D01*
X120540285Y-126982921D01*
X120498262Y-126974392D01*
X120461223Y-126960972D01*
X120428000Y-126942681D01*
X120399351Y-126920240D01*
X120374755Y-126893516D01*
X120338499Y-126828006D01*
X120320616Y-126745930D01*
X120319215Y-126712690D01*
X120319215Y-126078147D01*
X120111303Y-126078147D01*
X120111303Y-126748410D01*
X119884799Y-126748410D01*
X119884799Y-126434436D01*
X119881885Y-126378969D01*
X119873214Y-126327558D01*
X119859679Y-126282397D01*
X119841095Y-126241081D01*
X119818314Y-126204729D01*
X119790944Y-126172140D01*
X119723043Y-126118695D01*
X119635679Y-126080324D01*
X119525929Y-126058538D01*
X119448001Y-126054699D01*
X119376269Y-126057672D01*
X119304396Y-126066757D01*
X119159756Y-126103253D01*
X119009096Y-126163968D01*
X119086857Y-126321229D01*
X119173152Y-126283546D01*
X119251663Y-126256457D01*
X119314248Y-126241240D01*
X119373997Y-126232971D01*
X119418600Y-126231104D01*
X119472832Y-126234029D01*
X119520947Y-126242779D01*
X119559139Y-126255687D01*
X119592182Y-126273307D01*
X119618233Y-126293900D01*
X119639722Y-126318523D01*
X119668424Y-126378476D01*
X119678994Y-126459532D01*
X119678994Y-126572830D01*
X119562324Y-126532818D01*
X119433551Y-126513356D01*
X119387093Y-126511922D01*
X119318013Y-126514821D01*
X119254149Y-126523389D01*
X119198058Y-126536744D01*
X119147203Y-126554961D01*
X119103821Y-126576684D01*
X119065577Y-126602520D01*
X119033969Y-126630951D01*
X119007400Y-126662884D01*
X118986546Y-126697184D01*
X118970768Y-126734557D01*
X118955057Y-126817769D01*
X118954636Y-126833132D01*
X118954508Y-126837803D01*
X118104451Y-126837803D01*
X118104451Y-126506060D01*
X118675613Y-126506060D01*
X118675613Y-126319214D01*
X118104451Y-126319214D01*
X118104451Y-125866938D01*
X118971727Y-125866938D01*
X118971727Y-125673681D01*
X121305468Y-125673681D01*
X121305468Y-127145000D01*
X121515486Y-127145000D01*
X121515486Y-126078147D01*
X121674488Y-126078147D01*
X121674488Y-126254551D01*
X121901268Y-126254551D01*
X121901268Y-126879569D01*
X121904186Y-126929592D01*
X121912893Y-126974850D01*
X121926131Y-127012658D01*
X121944260Y-127046283D01*
X121966238Y-127074637D01*
X121992626Y-127099079D01*
X122058904Y-127136324D01*
X122146985Y-127158060D01*
X122220462Y-127162585D01*
X122345290Y-127151323D01*
X122420039Y-127133276D01*
X122420039Y-126956963D01*
X122368135Y-126972236D01*
X122317033Y-126980083D01*
X122266716Y-126982059D01*
X122219505Y-126979039D01*
X122181454Y-126969625D01*
X122157683Y-126957428D01*
X122138952Y-126940717D01*
X122116586Y-126896582D01*
X122109179Y-126831575D01*
X122109179Y-126254551D01*
X122424161Y-126254551D01*
X122424161Y-126078147D01*
X122109179Y-126078147D01*
X122109179Y-125754830D01*
X121901268Y-125805205D01*
X121901268Y-126078147D01*
X121674488Y-126078147D01*
X121515486Y-126078147D01*
X121515486Y-125633838D01*
X121305468Y-125673681D01*
X118971727Y-125673681D01*
X117883900Y-125673681D01*
X117883900Y-127145000D01*
X117717233Y-127145000D01*
X117717233Y-125467171D01*
X122590828Y-125467171D01*
X122590828Y-127335114D01*
G37*
D11*
X86714700Y-71548178D02*
X86714700Y-70405321D01*
X86714700Y-82548178D02*
X86714700Y-81405321D01*
X87286128Y-81976749D02*
X86143271Y-81976749D01*
D12*
%TO.C,D4*%
X102177500Y-70365000D02*
X102177500Y-71835000D01*
X102177500Y-71835000D02*
X104462500Y-71835000D01*
X104462500Y-70365000D02*
X102177500Y-70365000D01*
%TO.C,J6*%
X111865000Y-65810000D02*
X111865000Y-67510000D01*
X111865000Y-67510000D02*
X114215000Y-67510000D01*
X125735000Y-67510000D02*
X125735000Y-69450000D01*
X126165000Y-60340000D02*
X113785000Y-60340000D01*
X128085000Y-65810000D02*
X128085000Y-67510000D01*
X128085000Y-67510000D02*
X125735000Y-67510000D01*
%TO.C,D19*%
X85586842Y-85942000D02*
X87546842Y-85942000D01*
X85586842Y-87142000D02*
X87546842Y-87142000D01*
X87546842Y-87142000D02*
X87546842Y-85942000D01*
%TO.C,R64*%
X137927500Y-65980242D02*
X137927500Y-66454758D01*
X138972500Y-65980242D02*
X138972500Y-66454758D01*
%TO.C,R56*%
X132103641Y-81740000D02*
X131796359Y-81740000D01*
X132103641Y-82500000D02*
X131796359Y-82500000D01*
%TO.C,C6*%
X94390000Y-76068748D02*
X94390000Y-76591252D01*
X95860000Y-76068748D02*
X95860000Y-76591252D01*
%TO.C,TP5*%
X85881842Y-108370000D02*
X87281842Y-108370000D01*
X85881842Y-109770000D02*
X85881842Y-108370000D01*
X87281842Y-108370000D02*
X87281842Y-109770000D01*
X87281842Y-109770000D02*
X85881842Y-109770000D01*
%TO.C,R50*%
X120370000Y-111253641D02*
X120370000Y-110946359D01*
X121130000Y-111253641D02*
X121130000Y-110946359D01*
%TO.C,R24*%
X121111359Y-89720000D02*
X121418641Y-89720000D01*
X121111359Y-90480000D02*
X121418641Y-90480000D01*
%TO.C,D13*%
X133550000Y-67947500D02*
X133550000Y-65287500D01*
X133550000Y-67947500D02*
X135250000Y-67947500D01*
X135250000Y-67947500D02*
X135250000Y-65287500D01*
%TO.C,R16*%
X121111359Y-72320000D02*
X121418641Y-72320000D01*
X121111359Y-73080000D02*
X121418641Y-73080000D01*
%TO.C,R23*%
X115565000Y-90327064D02*
X115565000Y-88872936D01*
X117385000Y-90327064D02*
X117385000Y-88872936D01*
%TO.C,C39*%
X129740000Y-118287836D02*
X129740000Y-118072164D01*
X130460000Y-118287836D02*
X130460000Y-118072164D01*
%TO.C,U4*%
X91215000Y-71090000D02*
X91265000Y-71090000D01*
X91215000Y-72910000D02*
X91215000Y-71090000D01*
X91265000Y-72910000D02*
X91215000Y-72910000D01*
X92385000Y-71090000D02*
X93165000Y-71090000D01*
X94285000Y-71090000D02*
X94335000Y-71090000D01*
X94335000Y-71090000D02*
X94335000Y-72910000D01*
X94335000Y-72910000D02*
X94285000Y-72910000D01*
X91265000Y-73450000D02*
X90935000Y-73690000D01*
X90935000Y-73210000D01*
X91265000Y-73450000D01*
G36*
X91265000Y-73450000D02*
G01*
X90935000Y-73690000D01*
X90935000Y-73210000D01*
X91265000Y-73450000D01*
G37*
%TO.C,D12*%
X133550000Y-84460000D02*
X133550000Y-81800000D01*
X133550000Y-84460000D02*
X135250000Y-84460000D01*
X135250000Y-84460000D02*
X135250000Y-81800000D01*
%TO.C,R74*%
X90505000Y-127891359D02*
X90505000Y-128198641D01*
X91265000Y-127891359D02*
X91265000Y-128198641D01*
%TO.C,J5*%
X91365000Y-65810000D02*
X91365000Y-67510000D01*
X91365000Y-67510000D02*
X93715000Y-67510000D01*
X105235000Y-67510000D02*
X105235000Y-69450000D01*
X105665000Y-60340000D02*
X93285000Y-60340000D01*
X107585000Y-65810000D02*
X107585000Y-67510000D01*
X107585000Y-67510000D02*
X105235000Y-67510000D01*
%TO.C,R10*%
X90602500Y-76347258D02*
X90602500Y-75872742D01*
X91647500Y-76347258D02*
X91647500Y-75872742D01*
%TO.C,C7*%
X106263748Y-73815000D02*
X106786252Y-73815000D01*
X106263748Y-75285000D02*
X106786252Y-75285000D01*
%TO.C,R55*%
X131127500Y-86412742D02*
X131127500Y-86887258D01*
X132172500Y-86412742D02*
X132172500Y-86887258D01*
%TO.C,C27*%
X92170222Y-120940000D02*
X93592726Y-120940000D01*
X92170222Y-122760000D02*
X93592726Y-122760000D01*
%TO.C,D6*%
X122677500Y-87765000D02*
X122677500Y-89235000D01*
X122677500Y-89235000D02*
X124962500Y-89235000D01*
X124962500Y-87765000D02*
X122677500Y-87765000D01*
%TO.C,C57*%
X124690000Y-114407836D02*
X124690000Y-114192164D01*
X125410000Y-114407836D02*
X125410000Y-114192164D01*
%TO.C,C25*%
X82584664Y-96796000D02*
X82800336Y-96796000D01*
X82584664Y-97516000D02*
X82800336Y-97516000D01*
%TO.C,R48*%
X93437742Y-112677500D02*
X93912258Y-112677500D01*
X93437742Y-113722500D02*
X93912258Y-113722500D01*
%TO.C,R21*%
X112902500Y-80187258D02*
X112902500Y-79712742D01*
X113947500Y-80187258D02*
X113947500Y-79712742D01*
%TO.C,J9*%
X73770000Y-96766000D02*
X73770000Y-102696000D01*
X76590000Y-95496000D02*
X78040000Y-95496000D01*
X76590000Y-103966000D02*
X78040000Y-103966000D01*
X78040000Y-95496000D02*
X78040000Y-97296000D01*
X78040000Y-97296000D02*
X79030000Y-97296000D01*
X78040000Y-103966000D02*
X78040000Y-102166000D01*
%TO.C,R34*%
X90602500Y-93747258D02*
X90602500Y-93272742D01*
X91647500Y-93747258D02*
X91647500Y-93272742D01*
%TO.C,R47*%
X135953641Y-123420000D02*
X135646359Y-123420000D01*
X135953641Y-124180000D02*
X135646359Y-124180000D01*
%TO.C,C38*%
X128640000Y-118287836D02*
X128640000Y-118072164D01*
X129360000Y-118287836D02*
X129360000Y-118072164D01*
%TO.C,U2*%
X82182500Y-118265000D02*
X85402500Y-118265000D01*
X82182500Y-118490000D02*
X82182500Y-118265000D01*
X82182500Y-121485000D02*
X82182500Y-121260000D01*
X85402500Y-118265000D02*
X85402500Y-118490000D01*
X85402500Y-121260000D02*
X85402500Y-121485000D01*
X85402500Y-121485000D02*
X82182500Y-121485000D01*
X86262500Y-121095000D02*
X85932500Y-120855000D01*
X86262500Y-120615000D01*
X86262500Y-121095000D01*
G36*
X86262500Y-121095000D02*
G01*
X85932500Y-120855000D01*
X86262500Y-120615000D01*
X86262500Y-121095000D01*
G37*
%TO.C,TP2*%
X126025000Y-70700000D02*
X128425000Y-70700000D01*
X126025000Y-73100000D02*
X126025000Y-70700000D01*
X128425000Y-70700000D02*
X128425000Y-73100000D01*
X128425000Y-73100000D02*
X126025000Y-73100000D01*
%TO.C,R67*%
X139070000Y-68968859D02*
X139070000Y-69276141D01*
X139830000Y-68968859D02*
X139830000Y-69276141D01*
%TO.C,R53*%
X139070000Y-85481359D02*
X139070000Y-85788641D01*
X139830000Y-85481359D02*
X139830000Y-85788641D01*
%TO.C,C14*%
X118563748Y-93715000D02*
X119086252Y-93715000D01*
X118563748Y-95185000D02*
X119086252Y-95185000D01*
%TO.C,C21*%
X94390000Y-93468748D02*
X94390000Y-93991252D01*
X95860000Y-93468748D02*
X95860000Y-93991252D01*
%TO.C,U8*%
X111715000Y-88490000D02*
X111765000Y-88490000D01*
X111715000Y-90310000D02*
X111715000Y-88490000D01*
X111765000Y-90310000D02*
X111715000Y-90310000D01*
X112885000Y-88490000D02*
X113665000Y-88490000D01*
X114785000Y-88490000D02*
X114835000Y-88490000D01*
X114835000Y-88490000D02*
X114835000Y-90310000D01*
X114835000Y-90310000D02*
X114785000Y-90310000D01*
X111765000Y-90850000D02*
X111435000Y-91090000D01*
X111435000Y-90610000D01*
X111765000Y-90850000D01*
G36*
X111765000Y-90850000D02*
G01*
X111435000Y-91090000D01*
X111435000Y-90610000D01*
X111765000Y-90850000D01*
G37*
%TO.C,D11*%
X120016474Y-112515000D02*
X120016474Y-114800000D01*
X121486474Y-112515000D02*
X120016474Y-112515000D01*
X121486474Y-114800000D02*
X121486474Y-112515000D01*
%TO.C,C15*%
X116338748Y-100290000D02*
X117761252Y-100290000D01*
X116338748Y-102110000D02*
X117761252Y-102110000D01*
%TO.C,U3*%
X95640000Y-78740000D02*
X97460000Y-78740000D01*
X95640000Y-78790000D02*
X95640000Y-78740000D01*
X95640000Y-81860000D02*
X95640000Y-81810000D01*
X97460000Y-78740000D02*
X97460000Y-78790000D01*
X97460000Y-81810000D02*
X97460000Y-81860000D01*
X97460000Y-81860000D02*
X95640000Y-81860000D01*
X95100000Y-78790000D02*
X94860000Y-78460000D01*
X95340000Y-78460000D01*
X95100000Y-78790000D01*
G36*
X95100000Y-78790000D02*
G01*
X94860000Y-78460000D01*
X95340000Y-78460000D01*
X95100000Y-78790000D01*
G37*
%TO.C,R49*%
X80900000Y-95142141D02*
X80900000Y-94834859D01*
X81660000Y-95142141D02*
X81660000Y-94834859D01*
%TO.C,C1*%
X82972164Y-108240000D02*
X83187836Y-108240000D01*
X82972164Y-108960000D02*
X83187836Y-108960000D01*
%TO.C,R61*%
X132103641Y-65227500D02*
X131796359Y-65227500D01*
X132103641Y-65987500D02*
X131796359Y-65987500D01*
%TO.C,R54*%
X137927500Y-82492742D02*
X137927500Y-82967258D01*
X138972500Y-82492742D02*
X138972500Y-82967258D01*
%TO.C,R6*%
X80900000Y-115386141D02*
X80900000Y-115078859D01*
X81660000Y-115386141D02*
X81660000Y-115078859D01*
%TO.C,C18*%
X123586252Y-91215000D02*
X123063748Y-91215000D01*
X123586252Y-92685000D02*
X123063748Y-92685000D01*
%TO.C,R4*%
X80140000Y-110136359D02*
X80140000Y-110443641D01*
X80900000Y-110136359D02*
X80900000Y-110443641D01*
%TO.C,R58*%
X137327500Y-87347258D02*
X137327500Y-86872742D01*
X138372500Y-87347258D02*
X138372500Y-86872742D01*
%TO.C,C2*%
X82584664Y-117040000D02*
X82800336Y-117040000D01*
X82584664Y-117760000D02*
X82800336Y-117760000D01*
%TO.C,D9*%
X79886842Y-99596000D02*
X80086842Y-99596000D01*
%TO.C,R29*%
X112902500Y-97587258D02*
X112902500Y-97112742D01*
X113947500Y-97587258D02*
X113947500Y-97112742D01*
%TO.C,R18*%
X111102500Y-76347258D02*
X111102500Y-75872742D01*
X112147500Y-76347258D02*
X112147500Y-75872742D01*
%TO.C,C45*%
X86975000Y-130204420D02*
X86975000Y-130485580D01*
X87995000Y-130204420D02*
X87995000Y-130485580D01*
%TO.C,R60*%
X138203641Y-90980000D02*
X137896359Y-90980000D01*
X138203641Y-91740000D02*
X137896359Y-91740000D01*
%TO.C,C44*%
X103972836Y-128940000D02*
X103757164Y-128940000D01*
X103972836Y-129660000D02*
X103757164Y-129660000D01*
%TO.C,D20*%
X118952500Y-127665000D02*
X118952500Y-129135000D01*
X118952500Y-129135000D02*
X121237500Y-129135000D01*
X121237500Y-127665000D02*
X118952500Y-127665000D01*
%TO.C,U7*%
X116140000Y-96140000D02*
X117960000Y-96140000D01*
X116140000Y-96190000D02*
X116140000Y-96140000D01*
X116140000Y-99260000D02*
X116140000Y-99210000D01*
X117960000Y-96140000D02*
X117960000Y-96190000D01*
X117960000Y-99210000D02*
X117960000Y-99260000D01*
X117960000Y-99260000D02*
X116140000Y-99260000D01*
X115600000Y-96190000D02*
X115360000Y-95860000D01*
X115840000Y-95860000D01*
X115600000Y-96190000D01*
G36*
X115600000Y-96190000D02*
G01*
X115360000Y-95860000D01*
X115840000Y-95860000D01*
X115600000Y-96190000D01*
G37*
%TO.C,J4*%
X137940000Y-77700000D02*
X136660000Y-77700000D01*
X137940000Y-78300000D02*
X136660000Y-78300000D01*
X139750000Y-75400000D02*
X140350000Y-75400000D01*
X140050000Y-76000000D02*
X139750000Y-75400000D01*
X140350000Y-75400000D02*
X140050000Y-76000000D01*
X141040000Y-70190000D02*
X141040000Y-76000000D01*
X141040000Y-85810000D02*
X141040000Y-80000000D01*
X147460000Y-70190000D02*
X141040000Y-70190000D01*
X147460000Y-75190000D02*
X147460000Y-70190000D01*
X147460000Y-80810000D02*
X147460000Y-85810000D01*
X147460000Y-85810000D02*
X141040000Y-85810000D01*
X154060000Y-75190000D02*
X147460000Y-75190000D01*
X154060000Y-78000000D02*
X154060000Y-75190000D01*
X154060000Y-78000000D02*
X154060000Y-80810000D01*
X154060000Y-80810000D02*
X147460000Y-80810000D01*
%TO.C,F5*%
X97565000Y-88997936D02*
X97565000Y-90202064D01*
X99385000Y-88997936D02*
X99385000Y-90202064D01*
%TO.C,TP6*%
X131250000Y-83250000D02*
X132650000Y-83250000D01*
X131250000Y-84650000D02*
X131250000Y-83250000D01*
X132650000Y-83250000D02*
X132650000Y-84650000D01*
X132650000Y-84650000D02*
X131250000Y-84650000D01*
%TO.C,TP7*%
X131250000Y-66737500D02*
X132650000Y-66737500D01*
X131250000Y-68137500D02*
X131250000Y-66737500D01*
X132650000Y-66737500D02*
X132650000Y-68137500D01*
X132650000Y-68137500D02*
X131250000Y-68137500D01*
%TO.C,J10*%
X137890000Y-112600000D02*
X136610000Y-112600000D01*
X137890000Y-113200000D02*
X136610000Y-113200000D01*
X137890000Y-116800000D02*
X136610000Y-116800000D01*
X137890000Y-117400000D02*
X136610000Y-117400000D01*
X139700000Y-110300000D02*
X140300000Y-110300000D01*
X140000000Y-110900000D02*
X139700000Y-110300000D01*
X140300000Y-110300000D02*
X140000000Y-110900000D01*
X140990000Y-105090000D02*
X140990000Y-110900000D01*
X140990000Y-124910000D02*
X140990000Y-119100000D01*
X141000000Y-114510000D02*
X141000000Y-115490000D01*
X147410000Y-105090000D02*
X140990000Y-105090000D01*
X147410000Y-110090000D02*
X147410000Y-105090000D01*
X147410000Y-119910000D02*
X147410000Y-124910000D01*
X147410000Y-124910000D02*
X140990000Y-124910000D01*
X154010000Y-110090000D02*
X147410000Y-110090000D01*
X154010000Y-115000000D02*
X154010000Y-110090000D01*
X154010000Y-115000000D02*
X154010000Y-119910000D01*
X154010000Y-119910000D02*
X147410000Y-119910000D01*
%TO.C,C17*%
X126763748Y-91215000D02*
X127286252Y-91215000D01*
X126763748Y-92685000D02*
X127286252Y-92685000D01*
%TO.C,C29*%
X93440000Y-109538748D02*
X93440000Y-110061252D01*
X94910000Y-109538748D02*
X94910000Y-110061252D01*
%TO.C,C11*%
X114890000Y-76068748D02*
X114890000Y-76591252D01*
X116360000Y-76068748D02*
X116360000Y-76591252D01*
%TO.C,C34*%
X135210000Y-73696920D02*
X135210000Y-73978080D01*
X136230000Y-73696920D02*
X136230000Y-73978080D01*
%TO.C,R14*%
X90602500Y-79712742D02*
X90602500Y-80187258D01*
X91647500Y-79712742D02*
X91647500Y-80187258D01*
%TO.C,R13*%
X92402500Y-80187258D02*
X92402500Y-79712742D01*
X93447500Y-80187258D02*
X93447500Y-79712742D01*
%TO.C,C16*%
X114890000Y-93468748D02*
X114890000Y-93991252D01*
X116360000Y-93468748D02*
X116360000Y-93991252D01*
%TO.C,R51*%
X120228974Y-120837258D02*
X120228974Y-120362742D01*
X121273974Y-120837258D02*
X121273974Y-120362742D01*
%TO.C,C9*%
X118563748Y-76315000D02*
X119086252Y-76315000D01*
X118563748Y-77785000D02*
X119086252Y-77785000D01*
%TO.C,Q1*%
X82370000Y-109440000D02*
X84190000Y-109440000D01*
X82370000Y-109490000D02*
X82370000Y-109440000D01*
X82370000Y-111390000D02*
X82370000Y-110610000D01*
X82370000Y-112560000D02*
X82370000Y-112510000D01*
X84190000Y-109440000D02*
X84190000Y-110440000D01*
X84190000Y-111560000D02*
X84190000Y-112560000D01*
X84190000Y-112560000D02*
X82370000Y-112560000D01*
X82070000Y-110950000D02*
X81590000Y-110950000D01*
X81830000Y-110620000D01*
X82070000Y-110950000D01*
G36*
X82070000Y-110950000D02*
G01*
X81590000Y-110950000D01*
X81830000Y-110620000D01*
X82070000Y-110950000D01*
G37*
%TO.C,R9*%
X92402500Y-75872742D02*
X92402500Y-76347258D01*
X93447500Y-75872742D02*
X93447500Y-76347258D01*
%TO.C,U1*%
X124490000Y-121090000D02*
X124965000Y-121090000D01*
X124490000Y-121565000D02*
X124490000Y-121090000D01*
X124490000Y-128310000D02*
X124490000Y-127835000D01*
X124965000Y-128310000D02*
X124490000Y-128310000D01*
X131235000Y-121090000D02*
X131710000Y-121090000D01*
X131710000Y-121090000D02*
X131710000Y-121565000D01*
X131710000Y-127835000D02*
X131710000Y-128310000D01*
X131710000Y-128310000D02*
X131235000Y-128310000D01*
X130850000Y-120560000D02*
X130610000Y-120230000D01*
X131090000Y-120230000D01*
X130850000Y-120560000D01*
G36*
X130850000Y-120560000D02*
G01*
X130610000Y-120230000D01*
X131090000Y-120230000D01*
X130850000Y-120560000D01*
G37*
%TO.C,R33*%
X92402500Y-93272742D02*
X92402500Y-93747258D01*
X93447500Y-93272742D02*
X93447500Y-93747258D01*
%TO.C,C36*%
X133270000Y-73696920D02*
X133270000Y-73978080D01*
X134290000Y-73696920D02*
X134290000Y-73978080D01*
%TO.C,D1*%
X79886842Y-118590000D02*
X80086842Y-118590000D01*
%TO.C,R30*%
X111102500Y-97112742D02*
X111102500Y-97587258D01*
X112147500Y-97112742D02*
X112147500Y-97587258D01*
%TO.C,C30*%
X136140000Y-82870580D02*
X136140000Y-82589420D01*
X137160000Y-82870580D02*
X137160000Y-82589420D01*
%TO.C,R17*%
X112902500Y-75872742D02*
X112902500Y-76347258D01*
X113947500Y-75872742D02*
X113947500Y-76347258D01*
%TO.C,R59*%
X138362742Y-89212500D02*
X138837258Y-89212500D01*
X138362742Y-90257500D02*
X138837258Y-90257500D01*
%TO.C,R62*%
X137327500Y-70834758D02*
X137327500Y-70360242D01*
X138372500Y-70834758D02*
X138372500Y-70360242D01*
%TO.C,R70*%
X97096359Y-125990000D02*
X97403641Y-125990000D01*
X97096359Y-126750000D02*
X97403641Y-126750000D01*
%TO.C,TP9*%
X92900000Y-131230000D02*
X94300000Y-131230000D01*
X92900000Y-132630000D02*
X92900000Y-131230000D01*
X94300000Y-131230000D02*
X94300000Y-132630000D01*
X94300000Y-132630000D02*
X92900000Y-132630000D01*
%TO.C,R44*%
X90920000Y-112846359D02*
X90920000Y-113153641D01*
X91680000Y-112846359D02*
X91680000Y-113153641D01*
%TO.C,R39*%
X80826359Y-87976000D02*
X81133641Y-87976000D01*
X80826359Y-88736000D02*
X81133641Y-88736000D01*
%TO.C,R66*%
X138203641Y-74467500D02*
X137896359Y-74467500D01*
X138203641Y-75227500D02*
X137896359Y-75227500D01*
%TO.C,D14*%
X138010000Y-108850000D02*
X135350000Y-108850000D01*
X138010000Y-110550000D02*
X135350000Y-110550000D01*
X138010000Y-110550000D02*
X138010000Y-108850000D01*
%TO.C,C33*%
X136140000Y-66358080D02*
X136140000Y-66076920D01*
X137160000Y-66358080D02*
X137160000Y-66076920D01*
%TO.C,R46*%
X84718859Y-101776000D02*
X85026141Y-101776000D01*
X84718859Y-102536000D02*
X85026141Y-102536000D01*
%TO.C,F2*%
X97565000Y-71597936D02*
X97565000Y-72802064D01*
X99385000Y-71597936D02*
X99385000Y-72802064D01*
%TO.C,R12*%
X102918859Y-72320000D02*
X103226141Y-72320000D01*
X102918859Y-73080000D02*
X103226141Y-73080000D01*
%TO.C,C31*%
X135210000Y-90209420D02*
X135210000Y-90490580D01*
X136230000Y-90209420D02*
X136230000Y-90490580D01*
%TO.C,D2*%
X79886842Y-119840000D02*
X80086842Y-119840000D01*
%TO.C,C19*%
X98063748Y-93715000D02*
X98586252Y-93715000D01*
X98063748Y-95185000D02*
X98586252Y-95185000D01*
%TO.C,R77*%
X90163641Y-132320000D02*
X89856359Y-132320000D01*
X90163641Y-133080000D02*
X89856359Y-133080000D01*
%TO.C,L4*%
X101265000Y-100750000D02*
X101265000Y-95050000D01*
X101875000Y-94440000D02*
X102725000Y-94440000D01*
X102725000Y-101360000D02*
X101875000Y-101360000D01*
X106625000Y-94440000D02*
X107475000Y-94440000D01*
X107425000Y-101360000D02*
X106625000Y-101360000D01*
X108085000Y-95050000D02*
X108085000Y-100700000D01*
X101265000Y-95050000D02*
G75*
G02*
X101875000Y-94440000I610000J0D01*
G01*
X101875000Y-101360000D02*
G75*
G02*
X101265000Y-100750000I0J610000D01*
G01*
X107475000Y-94440000D02*
G75*
G02*
X108085000Y-95050000I0J-610000D01*
G01*
X108085000Y-100700000D02*
G75*
G02*
X107425000Y-101360000I-660002J2D01*
G01*
%TO.C,D18*%
X93612500Y-127105000D02*
X95897500Y-127105000D01*
X95897500Y-125635000D02*
X93612500Y-125635000D01*
X95897500Y-127105000D02*
X95897500Y-125635000D01*
%TO.C,R8*%
X100611359Y-72320000D02*
X100918641Y-72320000D01*
X100611359Y-73080000D02*
X100918641Y-73080000D01*
%TO.C,C42*%
X105225000Y-126987836D02*
X105225000Y-126772164D01*
X105945000Y-126987836D02*
X105945000Y-126772164D01*
%TO.C,U16*%
X95527500Y-127720000D02*
X97347500Y-127720000D01*
X95527500Y-127770000D02*
X95527500Y-127720000D01*
X95527500Y-130840000D02*
X95527500Y-130790000D01*
X97347500Y-127720000D02*
X97347500Y-127770000D01*
X97347500Y-128890000D02*
X97347500Y-129670000D01*
X97347500Y-130790000D02*
X97347500Y-130840000D01*
X97347500Y-130840000D02*
X95527500Y-130840000D01*
X94987500Y-127770000D02*
X94747500Y-127440000D01*
X95227500Y-127440000D01*
X94987500Y-127770000D01*
G36*
X94987500Y-127770000D02*
G01*
X94747500Y-127440000D01*
X95227500Y-127440000D01*
X94987500Y-127770000D01*
G37*
%TO.C,R1*%
X80826359Y-108220000D02*
X81133641Y-108220000D01*
X80826359Y-108980000D02*
X81133641Y-108980000D01*
%TO.C,R40*%
X82538859Y-101776000D02*
X82846141Y-101776000D01*
X82538859Y-102536000D02*
X82846141Y-102536000D01*
%TO.C,D3*%
X79045000Y-114412500D02*
X79045000Y-116697500D01*
X79045000Y-116697500D02*
X80515000Y-116697500D01*
X80515000Y-116697500D02*
X80515000Y-114412500D01*
%TO.C,D16*%
X108850000Y-66110000D02*
X108850000Y-63450000D01*
X108850000Y-66110000D02*
X110550000Y-66110000D01*
X110550000Y-66110000D02*
X110550000Y-63450000D01*
%TO.C,L3*%
X121765000Y-100750000D02*
X121765000Y-95050000D01*
X122375000Y-94440000D02*
X123225000Y-94440000D01*
X123225000Y-101360000D02*
X122375000Y-101360000D01*
X127125000Y-94440000D02*
X127975000Y-94440000D01*
X127925000Y-101360000D02*
X127125000Y-101360000D01*
X128585000Y-95050000D02*
X128585000Y-100700000D01*
X121765000Y-95050000D02*
G75*
G02*
X122375000Y-94440000I610000J0D01*
G01*
X122375000Y-101360000D02*
G75*
G02*
X121765000Y-100750000I0J610000D01*
G01*
X127975000Y-94440000D02*
G75*
G02*
X128585000Y-95050000I0J-610000D01*
G01*
X128585000Y-100700000D02*
G75*
G02*
X127925000Y-101360000I-660002J2D01*
G01*
%TO.C,R69*%
X135953641Y-122420000D02*
X135646359Y-122420000D01*
X135953641Y-123180000D02*
X135646359Y-123180000D01*
%TO.C,C23*%
X106263748Y-91215000D02*
X106786252Y-91215000D01*
X106263748Y-92685000D02*
X106786252Y-92685000D01*
%TO.C,F1*%
X81727936Y-105865000D02*
X82932064Y-105865000D01*
X81727936Y-107685000D02*
X82932064Y-107685000D01*
%TO.C,D7*%
X102177500Y-87765000D02*
X102177500Y-89235000D01*
X102177500Y-89235000D02*
X104462500Y-89235000D01*
X104462500Y-87765000D02*
X102177500Y-87765000D01*
%TO.C,U11*%
X82182500Y-98021000D02*
X85402500Y-98021000D01*
X82182500Y-98246000D02*
X82182500Y-98021000D01*
X82182500Y-101241000D02*
X82182500Y-101016000D01*
X85402500Y-98021000D02*
X85402500Y-98246000D01*
X85402500Y-101016000D02*
X85402500Y-101241000D01*
X85402500Y-101241000D02*
X82182500Y-101241000D01*
X86262500Y-100851000D02*
X85932500Y-100611000D01*
X86262500Y-100371000D01*
X86262500Y-100851000D01*
G36*
X86262500Y-100851000D02*
G01*
X85932500Y-100611000D01*
X86262500Y-100371000D01*
X86262500Y-100851000D01*
G37*
%TO.C,Q2*%
X82370000Y-89196000D02*
X84190000Y-89196000D01*
X82370000Y-89246000D02*
X82370000Y-89196000D01*
X82370000Y-91146000D02*
X82370000Y-90366000D01*
X82370000Y-92316000D02*
X82370000Y-92266000D01*
X84190000Y-89196000D02*
X84190000Y-90196000D01*
X84190000Y-91316000D02*
X84190000Y-92316000D01*
X84190000Y-92316000D02*
X82370000Y-92316000D01*
X82070000Y-90706000D02*
X81590000Y-90706000D01*
X81830000Y-90376000D01*
X82070000Y-90706000D01*
G36*
X82070000Y-90706000D02*
G01*
X81590000Y-90706000D01*
X81830000Y-90376000D01*
X82070000Y-90706000D01*
G37*
%TO.C,L2*%
X121765000Y-83350000D02*
X121765000Y-77650000D01*
X122375000Y-77040000D02*
X123225000Y-77040000D01*
X123225000Y-83960000D02*
X122375000Y-83960000D01*
X127125000Y-77040000D02*
X127975000Y-77040000D01*
X127925000Y-83960000D02*
X127125000Y-83960000D01*
X128585000Y-77650000D02*
X128585000Y-83300000D01*
X121765000Y-77650000D02*
G75*
G02*
X122375000Y-77040000I610000J0D01*
G01*
X122375000Y-83960000D02*
G75*
G02*
X121765000Y-83350000I0J610000D01*
G01*
X127975000Y-77040000D02*
G75*
G02*
X128585000Y-77650000I0J-610000D01*
G01*
X128585000Y-83300000D02*
G75*
G02*
X127925000Y-83960000I-660002J2D01*
G01*
%TO.C,U5*%
X116140000Y-78740000D02*
X117960000Y-78740000D01*
X116140000Y-78790000D02*
X116140000Y-78740000D01*
X116140000Y-81860000D02*
X116140000Y-81810000D01*
X117960000Y-78740000D02*
X117960000Y-78790000D01*
X117960000Y-81810000D02*
X117960000Y-81860000D01*
X117960000Y-81860000D02*
X116140000Y-81860000D01*
X115600000Y-78790000D02*
X115360000Y-78460000D01*
X115840000Y-78460000D01*
X115600000Y-78790000D01*
G36*
X115600000Y-78790000D02*
G01*
X115360000Y-78460000D01*
X115840000Y-78460000D01*
X115600000Y-78790000D01*
G37*
%TO.C,C37*%
X133270000Y-90209420D02*
X133270000Y-90490580D01*
X134290000Y-90209420D02*
X134290000Y-90490580D01*
%TO.C,R19*%
X121393641Y-71020000D02*
X121086359Y-71020000D01*
X121393641Y-71780000D02*
X121086359Y-71780000D01*
%TO.C,D8*%
X79886842Y-98346000D02*
X80086842Y-98346000D01*
%TO.C,R65*%
X139070000Y-70993859D02*
X139070000Y-71301141D01*
X139830000Y-70993859D02*
X139830000Y-71301141D01*
%TO.C,U18*%
X89385000Y-129390000D02*
X90685000Y-129390000D01*
X89385000Y-131710000D02*
X90435000Y-131710000D01*
X90795000Y-131990000D02*
X90795000Y-131710000D01*
X91075000Y-131710000D01*
X90795000Y-131990000D01*
G36*
X90795000Y-131990000D02*
G01*
X90795000Y-131710000D01*
X91075000Y-131710000D01*
X90795000Y-131990000D01*
G37*
%TO.C,R15*%
X115565000Y-72927064D02*
X115565000Y-71472936D01*
X117385000Y-72927064D02*
X117385000Y-71472936D01*
%TO.C,C4*%
X98063748Y-76315000D02*
X98586252Y-76315000D01*
X98063748Y-77785000D02*
X98586252Y-77785000D01*
%TO.C,J2*%
X73770000Y-107410000D02*
X73770000Y-113340000D01*
X76590000Y-106140000D02*
X78040000Y-106140000D01*
X76590000Y-114610000D02*
X78040000Y-114610000D01*
X78040000Y-106140000D02*
X78040000Y-107940000D01*
X78040000Y-107940000D02*
X79030000Y-107940000D01*
X78040000Y-114610000D02*
X78040000Y-112810000D01*
%TO.C,C12*%
X123586252Y-73815000D02*
X123063748Y-73815000D01*
X123586252Y-75285000D02*
X123063748Y-75285000D01*
%TO.C,F3*%
X118065000Y-71597936D02*
X118065000Y-72802064D01*
X119885000Y-71597936D02*
X119885000Y-72802064D01*
%TO.C,R31*%
X95065000Y-90327064D02*
X95065000Y-88872936D01*
X96885000Y-90327064D02*
X96885000Y-88872936D01*
%TO.C,U14*%
X133500000Y-85540000D02*
X133940000Y-85540000D01*
X136000000Y-85540000D02*
X135560000Y-85540000D01*
X136000000Y-87760000D02*
X135560000Y-87760000D01*
X133940000Y-88040000D02*
X133660000Y-87760000D01*
X133940000Y-87760000D01*
X133940000Y-88040000D01*
G36*
X133940000Y-88040000D02*
G01*
X133660000Y-87760000D01*
X133940000Y-87760000D01*
X133940000Y-88040000D01*
G37*
%TO.C,C10*%
X116338748Y-82890000D02*
X117761252Y-82890000D01*
X116338748Y-84710000D02*
X117761252Y-84710000D01*
%TO.C,R22*%
X111102500Y-79712742D02*
X111102500Y-80187258D01*
X112147500Y-79712742D02*
X112147500Y-80187258D01*
%TO.C,C40*%
X92820000Y-128989420D02*
X92820000Y-129270580D01*
X93840000Y-128989420D02*
X93840000Y-129270580D01*
%TO.C,U6*%
X111715000Y-71090000D02*
X111765000Y-71090000D01*
X111715000Y-72910000D02*
X111715000Y-71090000D01*
X111765000Y-72910000D02*
X111715000Y-72910000D01*
X112885000Y-71090000D02*
X113665000Y-71090000D01*
X114785000Y-71090000D02*
X114835000Y-71090000D01*
X114835000Y-71090000D02*
X114835000Y-72910000D01*
X114835000Y-72910000D02*
X114785000Y-72910000D01*
X111765000Y-73450000D02*
X111435000Y-73690000D01*
X111435000Y-73210000D01*
X111765000Y-73450000D01*
G36*
X111765000Y-73450000D02*
G01*
X111435000Y-73690000D01*
X111435000Y-73210000D01*
X111765000Y-73450000D01*
G37*
%TO.C,C46*%
X106325000Y-126987836D02*
X106325000Y-126772164D01*
X107045000Y-126987836D02*
X107045000Y-126772164D01*
%TO.C,C24*%
X82972164Y-87996000D02*
X83187836Y-87996000D01*
X82972164Y-88716000D02*
X83187836Y-88716000D01*
%TO.C,R25*%
X112902500Y-93272742D02*
X112902500Y-93747258D01*
X113947500Y-93272742D02*
X113947500Y-93747258D01*
%TO.C,C13*%
X126763748Y-73815000D02*
X127286252Y-73815000D01*
X126763748Y-75285000D02*
X127286252Y-75285000D01*
%TO.C,R73*%
X103701359Y-130020000D02*
X104008641Y-130020000D01*
X103701359Y-130780000D02*
X104008641Y-130780000D01*
%TO.C,D15*%
X88550000Y-66537500D02*
X88550000Y-63877500D01*
X88550000Y-66537500D02*
X90250000Y-66537500D01*
X90250000Y-66537500D02*
X90250000Y-63877500D01*
%TO.C,R45*%
X80140000Y-89892359D02*
X80140000Y-90199641D01*
X80900000Y-89892359D02*
X80900000Y-90199641D01*
%TO.C,J3*%
X137940000Y-95150000D02*
X136660000Y-95150000D01*
X137940000Y-95750000D02*
X136660000Y-95750000D01*
X139750000Y-92850000D02*
X140350000Y-92850000D01*
X140050000Y-93450000D02*
X139750000Y-92850000D01*
X140350000Y-92850000D02*
X140050000Y-93450000D01*
X141040000Y-87640000D02*
X141040000Y-93450000D01*
X141040000Y-103260000D02*
X141040000Y-97450000D01*
X147460000Y-87640000D02*
X141040000Y-87640000D01*
X147460000Y-92640000D02*
X147460000Y-87640000D01*
X147460000Y-98260000D02*
X147460000Y-103260000D01*
X147460000Y-103260000D02*
X141040000Y-103260000D01*
X154060000Y-92640000D02*
X147460000Y-92640000D01*
X154060000Y-95450000D02*
X154060000Y-92640000D01*
X154060000Y-95450000D02*
X154060000Y-98260000D01*
X154060000Y-98260000D02*
X147460000Y-98260000D01*
%TO.C,F4*%
X118065000Y-88997936D02*
X118065000Y-90202064D01*
X119885000Y-88997936D02*
X119885000Y-90202064D01*
%TO.C,J8*%
X125040000Y-134480000D02*
X125040000Y-133100000D01*
X126420000Y-134480000D02*
X125040000Y-134480000D01*
X127690000Y-131720000D02*
X137960000Y-131720000D01*
X127690000Y-134480000D02*
X127690000Y-131720000D01*
X127690000Y-134480000D02*
X137960000Y-134480000D01*
X137960000Y-134480000D02*
X137960000Y-131720000D01*
%TO.C,U15*%
X133500000Y-69027500D02*
X133940000Y-69027500D01*
X136000000Y-69027500D02*
X135560000Y-69027500D01*
X136000000Y-71247500D02*
X135560000Y-71247500D01*
X133940000Y-71527500D02*
X133660000Y-71247500D01*
X133940000Y-71247500D01*
X133940000Y-71527500D01*
G36*
X133940000Y-71527500D02*
G01*
X133660000Y-71247500D01*
X133940000Y-71247500D01*
X133940000Y-71527500D01*
G37*
%TO.C,D5*%
X122677500Y-70365000D02*
X122677500Y-71835000D01*
X122677500Y-71835000D02*
X124962500Y-71835000D01*
X124962500Y-70365000D02*
X122677500Y-70365000D01*
%TO.C,C43*%
X87650580Y-127335000D02*
X87369420Y-127335000D01*
X87650580Y-128355000D02*
X87369420Y-128355000D01*
%TO.C,U17*%
X105732500Y-128740000D02*
X106207500Y-128740000D01*
X105732500Y-129215000D02*
X105732500Y-128740000D01*
X105732500Y-131960000D02*
X105732500Y-131485000D01*
X106207500Y-131960000D02*
X105732500Y-131960000D01*
X108477500Y-128740000D02*
X108952500Y-128740000D01*
X108952500Y-128740000D02*
X108952500Y-129215000D01*
X108952500Y-131485000D02*
X108952500Y-131960000D01*
X108952500Y-131960000D02*
X108477500Y-131960000D01*
X109812500Y-131340000D02*
X109482500Y-131100000D01*
X109812500Y-130860000D01*
X109812500Y-131340000D01*
G36*
X109812500Y-131340000D02*
G01*
X109482500Y-131100000D01*
X109812500Y-130860000D01*
X109812500Y-131340000D01*
G37*
%TO.C,R43*%
X120228974Y-108312258D02*
X120228974Y-107837742D01*
X121273974Y-108312258D02*
X121273974Y-107837742D01*
%TO.C,R3*%
X84600000Y-108916359D02*
X84600000Y-109223641D01*
X85360000Y-108916359D02*
X85360000Y-109223641D01*
%TO.C,TP3*%
X126025000Y-88100000D02*
X128425000Y-88100000D01*
X126025000Y-90500000D02*
X126025000Y-88100000D01*
X128425000Y-88100000D02*
X128425000Y-90500000D01*
X128425000Y-90500000D02*
X126025000Y-90500000D01*
%TO.C,C35*%
X131140000Y-73696920D02*
X131140000Y-73978080D01*
X132160000Y-73696920D02*
X132160000Y-73978080D01*
%TO.C,R35*%
X100893641Y-88420000D02*
X100586359Y-88420000D01*
X100893641Y-89180000D02*
X100586359Y-89180000D01*
%TO.C,L1*%
X101265000Y-83350000D02*
X101265000Y-77650000D01*
X101875000Y-77040000D02*
X102725000Y-77040000D01*
X102725000Y-83960000D02*
X101875000Y-83960000D01*
X106625000Y-77040000D02*
X107475000Y-77040000D01*
X107425000Y-83960000D02*
X106625000Y-83960000D01*
X108085000Y-77650000D02*
X108085000Y-83300000D01*
X101265000Y-77650000D02*
G75*
G02*
X101875000Y-77040000I610000J0D01*
G01*
X101875000Y-83960000D02*
G75*
G02*
X101265000Y-83350000I0J610000D01*
G01*
X107475000Y-77040000D02*
G75*
G02*
X108085000Y-77650000I0J-610000D01*
G01*
X108085000Y-83300000D02*
G75*
G02*
X107425000Y-83960000I-660002J2D01*
G01*
%TO.C,D17*%
X85586842Y-106186000D02*
X87546842Y-106186000D01*
X85586842Y-107386000D02*
X87546842Y-107386000D01*
X87546842Y-107386000D02*
X87546842Y-106186000D01*
%TO.C,C28*%
X93440000Y-105888748D02*
X93440000Y-106411252D01*
X94910000Y-105888748D02*
X94910000Y-106411252D01*
%TO.C,C55*%
X126742164Y-112540000D02*
X126957836Y-112540000D01*
X126742164Y-113260000D02*
X126957836Y-113260000D01*
%TO.C,R7*%
X95065000Y-72927064D02*
X95065000Y-71472936D01*
X96885000Y-72927064D02*
X96885000Y-71472936D01*
%TO.C,C20*%
X95838748Y-100290000D02*
X97261252Y-100290000D01*
X95838748Y-102110000D02*
X97261252Y-102110000D01*
%TO.C,J1*%
X73770000Y-117010000D02*
X73770000Y-122940000D01*
X76590000Y-115740000D02*
X78040000Y-115740000D01*
X76590000Y-124210000D02*
X78040000Y-124210000D01*
X78040000Y-115740000D02*
X78040000Y-117540000D01*
X78040000Y-117540000D02*
X79030000Y-117540000D01*
X78040000Y-124210000D02*
X78040000Y-122410000D01*
%TO.C,Y1*%
X125990000Y-116610000D02*
X128410000Y-116610000D01*
X128410000Y-116610000D02*
X128410000Y-113790000D01*
%TO.C,C22*%
X103086252Y-91215000D02*
X102563748Y-91215000D01*
X103086252Y-92685000D02*
X102563748Y-92685000D01*
%TO.C,U13*%
X91971474Y-117090000D02*
X93791474Y-117090000D01*
X91971474Y-117140000D02*
X91971474Y-117090000D01*
X91971474Y-119040000D02*
X91971474Y-118260000D01*
X91971474Y-120210000D02*
X91971474Y-120160000D01*
X93791474Y-117090000D02*
X93791474Y-117140000D01*
X93791474Y-120160000D02*
X93791474Y-120210000D01*
X93791474Y-120210000D02*
X91971474Y-120210000D01*
X94571474Y-120490000D02*
X94091474Y-120490000D01*
X94331474Y-120160000D01*
X94571474Y-120490000D01*
G36*
X94571474Y-120490000D02*
G01*
X94091474Y-120490000D01*
X94331474Y-120160000D01*
X94571474Y-120490000D01*
G37*
%TO.C,R75*%
X104008641Y-131120000D02*
X103701359Y-131120000D01*
X104008641Y-131880000D02*
X103701359Y-131880000D01*
%TO.C,R38*%
X90602500Y-97112742D02*
X90602500Y-97587258D01*
X91647500Y-97112742D02*
X91647500Y-97587258D01*
%TO.C,TP8*%
X85881842Y-88126000D02*
X87281842Y-88126000D01*
X85881842Y-89526000D02*
X85881842Y-88126000D01*
X87281842Y-88126000D02*
X87281842Y-89526000D01*
X87281842Y-89526000D02*
X85881842Y-89526000D01*
%TO.C,C54*%
X128890000Y-115877836D02*
X128890000Y-115662164D01*
X129610000Y-115877836D02*
X129610000Y-115662164D01*
%TO.C,R78*%
X119736359Y-129420000D02*
X120043641Y-129420000D01*
X119736359Y-130180000D02*
X120043641Y-130180000D01*
%TO.C,R71*%
X123470000Y-114146359D02*
X123470000Y-114453641D01*
X124230000Y-114146359D02*
X124230000Y-114453641D01*
%TO.C,C5*%
X95838748Y-82890000D02*
X97261252Y-82890000D01*
X95838748Y-84710000D02*
X97261252Y-84710000D01*
%TO.C,R76*%
X89405000Y-128198641D02*
X89405000Y-127891359D01*
X90165000Y-128198641D02*
X90165000Y-127891359D01*
%TO.C,C8*%
X103086252Y-73815000D02*
X102563748Y-73815000D01*
X103086252Y-75285000D02*
X102563748Y-75285000D01*
%TO.C,R2*%
X82538859Y-122020000D02*
X82846141Y-122020000D01*
X82538859Y-122780000D02*
X82846141Y-122780000D01*
%TO.C,TP1*%
X105525000Y-70700000D02*
X107925000Y-70700000D01*
X105525000Y-73100000D02*
X105525000Y-70700000D01*
X107925000Y-70700000D02*
X107925000Y-73100000D01*
X107925000Y-73100000D02*
X105525000Y-73100000D01*
%TO.C,R36*%
X102918859Y-89720000D02*
X103226141Y-89720000D01*
X102918859Y-90480000D02*
X103226141Y-90480000D01*
%TO.C,U10*%
X91215000Y-88490000D02*
X91265000Y-88490000D01*
X91215000Y-90310000D02*
X91215000Y-88490000D01*
X91265000Y-90310000D02*
X91215000Y-90310000D01*
X92385000Y-88490000D02*
X93165000Y-88490000D01*
X94285000Y-88490000D02*
X94335000Y-88490000D01*
X94335000Y-88490000D02*
X94335000Y-90310000D01*
X94335000Y-90310000D02*
X94285000Y-90310000D01*
X91265000Y-90850000D02*
X90935000Y-91090000D01*
X90935000Y-90610000D01*
X91265000Y-90850000D01*
G36*
X91265000Y-90850000D02*
G01*
X90935000Y-91090000D01*
X90935000Y-90610000D01*
X91265000Y-90850000D01*
G37*
%TO.C,R68*%
X131127500Y-69900242D02*
X131127500Y-70374758D01*
X132172500Y-69900242D02*
X132172500Y-70374758D01*
%TO.C,U9*%
X95640000Y-96140000D02*
X97460000Y-96140000D01*
X95640000Y-96190000D02*
X95640000Y-96140000D01*
X95640000Y-99260000D02*
X95640000Y-99210000D01*
X97460000Y-96140000D02*
X97460000Y-96190000D01*
X97460000Y-99210000D02*
X97460000Y-99260000D01*
X97460000Y-99260000D02*
X95640000Y-99260000D01*
X95100000Y-96190000D02*
X94860000Y-95860000D01*
X95340000Y-95860000D01*
X95100000Y-96190000D01*
G36*
X95100000Y-96190000D02*
G01*
X94860000Y-95860000D01*
X95340000Y-95860000D01*
X95100000Y-96190000D01*
G37*
%TO.C,C3*%
X84980336Y-117040000D02*
X84764664Y-117040000D01*
X84980336Y-117760000D02*
X84764664Y-117760000D01*
D13*
%TO.C,U12*%
X95851474Y-104450000D02*
X95851474Y-122550000D01*
X95851474Y-122550000D02*
X96851474Y-123550000D01*
X96851474Y-123550000D02*
X119251474Y-123550000D01*
X119251474Y-104450000D02*
X95851474Y-104450000D01*
X119251474Y-123550000D02*
X119251474Y-104450000D01*
D14*
X100031474Y-124250000D02*
G75*
G02*
X99831474Y-124250000I-100000J0D01*
G01*
X99831474Y-124250000D02*
G75*
G02*
X100031474Y-124250000I100000J0D01*
G01*
D12*
%TO.C,R27*%
X121393641Y-88420000D02*
X121086359Y-88420000D01*
X121393641Y-89180000D02*
X121086359Y-89180000D01*
%TO.C,R37*%
X92402500Y-97587258D02*
X92402500Y-97112742D01*
X93447500Y-97587258D02*
X93447500Y-97112742D01*
%TO.C,R11*%
X100893641Y-71020000D02*
X100586359Y-71020000D01*
X100893641Y-71780000D02*
X100586359Y-71780000D01*
%TO.C,R41*%
X84600000Y-88672359D02*
X84600000Y-88979641D01*
X85360000Y-88672359D02*
X85360000Y-88979641D01*
%TO.C,C41*%
X96259420Y-131690000D02*
X96540580Y-131690000D01*
X96259420Y-132710000D02*
X96540580Y-132710000D01*
%TO.C,R42*%
X93608538Y-114590000D02*
X92154410Y-114590000D01*
X93608538Y-116410000D02*
X92154410Y-116410000D01*
%TO.C,R28*%
X123418859Y-89720000D02*
X123726141Y-89720000D01*
X123418859Y-90480000D02*
X123726141Y-90480000D01*
%TO.C,R20*%
X123418859Y-72320000D02*
X123726141Y-72320000D01*
X123418859Y-73080000D02*
X123726141Y-73080000D01*
%TO.C,TP4*%
X105525000Y-88100000D02*
X107925000Y-88100000D01*
X105525000Y-90500000D02*
X105525000Y-88100000D01*
X107925000Y-88100000D02*
X107925000Y-90500000D01*
X107925000Y-90500000D02*
X105525000Y-90500000D01*
%TO.C,R57*%
X139070000Y-87506359D02*
X139070000Y-87813641D01*
X139830000Y-87506359D02*
X139830000Y-87813641D01*
%TO.C,R52*%
X120227500Y-117637258D02*
X120227500Y-117162742D01*
X121272500Y-117637258D02*
X121272500Y-117162742D01*
%TO.C,R26*%
X111102500Y-93747258D02*
X111102500Y-93272742D01*
X112147500Y-93747258D02*
X112147500Y-93272742D01*
%TO.C,R63*%
X138362742Y-72700000D02*
X138837258Y-72700000D01*
X138362742Y-73745000D02*
X138837258Y-73745000D01*
%TO.C,F6*%
X81727936Y-85621000D02*
X82932064Y-85621000D01*
X81727936Y-87441000D02*
X82932064Y-87441000D01*
%TO.C,C32*%
X131140000Y-90209420D02*
X131140000Y-90490580D01*
X132160000Y-90209420D02*
X132160000Y-90490580D01*
%TO.C,J11*%
X73390000Y-71416750D02*
X75490000Y-71416750D01*
X73390000Y-81536750D02*
X73390000Y-71416750D01*
X73390000Y-81536750D02*
X75490000Y-81536750D01*
X75490000Y-71416750D02*
X75490000Y-70826750D01*
X75490000Y-82126750D02*
X75490000Y-81536750D01*
X77710000Y-71416750D02*
X77710000Y-70826750D01*
X77710000Y-71416750D02*
X82610000Y-71416750D01*
X77710000Y-81536750D02*
X82610000Y-81536750D01*
X77710000Y-82126750D02*
X77710000Y-81536750D01*
X82610000Y-81536750D02*
X82610000Y-71416750D01*
X75490000Y-70826750D02*
G75*
G02*
X77710000Y-70826750I1110000J0D01*
G01*
X77710000Y-82126750D02*
G75*
G02*
X75490000Y-82126750I-1110000J0D01*
G01*
%TO.C,J7*%
X73770000Y-87166000D02*
X73770000Y-93096000D01*
X76590000Y-85896000D02*
X78040000Y-85896000D01*
X76590000Y-94366000D02*
X78040000Y-94366000D01*
X78040000Y-85896000D02*
X78040000Y-87696000D01*
X78040000Y-87696000D02*
X79030000Y-87696000D01*
X78040000Y-94366000D02*
X78040000Y-92566000D01*
%TO.C,R5*%
X84718859Y-122020000D02*
X85026141Y-122020000D01*
X84718859Y-122780000D02*
X85026141Y-122780000D01*
%TO.C,D10*%
X79045000Y-94168500D02*
X79045000Y-96453500D01*
X79045000Y-96453500D02*
X80515000Y-96453500D01*
X80515000Y-96453500D02*
X80515000Y-94168500D01*
%TO.C,R72*%
X124603641Y-115610000D02*
X124296359Y-115610000D01*
X124603641Y-116370000D02*
X124296359Y-116370000D01*
%TO.C,R32*%
X100611359Y-89720000D02*
X100918641Y-89720000D01*
X100611359Y-90480000D02*
X100918641Y-90480000D01*
%TO.C,C26*%
X84980336Y-96796000D02*
X84764664Y-96796000D01*
X84980336Y-97516000D02*
X84764664Y-97516000D01*
%TD*%
M02*
