%TF.GenerationSoftware,KiCad,Pcbnew,9.0.6*%
%TF.CreationDate,2026-01-12T10:20:26-08:00*%
%TF.ProjectId,vrb,7672622e-6b69-4636-9164-5f7063625858,rev?*%
%TF.SameCoordinates,Original*%
%TF.FileFunction,Legend,Top*%
%TF.FilePolarity,Positive*%
%FSLAX46Y46*%
G04 Gerber Fmt 4.6, Leading zero omitted, Abs format (unit mm)*
G04 Created by KiCad (PCBNEW 9.0.6) date 2026-01-12 10:20:26*
%MOMM*%
%LPD*%
G01*
G04 APERTURE LIST*
%ADD10C,0.000000*%
%ADD11C,0.100000*%
%ADD12C,0.300000*%
%ADD13C,0.160000*%
%ADD14C,0.140000*%
%ADD15C,0.400000*%
%ADD16C,0.150000*%
%ADD17C,0.120000*%
%ADD18C,0.127000*%
%ADD19C,0.200000*%
G04 APERTURE END LIST*
D10*
G36*
X121588779Y-130543569D02*
G01*
X121599852Y-130544649D01*
X121610842Y-130546449D01*
X121621706Y-130548969D01*
X121632402Y-130552210D01*
X121642890Y-130556170D01*
X121653126Y-130560850D01*
X121663069Y-130566251D01*
X121672677Y-130572371D01*
X121681908Y-130579212D01*
X121690720Y-130586772D01*
X121699072Y-130595053D01*
X121706922Y-130604054D01*
X121714227Y-130613775D01*
X121720946Y-130624215D01*
X121727037Y-130635376D01*
X122618114Y-132214392D01*
X122622998Y-132224850D01*
X122627098Y-132235400D01*
X122630432Y-132246014D01*
X122633017Y-132256665D01*
X122634869Y-132267324D01*
X122636005Y-132277965D01*
X122636442Y-132288559D01*
X122636198Y-132299078D01*
X122635288Y-132309494D01*
X122633730Y-132319780D01*
X122631540Y-132329908D01*
X122628736Y-132339850D01*
X122625334Y-132349578D01*
X122621352Y-132359065D01*
X122616806Y-132368282D01*
X122611712Y-132377202D01*
X122606089Y-132385796D01*
X122599952Y-132394038D01*
X122593319Y-132401899D01*
X122586207Y-132409352D01*
X122578632Y-132416368D01*
X122570611Y-132422920D01*
X122562161Y-132428980D01*
X122553299Y-132434521D01*
X122544043Y-132439514D01*
X122534408Y-132443931D01*
X122524411Y-132447745D01*
X122514071Y-132450928D01*
X122503402Y-132453452D01*
X122492423Y-132455289D01*
X122481151Y-132456412D01*
X122469601Y-132456792D01*
X120687447Y-132456792D01*
X120675897Y-132456412D01*
X120664624Y-132455289D01*
X120653644Y-132453452D01*
X120642974Y-132450928D01*
X120632630Y-132447745D01*
X120622629Y-132443931D01*
X120612987Y-132439514D01*
X120603722Y-132434521D01*
X120594849Y-132428980D01*
X120586385Y-132422920D01*
X120578347Y-132416368D01*
X120570751Y-132409352D01*
X120563614Y-132401899D01*
X120556953Y-132394038D01*
X120550783Y-132385796D01*
X120545122Y-132377202D01*
X120539986Y-132368282D01*
X120535392Y-132359065D01*
X120531356Y-132349578D01*
X120527895Y-132339850D01*
X120525025Y-132329908D01*
X120522763Y-132319780D01*
X120521126Y-132309494D01*
X120520130Y-132299078D01*
X120519791Y-132288559D01*
X120520127Y-132277965D01*
X120521153Y-132267324D01*
X120522887Y-132256665D01*
X120525345Y-132246014D01*
X120528543Y-132235400D01*
X120532498Y-132224850D01*
X120537227Y-132214392D01*
X120607549Y-132089778D01*
X121428321Y-132089778D01*
X121428495Y-132097403D01*
X121429013Y-132104910D01*
X121429868Y-132112291D01*
X121431055Y-132119538D01*
X121432567Y-132126642D01*
X121434397Y-132133595D01*
X121436541Y-132140390D01*
X121438990Y-132147017D01*
X121441740Y-132153470D01*
X121444783Y-132159739D01*
X121448114Y-132165817D01*
X121451726Y-132171696D01*
X121455614Y-132177367D01*
X121459770Y-132182823D01*
X121464188Y-132188054D01*
X121468863Y-132193054D01*
X121473788Y-132197814D01*
X121478957Y-132202325D01*
X121484364Y-132206581D01*
X121490001Y-132210571D01*
X121495864Y-132214289D01*
X121501946Y-132217727D01*
X121508240Y-132220876D01*
X121514740Y-132223728D01*
X121521441Y-132226274D01*
X121528335Y-132228508D01*
X121535417Y-132230420D01*
X121542680Y-132232003D01*
X121550118Y-132233248D01*
X121557725Y-132234147D01*
X121565494Y-132234693D01*
X121573420Y-132234877D01*
X121581345Y-132234693D01*
X121589115Y-132234147D01*
X121596722Y-132233248D01*
X121604160Y-132232003D01*
X121611423Y-132230420D01*
X121618505Y-132228508D01*
X121625399Y-132226274D01*
X121632099Y-132223728D01*
X121638600Y-132220876D01*
X121644894Y-132217727D01*
X121650975Y-132214289D01*
X121656838Y-132210571D01*
X121662476Y-132206581D01*
X121667882Y-132202325D01*
X121673051Y-132197814D01*
X121677976Y-132193054D01*
X121682651Y-132188054D01*
X121687070Y-132182823D01*
X121691226Y-132177367D01*
X121695113Y-132171696D01*
X121698726Y-132165817D01*
X121702057Y-132159739D01*
X121705100Y-132153470D01*
X121707850Y-132147017D01*
X121710299Y-132140390D01*
X121712442Y-132133595D01*
X121714273Y-132126642D01*
X121715785Y-132119538D01*
X121716971Y-132112291D01*
X121717827Y-132104910D01*
X121718345Y-132097403D01*
X121718519Y-132089778D01*
X121718519Y-132086364D01*
X121718345Y-132078739D01*
X121717827Y-132071231D01*
X121716971Y-132063850D01*
X121715785Y-132056604D01*
X121714273Y-132049500D01*
X121712442Y-132042547D01*
X121710299Y-132035752D01*
X121707850Y-132029125D01*
X121705100Y-132022672D01*
X121702057Y-132016403D01*
X121698726Y-132010324D01*
X121695113Y-132004446D01*
X121691226Y-131998775D01*
X121687070Y-131993319D01*
X121682651Y-131988087D01*
X121677976Y-131983088D01*
X121673051Y-131978328D01*
X121667882Y-131973817D01*
X121662476Y-131969561D01*
X121656838Y-131965571D01*
X121650975Y-131961852D01*
X121644894Y-131958415D01*
X121638600Y-131955266D01*
X121632099Y-131952414D01*
X121625399Y-131949868D01*
X121618505Y-131947634D01*
X121611423Y-131945722D01*
X121604160Y-131944139D01*
X121596722Y-131942894D01*
X121589115Y-131941995D01*
X121581345Y-131941449D01*
X121573420Y-131941265D01*
X121565494Y-131941449D01*
X121557725Y-131941995D01*
X121550118Y-131942894D01*
X121542680Y-131944139D01*
X121535417Y-131945722D01*
X121528335Y-131947634D01*
X121521441Y-131949868D01*
X121514740Y-131952414D01*
X121508240Y-131955266D01*
X121501946Y-131958415D01*
X121495864Y-131961852D01*
X121490001Y-131965571D01*
X121484364Y-131969561D01*
X121478957Y-131973817D01*
X121473788Y-131978328D01*
X121468863Y-131983088D01*
X121464188Y-131988087D01*
X121459770Y-131993319D01*
X121455614Y-131998775D01*
X121451726Y-132004446D01*
X121448114Y-132010324D01*
X121444783Y-132016403D01*
X121441740Y-132022672D01*
X121438990Y-132029125D01*
X121436541Y-132035752D01*
X121434397Y-132042547D01*
X121432567Y-132049500D01*
X121431055Y-132056604D01*
X121429868Y-132063850D01*
X121429013Y-132071231D01*
X121428495Y-132078739D01*
X121428321Y-132086364D01*
X121428321Y-132089778D01*
X120607549Y-132089778D01*
X120609476Y-132086364D01*
X121167227Y-131098013D01*
X121425988Y-131098013D01*
X121426000Y-131102487D01*
X121426196Y-131107032D01*
X121426580Y-131111642D01*
X121500000Y-131753490D01*
X121500554Y-131757761D01*
X121501257Y-131761929D01*
X121502104Y-131765993D01*
X121503094Y-131769951D01*
X121504224Y-131773799D01*
X121505491Y-131777537D01*
X121506893Y-131781161D01*
X121508428Y-131784670D01*
X121510093Y-131788062D01*
X121511886Y-131791334D01*
X121513803Y-131794484D01*
X121515843Y-131797510D01*
X121518003Y-131800410D01*
X121520281Y-131803181D01*
X121522674Y-131805821D01*
X121525179Y-131808329D01*
X121527794Y-131810702D01*
X121530516Y-131812937D01*
X121533344Y-131815033D01*
X121536274Y-131816988D01*
X121539305Y-131818798D01*
X121542432Y-131820463D01*
X121545655Y-131821980D01*
X121548971Y-131823346D01*
X121552376Y-131824559D01*
X121555869Y-131825618D01*
X121559447Y-131826520D01*
X121563107Y-131827263D01*
X121566847Y-131827845D01*
X121570665Y-131828263D01*
X121574558Y-131828516D01*
X121578524Y-131828600D01*
X121582489Y-131828516D01*
X121586382Y-131828263D01*
X121590200Y-131827845D01*
X121593940Y-131827263D01*
X121597601Y-131826520D01*
X121601179Y-131825618D01*
X121604672Y-131824559D01*
X121608077Y-131823346D01*
X121611392Y-131821980D01*
X121614615Y-131820463D01*
X121617743Y-131818798D01*
X121620773Y-131816988D01*
X121623703Y-131815033D01*
X121626531Y-131812937D01*
X121629254Y-131810702D01*
X121631869Y-131808329D01*
X121634374Y-131805821D01*
X121636767Y-131803181D01*
X121639044Y-131800410D01*
X121641204Y-131797510D01*
X121643244Y-131794484D01*
X121645162Y-131791334D01*
X121646954Y-131788062D01*
X121648619Y-131784670D01*
X121650154Y-131781161D01*
X121651557Y-131777537D01*
X121652824Y-131773799D01*
X121653954Y-131769951D01*
X121654944Y-131765993D01*
X121655791Y-131761929D01*
X121656493Y-131757761D01*
X121657048Y-131753490D01*
X121730468Y-131111642D01*
X121730853Y-131107032D01*
X121731051Y-131102487D01*
X121731064Y-131098013D01*
X121730894Y-131093614D01*
X121730544Y-131089297D01*
X121730016Y-131085067D01*
X121729314Y-131080929D01*
X121728438Y-131076887D01*
X121727393Y-131072949D01*
X121726180Y-131069118D01*
X121724802Y-131065400D01*
X121723262Y-131061801D01*
X121721561Y-131058325D01*
X121719703Y-131054979D01*
X121717690Y-131051767D01*
X121715525Y-131048694D01*
X121713209Y-131045767D01*
X121710746Y-131042990D01*
X121708138Y-131040369D01*
X121705388Y-131037909D01*
X121702498Y-131035615D01*
X121699470Y-131033492D01*
X121696307Y-131031547D01*
X121693012Y-131029784D01*
X121689587Y-131028208D01*
X121686035Y-131026825D01*
X121682358Y-131025640D01*
X121678558Y-131024659D01*
X121674639Y-131023887D01*
X121670602Y-131023328D01*
X121666450Y-131022990D01*
X121662186Y-131022875D01*
X121494879Y-131022875D01*
X121490615Y-131022990D01*
X121486463Y-131023328D01*
X121482426Y-131023887D01*
X121478507Y-131024659D01*
X121474707Y-131025640D01*
X121471030Y-131026825D01*
X121467477Y-131028208D01*
X121464052Y-131029784D01*
X121460757Y-131031547D01*
X121457594Y-131033492D01*
X121454566Y-131035615D01*
X121451676Y-131037909D01*
X121448925Y-131040369D01*
X121446317Y-131042990D01*
X121443854Y-131045767D01*
X121441538Y-131048694D01*
X121439372Y-131051767D01*
X121437358Y-131054979D01*
X121435500Y-131058325D01*
X121433799Y-131061801D01*
X121432258Y-131065400D01*
X121430879Y-131069118D01*
X121429665Y-131072949D01*
X121428619Y-131076887D01*
X121427743Y-131080929D01*
X121427039Y-131085067D01*
X121426511Y-131089297D01*
X121426159Y-131093614D01*
X121425988Y-131098013D01*
X121167227Y-131098013D01*
X121428304Y-130635376D01*
X121434393Y-130624215D01*
X121441111Y-130613775D01*
X121448414Y-130604054D01*
X121456263Y-130595053D01*
X121464613Y-130586772D01*
X121473425Y-130579212D01*
X121482655Y-130572371D01*
X121492262Y-130566251D01*
X121502204Y-130560850D01*
X121512440Y-130556170D01*
X121522927Y-130552210D01*
X121533623Y-130548969D01*
X121544486Y-130546449D01*
X121555476Y-130544649D01*
X121566549Y-130543569D01*
X121577664Y-130543209D01*
X121588779Y-130543569D01*
G37*
D11*
X97150000Y-87175000D02*
X98250000Y-87175000D01*
X98650000Y-87175000D02*
X99750000Y-87175000D01*
X99800000Y-87175000D02*
X99800000Y-88275000D01*
X99800000Y-88675000D02*
X99800000Y-89775000D01*
X99800000Y-90175000D02*
X99800000Y-91275000D01*
X99800000Y-91675000D02*
X99800000Y-92025000D01*
X99800000Y-92025000D02*
X98700000Y-92025000D01*
X98300000Y-92025000D02*
X97200000Y-92025000D01*
X97150000Y-92025000D02*
X97150000Y-90925000D01*
X97150000Y-90525000D02*
X97150000Y-89425000D01*
X97150000Y-89025000D02*
X97150000Y-87925000D01*
X97150000Y-87525000D02*
X97150000Y-87175000D01*
D12*
X91950000Y-91750000D02*
X93900000Y-91750000D01*
X93900000Y-95250000D01*
X91950000Y-95250000D01*
X91950000Y-91750000D01*
X119750000Y-106300000D02*
X121700000Y-106300000D01*
X121700000Y-109800000D01*
X119750000Y-109800000D01*
X119750000Y-106300000D01*
D11*
X97175000Y-69775000D02*
X98275000Y-69775000D01*
X98675000Y-69775000D02*
X99775000Y-69775000D01*
X99775000Y-69775000D02*
X99775000Y-70875000D01*
X99775000Y-71275000D02*
X99775000Y-72375000D01*
X99775000Y-72775000D02*
X99775000Y-73875000D01*
X99775000Y-74275000D02*
X99775000Y-74625000D01*
X99775000Y-74625000D02*
X98675000Y-74625000D01*
X98275000Y-74625000D02*
X97175000Y-74625000D01*
X97175000Y-74625000D02*
X97175000Y-73525000D01*
X97175000Y-73125000D02*
X97175000Y-72025000D01*
X97175000Y-71625000D02*
X97175000Y-70525000D01*
X97175000Y-70125000D02*
X97175000Y-69775000D01*
X79875000Y-105450000D02*
X80975000Y-105450000D01*
X81375000Y-105450000D02*
X82475000Y-105450000D01*
X82875000Y-105450000D02*
X83975000Y-105450000D01*
X84375000Y-105450000D02*
X84725000Y-105450000D01*
X84725000Y-105450000D02*
X84725000Y-106550000D01*
X84725000Y-106950000D02*
X84725000Y-108050000D01*
X84725000Y-108050000D02*
X83625000Y-108050000D01*
X83225000Y-108050000D02*
X82125000Y-108050000D01*
X81725000Y-108050000D02*
X80625000Y-108050000D01*
X80225000Y-108050000D02*
X79875000Y-108050000D01*
X79875000Y-108050000D02*
X79875000Y-106950000D01*
X79875000Y-106550000D02*
X79875000Y-105450000D01*
X117650000Y-69775000D02*
X118750000Y-69775000D01*
X119150000Y-69775000D02*
X120250000Y-69775000D01*
X120300000Y-69775000D02*
X120300000Y-70875000D01*
X120300000Y-71275000D02*
X120300000Y-72375000D01*
X120300000Y-72775000D02*
X120300000Y-73875000D01*
X120300000Y-74275000D02*
X120300000Y-74625000D01*
X120300000Y-74625000D02*
X119200000Y-74625000D01*
X118800000Y-74625000D02*
X117700000Y-74625000D01*
X117650000Y-74625000D02*
X117650000Y-73525000D01*
X117650000Y-73125000D02*
X117650000Y-72025000D01*
X117650000Y-71625000D02*
X117650000Y-70525000D01*
X117650000Y-70125000D02*
X117650000Y-69775000D01*
D12*
X91950000Y-74360000D02*
X93900000Y-74360000D01*
X93900000Y-77860000D01*
X91950000Y-77860000D01*
X91950000Y-74360000D01*
D11*
X116500000Y-129500000D02*
X123100000Y-129500000D01*
X123100000Y-133500000D01*
X116500000Y-133500000D01*
X116500000Y-129500000D01*
D12*
X112450000Y-74350000D02*
X114400000Y-74350000D01*
X114400000Y-77850000D01*
X112450000Y-77850000D01*
X112450000Y-74350000D01*
X112450000Y-91750000D02*
X114400000Y-91750000D01*
X114400000Y-95250000D01*
X112450000Y-95250000D01*
X112450000Y-91750000D01*
D11*
X117650000Y-87175000D02*
X118750000Y-87175000D01*
X119150000Y-87175000D02*
X120250000Y-87175000D01*
X120300000Y-87175000D02*
X120300000Y-88275000D01*
X120300000Y-88675000D02*
X120300000Y-89775000D01*
X120300000Y-90175000D02*
X120300000Y-91275000D01*
X120300000Y-91675000D02*
X120300000Y-92025000D01*
X120300000Y-92025000D02*
X119200000Y-92025000D01*
X118800000Y-92025000D02*
X117700000Y-92025000D01*
X117650000Y-92025000D02*
X117650000Y-90925000D01*
X117650000Y-90525000D02*
X117650000Y-89425000D01*
X117650000Y-89025000D02*
X117650000Y-87925000D01*
X117650000Y-87525000D02*
X117650000Y-87175000D01*
X79925000Y-85200000D02*
X81025000Y-85200000D01*
X81425000Y-85200000D02*
X82525000Y-85200000D01*
X82925000Y-85200000D02*
X84025000Y-85200000D01*
X84425000Y-85200000D02*
X84775000Y-85200000D01*
X84775000Y-85200000D02*
X84775000Y-86300000D01*
X84775000Y-86700000D02*
X84775000Y-87800000D01*
X84775000Y-87800000D02*
X83675000Y-87800000D01*
X83275000Y-87800000D02*
X82175000Y-87800000D01*
X81775000Y-87800000D02*
X80675000Y-87800000D01*
X80275000Y-87800000D02*
X79925000Y-87800000D01*
X79925000Y-87800000D02*
X79925000Y-86700000D01*
X79925000Y-86300000D02*
X79925000Y-85200000D01*
G36*
X95026630Y-124495494D02*
G01*
X95044051Y-124499948D01*
X95059376Y-124507020D01*
X95072639Y-124516552D01*
X95083542Y-124528217D01*
X95092047Y-124541913D01*
X95097956Y-124557426D01*
X95101098Y-124574589D01*
X95101578Y-124584921D01*
X95100048Y-124602709D01*
X95095584Y-124618934D01*
X95088456Y-124633298D01*
X95078825Y-124645765D01*
X95052716Y-124664343D01*
X95018287Y-124673170D01*
X95007496Y-124673630D01*
X94809269Y-124673630D01*
X94809269Y-124493965D01*
X95007496Y-124493965D01*
X95026630Y-124495494D01*
G37*
G36*
X96849221Y-124495494D02*
G01*
X96867976Y-124499950D01*
X96884305Y-124506965D01*
X96898384Y-124516411D01*
X96909731Y-124527768D01*
X96918546Y-124541077D01*
X96924550Y-124555878D01*
X96927736Y-124572228D01*
X96928222Y-124582039D01*
X96926690Y-124599226D01*
X96922219Y-124614950D01*
X96905319Y-124641228D01*
X96878589Y-124659919D01*
X96842750Y-124669357D01*
X96828571Y-124670064D01*
X96638159Y-124670064D01*
X96638159Y-124493965D01*
X96828571Y-124493965D01*
X96849221Y-124495494D01*
G37*
G36*
X97236636Y-125215394D02*
G01*
X91684343Y-125215394D01*
X91684343Y-125114000D01*
X91773232Y-125114000D01*
X91950211Y-125114000D01*
X91950211Y-124577056D01*
X92207789Y-125057970D01*
X92465416Y-124579303D01*
X92465416Y-125114000D01*
X92646840Y-125114000D01*
X92646840Y-124722234D01*
X92748005Y-124722234D01*
X92754104Y-124793516D01*
X92772088Y-124861138D01*
X92801467Y-124924004D01*
X92841613Y-124980816D01*
X92891665Y-125030141D01*
X92920066Y-125051548D01*
X92950479Y-125070542D01*
X92982707Y-125086964D01*
X93016672Y-125100723D01*
X93051987Y-125111620D01*
X93088750Y-125119633D01*
X93126423Y-125124597D01*
X93165258Y-125126489D01*
X93169129Y-125126505D01*
X93239615Y-125120429D01*
X93311169Y-125101979D01*
X93379600Y-125071637D01*
X93411041Y-125052614D01*
X93440312Y-125031183D01*
X93466272Y-125008272D01*
X93489559Y-124983390D01*
X93496170Y-124975318D01*
X93369603Y-124850559D01*
X93348160Y-124874649D01*
X93325453Y-124895342D01*
X93302584Y-124911945D01*
X93278587Y-124925446D01*
X93254076Y-124935635D01*
X93228513Y-124942865D01*
X93175870Y-124948452D01*
X93147729Y-124946915D01*
X93120780Y-124942409D01*
X93070408Y-124924797D01*
X93026380Y-124896533D01*
X93007290Y-124878769D01*
X92990476Y-124858862D01*
X92976130Y-124837026D01*
X92964390Y-124813401D01*
X92955494Y-124788401D01*
X92952033Y-124773183D01*
X93566707Y-124773183D01*
X93568257Y-124812088D01*
X93572849Y-124849112D01*
X93580236Y-124883554D01*
X93590396Y-124916034D01*
X93603023Y-124946006D01*
X93618183Y-124973938D01*
X93635590Y-124999483D01*
X93655328Y-125022897D01*
X93701304Y-125062916D01*
X93755903Y-125093776D01*
X93819125Y-125114932D01*
X93891021Y-125125497D01*
X93922862Y-125126505D01*
X93961723Y-125124956D01*
X93998803Y-125120369D01*
X94033505Y-125112962D01*
X94066302Y-125102774D01*
X94096695Y-125090086D01*
X94125068Y-125074855D01*
X94151066Y-125057364D01*
X94174926Y-125037541D01*
X94196450Y-125015595D01*
X94215700Y-124991495D01*
X94247077Y-124937109D01*
X94268500Y-124874585D01*
X94279138Y-124804060D01*
X94280141Y-124773183D01*
X94280141Y-124673630D01*
X94616610Y-124673630D01*
X94616610Y-125114000D01*
X94809269Y-125114000D01*
X94809269Y-124832632D01*
X95029918Y-124832632D01*
X95061308Y-124831093D01*
X95091423Y-124826572D01*
X95120383Y-124819127D01*
X95147720Y-124808938D01*
X95173411Y-124796075D01*
X95197134Y-124780738D01*
X95218708Y-124763095D01*
X95237991Y-124743286D01*
X95254699Y-124721638D01*
X95268830Y-124698152D01*
X95280095Y-124673311D01*
X95288541Y-124646966D01*
X95293954Y-124619675D01*
X95296332Y-124591198D01*
X95296435Y-124583797D01*
X95294894Y-124554297D01*
X95290359Y-124526026D01*
X95282903Y-124498940D01*
X95272682Y-124473363D01*
X95244225Y-124426941D01*
X95205879Y-124388028D01*
X95183298Y-124371796D01*
X95158690Y-124357970D01*
X95132160Y-124346678D01*
X95103883Y-124338082D01*
X95074068Y-124332332D01*
X95042800Y-124329548D01*
X95029918Y-124329296D01*
X95321495Y-124329296D01*
X95496226Y-125114000D01*
X95700022Y-125114000D01*
X95838899Y-124614083D01*
X95976700Y-125114000D01*
X96180497Y-125114000D01*
X96279349Y-124670064D01*
X96445500Y-124670064D01*
X96445500Y-125114000D01*
X96638159Y-125114000D01*
X96638159Y-124826868D01*
X96784851Y-124826868D01*
X96932716Y-125114000D01*
X97147747Y-125114000D01*
X96976386Y-124798877D01*
X97002441Y-124785303D01*
X97026440Y-124769309D01*
X97048130Y-124751123D01*
X97067426Y-124730849D01*
X97083954Y-124708942D01*
X97097810Y-124685305D01*
X97108641Y-124660584D01*
X97116577Y-124634487D01*
X97121391Y-124607726D01*
X97123124Y-124579916D01*
X97123128Y-124578668D01*
X97121585Y-124549974D01*
X97117044Y-124522506D01*
X97109586Y-124496257D01*
X97099357Y-124471479D01*
X97070795Y-124426431D01*
X97032021Y-124388414D01*
X96983790Y-124358694D01*
X96956370Y-124347361D01*
X96927077Y-124338660D01*
X96895897Y-124332703D01*
X96863118Y-124329672D01*
X96846449Y-124329296D01*
X96445500Y-124329296D01*
X96445500Y-124670064D01*
X96279349Y-124670064D01*
X96355228Y-124329296D01*
X96163693Y-124329296D01*
X96068536Y-124813581D01*
X95931858Y-124329296D01*
X95751557Y-124329296D01*
X95614928Y-124813581D01*
X95519722Y-124329296D01*
X95321495Y-124329296D01*
X95029918Y-124329296D01*
X94616610Y-124329296D01*
X94616610Y-124673630D01*
X94280141Y-124673630D01*
X94280141Y-124329296D01*
X94087482Y-124329296D01*
X94087482Y-124773183D01*
X94085940Y-124801163D01*
X94081394Y-124827136D01*
X94074205Y-124850360D01*
X94064402Y-124871432D01*
X94052438Y-124889786D01*
X94038205Y-124905863D01*
X94022072Y-124919357D01*
X94003942Y-124930423D01*
X93962081Y-124944829D01*
X93923986Y-124948452D01*
X93898720Y-124946909D01*
X93875160Y-124942360D01*
X93853847Y-124935104D01*
X93834400Y-124925193D01*
X93817122Y-124912897D01*
X93801886Y-124898227D01*
X93777936Y-124862118D01*
X93763359Y-124817057D01*
X93759366Y-124773183D01*
X93759366Y-124329296D01*
X93566707Y-124329296D01*
X93566707Y-124773183D01*
X92952033Y-124773183D01*
X92949485Y-124761982D01*
X92946233Y-124722234D01*
X92947770Y-124693990D01*
X92952275Y-124666960D01*
X92969868Y-124616529D01*
X92998054Y-124572592D01*
X93015738Y-124553612D01*
X93035548Y-124536928D01*
X93057242Y-124522751D01*
X93080707Y-124511195D01*
X93105508Y-124502504D01*
X93131712Y-124496709D01*
X93169129Y-124493769D01*
X93197782Y-124495332D01*
X93225404Y-124500023D01*
X93251338Y-124507612D01*
X93276246Y-124518180D01*
X93322848Y-124548207D01*
X93365963Y-124591163D01*
X93371851Y-124598452D01*
X93501739Y-124470273D01*
X93458546Y-124424207D01*
X93403270Y-124383293D01*
X93337692Y-124350183D01*
X93302016Y-124337405D01*
X93265196Y-124327556D01*
X93227948Y-124320847D01*
X93190244Y-124317319D01*
X93169129Y-124316791D01*
X93093657Y-124322886D01*
X93022143Y-124340839D01*
X92955946Y-124370042D01*
X92896561Y-124409667D01*
X92869906Y-124433049D01*
X92845503Y-124458612D01*
X92823571Y-124486117D01*
X92804150Y-124515528D01*
X92787517Y-124546424D01*
X92773616Y-124578940D01*
X92762704Y-124612505D01*
X92754713Y-124647405D01*
X92749820Y-124682993D01*
X92748013Y-124719646D01*
X92748005Y-124722234D01*
X92646840Y-124722234D01*
X92646840Y-124329296D01*
X92403818Y-124329296D01*
X92210036Y-124699275D01*
X92016303Y-124329296D01*
X91773232Y-124329296D01*
X91773232Y-125114000D01*
X91684343Y-125114000D01*
X91684343Y-124227902D01*
X97236636Y-124227902D01*
X97236636Y-125215394D01*
G37*
D13*
G36*
X100569450Y-115428624D02*
G01*
X100634087Y-115439903D01*
X100755063Y-115484060D01*
X100861113Y-115555211D01*
X100947852Y-115650609D01*
X100982575Y-115706242D01*
X101010901Y-115766537D01*
X101032297Y-115830676D01*
X101046530Y-115898579D01*
X101053637Y-115994476D01*
X101049795Y-116065332D01*
X101038532Y-116133122D01*
X100994579Y-116259452D01*
X100924242Y-116369266D01*
X100880179Y-116416578D01*
X100830827Y-116458108D01*
X100776858Y-116493288D01*
X100718492Y-116521890D01*
X100656864Y-116543289D01*
X100591757Y-116557431D01*
X100502015Y-116564295D01*
X100434579Y-116560450D01*
X100369943Y-116549171D01*
X100248970Y-116505013D01*
X100142927Y-116433861D01*
X100056192Y-116338461D01*
X100021470Y-116282824D01*
X99993143Y-116222522D01*
X99971743Y-116158372D01*
X99957507Y-116090456D01*
X99950392Y-115994476D01*
X99954234Y-115923645D01*
X99965498Y-115855877D01*
X100009453Y-115729576D01*
X100079797Y-115619776D01*
X100123866Y-115572469D01*
X100173224Y-115530943D01*
X100227200Y-115495766D01*
X100285573Y-115467168D01*
X100347207Y-115445774D01*
X100412320Y-115431636D01*
X100502015Y-115424780D01*
X100569450Y-115428624D01*
G37*
G36*
X104498607Y-115454393D02*
G01*
X104618859Y-115498688D01*
X104725438Y-115570378D01*
X104813055Y-115666464D01*
X104848037Y-115722206D01*
X104876470Y-115782401D01*
X104897680Y-115845819D01*
X104911566Y-115912638D01*
X104917925Y-116000094D01*
X104902847Y-116131337D01*
X104858624Y-116252883D01*
X104787274Y-116360071D01*
X104742337Y-116406651D01*
X104692057Y-116447534D01*
X104637051Y-116482167D01*
X104577683Y-116510176D01*
X104515323Y-116530847D01*
X104449642Y-116544154D01*
X104369112Y-116549762D01*
X104066739Y-116549762D01*
X104066739Y-115439312D01*
X104369112Y-115439312D01*
X104498607Y-115454393D01*
G37*
G36*
X108517911Y-115429093D02*
G01*
X108564799Y-115440232D01*
X108605622Y-115457770D01*
X108640820Y-115481385D01*
X108669187Y-115509777D01*
X108691225Y-115543049D01*
X108706233Y-115580051D01*
X108714200Y-115620927D01*
X108715413Y-115645453D01*
X108711583Y-115688421D01*
X108700406Y-115727731D01*
X108658156Y-115793426D01*
X108591331Y-115840155D01*
X108501733Y-115863750D01*
X108466286Y-115865516D01*
X107990256Y-115865516D01*
X107990256Y-115425268D01*
X108466286Y-115425268D01*
X108517911Y-115429093D01*
G37*
G36*
X114934659Y-115429093D02*
G01*
X114981547Y-115440232D01*
X115022370Y-115457770D01*
X115057568Y-115481385D01*
X115085935Y-115509777D01*
X115107973Y-115543049D01*
X115122981Y-115580051D01*
X115130948Y-115620927D01*
X115132161Y-115645453D01*
X115128332Y-115688421D01*
X115117155Y-115727731D01*
X115074904Y-115793426D01*
X115008079Y-115840155D01*
X114918481Y-115863750D01*
X114883034Y-115865516D01*
X114407004Y-115865516D01*
X114407004Y-115425268D01*
X114883034Y-115425268D01*
X114934659Y-115429093D01*
G37*
G36*
X117644648Y-117228841D02*
G01*
X97338743Y-117228841D01*
X97338743Y-116679089D01*
X97560965Y-116679089D01*
X97723741Y-116797489D01*
X97907956Y-116893358D01*
X98006148Y-116931342D01*
X98106721Y-116961882D01*
X98208578Y-116984647D01*
X98311422Y-116999515D01*
X98445734Y-117006619D01*
X98558498Y-117002747D01*
X98664491Y-116991279D01*
X98760424Y-116973137D01*
X98849481Y-116948273D01*
X98928512Y-116918159D01*
X99000695Y-116882172D01*
X99063471Y-116842167D01*
X99119489Y-116797048D01*
X99167066Y-116748672D01*
X99207937Y-116695799D01*
X99241289Y-116639790D01*
X99267855Y-116579740D01*
X99299848Y-116448687D01*
X99305225Y-116362550D01*
X99301327Y-116291231D01*
X99289675Y-116224279D01*
X99271296Y-116164297D01*
X99245909Y-116108452D01*
X99175904Y-116011102D01*
X99155994Y-115994476D01*
X99454824Y-115994476D01*
X99470056Y-116171138D01*
X99515098Y-116339758D01*
X99588851Y-116497362D01*
X99689762Y-116640365D01*
X99815517Y-116764788D01*
X99886738Y-116818778D01*
X99962925Y-116866679D01*
X100043405Y-116907996D01*
X100128104Y-116942578D01*
X100215782Y-116969842D01*
X100306906Y-116989827D01*
X100399808Y-117002078D01*
X100495399Y-117006600D01*
X100502015Y-117006619D01*
X100687928Y-116991396D01*
X100751105Y-116975356D01*
X101803096Y-116975356D01*
X103317891Y-116975356D01*
X103317891Y-116549762D01*
X103585092Y-116549762D01*
X103585092Y-116975356D01*
X104380347Y-116975356D01*
X105669949Y-116975356D01*
X107226753Y-116975356D01*
X107226753Y-116558189D01*
X106151596Y-116558189D01*
X106151596Y-116185963D01*
X106854405Y-116185963D01*
X106854405Y-115865516D01*
X107508609Y-115865516D01*
X107508609Y-116975356D01*
X107990256Y-116975356D01*
X107990256Y-116257526D01*
X108356987Y-116257526D01*
X108726648Y-116975356D01*
X109264227Y-116975356D01*
X109994025Y-116975356D01*
X110475671Y-116975356D01*
X110475671Y-116209410D01*
X111282039Y-116209410D01*
X111282039Y-116975356D01*
X111763686Y-116975356D01*
X112086697Y-116975356D01*
X113643501Y-116975356D01*
X113643501Y-116558189D01*
X112568344Y-116558189D01*
X112568344Y-116185963D01*
X113271153Y-116185963D01*
X113271153Y-115865516D01*
X113925357Y-115865516D01*
X113925357Y-116975356D01*
X114407004Y-116975356D01*
X114407004Y-116257526D01*
X114773735Y-116257526D01*
X115143396Y-116975356D01*
X115680975Y-116975356D01*
X115865623Y-116975356D01*
X117422426Y-116975356D01*
X117422426Y-116558189D01*
X116347269Y-116558189D01*
X116347269Y-116185963D01*
X117050078Y-116185963D01*
X117050078Y-115782840D01*
X116347269Y-115782840D01*
X116347269Y-115430886D01*
X117411191Y-115430886D01*
X117411191Y-115013597D01*
X115865623Y-115013597D01*
X115865623Y-116975356D01*
X115680975Y-116975356D01*
X115252573Y-116187550D01*
X115317710Y-116153615D01*
X115377707Y-116113628D01*
X115431931Y-116068164D01*
X115480171Y-116017480D01*
X115521493Y-115962712D01*
X115556132Y-115903618D01*
X115583209Y-115841816D01*
X115603050Y-115776574D01*
X115615085Y-115709672D01*
X115619418Y-115640148D01*
X115619426Y-115637027D01*
X115615571Y-115565292D01*
X115604216Y-115496622D01*
X115585573Y-115431000D01*
X115559998Y-115369054D01*
X115488594Y-115256435D01*
X115391660Y-115161392D01*
X115271081Y-115087092D01*
X115202532Y-115058759D01*
X115129299Y-115037007D01*
X115051348Y-115022113D01*
X114969402Y-115014537D01*
X114927730Y-115013597D01*
X113925357Y-115013597D01*
X113925357Y-115865516D01*
X113271153Y-115865516D01*
X113271153Y-115782840D01*
X112568344Y-115782840D01*
X112568344Y-115430886D01*
X113632266Y-115430886D01*
X113632266Y-115013597D01*
X112086697Y-115013597D01*
X112086697Y-116975356D01*
X111763686Y-116975356D01*
X111763686Y-115013597D01*
X111282039Y-115013597D01*
X111282039Y-115769895D01*
X110475671Y-115769895D01*
X110475671Y-115013597D01*
X109994025Y-115013597D01*
X109994025Y-116975356D01*
X109264227Y-116975356D01*
X108835825Y-116187550D01*
X108900962Y-116153615D01*
X108960959Y-116113628D01*
X109015183Y-116068164D01*
X109063423Y-116017480D01*
X109104745Y-115962712D01*
X109139384Y-115903618D01*
X109166461Y-115841816D01*
X109186302Y-115776574D01*
X109198337Y-115709672D01*
X109202670Y-115640148D01*
X109202678Y-115637027D01*
X109198823Y-115565292D01*
X109187468Y-115496622D01*
X109168825Y-115431000D01*
X109143250Y-115369054D01*
X109071846Y-115256435D01*
X108974912Y-115161392D01*
X108854333Y-115087092D01*
X108785784Y-115058759D01*
X108712551Y-115037007D01*
X108634600Y-115022113D01*
X108552653Y-115014537D01*
X108510982Y-115013597D01*
X107508609Y-115013597D01*
X107508609Y-115865516D01*
X106854405Y-115865516D01*
X106854405Y-115782840D01*
X106151596Y-115782840D01*
X106151596Y-115430886D01*
X107215518Y-115430886D01*
X107215518Y-115013597D01*
X105669949Y-115013597D01*
X105669949Y-116975356D01*
X104380347Y-116975356D01*
X104566597Y-116960147D01*
X104744078Y-116915239D01*
X104909010Y-116842071D01*
X105057115Y-116742819D01*
X105123459Y-116684369D01*
X105184033Y-116620588D01*
X105238178Y-116552224D01*
X105285870Y-116479298D01*
X105326268Y-116403159D01*
X105359654Y-116323258D01*
X105385282Y-116241415D01*
X105403456Y-116156595D01*
X105416303Y-116000094D01*
X105401078Y-115827436D01*
X105356029Y-115662506D01*
X105282173Y-115508186D01*
X105180963Y-115368046D01*
X105054650Y-115246135D01*
X104983032Y-115193294D01*
X104906451Y-115146543D01*
X104825511Y-115106338D01*
X104740377Y-115072892D01*
X104652276Y-115046768D01*
X104560783Y-115027960D01*
X104380347Y-115013597D01*
X103585092Y-115013597D01*
X103585092Y-116549762D01*
X103317891Y-116549762D01*
X102284743Y-116549762D01*
X102284743Y-115013597D01*
X101803096Y-115013597D01*
X101803096Y-116975356D01*
X100751105Y-116975356D01*
X100864888Y-116946468D01*
X101029460Y-116873212D01*
X101177723Y-116773614D01*
X101244472Y-116714763D01*
X101305596Y-116650469D01*
X101360602Y-116581269D01*
X101409301Y-116507351D01*
X101450983Y-116429797D01*
X101485779Y-116348291D01*
X101513008Y-116264389D01*
X101532876Y-116177297D01*
X101544915Y-116088843D01*
X101549200Y-115997923D01*
X101549206Y-115994476D01*
X101533974Y-115817845D01*
X101488929Y-115649237D01*
X101415170Y-115491629D01*
X101314248Y-115348614D01*
X101188479Y-115224178D01*
X101117253Y-115170182D01*
X101041060Y-115122276D01*
X100960578Y-115080956D01*
X100875877Y-115046372D01*
X100788202Y-115019107D01*
X100697081Y-114999122D01*
X100604187Y-114986873D01*
X100508605Y-114982353D01*
X100502015Y-114982334D01*
X100316127Y-114997556D01*
X100139181Y-115042484D01*
X99974614Y-115115742D01*
X99826347Y-115215346D01*
X99759592Y-115274202D01*
X99698463Y-115338500D01*
X99643451Y-115407705D01*
X99594746Y-115481627D01*
X99553058Y-115559184D01*
X99518258Y-115640692D01*
X99491026Y-115724591D01*
X99471155Y-115811679D01*
X99459114Y-115900123D01*
X99454829Y-115991028D01*
X99454824Y-115994476D01*
X99155994Y-115994476D01*
X99078434Y-115929707D01*
X98949594Y-115863858D01*
X98783742Y-115815392D01*
X98728445Y-115805188D01*
X98322514Y-115737899D01*
X98238399Y-115719521D01*
X98174433Y-115695561D01*
X98139633Y-115673736D01*
X98114436Y-115647727D01*
X98091885Y-115590326D01*
X98090117Y-115564242D01*
X98093974Y-115532407D01*
X98105345Y-115503456D01*
X98149539Y-115454718D01*
X98227581Y-115416982D01*
X98347909Y-115395456D01*
X98406533Y-115393395D01*
X98488703Y-115397336D01*
X98569337Y-115409297D01*
X98723994Y-115456336D01*
X98882292Y-115537979D01*
X99008470Y-115625914D01*
X99263337Y-115270174D01*
X99113415Y-115169009D01*
X98932213Y-115083919D01*
X98729809Y-115023016D01*
X98625907Y-115003901D01*
X98521905Y-114992881D01*
X98440117Y-114990150D01*
X98330319Y-114994024D01*
X98227550Y-115005513D01*
X98135510Y-115023577D01*
X98050467Y-115048330D01*
X97975748Y-115078165D01*
X97907883Y-115113820D01*
X97849384Y-115153370D01*
X97797573Y-115197995D01*
X97753941Y-115245926D01*
X97716924Y-115298361D01*
X97687116Y-115354237D01*
X97664036Y-115414230D01*
X97638667Y-115546465D01*
X97636558Y-115600635D01*
X97640444Y-115672903D01*
X97652019Y-115740789D01*
X97670353Y-115801977D01*
X97695609Y-115858793D01*
X97726989Y-115910124D01*
X97764807Y-115956977D01*
X97859550Y-116036845D01*
X97981862Y-116098224D01*
X98132126Y-116138457D01*
X98563337Y-116214173D01*
X98658249Y-116234570D01*
X98731061Y-116260128D01*
X98771480Y-116283003D01*
X98801421Y-116309894D01*
X98819374Y-116336824D01*
X98830362Y-116367489D01*
X98834935Y-116410178D01*
X98831069Y-116444627D01*
X98819635Y-116475961D01*
X98775694Y-116528321D01*
X98698980Y-116569393D01*
X98580480Y-116595478D01*
X98482126Y-116600687D01*
X98396189Y-116596701D01*
X98313000Y-116584430D01*
X98236509Y-116564991D01*
X98160481Y-116537477D01*
X98004092Y-116455459D01*
X97829754Y-116328967D01*
X97560965Y-116679089D01*
X97338743Y-116679089D01*
X97338743Y-114760112D01*
X117644648Y-114760112D01*
X117644648Y-117228841D01*
G37*
G36*
X103610668Y-111321874D02*
G01*
X103682819Y-111348451D01*
X103746767Y-111391465D01*
X103799337Y-111449116D01*
X103820326Y-111482562D01*
X103837386Y-111518679D01*
X103850112Y-111556729D01*
X103858443Y-111596821D01*
X103862259Y-111649294D01*
X103853212Y-111728040D01*
X103826678Y-111800968D01*
X103783868Y-111865281D01*
X103756906Y-111893229D01*
X103726738Y-111917759D01*
X103693734Y-111938538D01*
X103658113Y-111955344D01*
X103620698Y-111967746D01*
X103581289Y-111975731D01*
X103532971Y-111979096D01*
X103351547Y-111979096D01*
X103351547Y-111312826D01*
X103532971Y-111312826D01*
X103610668Y-111321874D01*
G37*
G36*
X107624967Y-111718611D02*
G01*
X107339422Y-111718611D01*
X107483843Y-111342721D01*
X107624967Y-111718611D01*
G37*
G36*
X110342318Y-111750440D02*
G01*
X110371147Y-111757164D01*
X110395362Y-111767528D01*
X110415925Y-111781486D01*
X110431970Y-111798036D01*
X110444164Y-111817469D01*
X110452170Y-111839191D01*
X110455993Y-111863304D01*
X110456303Y-111872850D01*
X110453999Y-111898337D01*
X110447247Y-111921396D01*
X110436559Y-111941424D01*
X110422066Y-111958725D01*
X110382078Y-111984569D01*
X110327133Y-111997016D01*
X110310124Y-111997634D01*
X110009412Y-111997634D01*
X110009412Y-111748140D01*
X110310124Y-111748140D01*
X110342318Y-111750440D01*
G37*
G36*
X110316348Y-111296587D02*
G01*
X110344343Y-111303301D01*
X110367613Y-111313604D01*
X110387166Y-111327457D01*
X110402135Y-111343807D01*
X110413203Y-111362976D01*
X110420050Y-111384384D01*
X110422653Y-111408118D01*
X110422671Y-111410352D01*
X110420367Y-111434760D01*
X110413622Y-111456752D01*
X110388489Y-111492025D01*
X110348436Y-111515895D01*
X110293142Y-111526195D01*
X110284918Y-111526343D01*
X110009412Y-111526343D01*
X110009412Y-111294288D01*
X110284918Y-111294288D01*
X110316348Y-111296587D01*
G37*
G36*
X111452622Y-111321874D02*
G01*
X111524773Y-111348451D01*
X111588721Y-111391465D01*
X111641291Y-111449116D01*
X111662280Y-111482562D01*
X111679340Y-111518679D01*
X111692066Y-111556729D01*
X111700397Y-111596821D01*
X111704213Y-111649294D01*
X111695166Y-111728040D01*
X111668632Y-111800968D01*
X111625822Y-111865281D01*
X111598860Y-111893229D01*
X111568692Y-111917759D01*
X111535688Y-111938538D01*
X111500067Y-111955344D01*
X111462652Y-111967746D01*
X111423243Y-111975731D01*
X111374925Y-111979096D01*
X111193501Y-111979096D01*
X111193501Y-111312826D01*
X111374925Y-111312826D01*
X111452622Y-111321874D01*
G37*
G36*
X112762273Y-111718611D02*
G01*
X112476729Y-111718611D01*
X112621149Y-111342721D01*
X112762273Y-111718611D01*
G37*
G36*
X113401335Y-112367785D02*
G01*
X101743598Y-112367785D01*
X101743598Y-111312826D01*
X101876931Y-111312826D01*
X102261687Y-111312826D01*
X102261687Y-112234452D01*
X102550602Y-112234452D01*
X102550602Y-111979096D01*
X103062559Y-111979096D01*
X103062559Y-112234452D01*
X103539712Y-112234452D01*
X104313473Y-112234452D01*
X104602461Y-112234452D01*
X104602461Y-111694724D01*
X105074558Y-112234452D01*
X105457555Y-112234452D01*
X105864513Y-112234452D01*
X106773389Y-112234452D01*
X106842119Y-112234452D01*
X107142831Y-112234452D01*
X107252008Y-111948834D01*
X107710696Y-111948834D01*
X107818187Y-112234452D01*
X108130696Y-112234452D01*
X108216278Y-112234452D01*
X108481746Y-112234452D01*
X108481746Y-111429036D01*
X108868114Y-112150408D01*
X109254555Y-111432407D01*
X109254555Y-112234452D01*
X109526690Y-112234452D01*
X109526690Y-111526343D01*
X109720424Y-111526343D01*
X109720424Y-111997634D01*
X109720424Y-112234452D01*
X110331959Y-112234452D01*
X110386407Y-112232137D01*
X110437923Y-112225314D01*
X110485661Y-112214341D01*
X110530120Y-112199330D01*
X110570321Y-112180862D01*
X110606969Y-112158843D01*
X110639155Y-112134057D01*
X110667573Y-112106189D01*
X110691556Y-112076083D01*
X110711580Y-112043316D01*
X110727264Y-112008572D01*
X110736417Y-111979096D01*
X110904513Y-111979096D01*
X110904513Y-112234452D01*
X111381666Y-112234452D01*
X111979426Y-112234452D01*
X112280137Y-112234452D01*
X112389314Y-111948834D01*
X112848002Y-111948834D01*
X112955493Y-112234452D01*
X113268002Y-112234452D01*
X112792535Y-111057396D01*
X112461561Y-111057396D01*
X112190720Y-111718611D01*
X111979426Y-112234452D01*
X111381666Y-112234452D01*
X111493416Y-112225326D01*
X111599905Y-112198382D01*
X111698864Y-112154481D01*
X111787727Y-112094930D01*
X111827533Y-112059860D01*
X111863877Y-112021591D01*
X111896364Y-111980573D01*
X111924980Y-111936817D01*
X111949218Y-111891133D01*
X111969250Y-111843193D01*
X111984627Y-111794087D01*
X111995531Y-111743195D01*
X112003239Y-111649294D01*
X111994104Y-111545700D01*
X111967075Y-111446742D01*
X111922761Y-111354150D01*
X111862035Y-111270066D01*
X111786248Y-111196919D01*
X111743277Y-111165214D01*
X111697328Y-111137164D01*
X111648764Y-111113041D01*
X111597684Y-111092973D01*
X111544823Y-111077299D01*
X111489927Y-111066014D01*
X111381666Y-111057396D01*
X110904513Y-111057396D01*
X110904513Y-111979096D01*
X110736417Y-111979096D01*
X110738769Y-111971521D01*
X110745904Y-111932506D01*
X110748573Y-111891477D01*
X110748588Y-111888017D01*
X110739512Y-111820385D01*
X110712538Y-111756422D01*
X110667738Y-111697762D01*
X110605523Y-111647147D01*
X110577203Y-111630537D01*
X110610091Y-111604189D01*
X110639024Y-111574895D01*
X110662879Y-111544033D01*
X110682375Y-111510885D01*
X110696655Y-111477207D01*
X110706346Y-111441843D01*
X110711659Y-111388516D01*
X110709344Y-111349467D01*
X110702523Y-111312207D01*
X110675993Y-111243468D01*
X110632884Y-111182985D01*
X110573573Y-111132004D01*
X110498475Y-111092446D01*
X110408542Y-111066735D01*
X110358383Y-111059858D01*
X110305515Y-111057400D01*
X110303382Y-111057396D01*
X109720424Y-111057396D01*
X109720424Y-111526343D01*
X109526690Y-111526343D01*
X109526690Y-111057396D01*
X109162158Y-111057396D01*
X108871484Y-111612365D01*
X108580884Y-111057396D01*
X108216278Y-111057396D01*
X108216278Y-112234452D01*
X108130696Y-112234452D01*
X107655228Y-111057396D01*
X107324255Y-111057396D01*
X107053414Y-111718611D01*
X106842119Y-112234452D01*
X106773389Y-112234452D01*
X106773389Y-111979096D01*
X106153501Y-111979096D01*
X106153501Y-111057396D01*
X105864513Y-111057396D01*
X105864513Y-112234452D01*
X105457555Y-112234452D01*
X104883023Y-111610680D01*
X105427294Y-111057396D01*
X105077856Y-111057396D01*
X104602461Y-111571992D01*
X104602461Y-111057396D01*
X104313473Y-111057396D01*
X104313473Y-112234452D01*
X103539712Y-112234452D01*
X103651462Y-112225326D01*
X103757951Y-112198382D01*
X103856910Y-112154481D01*
X103945773Y-112094930D01*
X103985579Y-112059860D01*
X104021923Y-112021591D01*
X104054411Y-111980573D01*
X104083026Y-111936817D01*
X104107264Y-111891133D01*
X104127296Y-111843193D01*
X104142673Y-111794087D01*
X104153577Y-111743195D01*
X104161285Y-111649294D01*
X104152150Y-111545700D01*
X104125121Y-111446742D01*
X104080807Y-111354150D01*
X104020081Y-111270066D01*
X103944294Y-111196919D01*
X103901323Y-111165214D01*
X103855374Y-111137164D01*
X103806810Y-111113041D01*
X103755730Y-111092973D01*
X103702869Y-111077299D01*
X103647973Y-111066014D01*
X103539712Y-111057396D01*
X103062559Y-111057396D01*
X103062559Y-111979096D01*
X102550602Y-111979096D01*
X102550602Y-111312826D01*
X102935357Y-111312826D01*
X102935357Y-111057396D01*
X101876931Y-111057396D01*
X101876931Y-111312826D01*
X101743598Y-111312826D01*
X101743598Y-110924063D01*
X113401335Y-110924063D01*
X113401335Y-112367785D01*
G37*
D14*
G36*
X113953700Y-101955307D02*
G01*
X113979555Y-101959819D01*
X114027945Y-101977481D01*
X114070365Y-102005942D01*
X114105061Y-102044101D01*
X114118950Y-102066354D01*
X114130280Y-102090472D01*
X114138839Y-102116128D01*
X114144532Y-102143289D01*
X114147375Y-102181648D01*
X114145838Y-102209990D01*
X114141333Y-102237106D01*
X114123752Y-102287638D01*
X114095617Y-102331564D01*
X114077992Y-102350488D01*
X114058251Y-102367100D01*
X114036663Y-102381173D01*
X114013317Y-102392613D01*
X113988666Y-102401173D01*
X113962623Y-102406830D01*
X113926726Y-102409575D01*
X113899752Y-102408037D01*
X113873897Y-102403526D01*
X113825508Y-102385863D01*
X113783091Y-102357402D01*
X113748397Y-102319242D01*
X113734508Y-102296987D01*
X113723177Y-102272866D01*
X113714617Y-102247206D01*
X113708923Y-102220040D01*
X113706077Y-102181648D01*
X113707614Y-102153315D01*
X113712119Y-102126208D01*
X113729701Y-102075688D01*
X113757839Y-102031768D01*
X113775466Y-102012845D01*
X113795210Y-101996235D01*
X113816800Y-101982164D01*
X113840149Y-101970724D01*
X113864803Y-101962167D01*
X113890848Y-101956512D01*
X113926726Y-101953769D01*
X113953700Y-101955307D01*
G37*
G36*
X111153238Y-101955494D02*
G01*
X111171993Y-101959950D01*
X111188322Y-101966965D01*
X111202401Y-101976411D01*
X111213748Y-101987768D01*
X111222563Y-102001077D01*
X111228567Y-102015878D01*
X111231753Y-102032228D01*
X111232239Y-102042039D01*
X111230707Y-102059226D01*
X111226236Y-102074950D01*
X111209336Y-102101228D01*
X111182606Y-102119919D01*
X111146767Y-102129357D01*
X111132588Y-102130064D01*
X110942176Y-102130064D01*
X110942176Y-101953965D01*
X111132588Y-101953965D01*
X111153238Y-101955494D01*
G37*
G36*
X111985679Y-102230106D02*
G01*
X111795316Y-102230106D01*
X111891597Y-101979512D01*
X111985679Y-102230106D01*
G37*
G36*
X112745293Y-101965615D02*
G01*
X112793394Y-101983333D01*
X112836026Y-102012009D01*
X112871072Y-102050443D01*
X112885065Y-102072740D01*
X112896438Y-102096818D01*
X112904922Y-102122185D01*
X112910477Y-102148913D01*
X112913020Y-102183895D01*
X112906989Y-102236392D01*
X112889300Y-102285011D01*
X112860760Y-102327886D01*
X112842785Y-102346518D01*
X112822673Y-102362871D01*
X112800671Y-102376724D01*
X112776923Y-102387928D01*
X112751980Y-102396196D01*
X112725707Y-102401519D01*
X112693495Y-102403762D01*
X112572546Y-102403762D01*
X112572546Y-101959582D01*
X112693495Y-101959582D01*
X112745293Y-101965615D01*
G37*
G36*
X114434491Y-102675394D02*
G01*
X110660628Y-102675394D01*
X110660628Y-102130064D01*
X110749517Y-102130064D01*
X110749517Y-102574000D01*
X110942176Y-102574000D01*
X110942176Y-102286868D01*
X111088868Y-102286868D01*
X111236733Y-102574000D01*
X111451764Y-102574000D01*
X111463781Y-102574000D01*
X111664256Y-102574000D01*
X111737040Y-102383588D01*
X112042832Y-102383588D01*
X112114493Y-102574000D01*
X112322832Y-102574000D01*
X112254065Y-102403762D01*
X112379887Y-102403762D01*
X112379887Y-102574000D01*
X112697989Y-102574000D01*
X113213830Y-102574000D01*
X113406489Y-102574000D01*
X113406489Y-102181648D01*
X113507849Y-102181648D01*
X113513942Y-102252313D01*
X113531959Y-102319760D01*
X113561460Y-102382802D01*
X113601825Y-102440003D01*
X113652127Y-102489773D01*
X113680615Y-102511368D01*
X113711090Y-102530529D01*
X113743282Y-102547056D01*
X113777162Y-102560888D01*
X113812233Y-102571794D01*
X113848682Y-102579788D01*
X113885843Y-102584688D01*
X113924080Y-102586497D01*
X113926726Y-102586505D01*
X114001091Y-102580416D01*
X114071875Y-102562445D01*
X114137704Y-102533142D01*
X114197009Y-102493303D01*
X114223709Y-102469762D01*
X114248158Y-102444045D01*
X114270161Y-102416365D01*
X114289640Y-102386798D01*
X114306313Y-102355776D01*
X114320232Y-102323174D01*
X114331123Y-102289613D01*
X114339070Y-102254776D01*
X114343886Y-102219394D01*
X114345600Y-102183027D01*
X114345602Y-102181648D01*
X114339509Y-102110995D01*
X114321492Y-102043552D01*
X114291988Y-101980509D01*
X114251619Y-101923303D01*
X114201312Y-101873528D01*
X114172821Y-101851930D01*
X114142344Y-101832768D01*
X114110151Y-101816240D01*
X114076271Y-101802406D01*
X114041201Y-101791500D01*
X114004752Y-101783506D01*
X113967595Y-101778606D01*
X113929362Y-101776798D01*
X113926726Y-101776791D01*
X113852371Y-101782880D01*
X113781593Y-101800851D01*
X113715766Y-101830154D01*
X113656459Y-101869996D01*
X113629757Y-101893538D01*
X113605305Y-101919257D01*
X113583300Y-101946939D01*
X113563818Y-101976508D01*
X113547143Y-102007531D01*
X113533223Y-102040134D01*
X113522330Y-102073694D01*
X113514382Y-102108529D01*
X113509566Y-102143906D01*
X113507852Y-102180269D01*
X113507849Y-102181648D01*
X113406489Y-102181648D01*
X113406489Y-101789296D01*
X113213830Y-101789296D01*
X113213830Y-102574000D01*
X112697989Y-102574000D01*
X112772489Y-102567916D01*
X112843482Y-102549953D01*
X112909454Y-102520686D01*
X112968696Y-102480985D01*
X112995234Y-102457605D01*
X113019463Y-102432093D01*
X113041121Y-102404747D01*
X113060198Y-102375577D01*
X113076357Y-102345121D01*
X113089712Y-102313161D01*
X113099963Y-102280423D01*
X113107233Y-102246495D01*
X113112371Y-102183895D01*
X113106281Y-102114832D01*
X113088262Y-102048860D01*
X113058719Y-101987132D01*
X113018235Y-101931076D01*
X112967710Y-101882311D01*
X112939063Y-101861175D01*
X112908431Y-101842474D01*
X112876055Y-101826393D01*
X112842001Y-101813014D01*
X112806761Y-101802565D01*
X112770163Y-101795041D01*
X112697989Y-101789296D01*
X112379887Y-101789296D01*
X112379887Y-102403762D01*
X112254065Y-102403762D01*
X112005854Y-101789296D01*
X111785205Y-101789296D01*
X111604644Y-102230106D01*
X111463781Y-102574000D01*
X111451764Y-102574000D01*
X111280404Y-102258877D01*
X111306458Y-102245303D01*
X111330457Y-102229309D01*
X111352147Y-102211123D01*
X111371443Y-102190849D01*
X111387971Y-102168942D01*
X111401827Y-102145305D01*
X111412658Y-102120584D01*
X111420594Y-102094487D01*
X111425408Y-102067726D01*
X111427141Y-102039916D01*
X111427145Y-102038668D01*
X111425603Y-102009974D01*
X111421061Y-101982506D01*
X111413603Y-101956257D01*
X111403374Y-101931479D01*
X111374812Y-101886431D01*
X111336038Y-101848414D01*
X111287807Y-101818694D01*
X111260387Y-101807361D01*
X111231094Y-101798660D01*
X111199914Y-101792703D01*
X111167135Y-101789672D01*
X111150466Y-101789296D01*
X110749517Y-101789296D01*
X110749517Y-102130064D01*
X110660628Y-102130064D01*
X110660628Y-101687902D01*
X114434491Y-101687902D01*
X114434491Y-102675394D01*
G37*
D13*
G36*
X103557351Y-113153072D02*
G01*
X103590856Y-113159955D01*
X103621516Y-113171009D01*
X103649911Y-113186201D01*
X103699691Y-113228696D01*
X103740140Y-113288173D01*
X103769911Y-113366178D01*
X103786486Y-113464121D01*
X103788840Y-113522901D01*
X103786522Y-113581248D01*
X103779676Y-113635304D01*
X103768978Y-113683023D01*
X103754389Y-113726399D01*
X103736994Y-113763529D01*
X103716320Y-113796387D01*
X103693666Y-113823590D01*
X103668250Y-113846625D01*
X103641185Y-113864784D01*
X103611741Y-113878801D01*
X103546942Y-113893834D01*
X103521687Y-113894981D01*
X103486029Y-113892657D01*
X103452528Y-113885773D01*
X103421874Y-113874720D01*
X103393483Y-113859527D01*
X103343712Y-113817030D01*
X103303273Y-113757548D01*
X103273514Y-113679537D01*
X103256952Y-113581583D01*
X103254607Y-113522901D01*
X103256925Y-113464552D01*
X103263771Y-113410492D01*
X103274469Y-113362763D01*
X103289059Y-113319375D01*
X103306454Y-113282232D01*
X103327130Y-113249362D01*
X103349783Y-113222150D01*
X103375198Y-113199107D01*
X103402259Y-113180944D01*
X103431697Y-113166924D01*
X103463018Y-113157265D01*
X103496470Y-113151894D01*
X103521687Y-113150748D01*
X103557351Y-113153072D01*
G37*
G36*
X104722682Y-113153072D02*
G01*
X104756188Y-113159955D01*
X104786848Y-113171009D01*
X104815243Y-113186201D01*
X104865023Y-113228696D01*
X104905472Y-113288173D01*
X104935243Y-113366178D01*
X104951818Y-113464121D01*
X104954171Y-113522901D01*
X104951853Y-113581248D01*
X104945007Y-113635304D01*
X104934309Y-113683023D01*
X104919720Y-113726399D01*
X104902326Y-113763529D01*
X104881651Y-113796387D01*
X104858997Y-113823590D01*
X104833582Y-113846625D01*
X104806517Y-113864784D01*
X104777073Y-113878801D01*
X104712273Y-113893834D01*
X104687018Y-113894981D01*
X104651360Y-113892657D01*
X104617860Y-113885773D01*
X104587205Y-113874720D01*
X104558815Y-113859527D01*
X104509044Y-113817030D01*
X104468605Y-113757548D01*
X104438845Y-113679537D01*
X104422284Y-113581583D01*
X104419939Y-113522901D01*
X104422256Y-113464552D01*
X104429102Y-113410492D01*
X104439801Y-113362763D01*
X104454390Y-113319375D01*
X104471786Y-113282232D01*
X104492461Y-113249362D01*
X104515115Y-113222150D01*
X104540530Y-113199107D01*
X104567590Y-113180944D01*
X104597028Y-113166924D01*
X104628349Y-113157265D01*
X104661802Y-113151894D01*
X104687018Y-113150748D01*
X104722682Y-113153072D01*
G37*
G36*
X105844162Y-113610776D02*
G01*
X105878364Y-113617444D01*
X105908932Y-113628042D01*
X105935870Y-113642314D01*
X105958189Y-113659373D01*
X105976429Y-113679322D01*
X105989798Y-113700930D01*
X105998817Y-113724699D01*
X106003585Y-113760965D01*
X106001283Y-113786421D01*
X105994553Y-113810195D01*
X105968426Y-113852280D01*
X105925721Y-113885653D01*
X105866951Y-113907255D01*
X105806994Y-113913446D01*
X105769828Y-113911153D01*
X105735633Y-113904486D01*
X105705078Y-113893888D01*
X105678152Y-113879619D01*
X105655846Y-113862561D01*
X105637617Y-113842615D01*
X105624254Y-113821004D01*
X105615241Y-113797234D01*
X105610476Y-113760965D01*
X105612777Y-113735497D01*
X105619509Y-113711713D01*
X105645634Y-113669622D01*
X105688331Y-113636255D01*
X105747088Y-113614665D01*
X105806994Y-113608484D01*
X105844162Y-113610776D01*
G37*
G36*
X105839041Y-113132889D02*
G01*
X105868742Y-113139544D01*
X105895739Y-113150264D01*
X105919560Y-113164713D01*
X105939457Y-113182210D01*
X105955506Y-113202676D01*
X105967011Y-113225028D01*
X105974191Y-113249594D01*
X105976694Y-113276338D01*
X105974402Y-113301956D01*
X105967738Y-113325781D01*
X105941949Y-113367739D01*
X105900535Y-113399885D01*
X105845351Y-113418695D01*
X105806994Y-113422004D01*
X105774951Y-113419714D01*
X105745251Y-113413058D01*
X105718258Y-113402337D01*
X105694442Y-113387887D01*
X105674555Y-113370391D01*
X105658516Y-113349925D01*
X105647024Y-113327576D01*
X105639856Y-113303011D01*
X105637367Y-113276338D01*
X105639659Y-113250718D01*
X105646322Y-113226887D01*
X105672113Y-113184901D01*
X105713527Y-113152728D01*
X105768687Y-113133907D01*
X105806994Y-113130598D01*
X105839041Y-113132889D01*
G37*
G36*
X108228056Y-113153072D02*
G01*
X108261561Y-113159955D01*
X108292221Y-113171009D01*
X108320616Y-113186201D01*
X108370396Y-113228696D01*
X108410845Y-113288173D01*
X108440616Y-113366178D01*
X108457191Y-113464121D01*
X108459544Y-113522901D01*
X108457227Y-113581248D01*
X108450380Y-113635304D01*
X108439683Y-113683023D01*
X108425094Y-113726399D01*
X108407699Y-113763529D01*
X108387024Y-113796387D01*
X108364371Y-113823590D01*
X108338955Y-113846625D01*
X108311890Y-113864784D01*
X108282446Y-113878801D01*
X108217647Y-113893834D01*
X108192392Y-113894981D01*
X108156733Y-113892657D01*
X108123233Y-113885773D01*
X108092578Y-113874720D01*
X108064188Y-113859527D01*
X108014417Y-113817030D01*
X107973978Y-113757548D01*
X107944219Y-113679537D01*
X107927657Y-113581583D01*
X107925312Y-113522901D01*
X107927630Y-113464552D01*
X107934476Y-113410492D01*
X107945174Y-113362763D01*
X107959763Y-113319375D01*
X107977159Y-113282232D01*
X107997834Y-113249362D01*
X108020488Y-113222150D01*
X108045903Y-113199107D01*
X108072964Y-113180944D01*
X108102402Y-113166924D01*
X108133722Y-113157265D01*
X108167175Y-113151894D01*
X108192392Y-113150748D01*
X108228056Y-113153072D01*
G37*
G36*
X113481426Y-113153072D02*
G01*
X113514932Y-113159955D01*
X113545592Y-113171009D01*
X113573987Y-113186201D01*
X113623767Y-113228696D01*
X113664216Y-113288173D01*
X113693987Y-113366178D01*
X113710562Y-113464121D01*
X113712915Y-113522901D01*
X113710597Y-113581248D01*
X113703751Y-113635304D01*
X113693053Y-113683023D01*
X113678464Y-113726399D01*
X113661070Y-113763529D01*
X113640395Y-113796387D01*
X113617741Y-113823590D01*
X113592326Y-113846625D01*
X113565261Y-113864784D01*
X113535817Y-113878801D01*
X113471017Y-113893834D01*
X113445762Y-113894981D01*
X113410104Y-113892657D01*
X113376604Y-113885773D01*
X113345949Y-113874720D01*
X113317558Y-113859527D01*
X113267787Y-113817030D01*
X113227349Y-113757548D01*
X113197589Y-113679537D01*
X113181028Y-113581583D01*
X113178683Y-113522901D01*
X113181000Y-113464552D01*
X113187846Y-113410492D01*
X113198544Y-113362763D01*
X113213134Y-113319375D01*
X113230529Y-113282232D01*
X113251205Y-113249362D01*
X113273859Y-113222150D01*
X113299273Y-113199107D01*
X113326334Y-113180944D01*
X113355772Y-113166924D01*
X113387093Y-113157265D01*
X113420546Y-113151894D01*
X113445762Y-113150748D01*
X113481426Y-113153072D01*
G37*
G36*
X114646758Y-113153072D02*
G01*
X114680263Y-113159955D01*
X114710923Y-113171009D01*
X114739318Y-113186201D01*
X114789098Y-113228696D01*
X114829547Y-113288173D01*
X114859318Y-113366178D01*
X114875893Y-113464121D01*
X114878246Y-113522901D01*
X114875929Y-113581248D01*
X114869083Y-113635304D01*
X114858385Y-113683023D01*
X114843796Y-113726399D01*
X114826401Y-113763529D01*
X114805727Y-113796387D01*
X114783073Y-113823590D01*
X114757657Y-113846625D01*
X114730592Y-113864784D01*
X114701148Y-113878801D01*
X114636349Y-113893834D01*
X114611094Y-113894981D01*
X114575436Y-113892657D01*
X114541935Y-113885773D01*
X114511280Y-113874720D01*
X114482890Y-113859527D01*
X114433119Y-113817030D01*
X114392680Y-113757548D01*
X114362921Y-113679537D01*
X114346359Y-113581583D01*
X114344014Y-113522901D01*
X114346332Y-113464552D01*
X114353178Y-113410492D01*
X114363876Y-113362763D01*
X114378465Y-113319375D01*
X114395861Y-113282232D01*
X114416536Y-113249362D01*
X114439190Y-113222150D01*
X114464605Y-113199107D01*
X114491666Y-113180944D01*
X114521104Y-113166924D01*
X114552424Y-113157265D01*
X114585877Y-113151894D01*
X114611094Y-113150748D01*
X114646758Y-113153072D01*
G37*
G36*
X99652294Y-113595515D02*
G01*
X99366750Y-113595515D01*
X99511170Y-113219625D01*
X99652294Y-113595515D01*
G37*
G36*
X100853456Y-113623651D02*
G01*
X100505703Y-113623651D01*
X100853456Y-113233620D01*
X100853456Y-113623651D01*
G37*
G36*
X107115574Y-113595515D02*
G01*
X106830029Y-113595515D01*
X106974450Y-113219625D01*
X107115574Y-113595515D01*
G37*
G36*
X117299822Y-113183598D02*
G01*
X117327954Y-113190281D01*
X117352448Y-113200804D01*
X117373567Y-113214973D01*
X117390587Y-113232008D01*
X117403810Y-113251972D01*
X117412815Y-113274173D01*
X117417595Y-113298698D01*
X117418323Y-113313414D01*
X117416025Y-113339195D01*
X117409319Y-113362781D01*
X117383969Y-113402198D01*
X117343874Y-113430235D01*
X117290115Y-113444392D01*
X117268847Y-113445452D01*
X116983229Y-113445452D01*
X116983229Y-113181303D01*
X117268847Y-113181303D01*
X117299822Y-113183598D01*
G37*
G36*
X117880944Y-114263446D02*
G01*
X97305974Y-114263446D01*
X97305974Y-114111356D01*
X97439307Y-114111356D01*
X97728295Y-114111356D01*
X97728295Y-113940337D01*
X97873595Y-113940337D01*
X97941616Y-114004220D01*
X98025787Y-114057712D01*
X98124453Y-114098187D01*
X98234661Y-114122978D01*
X98337266Y-114130113D01*
X98396075Y-114127803D01*
X98452121Y-114121011D01*
X98498391Y-114111356D01*
X98869447Y-114111356D01*
X99170158Y-114111356D01*
X99279335Y-113825738D01*
X99738023Y-113825738D01*
X99845514Y-114111356D01*
X100158023Y-114111356D01*
X99963740Y-113630392D01*
X100191582Y-113630392D01*
X100191582Y-113850504D01*
X100853456Y-113850504D01*
X100853456Y-114111356D01*
X101125591Y-114111356D01*
X101125591Y-113850504D01*
X101271770Y-113850504D01*
X101271770Y-113623651D01*
X101125591Y-113623651D01*
X101125591Y-112934300D01*
X101350172Y-112934300D01*
X101612269Y-114111356D01*
X101917964Y-114111356D01*
X102126279Y-113361481D01*
X102332981Y-114111356D01*
X102638676Y-114111356D01*
X102769708Y-113522901D01*
X102989140Y-113522901D01*
X102991461Y-113587852D01*
X102998328Y-113649932D01*
X103009438Y-113708294D01*
X103024708Y-113763547D01*
X103043692Y-113814808D01*
X103066450Y-113862758D01*
X103092412Y-113906586D01*
X103121777Y-113946926D01*
X103153927Y-113983135D01*
X103189140Y-114015688D01*
X103226860Y-114044156D01*
X103267342Y-114068790D01*
X103310210Y-114089352D01*
X103355578Y-114105871D01*
X103403333Y-114118220D01*
X103453358Y-114126274D01*
X103521687Y-114130113D01*
X103575084Y-114127790D01*
X103626310Y-114120908D01*
X103674856Y-114109708D01*
X103721035Y-114094278D01*
X103764576Y-114074824D01*
X103805538Y-114051424D01*
X103879403Y-113993153D01*
X103941962Y-113919930D01*
X103992184Y-113832032D01*
X104028667Y-113729745D01*
X104049723Y-113613561D01*
X104054307Y-113522901D01*
X104154471Y-113522901D01*
X104156792Y-113587852D01*
X104163659Y-113649932D01*
X104174769Y-113708294D01*
X104190039Y-113763547D01*
X104209023Y-113814808D01*
X104231781Y-113862758D01*
X104257743Y-113906586D01*
X104287109Y-113946926D01*
X104319259Y-113983135D01*
X104354472Y-114015688D01*
X104392192Y-114044156D01*
X104432674Y-114068790D01*
X104475542Y-114089352D01*
X104520909Y-114105871D01*
X104568664Y-114118220D01*
X104618689Y-114126274D01*
X104687018Y-114130113D01*
X104740415Y-114127790D01*
X104791641Y-114120908D01*
X104840188Y-114109708D01*
X104886366Y-114094278D01*
X104929908Y-114074824D01*
X104970869Y-114051424D01*
X105044735Y-113993153D01*
X105107293Y-113919930D01*
X105157515Y-113832032D01*
X105176277Y-113779429D01*
X105348379Y-113779429D01*
X105350696Y-113818976D01*
X105357539Y-113856756D01*
X105384154Y-113926534D01*
X105427564Y-113988457D01*
X105487738Y-114041634D01*
X105564783Y-114084396D01*
X105658368Y-114114418D01*
X105767322Y-114129079D01*
X105806994Y-114130113D01*
X105865973Y-114127800D01*
X105921891Y-114120986D01*
X105967535Y-114111356D01*
X106332727Y-114111356D01*
X106633438Y-114111356D01*
X106742615Y-113825738D01*
X107201303Y-113825738D01*
X107308794Y-114111356D01*
X107621303Y-114111356D01*
X107383598Y-113522901D01*
X107659844Y-113522901D01*
X107662165Y-113587852D01*
X107669033Y-113649932D01*
X107680143Y-113708294D01*
X107695413Y-113763547D01*
X107714397Y-113814808D01*
X107737154Y-113862758D01*
X107763116Y-113906586D01*
X107792482Y-113946926D01*
X107824632Y-113983135D01*
X107859845Y-114015688D01*
X107897565Y-114044156D01*
X107938047Y-114068790D01*
X107980915Y-114089352D01*
X108026283Y-114105871D01*
X108074037Y-114118220D01*
X108124063Y-114126274D01*
X108192392Y-114130113D01*
X108245789Y-114127790D01*
X108297014Y-114120908D01*
X108345561Y-114109708D01*
X108391740Y-114094278D01*
X108435281Y-114074824D01*
X108476243Y-114051424D01*
X108550108Y-113993153D01*
X108595232Y-113940337D01*
X108823491Y-113940337D01*
X108891511Y-114004220D01*
X108975682Y-114057712D01*
X109074348Y-114098187D01*
X109184556Y-114122978D01*
X109287161Y-114130113D01*
X109345970Y-114127803D01*
X109402016Y-114121011D01*
X109454904Y-114109975D01*
X109504485Y-114094891D01*
X109549869Y-114076252D01*
X109591501Y-114054074D01*
X109628218Y-114029238D01*
X109660870Y-114001411D01*
X109688354Y-113971818D01*
X109711164Y-113940337D01*
X109863379Y-113940337D01*
X109931400Y-114004220D01*
X110015570Y-114057712D01*
X110114236Y-114098187D01*
X110224444Y-114122978D01*
X110327050Y-114130113D01*
X110385859Y-114127803D01*
X110441904Y-114121011D01*
X110494792Y-114109975D01*
X110544373Y-114094891D01*
X110589757Y-114076252D01*
X110631389Y-114054074D01*
X110668107Y-114029238D01*
X110700758Y-114001411D01*
X110728243Y-113971818D01*
X110751468Y-113939764D01*
X110769664Y-113906585D01*
X110783467Y-113871410D01*
X110792498Y-113835359D01*
X110796979Y-113797694D01*
X110797461Y-113780309D01*
X110795147Y-113746569D01*
X110788327Y-113714570D01*
X110761843Y-113656224D01*
X110718440Y-113605520D01*
X110657747Y-113563656D01*
X110579494Y-113532934D01*
X110543791Y-113524513D01*
X110583548Y-113510529D01*
X110620293Y-113492697D01*
X110653456Y-113471455D01*
X110683018Y-113446925D01*
X110708157Y-113419980D01*
X110729249Y-113390358D01*
X110745569Y-113359275D01*
X110757526Y-113326104D01*
X110764709Y-113292081D01*
X110767270Y-113256486D01*
X110767273Y-113255235D01*
X110764957Y-113216277D01*
X110758125Y-113179053D01*
X110731519Y-113110204D01*
X110688135Y-113049199D01*
X110628124Y-112997153D01*
X110551622Y-112955921D01*
X110480275Y-112934300D01*
X110859230Y-112934300D01*
X111334698Y-114111356D01*
X111665598Y-114111356D01*
X111816649Y-113742646D01*
X112149419Y-113742646D01*
X112799569Y-113742646D01*
X112799569Y-113522901D01*
X112913215Y-113522901D01*
X112915536Y-113587852D01*
X112922403Y-113649932D01*
X112933513Y-113708294D01*
X112948783Y-113763547D01*
X112967767Y-113814808D01*
X112990525Y-113862758D01*
X113016487Y-113906586D01*
X113045853Y-113946926D01*
X113078003Y-113983135D01*
X113113215Y-114015688D01*
X113150936Y-114044156D01*
X113191417Y-114068790D01*
X113234286Y-114089352D01*
X113279653Y-114105871D01*
X113327408Y-114118220D01*
X113377433Y-114126274D01*
X113445762Y-114130113D01*
X113499159Y-114127790D01*
X113550385Y-114120908D01*
X113598932Y-114109708D01*
X113645110Y-114094278D01*
X113688652Y-114074824D01*
X113729613Y-114051424D01*
X113803479Y-113993153D01*
X113866037Y-113919930D01*
X113916259Y-113832032D01*
X113952742Y-113729745D01*
X113973798Y-113613561D01*
X113978382Y-113522901D01*
X114078546Y-113522901D01*
X114080867Y-113587852D01*
X114087735Y-113649932D01*
X114098845Y-113708294D01*
X114114115Y-113763547D01*
X114133099Y-113814808D01*
X114155856Y-113862758D01*
X114181818Y-113906586D01*
X114211184Y-113946926D01*
X114243334Y-113983135D01*
X114278547Y-114015688D01*
X114316267Y-114044156D01*
X114356749Y-114068790D01*
X114399617Y-114089352D01*
X114444985Y-114105871D01*
X114492739Y-114118220D01*
X114542765Y-114126274D01*
X114611094Y-114130113D01*
X114664491Y-114127790D01*
X114715716Y-114120908D01*
X114764263Y-114109708D01*
X114810442Y-114094278D01*
X114853983Y-114074824D01*
X114894945Y-114051424D01*
X114968810Y-113993153D01*
X115031369Y-113919930D01*
X115081591Y-113832032D01*
X115118074Y-113729745D01*
X115139130Y-113613561D01*
X115143714Y-113522901D01*
X115141393Y-113457937D01*
X115134526Y-113395844D01*
X115123416Y-113337470D01*
X115108145Y-113282205D01*
X115089161Y-113230934D01*
X115066403Y-113182974D01*
X115040442Y-113139137D01*
X115011076Y-113098789D01*
X114987473Y-113072200D01*
X115223728Y-113072200D01*
X115223728Y-113307626D01*
X115467360Y-113210099D01*
X115467360Y-114111356D01*
X115739496Y-114111356D01*
X115739496Y-113742646D01*
X115883403Y-113742646D01*
X116533553Y-113742646D01*
X116533553Y-113515794D01*
X115883403Y-113515794D01*
X115883403Y-113742646D01*
X115739496Y-113742646D01*
X115739496Y-113445452D01*
X116694241Y-113445452D01*
X116694241Y-114111356D01*
X116983229Y-114111356D01*
X116983229Y-113680658D01*
X117203267Y-113680658D01*
X117425064Y-114111356D01*
X117747611Y-114111356D01*
X117490570Y-113638672D01*
X117529652Y-113618311D01*
X117565651Y-113594319D01*
X117598185Y-113567041D01*
X117627129Y-113536630D01*
X117651922Y-113503769D01*
X117672706Y-113468313D01*
X117688952Y-113431232D01*
X117700856Y-113392087D01*
X117708077Y-113351946D01*
X117710677Y-113310231D01*
X117710682Y-113308358D01*
X117708369Y-113265318D01*
X117701556Y-113224115D01*
X117690370Y-113184742D01*
X117675025Y-113147575D01*
X117632183Y-113080003D01*
X117574023Y-113022977D01*
X117501675Y-112978398D01*
X117460546Y-112961397D01*
X117416606Y-112948347D01*
X117369835Y-112939410D01*
X117320667Y-112934864D01*
X117295664Y-112934300D01*
X116694241Y-112934300D01*
X116694241Y-113445452D01*
X115739496Y-113445452D01*
X115739496Y-112934300D01*
X115568110Y-112934300D01*
X115223728Y-113072200D01*
X114987473Y-113072200D01*
X114978927Y-113062573D01*
X114943714Y-113030014D01*
X114905995Y-113001539D01*
X114865515Y-112976899D01*
X114822648Y-112956331D01*
X114777281Y-112939807D01*
X114729528Y-112927451D01*
X114679503Y-112919391D01*
X114611094Y-112915543D01*
X114557716Y-112917865D01*
X114506508Y-112924747D01*
X114457976Y-112935948D01*
X114411809Y-112951379D01*
X114368276Y-112970834D01*
X114327322Y-112994237D01*
X114253465Y-113052516D01*
X114190907Y-113125752D01*
X114140682Y-113213670D01*
X114104195Y-113315980D01*
X114083134Y-113432190D01*
X114078546Y-113522901D01*
X113978382Y-113522901D01*
X113976062Y-113457937D01*
X113969194Y-113395844D01*
X113958084Y-113337470D01*
X113942814Y-113282205D01*
X113923830Y-113230934D01*
X113901072Y-113182974D01*
X113875110Y-113139137D01*
X113845744Y-113098789D01*
X113813595Y-113062573D01*
X113778383Y-113030014D01*
X113740664Y-113001539D01*
X113700183Y-112976899D01*
X113657317Y-112956331D01*
X113611950Y-112939807D01*
X113564196Y-112927451D01*
X113514171Y-112919391D01*
X113445762Y-112915543D01*
X113392385Y-112917865D01*
X113341177Y-112924747D01*
X113292644Y-112935948D01*
X113246478Y-112951379D01*
X113202945Y-112970834D01*
X113161991Y-112994237D01*
X113088133Y-113052516D01*
X113025576Y-113125752D01*
X112975351Y-113213670D01*
X112938863Y-113315980D01*
X112917803Y-113432190D01*
X112913215Y-113522901D01*
X112799569Y-113522901D01*
X112799569Y-113515794D01*
X112149419Y-113515794D01*
X112149419Y-113742646D01*
X111816649Y-113742646D01*
X112147807Y-112934300D01*
X111847095Y-112934300D01*
X111506010Y-113810424D01*
X111171739Y-112934300D01*
X110859230Y-112934300D01*
X110480275Y-112934300D01*
X110459301Y-112927944D01*
X110352692Y-112915844D01*
X110332105Y-112915543D01*
X110226580Y-112924703D01*
X110122151Y-112952223D01*
X110071762Y-112972701D01*
X110023561Y-112997336D01*
X109978167Y-113025796D01*
X109935736Y-113058012D01*
X109871805Y-113120560D01*
X110048173Y-113280515D01*
X110093532Y-113234573D01*
X110136655Y-113199365D01*
X110169723Y-113178914D01*
X110203708Y-113163788D01*
X110274133Y-113148093D01*
X110322067Y-113145766D01*
X110357002Y-113148056D01*
X110389403Y-113154712D01*
X110418779Y-113165393D01*
X110444713Y-113179782D01*
X110466151Y-113196978D01*
X110483501Y-113217064D01*
X110495838Y-113238598D01*
X110503734Y-113262229D01*
X110506861Y-113290626D01*
X110504546Y-113318187D01*
X110497719Y-113342832D01*
X110487161Y-113363499D01*
X110472810Y-113381255D01*
X110433504Y-113407464D01*
X110378399Y-113420873D01*
X110353941Y-113422004D01*
X110229670Y-113422004D01*
X110229670Y-113635375D01*
X110380832Y-113635375D01*
X110415428Y-113637680D01*
X110446339Y-113644438D01*
X110471940Y-113654746D01*
X110493624Y-113668643D01*
X110510224Y-113684858D01*
X110522835Y-113703917D01*
X110531019Y-113724948D01*
X110534999Y-113748337D01*
X110535364Y-113758400D01*
X110533056Y-113782893D01*
X110526275Y-113805546D01*
X110500168Y-113844750D01*
X110456754Y-113875893D01*
X110394562Y-113896716D01*
X110323752Y-113903334D01*
X110265792Y-113900850D01*
X110215228Y-113892840D01*
X110179024Y-113881981D01*
X110145269Y-113866685D01*
X110083004Y-113822720D01*
X110038135Y-113778623D01*
X109863379Y-113940337D01*
X109711164Y-113940337D01*
X109711579Y-113939764D01*
X109729776Y-113906585D01*
X109743579Y-113871410D01*
X109752610Y-113835359D01*
X109757091Y-113797694D01*
X109757573Y-113780309D01*
X109755259Y-113746569D01*
X109748439Y-113714570D01*
X109721955Y-113656224D01*
X109678552Y-113605520D01*
X109617858Y-113563656D01*
X109539606Y-113532934D01*
X109503902Y-113524513D01*
X109543659Y-113510529D01*
X109580405Y-113492697D01*
X109613567Y-113471455D01*
X109643130Y-113446925D01*
X109668269Y-113419980D01*
X109689361Y-113390358D01*
X109705680Y-113359275D01*
X109717638Y-113326104D01*
X109724820Y-113292081D01*
X109727382Y-113256486D01*
X109727385Y-113255235D01*
X109725069Y-113216277D01*
X109718236Y-113179053D01*
X109691631Y-113110204D01*
X109648246Y-113049199D01*
X109588235Y-112997153D01*
X109511733Y-112955921D01*
X109419412Y-112927944D01*
X109312804Y-112915844D01*
X109292217Y-112915543D01*
X109186692Y-112924703D01*
X109082263Y-112952223D01*
X109031873Y-112972701D01*
X108983673Y-112997336D01*
X108938278Y-113025796D01*
X108895847Y-113058012D01*
X108831917Y-113120560D01*
X109008285Y-113280515D01*
X109053644Y-113234573D01*
X109096767Y-113199365D01*
X109129834Y-113178914D01*
X109163820Y-113163788D01*
X109234245Y-113148093D01*
X109282179Y-113145766D01*
X109317114Y-113148056D01*
X109349515Y-113154712D01*
X109378891Y-113165393D01*
X109404824Y-113179782D01*
X109426262Y-113196978D01*
X109443613Y-113217064D01*
X109455950Y-113238598D01*
X109463846Y-113262229D01*
X109466973Y-113290626D01*
X109464658Y-113318187D01*
X109457831Y-113342832D01*
X109447273Y-113363499D01*
X109432922Y-113381255D01*
X109393615Y-113407464D01*
X109338511Y-113420873D01*
X109314052Y-113422004D01*
X109189782Y-113422004D01*
X109189782Y-113635375D01*
X109340944Y-113635375D01*
X109375540Y-113637680D01*
X109406451Y-113644438D01*
X109432051Y-113654746D01*
X109453735Y-113668643D01*
X109470336Y-113684858D01*
X109482946Y-113703917D01*
X109491131Y-113724948D01*
X109495111Y-113748337D01*
X109495476Y-113758400D01*
X109493167Y-113782893D01*
X109486387Y-113805546D01*
X109460280Y-113844750D01*
X109416865Y-113875893D01*
X109354673Y-113896716D01*
X109283864Y-113903334D01*
X109225904Y-113900850D01*
X109175340Y-113892840D01*
X109139136Y-113881981D01*
X109105381Y-113866685D01*
X109043116Y-113822720D01*
X108998246Y-113778623D01*
X108823491Y-113940337D01*
X108595232Y-113940337D01*
X108612667Y-113919930D01*
X108662889Y-113832032D01*
X108699372Y-113729745D01*
X108720428Y-113613561D01*
X108725012Y-113522901D01*
X108722691Y-113457937D01*
X108715824Y-113395844D01*
X108704714Y-113337470D01*
X108689443Y-113282205D01*
X108670459Y-113230934D01*
X108647701Y-113182974D01*
X108621740Y-113139137D01*
X108592374Y-113098789D01*
X108560225Y-113062573D01*
X108525012Y-113030014D01*
X108487293Y-113001539D01*
X108446813Y-112976899D01*
X108403946Y-112956331D01*
X108358579Y-112939807D01*
X108310826Y-112927451D01*
X108260801Y-112919391D01*
X108192392Y-112915543D01*
X108139014Y-112917865D01*
X108087806Y-112924747D01*
X108039274Y-112935948D01*
X107993107Y-112951379D01*
X107949574Y-112970834D01*
X107908620Y-112994237D01*
X107834763Y-113052516D01*
X107772205Y-113125752D01*
X107721980Y-113213670D01*
X107685493Y-113315980D01*
X107664432Y-113432190D01*
X107659844Y-113522901D01*
X107383598Y-113522901D01*
X107145835Y-112934300D01*
X106814862Y-112934300D01*
X106544021Y-113595515D01*
X106332727Y-114111356D01*
X105967535Y-114111356D01*
X105973939Y-114110005D01*
X106022516Y-114094989D01*
X106066510Y-114076543D01*
X106106723Y-114054569D01*
X106141990Y-114029985D01*
X106173266Y-114002385D01*
X106199599Y-113972881D01*
X106221798Y-113940833D01*
X106239273Y-113907297D01*
X106252473Y-113871615D01*
X106261125Y-113834519D01*
X106265302Y-113795599D01*
X106265682Y-113779429D01*
X106256625Y-113712712D01*
X106229792Y-113650120D01*
X106185483Y-113593551D01*
X106124484Y-113545984D01*
X106088207Y-113526660D01*
X106048909Y-113511065D01*
X106043885Y-113509419D01*
X106081097Y-113491919D01*
X106115044Y-113470826D01*
X106145084Y-113446693D01*
X106171242Y-113419602D01*
X106192645Y-113390667D01*
X106209738Y-113359453D01*
X106221845Y-113327440D01*
X106229375Y-113293777D01*
X106232050Y-113257653D01*
X106222948Y-113183612D01*
X106196170Y-113114874D01*
X106152128Y-113052607D01*
X106091187Y-112998777D01*
X106014325Y-112956081D01*
X105970393Y-112939809D01*
X105923588Y-112927510D01*
X105873967Y-112919385D01*
X105822042Y-112915732D01*
X105806994Y-112915543D01*
X105754927Y-112917850D01*
X105705037Y-112924620D01*
X105657233Y-112935736D01*
X105612238Y-112950927D01*
X105570464Y-112969904D01*
X105532077Y-112992473D01*
X105497881Y-113017977D01*
X105467537Y-113046522D01*
X105441956Y-113077038D01*
X105420560Y-113110026D01*
X105404057Y-113144181D01*
X105391972Y-113180286D01*
X105384682Y-113217112D01*
X105382019Y-113255439D01*
X105382011Y-113257653D01*
X105384580Y-113276338D01*
X105391066Y-113323514D01*
X105417845Y-113384969D01*
X105462006Y-113440165D01*
X105522763Y-113486171D01*
X105570176Y-113509419D01*
X105530420Y-113524585D01*
X105493661Y-113543536D01*
X105460313Y-113565931D01*
X105430637Y-113591520D01*
X105405452Y-113619413D01*
X105384444Y-113649826D01*
X105368410Y-113681367D01*
X105356875Y-113714766D01*
X105350805Y-113760965D01*
X105348379Y-113779429D01*
X105176277Y-113779429D01*
X105193998Y-113729745D01*
X105215054Y-113613561D01*
X105219639Y-113522901D01*
X105217318Y-113457937D01*
X105210450Y-113395844D01*
X105199340Y-113337470D01*
X105184070Y-113282205D01*
X105165086Y-113230934D01*
X105142328Y-113182974D01*
X105116366Y-113139137D01*
X105087001Y-113098789D01*
X105054852Y-113062573D01*
X105019639Y-113030014D01*
X104981920Y-113001539D01*
X104941439Y-112976899D01*
X104898573Y-112956331D01*
X104853206Y-112939807D01*
X104805452Y-112927451D01*
X104755428Y-112919391D01*
X104687018Y-112915543D01*
X104633641Y-112917865D01*
X104582433Y-112924747D01*
X104533900Y-112935948D01*
X104487734Y-112951379D01*
X104444201Y-112970834D01*
X104403247Y-112994237D01*
X104329389Y-113052516D01*
X104266832Y-113125752D01*
X104216607Y-113213670D01*
X104180119Y-113315980D01*
X104159059Y-113432190D01*
X104154471Y-113522901D01*
X104054307Y-113522901D01*
X104051986Y-113457937D01*
X104045119Y-113395844D01*
X104034009Y-113337470D01*
X104018738Y-113282205D01*
X103999755Y-113230934D01*
X103976996Y-113182974D01*
X103951035Y-113139137D01*
X103921669Y-113098789D01*
X103889520Y-113062573D01*
X103854308Y-113030014D01*
X103816589Y-113001539D01*
X103776108Y-112976899D01*
X103733241Y-112956331D01*
X103687875Y-112939807D01*
X103640121Y-112927451D01*
X103590096Y-112919391D01*
X103521687Y-112915543D01*
X103468309Y-112917865D01*
X103417101Y-112924747D01*
X103368569Y-112935948D01*
X103322403Y-112951379D01*
X103278870Y-112970834D01*
X103237915Y-112994237D01*
X103164058Y-113052516D01*
X103101500Y-113125752D01*
X103051276Y-113213670D01*
X103014788Y-113315980D01*
X102993727Y-113432190D01*
X102989140Y-113522901D01*
X102769708Y-113522901D01*
X102900773Y-112934300D01*
X102613470Y-112934300D01*
X102470734Y-113660727D01*
X102265717Y-112934300D01*
X101995267Y-112934300D01*
X101790322Y-113660727D01*
X101647514Y-112934300D01*
X101350172Y-112934300D01*
X101125591Y-112934300D01*
X100808100Y-112934300D01*
X100197552Y-113623651D01*
X100191582Y-113630392D01*
X99963740Y-113630392D01*
X99682556Y-112934300D01*
X99351582Y-112934300D01*
X99080741Y-113595515D01*
X98869447Y-114111356D01*
X98498391Y-114111356D01*
X98505009Y-114109975D01*
X98554589Y-114094891D01*
X98599974Y-114076252D01*
X98641605Y-114054074D01*
X98678323Y-114029238D01*
X98710974Y-114001411D01*
X98738459Y-113971818D01*
X98761684Y-113939764D01*
X98779880Y-113906585D01*
X98793683Y-113871410D01*
X98802714Y-113835359D01*
X98807195Y-113797694D01*
X98807678Y-113780309D01*
X98805364Y-113746569D01*
X98798544Y-113714570D01*
X98772059Y-113656224D01*
X98728656Y-113605520D01*
X98667963Y-113563656D01*
X98589710Y-113532934D01*
X98554007Y-113524513D01*
X98593764Y-113510529D01*
X98630509Y-113492697D01*
X98663672Y-113471455D01*
X98693234Y-113446925D01*
X98718374Y-113419980D01*
X98739466Y-113390358D01*
X98755785Y-113359275D01*
X98767742Y-113326104D01*
X98774925Y-113292081D01*
X98777486Y-113256486D01*
X98777489Y-113255235D01*
X98775173Y-113216277D01*
X98768341Y-113179053D01*
X98741735Y-113110204D01*
X98698351Y-113049199D01*
X98638340Y-112997153D01*
X98561838Y-112955921D01*
X98469517Y-112927944D01*
X98362908Y-112915844D01*
X98342322Y-112915543D01*
X98236797Y-112924703D01*
X98132368Y-112952223D01*
X98081978Y-112972701D01*
X98033777Y-112997336D01*
X97988383Y-113025796D01*
X97945952Y-113058012D01*
X97882022Y-113120560D01*
X98058389Y-113280515D01*
X98103748Y-113234573D01*
X98146871Y-113199365D01*
X98179939Y-113178914D01*
X98213925Y-113163788D01*
X98284350Y-113148093D01*
X98332283Y-113145766D01*
X98367218Y-113148056D01*
X98399619Y-113154712D01*
X98428995Y-113165393D01*
X98454929Y-113179782D01*
X98476367Y-113196978D01*
X98493718Y-113217064D01*
X98506055Y-113238598D01*
X98513951Y-113262229D01*
X98517078Y-113290626D01*
X98514762Y-113318187D01*
X98507936Y-113342832D01*
X98497377Y-113363499D01*
X98483027Y-113381255D01*
X98443720Y-113407464D01*
X98388616Y-113420873D01*
X98364157Y-113422004D01*
X98239886Y-113422004D01*
X98239886Y-113635375D01*
X98391048Y-113635375D01*
X98425644Y-113637680D01*
X98456555Y-113644438D01*
X98482156Y-113654746D01*
X98503840Y-113668643D01*
X98520440Y-113684858D01*
X98533051Y-113703917D01*
X98541235Y-113724948D01*
X98545216Y-113748337D01*
X98545581Y-113758400D01*
X98543272Y-113782893D01*
X98536491Y-113805546D01*
X98510385Y-113844750D01*
X98466970Y-113875893D01*
X98404778Y-113896716D01*
X98333969Y-113903334D01*
X98276008Y-113900850D01*
X98225445Y-113892840D01*
X98189241Y-113881981D01*
X98155486Y-113866685D01*
X98093221Y-113822720D01*
X98048351Y-113778623D01*
X97873595Y-113940337D01*
X97728295Y-113940337D01*
X97728295Y-112934300D01*
X97439307Y-112934300D01*
X97439307Y-114111356D01*
X97305974Y-114111356D01*
X97305974Y-112782210D01*
X117880944Y-112782210D01*
X117880944Y-114263446D01*
G37*
D11*
G36*
X166667Y-166667D02*
G01*
X-166667Y-166667D01*
X-166667Y166667D01*
X166667Y166667D01*
X166667Y-166667D01*
G37*
D13*
G36*
X92270034Y-107929591D02*
G01*
X92268505Y-107948725D01*
X92264051Y-107966147D01*
X92256979Y-107981471D01*
X92247447Y-107994734D01*
X92235782Y-108005637D01*
X92222086Y-108014142D01*
X92206573Y-108020051D01*
X92189410Y-108023193D01*
X92179078Y-108023674D01*
X92161290Y-108022143D01*
X92145065Y-108017680D01*
X92130701Y-108010551D01*
X92118234Y-108000921D01*
X92099656Y-107974811D01*
X92090829Y-107940382D01*
X92090369Y-107929591D01*
X92090369Y-107731364D01*
X92270034Y-107731364D01*
X92270034Y-107929591D01*
G37*
G36*
X90920417Y-107067609D02*
G01*
X90914384Y-107119408D01*
X90896666Y-107167508D01*
X90867990Y-107210140D01*
X90829556Y-107245187D01*
X90807259Y-107259180D01*
X90783181Y-107270553D01*
X90757814Y-107279037D01*
X90731086Y-107284591D01*
X90696104Y-107287135D01*
X90643607Y-107281103D01*
X90594988Y-107263414D01*
X90552113Y-107234874D01*
X90533481Y-107216900D01*
X90517128Y-107196788D01*
X90503275Y-107174785D01*
X90492071Y-107151038D01*
X90483803Y-107126094D01*
X90478480Y-107099822D01*
X90476237Y-107067609D01*
X90476237Y-106946660D01*
X90920417Y-106946660D01*
X90920417Y-107067609D01*
G37*
G36*
X90726684Y-106014457D02*
G01*
X90753791Y-106018962D01*
X90804311Y-106036544D01*
X90848231Y-106064682D01*
X90867154Y-106082309D01*
X90883764Y-106102053D01*
X90897835Y-106123643D01*
X90909275Y-106146992D01*
X90917832Y-106171646D01*
X90923487Y-106197691D01*
X90926230Y-106233569D01*
X90924692Y-106260543D01*
X90920180Y-106286398D01*
X90902518Y-106334788D01*
X90874057Y-106377208D01*
X90835898Y-106411904D01*
X90813645Y-106425793D01*
X90789527Y-106437124D01*
X90763871Y-106445682D01*
X90736710Y-106451375D01*
X90698351Y-106454218D01*
X90670009Y-106452681D01*
X90642893Y-106448176D01*
X90592361Y-106430595D01*
X90548435Y-106402460D01*
X90529511Y-106384835D01*
X90512899Y-106365094D01*
X90498826Y-106343506D01*
X90487386Y-106320160D01*
X90478826Y-106295509D01*
X90473169Y-106269466D01*
X90470424Y-106233569D01*
X90471962Y-106206595D01*
X90476473Y-106180740D01*
X90494136Y-106132351D01*
X90522597Y-106089934D01*
X90560757Y-106055240D01*
X90583012Y-106041351D01*
X90607133Y-106030020D01*
X90632793Y-106021460D01*
X90659959Y-106015766D01*
X90698351Y-106012920D01*
X90726684Y-106014457D01*
G37*
G36*
X92070684Y-105796397D02*
G01*
X92097791Y-105800902D01*
X92148311Y-105818484D01*
X92192231Y-105846622D01*
X92211154Y-105864249D01*
X92227764Y-105883993D01*
X92241835Y-105905583D01*
X92253275Y-105928932D01*
X92261832Y-105953586D01*
X92267487Y-105979631D01*
X92270230Y-106015509D01*
X92268692Y-106042483D01*
X92264180Y-106068338D01*
X92246518Y-106116728D01*
X92218057Y-106159148D01*
X92179898Y-106193844D01*
X92157645Y-106207733D01*
X92133527Y-106219064D01*
X92107871Y-106227622D01*
X92080710Y-106233315D01*
X92042351Y-106236158D01*
X92014009Y-106234621D01*
X91986893Y-106230116D01*
X91936361Y-106212535D01*
X91892435Y-106184400D01*
X91873511Y-106166775D01*
X91856899Y-106147034D01*
X91842826Y-106125446D01*
X91831386Y-106102100D01*
X91822826Y-106077449D01*
X91817169Y-106051406D01*
X91814424Y-106015509D01*
X91815962Y-105988535D01*
X91820473Y-105962680D01*
X91838136Y-105914291D01*
X91866597Y-105871874D01*
X91904757Y-105837180D01*
X91927012Y-105823291D01*
X91951133Y-105811960D01*
X91976793Y-105803400D01*
X92003959Y-105797706D01*
X92042351Y-105794860D01*
X92070684Y-105796397D01*
G37*
G36*
X92536097Y-110594265D02*
G01*
X90204605Y-110594265D01*
X90204605Y-110505376D01*
X91650000Y-110505376D01*
X91816866Y-110505376D01*
X91816866Y-110075314D01*
X91965757Y-110075314D01*
X91965757Y-110356437D01*
X92127006Y-110356437D01*
X92127006Y-110075314D01*
X92267787Y-110075314D01*
X92267787Y-110500882D01*
X92434703Y-110500882D01*
X92434703Y-109882655D01*
X91650000Y-109882655D01*
X91650000Y-110505376D01*
X90204605Y-110505376D01*
X90204605Y-109744120D01*
X90306000Y-109744120D01*
X90472866Y-109744120D01*
X90472866Y-109314057D01*
X90621757Y-109314057D01*
X90621757Y-109595181D01*
X90783006Y-109595181D01*
X90783006Y-109314057D01*
X90923787Y-109314057D01*
X90923787Y-109739626D01*
X91090703Y-109739626D01*
X91090703Y-109348740D01*
X91650000Y-109348740D01*
X91650000Y-109541350D01*
X92264417Y-109541350D01*
X92264417Y-109797854D01*
X92434703Y-109797854D01*
X92434703Y-109092236D01*
X92264417Y-109092236D01*
X92264417Y-109348740D01*
X91650000Y-109348740D01*
X91090703Y-109348740D01*
X91090703Y-109121399D01*
X90306000Y-109121399D01*
X90306000Y-109744120D01*
X90204605Y-109744120D01*
X90204605Y-109014518D01*
X90306000Y-109014518D01*
X90476237Y-109014518D01*
X90476237Y-108661343D01*
X91637494Y-108661343D01*
X91639043Y-108700203D01*
X91643630Y-108737284D01*
X91651037Y-108771985D01*
X91661225Y-108804783D01*
X91673913Y-108835175D01*
X91689144Y-108863548D01*
X91706635Y-108889547D01*
X91726458Y-108913406D01*
X91748404Y-108934930D01*
X91772504Y-108954181D01*
X91826890Y-108985557D01*
X91889414Y-109006980D01*
X91959939Y-109017619D01*
X91990816Y-109018621D01*
X92434703Y-109018621D01*
X92434703Y-108825963D01*
X91990816Y-108825963D01*
X91962836Y-108824420D01*
X91936863Y-108819875D01*
X91913639Y-108812685D01*
X91892567Y-108802882D01*
X91874213Y-108790919D01*
X91858136Y-108776685D01*
X91844642Y-108760553D01*
X91833576Y-108742422D01*
X91819170Y-108700562D01*
X91815547Y-108662466D01*
X91817090Y-108637200D01*
X91821639Y-108613640D01*
X91828895Y-108592327D01*
X91838806Y-108572880D01*
X91851102Y-108555602D01*
X91865772Y-108540366D01*
X91901881Y-108516416D01*
X91946942Y-108501839D01*
X91990816Y-108497847D01*
X92434703Y-108497847D01*
X92434703Y-108305188D01*
X91990816Y-108305188D01*
X91951911Y-108306737D01*
X91914887Y-108311329D01*
X91880445Y-108318716D01*
X91847965Y-108328877D01*
X91817993Y-108341503D01*
X91790061Y-108356663D01*
X91764516Y-108374071D01*
X91741102Y-108393809D01*
X91701083Y-108439785D01*
X91670223Y-108494383D01*
X91649067Y-108557605D01*
X91638502Y-108629501D01*
X91637494Y-108661343D01*
X90476237Y-108661343D01*
X90476237Y-108601259D01*
X91090703Y-108601259D01*
X91090703Y-108408600D01*
X90306000Y-108408600D01*
X90306000Y-109014518D01*
X90204605Y-109014518D01*
X90204605Y-107932913D01*
X90293494Y-107932913D01*
X90295043Y-107971774D01*
X90299630Y-108008854D01*
X90307037Y-108043555D01*
X90317225Y-108076353D01*
X90329913Y-108106745D01*
X90345144Y-108135119D01*
X90362635Y-108161117D01*
X90382458Y-108184976D01*
X90404404Y-108206500D01*
X90428504Y-108225751D01*
X90482890Y-108257127D01*
X90545414Y-108278551D01*
X90615939Y-108289189D01*
X90646816Y-108290191D01*
X91090703Y-108290191D01*
X91090703Y-108097533D01*
X90646816Y-108097533D01*
X90618836Y-108095990D01*
X90592863Y-108091445D01*
X90569639Y-108084255D01*
X90548567Y-108074452D01*
X90530213Y-108062489D01*
X90514136Y-108048255D01*
X90500642Y-108032123D01*
X90489576Y-108013992D01*
X90475170Y-107972132D01*
X90471547Y-107934036D01*
X90473090Y-107908770D01*
X90477639Y-107885210D01*
X90484895Y-107863897D01*
X90494806Y-107844450D01*
X90507102Y-107827173D01*
X90521772Y-107811937D01*
X90557881Y-107787986D01*
X90602942Y-107773410D01*
X90646816Y-107769417D01*
X91090703Y-107769417D01*
X91090703Y-107731364D01*
X91650000Y-107731364D01*
X91931367Y-107731364D01*
X91931367Y-107929591D01*
X91931367Y-107952013D01*
X91932906Y-107983404D01*
X91937427Y-108013518D01*
X91944872Y-108042478D01*
X91955061Y-108069815D01*
X91967924Y-108095506D01*
X91983261Y-108119229D01*
X92000904Y-108140804D01*
X92020713Y-108160086D01*
X92042361Y-108176794D01*
X92065847Y-108190925D01*
X92090688Y-108202191D01*
X92117033Y-108210636D01*
X92144324Y-108216049D01*
X92172801Y-108218427D01*
X92180202Y-108218531D01*
X92209702Y-108216989D01*
X92237973Y-108212454D01*
X92265059Y-108204998D01*
X92290636Y-108194777D01*
X92337058Y-108166320D01*
X92375971Y-108127974D01*
X92392203Y-108105393D01*
X92406029Y-108080786D01*
X92417321Y-108054255D01*
X92425917Y-108025979D01*
X92431667Y-107996163D01*
X92434451Y-107964895D01*
X92434703Y-107952013D01*
X92434703Y-107538705D01*
X91650000Y-107538705D01*
X91650000Y-107731364D01*
X91090703Y-107731364D01*
X91090703Y-107576758D01*
X90646816Y-107576758D01*
X90607911Y-107578307D01*
X90570887Y-107582899D01*
X90536445Y-107590287D01*
X90503965Y-107600447D01*
X90473993Y-107613073D01*
X90446061Y-107628233D01*
X90420516Y-107645641D01*
X90397102Y-107665379D01*
X90357083Y-107711355D01*
X90326223Y-107765953D01*
X90305067Y-107829175D01*
X90294502Y-107901071D01*
X90293494Y-107932913D01*
X90204605Y-107932913D01*
X90204605Y-107067609D01*
X90306000Y-107067609D01*
X90306000Y-107072103D01*
X90312083Y-107146603D01*
X90330046Y-107217596D01*
X90359313Y-107283569D01*
X90399014Y-107342811D01*
X90422394Y-107369348D01*
X90447906Y-107393578D01*
X90475252Y-107415236D01*
X90504422Y-107434313D01*
X90534878Y-107450472D01*
X90566838Y-107463826D01*
X90599576Y-107474078D01*
X90633504Y-107481347D01*
X90696104Y-107486486D01*
X90765167Y-107480396D01*
X90831139Y-107462376D01*
X90892867Y-107432834D01*
X90948923Y-107392350D01*
X90997688Y-107341825D01*
X91018824Y-107313178D01*
X91037525Y-107282545D01*
X91053606Y-107250169D01*
X91066985Y-107216115D01*
X91077434Y-107180875D01*
X91084958Y-107144278D01*
X91090703Y-107072103D01*
X91090703Y-106754002D01*
X90306000Y-106754002D01*
X90306000Y-107067609D01*
X90204605Y-107067609D01*
X90204605Y-106712920D01*
X91650000Y-106712920D01*
X92186943Y-106712920D01*
X91706029Y-106970498D01*
X92184696Y-107228126D01*
X91650000Y-107228126D01*
X91650000Y-107409549D01*
X92434703Y-107409549D01*
X92434703Y-107166528D01*
X92064724Y-106972745D01*
X92434703Y-106779012D01*
X92434703Y-106535942D01*
X91650000Y-106535942D01*
X91650000Y-106712920D01*
X90204605Y-106712920D01*
X90204605Y-106233569D01*
X90293494Y-106233569D01*
X90299583Y-106307934D01*
X90317554Y-106378718D01*
X90346857Y-106444547D01*
X90386696Y-106503852D01*
X90410237Y-106530552D01*
X90435954Y-106555001D01*
X90463634Y-106577004D01*
X90493201Y-106596483D01*
X90524223Y-106613156D01*
X90556825Y-106627075D01*
X90590386Y-106637966D01*
X90625223Y-106645913D01*
X90660605Y-106650729D01*
X90696972Y-106652443D01*
X90698351Y-106652445D01*
X90769004Y-106646353D01*
X90836447Y-106628335D01*
X90899490Y-106598831D01*
X90956696Y-106558462D01*
X91006471Y-106508155D01*
X91028069Y-106479664D01*
X91047231Y-106449187D01*
X91063759Y-106416994D01*
X91077593Y-106383114D01*
X91088499Y-106348044D01*
X91096493Y-106311595D01*
X91101393Y-106274438D01*
X91103201Y-106236205D01*
X91103208Y-106233569D01*
X91097119Y-106159214D01*
X91079148Y-106088436D01*
X91049845Y-106022609D01*
X91045075Y-106015509D01*
X91637494Y-106015509D01*
X91643583Y-106089874D01*
X91661554Y-106160658D01*
X91690857Y-106226487D01*
X91730696Y-106285792D01*
X91754237Y-106312492D01*
X91779954Y-106336941D01*
X91807634Y-106358944D01*
X91837201Y-106378423D01*
X91868223Y-106395096D01*
X91900825Y-106409015D01*
X91934386Y-106419906D01*
X91969223Y-106427853D01*
X92004605Y-106432669D01*
X92040972Y-106434383D01*
X92042351Y-106434385D01*
X92113004Y-106428293D01*
X92180447Y-106410275D01*
X92243490Y-106380771D01*
X92300696Y-106340402D01*
X92350471Y-106290095D01*
X92372069Y-106261604D01*
X92391231Y-106231127D01*
X92407759Y-106198934D01*
X92421593Y-106165054D01*
X92432499Y-106129984D01*
X92440493Y-106093535D01*
X92445393Y-106056378D01*
X92447201Y-106018145D01*
X92447208Y-106015509D01*
X92441119Y-105941154D01*
X92423148Y-105870376D01*
X92393845Y-105804549D01*
X92354003Y-105745242D01*
X92330461Y-105718540D01*
X92304742Y-105694088D01*
X92277060Y-105672083D01*
X92247491Y-105652601D01*
X92216468Y-105635926D01*
X92183865Y-105622006D01*
X92150305Y-105611113D01*
X92115470Y-105603165D01*
X92080093Y-105598349D01*
X92043730Y-105596635D01*
X92042351Y-105596632D01*
X91971686Y-105602725D01*
X91904239Y-105620742D01*
X91841197Y-105650243D01*
X91783996Y-105690608D01*
X91734226Y-105740910D01*
X91712631Y-105769398D01*
X91693470Y-105799873D01*
X91676943Y-105832065D01*
X91663111Y-105865945D01*
X91652205Y-105901016D01*
X91644211Y-105937465D01*
X91639311Y-105974626D01*
X91637502Y-106012863D01*
X91637494Y-106015509D01*
X91045075Y-106015509D01*
X91010003Y-105963302D01*
X90986461Y-105936600D01*
X90960742Y-105912148D01*
X90933060Y-105890143D01*
X90903491Y-105870661D01*
X90872468Y-105853986D01*
X90839865Y-105840066D01*
X90806305Y-105829173D01*
X90771470Y-105821225D01*
X90736093Y-105816409D01*
X90699730Y-105814695D01*
X90698351Y-105814692D01*
X90627686Y-105820785D01*
X90560239Y-105838802D01*
X90497197Y-105868303D01*
X90439996Y-105908668D01*
X90390226Y-105958970D01*
X90368631Y-105987458D01*
X90349470Y-106017933D01*
X90332943Y-106050125D01*
X90319111Y-106084005D01*
X90308205Y-106119076D01*
X90300211Y-106155525D01*
X90295311Y-106192686D01*
X90293502Y-106230923D01*
X90293494Y-106233569D01*
X90204605Y-106233569D01*
X90204605Y-105016898D01*
X90306000Y-105016898D01*
X90842943Y-105016898D01*
X90362029Y-105274476D01*
X90840696Y-105532103D01*
X90306000Y-105532103D01*
X90306000Y-105713527D01*
X91090703Y-105713527D01*
X91090703Y-105470505D01*
X90720724Y-105276723D01*
X90804122Y-105233053D01*
X91637494Y-105233053D01*
X91643570Y-105303539D01*
X91662020Y-105375093D01*
X91692362Y-105443524D01*
X91711385Y-105474965D01*
X91732816Y-105504235D01*
X91755727Y-105530195D01*
X91780609Y-105553483D01*
X91788681Y-105560094D01*
X91913440Y-105433527D01*
X91889350Y-105412083D01*
X91868657Y-105389377D01*
X91852054Y-105366508D01*
X91838553Y-105342511D01*
X91828364Y-105318000D01*
X91821134Y-105292437D01*
X91815547Y-105239794D01*
X91817084Y-105211653D01*
X91821590Y-105184703D01*
X91839202Y-105134332D01*
X91867466Y-105090303D01*
X91885230Y-105071213D01*
X91905137Y-105054399D01*
X91926973Y-105040053D01*
X91950598Y-105028313D01*
X91975598Y-105019417D01*
X92002017Y-105013408D01*
X92041765Y-105010157D01*
X92070009Y-105011693D01*
X92097039Y-105016199D01*
X92147470Y-105033791D01*
X92191407Y-105061978D01*
X92210387Y-105079662D01*
X92227071Y-105099472D01*
X92241248Y-105121165D01*
X92252804Y-105144631D01*
X92261495Y-105169432D01*
X92267290Y-105195635D01*
X92270230Y-105233053D01*
X92268667Y-105261705D01*
X92263976Y-105289328D01*
X92256387Y-105315261D01*
X92245819Y-105340170D01*
X92215792Y-105386772D01*
X92172836Y-105429887D01*
X92165547Y-105435774D01*
X92293726Y-105565662D01*
X92339792Y-105522469D01*
X92380706Y-105467194D01*
X92413816Y-105401615D01*
X92426594Y-105365940D01*
X92436443Y-105329120D01*
X92443152Y-105291871D01*
X92446680Y-105254167D01*
X92447208Y-105233053D01*
X92441113Y-105157581D01*
X92423160Y-105086067D01*
X92393957Y-105019870D01*
X92354332Y-104960485D01*
X92330950Y-104933829D01*
X92305387Y-104909427D01*
X92277882Y-104887495D01*
X92248471Y-104868073D01*
X92217575Y-104851440D01*
X92185059Y-104837539D01*
X92151494Y-104826628D01*
X92116594Y-104818637D01*
X92081006Y-104813744D01*
X92044353Y-104811937D01*
X92041765Y-104811929D01*
X91970483Y-104818027D01*
X91902861Y-104836012D01*
X91839995Y-104865390D01*
X91783183Y-104905536D01*
X91733858Y-104955589D01*
X91712451Y-104983989D01*
X91693457Y-105014403D01*
X91677035Y-105046631D01*
X91663276Y-105080596D01*
X91652379Y-105115910D01*
X91644366Y-105152674D01*
X91639402Y-105190346D01*
X91637510Y-105229181D01*
X91637494Y-105233053D01*
X90804122Y-105233053D01*
X91090703Y-105082990D01*
X91090703Y-104839919D01*
X90306000Y-104839919D01*
X90306000Y-105016898D01*
X90204605Y-105016898D01*
X90204605Y-104723040D01*
X92536097Y-104723040D01*
X92536097Y-110594265D01*
G37*
D11*
G36*
X124333147Y-133371896D02*
G01*
X124506742Y-133371896D01*
X124506742Y-133128325D01*
X124734987Y-133128325D01*
X124734987Y-132960286D01*
X124506742Y-132960286D01*
X124506742Y-132716714D01*
X124333147Y-132716714D01*
X124333147Y-132960286D01*
X124104963Y-132960286D01*
X124104963Y-133128325D01*
X124333147Y-133128325D01*
X124333147Y-133371896D01*
G37*
G36*
X125442384Y-131095631D02*
G01*
X125498766Y-131093695D01*
X125551763Y-131087961D01*
X125599729Y-131078890D01*
X125644258Y-131066458D01*
X125683773Y-131051401D01*
X125719865Y-131033408D01*
X125751253Y-131013405D01*
X125779262Y-130990846D01*
X125803050Y-130966658D01*
X125823486Y-130940221D01*
X125840162Y-130912217D01*
X125853445Y-130882192D01*
X125869441Y-130816665D01*
X125872130Y-130773597D01*
X125870181Y-130737937D01*
X125864355Y-130704461D01*
X125855165Y-130674470D01*
X125842472Y-130646548D01*
X125807469Y-130597873D01*
X125758734Y-130557175D01*
X125694314Y-130524251D01*
X125611388Y-130500018D01*
X125583740Y-130494916D01*
X125380774Y-130461271D01*
X125338717Y-130452082D01*
X125306734Y-130440102D01*
X125289334Y-130429190D01*
X125276735Y-130416185D01*
X125265460Y-130387485D01*
X125264576Y-130374443D01*
X125266504Y-130358525D01*
X125272190Y-130344050D01*
X125294287Y-130319681D01*
X125333308Y-130300813D01*
X125393472Y-130290050D01*
X125422784Y-130289019D01*
X125463869Y-130290990D01*
X125504186Y-130296970D01*
X125581514Y-130320490D01*
X125660663Y-130361311D01*
X125723752Y-130405279D01*
X125851186Y-130227409D01*
X125776225Y-130176826D01*
X125685624Y-130134281D01*
X125584422Y-130103830D01*
X125532471Y-130094272D01*
X125480470Y-130088762D01*
X125439576Y-130087397D01*
X125384677Y-130089334D01*
X125333292Y-130095078D01*
X125287272Y-130104110D01*
X125244751Y-130116487D01*
X125207391Y-130131404D01*
X125173459Y-130149232D01*
X125144209Y-130169007D01*
X125118304Y-130191319D01*
X125096488Y-130215285D01*
X125077979Y-130241502D01*
X125063075Y-130269440D01*
X125051535Y-130299437D01*
X125038851Y-130365554D01*
X125037796Y-130392639D01*
X125039739Y-130428773D01*
X125045527Y-130462716D01*
X125054694Y-130493310D01*
X125067322Y-130521718D01*
X125083012Y-130547384D01*
X125101921Y-130570810D01*
X125149292Y-130610744D01*
X125210448Y-130641434D01*
X125285580Y-130661550D01*
X125501186Y-130699408D01*
X125548642Y-130709607D01*
X125585048Y-130722386D01*
X125605257Y-130733823D01*
X125620228Y-130747269D01*
X125629204Y-130760734D01*
X125634698Y-130776066D01*
X125636985Y-130797411D01*
X125635052Y-130814635D01*
X125629335Y-130830302D01*
X125607364Y-130856482D01*
X125569007Y-130877018D01*
X125509757Y-130890061D01*
X125460580Y-130892665D01*
X125417612Y-130890672D01*
X125376017Y-130884537D01*
X125337772Y-130874817D01*
X125299758Y-130861060D01*
X125221563Y-130820051D01*
X125134394Y-130756805D01*
X125000000Y-130931866D01*
X125081388Y-130991066D01*
X125173495Y-131039001D01*
X125222591Y-131057993D01*
X125272878Y-131073263D01*
X125323806Y-131084645D01*
X125375228Y-131092079D01*
X125442384Y-131095631D01*
G37*
G36*
X126130844Y-131080000D02*
G01*
X126385589Y-131080000D01*
X126559185Y-130455104D01*
X126731437Y-131080000D01*
X126986182Y-131080000D01*
X127204596Y-130099120D01*
X126965177Y-130099120D01*
X126846231Y-130704476D01*
X126675383Y-130099120D01*
X126450008Y-130099120D01*
X126279221Y-130704476D01*
X126160214Y-130099120D01*
X125912430Y-130099120D01*
X126130844Y-131080000D01*
G37*
G36*
X127805282Y-130106302D02*
G01*
X127851029Y-130115706D01*
X127895079Y-130128768D01*
X127937646Y-130145491D01*
X127978116Y-130165593D01*
X128016407Y-130188969D01*
X128052216Y-130215389D01*
X128115372Y-130276345D01*
X128165977Y-130346415D01*
X128202905Y-130423575D01*
X128225430Y-130506040D01*
X128233042Y-130592369D01*
X128226618Y-130670619D01*
X128217532Y-130713029D01*
X128204717Y-130753951D01*
X128188025Y-130793901D01*
X128167826Y-130831971D01*
X128143980Y-130868434D01*
X128116907Y-130902616D01*
X128086620Y-130934506D01*
X128053448Y-130963731D01*
X127979396Y-131013357D01*
X127896930Y-131049941D01*
X127808189Y-131072395D01*
X127715064Y-131080000D01*
X127317437Y-131080000D01*
X127317437Y-130867203D01*
X127558260Y-130867203D01*
X127709446Y-130867203D01*
X127749712Y-130864399D01*
X127782552Y-130857745D01*
X127813732Y-130847410D01*
X127843416Y-130833405D01*
X127870919Y-130816089D01*
X127896059Y-130795647D01*
X127918528Y-130772357D01*
X127954202Y-130718763D01*
X127976314Y-130657990D01*
X127983853Y-130592369D01*
X127980674Y-130548641D01*
X127973731Y-130515231D01*
X127963126Y-130483522D01*
X127948909Y-130453425D01*
X127931418Y-130425554D01*
X127887610Y-130377511D01*
X127834320Y-130341666D01*
X127774194Y-130319518D01*
X127709446Y-130311978D01*
X127558260Y-130311978D01*
X127558260Y-130867203D01*
X127317437Y-130867203D01*
X127317437Y-130099120D01*
X127715064Y-130099120D01*
X127805282Y-130106302D01*
G37*
G36*
X129120286Y-130106302D02*
G01*
X129166032Y-130115706D01*
X129210082Y-130128768D01*
X129252650Y-130145491D01*
X129293120Y-130165593D01*
X129331410Y-130188969D01*
X129367219Y-130215389D01*
X129430376Y-130276345D01*
X129480981Y-130346415D01*
X129517908Y-130423575D01*
X129540433Y-130506040D01*
X129548046Y-130592369D01*
X129541622Y-130670619D01*
X129532535Y-130713029D01*
X129519721Y-130753951D01*
X129503028Y-130793901D01*
X129482829Y-130831971D01*
X129458983Y-130868434D01*
X129431910Y-130902616D01*
X129401624Y-130934506D01*
X129368452Y-130963731D01*
X129294399Y-131013357D01*
X129211933Y-131049941D01*
X129123192Y-131072395D01*
X129030068Y-131080000D01*
X128632440Y-131080000D01*
X128632440Y-130867203D01*
X128873264Y-130867203D01*
X129024450Y-130867203D01*
X129064715Y-130864399D01*
X129097556Y-130857745D01*
X129128735Y-130847410D01*
X129158420Y-130833405D01*
X129185923Y-130816089D01*
X129211063Y-130795647D01*
X129233531Y-130772357D01*
X129269206Y-130718763D01*
X129291317Y-130657990D01*
X129298857Y-130592369D01*
X129295677Y-130548641D01*
X129288734Y-130515231D01*
X129278129Y-130483522D01*
X129263913Y-130453425D01*
X129246422Y-130425554D01*
X129202613Y-130377511D01*
X129149324Y-130341666D01*
X129089198Y-130319518D01*
X129024450Y-130311978D01*
X128873264Y-130311978D01*
X128873264Y-130867203D01*
X128632440Y-130867203D01*
X128632440Y-130099120D01*
X129030068Y-130099120D01*
X129120286Y-130106302D01*
G37*
G36*
X130082213Y-130331214D02*
G01*
X130119556Y-130339528D01*
X130155105Y-130351437D01*
X130189061Y-130366963D01*
X130220894Y-130385835D01*
X130250747Y-130408131D01*
X130278133Y-130433509D01*
X130303085Y-130462034D01*
X130325222Y-130493345D01*
X130344461Y-130527416D01*
X130360550Y-130563949D01*
X130373331Y-130602772D01*
X130382647Y-130643709D01*
X130388328Y-130686435D01*
X130390256Y-130730915D01*
X130390256Y-130786908D01*
X129862508Y-130786908D01*
X129867226Y-130797496D01*
X129897608Y-130843091D01*
X129938688Y-130877529D01*
X129988241Y-130899151D01*
X130015531Y-130904734D01*
X130044469Y-130906648D01*
X130102221Y-130900179D01*
X130152934Y-130880673D01*
X130192908Y-130849678D01*
X130342690Y-130983646D01*
X130281596Y-131028406D01*
X130209127Y-131065221D01*
X130170302Y-131078260D01*
X130129748Y-131087573D01*
X130083049Y-131093647D01*
X130033295Y-131095631D01*
X129956760Y-131089062D01*
X129916611Y-131080033D01*
X129878257Y-131067398D01*
X129841647Y-131051219D01*
X129807262Y-131031760D01*
X129746024Y-130983815D01*
X129696477Y-130925615D01*
X129660051Y-130859315D01*
X129637701Y-130786878D01*
X129630111Y-130709911D01*
X129635268Y-130645420D01*
X129638845Y-130628761D01*
X129858295Y-130628761D01*
X130167690Y-130628761D01*
X130165503Y-130622508D01*
X130140119Y-130575186D01*
X130104613Y-130539993D01*
X130061392Y-130518144D01*
X130037535Y-130512527D01*
X130012290Y-130510608D01*
X130006204Y-130510704D01*
X129956411Y-130519618D01*
X129934455Y-130529295D01*
X129914634Y-130542281D01*
X129896752Y-130558814D01*
X129881394Y-130578523D01*
X129868330Y-130602093D01*
X129858295Y-130628761D01*
X129638845Y-130628761D01*
X129643554Y-130606828D01*
X129655505Y-130569906D01*
X129671156Y-130534395D01*
X129690173Y-130500988D01*
X129712497Y-130469707D01*
X129737822Y-130440953D01*
X129796486Y-130391947D01*
X129863913Y-130355685D01*
X129937891Y-130333362D01*
X130016503Y-130325778D01*
X130082213Y-130331214D01*
G37*
G36*
X130722854Y-130391296D02*
G01*
X130776724Y-130360213D01*
X130810326Y-130346972D01*
X130845236Y-130337440D01*
X130881568Y-130331632D01*
X130918859Y-130329685D01*
X130977982Y-130334160D01*
X131016238Y-130342050D01*
X131052896Y-130353638D01*
X131088264Y-130368978D01*
X131121580Y-130387719D01*
X131152838Y-130409814D01*
X131181600Y-130434939D01*
X131230668Y-130493245D01*
X131266976Y-130560258D01*
X131289308Y-130633652D01*
X131296885Y-130711437D01*
X131292091Y-130772977D01*
X131284011Y-130811301D01*
X131272249Y-130847986D01*
X131256751Y-130883341D01*
X131237867Y-130916618D01*
X131215627Y-130947834D01*
X131190367Y-130976540D01*
X131131734Y-131025531D01*
X131064286Y-131061809D01*
X130990321Y-131084141D01*
X130911837Y-131091723D01*
X130861778Y-131088558D01*
X130823879Y-131081750D01*
X130787411Y-131071267D01*
X130720045Y-131039944D01*
X130720045Y-131080000D01*
X130496074Y-131080000D01*
X130496074Y-130581988D01*
X130722854Y-130581988D01*
X130722854Y-130842290D01*
X130761635Y-130870463D01*
X130788353Y-130883108D01*
X130817228Y-130892357D01*
X130847740Y-130898008D01*
X130879658Y-130899931D01*
X130910124Y-130897811D01*
X130938157Y-130891849D01*
X130964313Y-130882305D01*
X130988449Y-130869361D01*
X131010153Y-130853323D01*
X131044957Y-130813374D01*
X131066756Y-130765254D01*
X131074258Y-130711437D01*
X131072287Y-130683639D01*
X131066385Y-130656728D01*
X131056825Y-130631559D01*
X131043624Y-130607990D01*
X131027208Y-130586748D01*
X131007809Y-130568050D01*
X130985762Y-130552223D01*
X130935562Y-130530437D01*
X130879658Y-130522943D01*
X130821378Y-130529186D01*
X130768113Y-130548874D01*
X130744450Y-130563750D01*
X130722854Y-130581988D01*
X130496074Y-130581988D01*
X130496074Y-130099120D01*
X130722854Y-130064132D01*
X130722854Y-130391296D01*
G37*
G36*
X131692498Y-131095631D02*
G01*
X131730564Y-131093690D01*
X131767197Y-131087922D01*
X131801764Y-131078548D01*
X131834533Y-131065597D01*
X131891311Y-131031273D01*
X131891311Y-131080000D01*
X132118091Y-131080000D01*
X132118091Y-130337501D01*
X131891311Y-130337501D01*
X131891311Y-130841924D01*
X131873905Y-130860248D01*
X131853997Y-130875364D01*
X131832313Y-130886839D01*
X131808346Y-130895029D01*
X131758321Y-130901092D01*
X131732507Y-130899172D01*
X131708936Y-130893548D01*
X131688263Y-130884670D01*
X131670118Y-130872639D01*
X131654872Y-130857860D01*
X131642458Y-130840379D01*
X131626810Y-130797829D01*
X131623866Y-130765842D01*
X131623866Y-130337501D01*
X131397086Y-130337501D01*
X131397086Y-130796800D01*
X131399013Y-130834466D01*
X131404683Y-130870282D01*
X131413911Y-130904018D01*
X131426541Y-130935581D01*
X131442372Y-130964745D01*
X131461265Y-130991418D01*
X131483012Y-131015391D01*
X131507487Y-131036557D01*
X131534492Y-131054732D01*
X131563896Y-131069783D01*
X131595531Y-131081546D01*
X131629243Y-131089861D01*
X131692498Y-131095631D01*
G37*
G36*
X132655586Y-130332437D02*
G01*
X132729325Y-130348854D01*
X132795132Y-130378717D01*
X132795132Y-130337501D01*
X133019164Y-130337501D01*
X133019164Y-131069924D01*
X133018290Y-131097220D01*
X133006494Y-131167916D01*
X132981890Y-131227725D01*
X132964826Y-131254116D01*
X132944641Y-131278111D01*
X132920745Y-131300191D01*
X132893647Y-131319683D01*
X132861944Y-131337253D01*
X132826834Y-131351917D01*
X132786087Y-131364210D01*
X132741641Y-131373166D01*
X132690592Y-131378962D01*
X132635519Y-131380907D01*
X132625809Y-131380857D01*
X132510390Y-131372204D01*
X132407416Y-131350022D01*
X132319164Y-131316549D01*
X132394757Y-131140022D01*
X132453366Y-131164403D01*
X132542442Y-131188249D01*
X132586933Y-131194174D01*
X132631367Y-131196137D01*
X132684080Y-131191861D01*
X132731225Y-131176790D01*
X132763827Y-131152333D01*
X132775796Y-131136016D01*
X132784537Y-131117143D01*
X132790373Y-131093641D01*
X132792323Y-131067116D01*
X132792323Y-131025167D01*
X132741336Y-131053673D01*
X132672800Y-131076271D01*
X132600532Y-131083907D01*
X132543255Y-131079695D01*
X132504977Y-131071973D01*
X132468278Y-131060544D01*
X132432857Y-131045360D01*
X132399477Y-131026769D01*
X132368166Y-131004834D01*
X132339346Y-130979869D01*
X132290210Y-130921943D01*
X132253877Y-130855404D01*
X132231545Y-130782584D01*
X132223970Y-130705453D01*
X132446536Y-130705453D01*
X132448436Y-130732904D01*
X132454244Y-130759878D01*
X132463696Y-130785102D01*
X132476740Y-130808647D01*
X132492987Y-130829865D01*
X132534022Y-130864290D01*
X132583888Y-130886026D01*
X132639733Y-130893520D01*
X132693602Y-130888363D01*
X132747374Y-130870038D01*
X132770929Y-130856049D01*
X132792323Y-130838810D01*
X132792323Y-130576249D01*
X132755718Y-130550814D01*
X132700725Y-130528985D01*
X132641137Y-130521538D01*
X132612184Y-130523454D01*
X132583897Y-130529250D01*
X132557425Y-130538657D01*
X132532999Y-130551446D01*
X132510998Y-130567324D01*
X132475882Y-130606621D01*
X132454024Y-130653494D01*
X132446536Y-130705453D01*
X132223970Y-130705453D01*
X132228454Y-130646755D01*
X132236353Y-130608825D01*
X132247952Y-130572486D01*
X132263324Y-130537392D01*
X132282109Y-130504335D01*
X132304298Y-130473269D01*
X132329539Y-130444682D01*
X132388259Y-130395814D01*
X132455919Y-130359581D01*
X132530169Y-130337264D01*
X132608958Y-130329685D01*
X132655586Y-130332437D01*
G37*
D15*
G36*
X135681536Y-119652817D02*
G01*
X133320968Y-119652817D01*
X133320968Y-118433515D01*
X133543190Y-118433515D01*
X133543190Y-118511551D01*
X133573053Y-118583647D01*
X133628233Y-118638827D01*
X133700329Y-118668690D01*
X133739347Y-118672533D01*
X134301252Y-118672533D01*
X134301252Y-119234438D01*
X134305095Y-119273456D01*
X134334958Y-119345552D01*
X134390138Y-119400732D01*
X134462234Y-119430595D01*
X134540270Y-119430595D01*
X134612366Y-119400732D01*
X134667546Y-119345552D01*
X134697409Y-119273456D01*
X134701252Y-119234438D01*
X134701252Y-118672533D01*
X135263157Y-118672533D01*
X135302175Y-118668690D01*
X135374271Y-118638827D01*
X135429451Y-118583647D01*
X135459314Y-118511551D01*
X135459314Y-118433515D01*
X135429451Y-118361419D01*
X135374271Y-118306239D01*
X135302175Y-118276376D01*
X135263157Y-118272533D01*
X134701252Y-118272533D01*
X134701252Y-117710628D01*
X134697409Y-117671610D01*
X134667546Y-117599514D01*
X134612366Y-117544334D01*
X134540270Y-117514471D01*
X134462234Y-117514471D01*
X134390138Y-117544334D01*
X134334958Y-117599514D01*
X134305095Y-117671610D01*
X134301252Y-117710628D01*
X134301252Y-118272533D01*
X133739347Y-118272533D01*
X133700329Y-118276376D01*
X133628233Y-118306239D01*
X133573053Y-118361419D01*
X133543190Y-118433515D01*
X133320968Y-118433515D01*
X133320968Y-117292249D01*
X135681536Y-117292249D01*
X135681536Y-119652817D01*
G37*
D11*
G36*
X142413590Y-87854698D02*
G01*
X142431917Y-87860319D01*
X142461310Y-87881264D01*
X142481202Y-87914641D01*
X142487150Y-87946568D01*
X142489786Y-87960720D01*
X142489909Y-87967573D01*
X142489909Y-88197161D01*
X142296530Y-88197161D01*
X142296530Y-87967573D01*
X142298445Y-87941381D01*
X142304041Y-87918052D01*
X142312627Y-87898661D01*
X142324171Y-87882366D01*
X142337796Y-87869892D01*
X142353770Y-87860668D01*
X142371610Y-87854963D01*
X142391388Y-87852794D01*
X142393250Y-87852779D01*
X142413590Y-87854698D01*
G37*
G36*
X142799904Y-87826672D02*
G01*
X142819120Y-87832298D01*
X142835810Y-87841205D01*
X142850227Y-87853282D01*
X142871764Y-87886606D01*
X142882136Y-87932394D01*
X142882651Y-87946568D01*
X142882651Y-88197161D01*
X142674740Y-88197161D01*
X142674740Y-87946568D01*
X142676657Y-87919739D01*
X142682260Y-87895715D01*
X142690897Y-87875536D01*
X142702528Y-87858400D01*
X142716320Y-87845030D01*
X142732514Y-87834868D01*
X142750616Y-87828196D01*
X142770710Y-87825010D01*
X142778665Y-87824752D01*
X142799904Y-87826672D01*
G37*
G36*
X143191111Y-88549096D02*
G01*
X141988009Y-88549096D01*
X141988009Y-87952186D01*
X142099120Y-87952186D01*
X142099120Y-87967573D01*
X142099120Y-88437985D01*
X143080000Y-88437985D01*
X143080000Y-87928372D01*
X143078071Y-87882999D01*
X143072385Y-87840068D01*
X143063241Y-87800287D01*
X143050732Y-87763237D01*
X143035342Y-87729737D01*
X143016993Y-87699197D01*
X142996337Y-87672376D01*
X142973114Y-87648694D01*
X142948026Y-87628708D01*
X142920720Y-87612021D01*
X142891766Y-87598951D01*
X142860891Y-87589363D01*
X142828378Y-87583418D01*
X142794188Y-87581194D01*
X142791304Y-87581181D01*
X142734944Y-87588744D01*
X142681641Y-87611223D01*
X142632758Y-87648556D01*
X142590579Y-87700402D01*
X142576737Y-87724002D01*
X142554781Y-87696596D01*
X142530369Y-87672485D01*
X142504651Y-87652605D01*
X142477027Y-87636359D01*
X142448963Y-87624459D01*
X142419493Y-87616383D01*
X142375054Y-87611956D01*
X142342512Y-87613884D01*
X142311462Y-87619569D01*
X142254180Y-87641677D01*
X142203778Y-87677601D01*
X142161293Y-87727027D01*
X142128328Y-87789608D01*
X142106903Y-87864552D01*
X142101171Y-87906352D01*
X142099123Y-87950409D01*
X142099120Y-87952186D01*
X141988009Y-87952186D01*
X141988009Y-87528730D01*
X142099120Y-87528730D01*
X142311978Y-87528730D01*
X142311978Y-87208100D01*
X143080000Y-87208100D01*
X143080000Y-86967338D01*
X142311978Y-86967338D01*
X142311978Y-86646708D01*
X142099120Y-86646708D01*
X142099120Y-87528730D01*
X141988009Y-87528730D01*
X141988009Y-85868672D01*
X142099120Y-85868672D01*
X142668084Y-85868672D01*
X142099120Y-86313866D01*
X142099120Y-86540706D01*
X143080000Y-86540706D01*
X143080000Y-86313866D01*
X142488688Y-86313866D01*
X143080000Y-85854689D01*
X143080000Y-85641893D01*
X142099120Y-85641893D01*
X142099120Y-85868672D01*
X141988009Y-85868672D01*
X141988009Y-85530782D01*
X143191111Y-85530782D01*
X143191111Y-88549096D01*
G37*
G36*
X86104062Y-67469518D02*
G01*
X86164188Y-67491666D01*
X86217478Y-67527511D01*
X86261286Y-67575554D01*
X86278777Y-67603425D01*
X86292993Y-67633522D01*
X86303599Y-67665231D01*
X86310542Y-67698641D01*
X86313721Y-67742369D01*
X86306182Y-67807990D01*
X86284070Y-67868763D01*
X86248396Y-67922357D01*
X86225927Y-67945647D01*
X86200787Y-67966089D01*
X86173284Y-67983405D01*
X86143600Y-67997410D01*
X86112420Y-68007745D01*
X86079580Y-68014399D01*
X86039314Y-68017203D01*
X85888128Y-68017203D01*
X85888128Y-67461978D01*
X86039314Y-67461978D01*
X86104062Y-67469518D01*
G37*
G36*
X86674021Y-68356742D02*
G01*
X83326467Y-68356742D01*
X83326467Y-67739010D01*
X83437578Y-67739010D01*
X83445196Y-67827857D01*
X83467689Y-67912382D01*
X83504474Y-67991171D01*
X83554773Y-68062528D01*
X83617470Y-68124567D01*
X83653014Y-68151499D01*
X83691049Y-68175397D01*
X83731290Y-68196044D01*
X83773659Y-68213336D01*
X83817608Y-68227010D01*
X83863306Y-68237057D01*
X83909997Y-68243262D01*
X83958066Y-68245614D01*
X83962578Y-68245631D01*
X84009185Y-68243699D01*
X84054263Y-68237994D01*
X84091360Y-68230000D01*
X84586314Y-68230000D01*
X84813154Y-68230000D01*
X84813154Y-67638688D01*
X85272331Y-68230000D01*
X85485127Y-68230000D01*
X85485127Y-68017203D01*
X85647304Y-68017203D01*
X85647304Y-68230000D01*
X86044932Y-68230000D01*
X86138057Y-68222395D01*
X86226798Y-68199941D01*
X86309263Y-68163357D01*
X86383316Y-68113731D01*
X86416488Y-68084506D01*
X86446775Y-68052616D01*
X86473847Y-68018434D01*
X86497694Y-67981971D01*
X86517892Y-67943901D01*
X86534585Y-67903951D01*
X86547399Y-67863029D01*
X86556486Y-67820619D01*
X86562910Y-67742369D01*
X86555297Y-67656040D01*
X86532773Y-67573575D01*
X86495845Y-67496415D01*
X86445240Y-67426345D01*
X86382084Y-67365389D01*
X86346274Y-67338969D01*
X86307984Y-67315593D01*
X86267514Y-67295491D01*
X86224947Y-67278768D01*
X86180897Y-67265706D01*
X86135150Y-67256302D01*
X86044932Y-67249120D01*
X85647304Y-67249120D01*
X85647304Y-68017203D01*
X85485127Y-68017203D01*
X85485127Y-67249120D01*
X85258348Y-67249120D01*
X85258348Y-67818084D01*
X84813154Y-67249120D01*
X84586314Y-67249120D01*
X84586314Y-68230000D01*
X84091360Y-68230000D01*
X84097903Y-68228590D01*
X84139729Y-68215644D01*
X84179829Y-68199190D01*
X84217821Y-68179429D01*
X84287285Y-68130246D01*
X84346790Y-68069097D01*
X84372395Y-68034375D01*
X84394995Y-67997123D01*
X84414450Y-67957477D01*
X84430615Y-67915588D01*
X84443327Y-67871686D01*
X84452478Y-67825835D01*
X84459552Y-67733393D01*
X84459552Y-67663356D01*
X83934552Y-67663356D01*
X83934552Y-67872001D01*
X84199189Y-67872001D01*
X84175894Y-67922207D01*
X84139025Y-67965307D01*
X84089840Y-67998865D01*
X84061224Y-68011243D01*
X84030417Y-68020255D01*
X83966792Y-68027278D01*
X83932488Y-68025356D01*
X83899643Y-68019719D01*
X83838275Y-67997678D01*
X83784503Y-67962199D01*
X83740419Y-67914641D01*
X83722684Y-67886890D01*
X83708144Y-67856823D01*
X83697047Y-67824807D01*
X83689520Y-67790926D01*
X83685363Y-67739010D01*
X83687285Y-67703234D01*
X83692925Y-67669030D01*
X83702203Y-67636280D01*
X83714885Y-67605554D01*
X83730882Y-67576892D01*
X83749927Y-67550707D01*
X83771816Y-67527216D01*
X83796352Y-67506630D01*
X83823138Y-67489275D01*
X83852141Y-67475205D01*
X83882787Y-67464736D01*
X83915218Y-67457884D01*
X83958365Y-67454712D01*
X83994312Y-67456660D01*
X84028893Y-67462484D01*
X84061410Y-67471925D01*
X84092490Y-67485030D01*
X84150003Y-67522033D01*
X84201845Y-67574244D01*
X84204806Y-67577932D01*
X84374189Y-67425341D01*
X84316478Y-67364508D01*
X84246137Y-67312824D01*
X84165013Y-67272532D01*
X84121213Y-67257327D01*
X84075817Y-67245731D01*
X84029335Y-67237920D01*
X83981819Y-67233970D01*
X83958365Y-67233489D01*
X83865591Y-67241102D01*
X83777383Y-67263564D01*
X83695449Y-67300173D01*
X83621719Y-67349936D01*
X83588554Y-67379338D01*
X83558194Y-67411470D01*
X83530887Y-67446062D01*
X83506724Y-67483027D01*
X83486050Y-67521837D01*
X83468808Y-67562644D01*
X83455329Y-67604697D01*
X83445521Y-67648375D01*
X83439613Y-67692798D01*
X83437579Y-67738488D01*
X83437578Y-67739010D01*
X83326467Y-67739010D01*
X83326467Y-67122378D01*
X86674021Y-67122378D01*
X86674021Y-68356742D01*
G37*
G36*
X90638640Y-101955494D02*
G01*
X90657395Y-101959950D01*
X90673724Y-101966965D01*
X90687803Y-101976411D01*
X90699150Y-101987768D01*
X90707965Y-102001077D01*
X90713969Y-102015878D01*
X90717155Y-102032228D01*
X90717641Y-102042039D01*
X90716109Y-102059226D01*
X90711638Y-102074950D01*
X90694738Y-102101228D01*
X90668008Y-102119919D01*
X90632169Y-102129357D01*
X90617990Y-102130064D01*
X90427578Y-102130064D01*
X90427578Y-101953965D01*
X90617990Y-101953965D01*
X90638640Y-101955494D01*
G37*
G36*
X91471081Y-102230106D02*
G01*
X91280718Y-102230106D01*
X91376999Y-101979512D01*
X91471081Y-102230106D01*
G37*
G36*
X92230695Y-101965615D02*
G01*
X92278796Y-101983333D01*
X92321428Y-102012009D01*
X92356474Y-102050443D01*
X92370467Y-102072740D01*
X92381840Y-102096818D01*
X92390324Y-102122185D01*
X92395879Y-102148913D01*
X92398422Y-102183895D01*
X92392391Y-102236392D01*
X92374702Y-102285011D01*
X92346162Y-102327886D01*
X92328187Y-102346518D01*
X92308075Y-102362871D01*
X92286073Y-102376724D01*
X92262325Y-102387928D01*
X92237382Y-102396196D01*
X92211109Y-102401519D01*
X92178897Y-102403762D01*
X92057948Y-102403762D01*
X92057948Y-101959582D01*
X92178897Y-101959582D01*
X92230695Y-101965615D01*
G37*
G36*
X93103796Y-102230106D02*
G01*
X92913433Y-102230106D01*
X93009713Y-101979512D01*
X93103796Y-102230106D01*
G37*
G36*
X93901725Y-101955494D02*
G01*
X93920479Y-101959950D01*
X93936809Y-101966965D01*
X93950888Y-101976411D01*
X93962235Y-101987768D01*
X93971050Y-102001077D01*
X93977053Y-102015878D01*
X93980240Y-102032228D01*
X93980725Y-102042039D01*
X93979193Y-102059226D01*
X93974723Y-102074950D01*
X93957822Y-102101228D01*
X93931092Y-102119919D01*
X93895253Y-102129357D01*
X93881074Y-102130064D01*
X93690662Y-102130064D01*
X93690662Y-101953965D01*
X93881074Y-101953965D01*
X93901725Y-101955494D01*
G37*
G36*
X94289140Y-102662889D02*
G01*
X90146030Y-102662889D01*
X90146030Y-102130064D01*
X90234919Y-102130064D01*
X90234919Y-102574000D01*
X90427578Y-102574000D01*
X90427578Y-102286868D01*
X90574270Y-102286868D01*
X90722135Y-102574000D01*
X90937166Y-102574000D01*
X90949183Y-102574000D01*
X91149658Y-102574000D01*
X91222442Y-102383588D01*
X91528234Y-102383588D01*
X91599895Y-102574000D01*
X91808234Y-102574000D01*
X91739467Y-102403762D01*
X91865289Y-102403762D01*
X91865289Y-102574000D01*
X92183391Y-102574000D01*
X92581898Y-102574000D01*
X92782372Y-102574000D01*
X92855157Y-102383588D01*
X93160949Y-102383588D01*
X93232609Y-102574000D01*
X93440949Y-102574000D01*
X93261622Y-102130064D01*
X93498004Y-102130064D01*
X93498004Y-102574000D01*
X93690662Y-102574000D01*
X93690662Y-102286868D01*
X93837355Y-102286868D01*
X93985219Y-102574000D01*
X94200251Y-102574000D01*
X94028890Y-102258877D01*
X94054945Y-102245303D01*
X94078943Y-102229309D01*
X94100633Y-102211123D01*
X94119929Y-102190849D01*
X94136458Y-102168942D01*
X94150314Y-102145305D01*
X94161144Y-102120584D01*
X94169081Y-102094487D01*
X94173895Y-102067726D01*
X94175628Y-102039916D01*
X94175631Y-102038668D01*
X94174089Y-102009974D01*
X94169547Y-101982506D01*
X94162090Y-101956257D01*
X94151860Y-101931479D01*
X94123298Y-101886431D01*
X94084525Y-101848414D01*
X94036293Y-101818694D01*
X94008874Y-101807361D01*
X93979581Y-101798660D01*
X93948400Y-101792703D01*
X93915621Y-101789672D01*
X93898953Y-101789296D01*
X93498004Y-101789296D01*
X93498004Y-102130064D01*
X93261622Y-102130064D01*
X93123970Y-101789296D01*
X92903321Y-101789296D01*
X92722761Y-102230106D01*
X92581898Y-102574000D01*
X92183391Y-102574000D01*
X92257891Y-102567916D01*
X92328884Y-102549953D01*
X92394856Y-102520686D01*
X92454098Y-102480985D01*
X92480636Y-102457605D01*
X92504865Y-102432093D01*
X92526523Y-102404747D01*
X92545600Y-102375577D01*
X92561759Y-102345121D01*
X92575114Y-102313161D01*
X92585365Y-102280423D01*
X92592635Y-102246495D01*
X92597773Y-102183895D01*
X92591683Y-102114832D01*
X92573664Y-102048860D01*
X92544121Y-101987132D01*
X92503637Y-101931076D01*
X92453112Y-101882311D01*
X92424465Y-101861175D01*
X92393833Y-101842474D01*
X92361457Y-101826393D01*
X92327403Y-101813014D01*
X92292163Y-101802565D01*
X92255565Y-101795041D01*
X92183391Y-101789296D01*
X91865289Y-101789296D01*
X91865289Y-102403762D01*
X91739467Y-102403762D01*
X91491256Y-101789296D01*
X91270607Y-101789296D01*
X91090046Y-102230106D01*
X90949183Y-102574000D01*
X90937166Y-102574000D01*
X90765806Y-102258877D01*
X90791860Y-102245303D01*
X90815859Y-102229309D01*
X90837549Y-102211123D01*
X90856845Y-102190849D01*
X90873373Y-102168942D01*
X90887229Y-102145305D01*
X90898060Y-102120584D01*
X90905996Y-102094487D01*
X90910810Y-102067726D01*
X90912543Y-102039916D01*
X90912547Y-102038668D01*
X90911005Y-102009974D01*
X90906463Y-101982506D01*
X90899005Y-101956257D01*
X90888776Y-101931479D01*
X90860214Y-101886431D01*
X90821440Y-101848414D01*
X90773209Y-101818694D01*
X90745789Y-101807361D01*
X90716496Y-101798660D01*
X90685316Y-101792703D01*
X90652537Y-101789672D01*
X90635868Y-101789296D01*
X90234919Y-101789296D01*
X90234919Y-102130064D01*
X90146030Y-102130064D01*
X90146030Y-101700407D01*
X94289140Y-101700407D01*
X94289140Y-102662889D01*
G37*
G36*
X93176272Y-85025394D02*
G01*
X90146030Y-85025394D01*
X90146030Y-84924000D01*
X90234919Y-84924000D01*
X90427578Y-84924000D01*
X90964912Y-84924000D01*
X91141891Y-84924000D01*
X91141891Y-84387056D01*
X91399469Y-84867970D01*
X91657096Y-84389303D01*
X91657096Y-84924000D01*
X91838520Y-84924000D01*
X91838520Y-84583183D01*
X91956489Y-84583183D01*
X91958039Y-84622088D01*
X91962631Y-84659112D01*
X91970018Y-84693554D01*
X91980178Y-84726034D01*
X91992805Y-84756006D01*
X92007964Y-84783938D01*
X92025372Y-84809483D01*
X92045110Y-84832897D01*
X92091086Y-84872916D01*
X92145685Y-84903776D01*
X92208906Y-84924932D01*
X92280803Y-84935497D01*
X92312644Y-84936505D01*
X92351505Y-84934956D01*
X92388585Y-84930369D01*
X92423287Y-84922962D01*
X92456084Y-84912774D01*
X92486477Y-84900086D01*
X92514850Y-84884855D01*
X92540848Y-84867364D01*
X92564708Y-84847541D01*
X92586232Y-84825595D01*
X92605482Y-84801495D01*
X92636859Y-84747109D01*
X92658282Y-84684585D01*
X92668920Y-84614060D01*
X92669923Y-84583183D01*
X92669923Y-84231229D01*
X92743538Y-84231229D01*
X92743538Y-84388180D01*
X92905959Y-84323162D01*
X92905959Y-84924000D01*
X93087383Y-84924000D01*
X93087383Y-84139296D01*
X92973126Y-84139296D01*
X92743538Y-84231229D01*
X92669923Y-84231229D01*
X92669923Y-84139296D01*
X92477264Y-84139296D01*
X92477264Y-84583183D01*
X92475721Y-84611163D01*
X92471176Y-84637136D01*
X92463987Y-84660360D01*
X92454184Y-84681432D01*
X92442220Y-84699786D01*
X92427986Y-84715863D01*
X92411854Y-84729357D01*
X92393723Y-84740423D01*
X92351863Y-84754829D01*
X92313768Y-84758452D01*
X92288501Y-84756909D01*
X92264941Y-84752360D01*
X92243629Y-84745104D01*
X92224182Y-84735193D01*
X92206904Y-84722897D01*
X92191668Y-84708227D01*
X92167718Y-84672118D01*
X92153141Y-84627057D01*
X92149148Y-84583183D01*
X92149148Y-84139296D01*
X91956489Y-84139296D01*
X91956489Y-84583183D01*
X91838520Y-84583183D01*
X91838520Y-84139296D01*
X91595498Y-84139296D01*
X91401716Y-84509275D01*
X91207983Y-84139296D01*
X90964912Y-84139296D01*
X90964912Y-84924000D01*
X90427578Y-84924000D01*
X90427578Y-84614495D01*
X90714270Y-84614495D01*
X90714270Y-84453246D01*
X90427578Y-84453246D01*
X90427578Y-84306212D01*
X90857641Y-84306212D01*
X90857641Y-84139296D01*
X90234919Y-84139296D01*
X90234919Y-84924000D01*
X90146030Y-84924000D01*
X90146030Y-84050407D01*
X93176272Y-84050407D01*
X93176272Y-85025394D01*
G37*
G36*
X113945126Y-85025394D02*
G01*
X110660628Y-85025394D01*
X110660628Y-84924000D01*
X110749517Y-84924000D01*
X110942176Y-84924000D01*
X111479510Y-84924000D01*
X111656489Y-84924000D01*
X111656489Y-84387056D01*
X111914067Y-84867970D01*
X112171694Y-84389303D01*
X112171694Y-84924000D01*
X112353118Y-84924000D01*
X112353118Y-84583183D01*
X112471087Y-84583183D01*
X112472637Y-84622088D01*
X112477229Y-84659112D01*
X112484616Y-84693554D01*
X112494776Y-84726034D01*
X112507403Y-84756006D01*
X112522562Y-84783938D01*
X112539970Y-84809483D01*
X112559708Y-84832897D01*
X112605684Y-84872916D01*
X112660283Y-84903776D01*
X112723504Y-84924932D01*
X112795401Y-84935497D01*
X112827242Y-84936505D01*
X112866103Y-84934956D01*
X112903183Y-84930369D01*
X112937885Y-84922962D01*
X112970682Y-84912774D01*
X113001075Y-84900086D01*
X113029448Y-84884855D01*
X113055446Y-84867364D01*
X113079306Y-84847541D01*
X113100830Y-84825595D01*
X113120080Y-84801495D01*
X113151457Y-84747109D01*
X113172880Y-84684585D01*
X113183518Y-84614060D01*
X113184521Y-84583183D01*
X113184521Y-84255605D01*
X113267124Y-84255605D01*
X113363404Y-84373378D01*
X113397309Y-84342727D01*
X113429497Y-84318450D01*
X113455773Y-84302692D01*
X113481858Y-84290900D01*
X113506469Y-84283253D01*
X113531698Y-84278661D01*
X113561681Y-84276903D01*
X113584097Y-84278424D01*
X113604828Y-84282825D01*
X113623684Y-84289913D01*
X113640197Y-84299416D01*
X113653730Y-84310754D01*
X113664445Y-84323911D01*
X113671742Y-84337868D01*
X113675985Y-84353054D01*
X113677012Y-84365514D01*
X113675415Y-84385461D01*
X113670490Y-84404940D01*
X113651084Y-84441604D01*
X113624402Y-84472101D01*
X113292867Y-84800803D01*
X113292867Y-84924000D01*
X113856237Y-84924000D01*
X113856237Y-84777307D01*
X113516886Y-84778431D01*
X113743104Y-84559638D01*
X113772176Y-84529223D01*
X113796137Y-84499223D01*
X113813228Y-84472710D01*
X113826538Y-84446020D01*
X113835697Y-84420565D01*
X113841704Y-84394550D01*
X113845002Y-84354327D01*
X113843457Y-84326863D01*
X113838891Y-84300782D01*
X113831480Y-84276357D01*
X113821304Y-84253464D01*
X113792970Y-84212499D01*
X113754145Y-84178291D01*
X113704838Y-84151697D01*
X113645141Y-84134025D01*
X113575513Y-84126866D01*
X113567249Y-84126791D01*
X113531917Y-84128351D01*
X113497111Y-84133019D01*
X113429410Y-84151546D01*
X113363799Y-84182527D01*
X113300105Y-84226594D01*
X113267124Y-84255605D01*
X113184521Y-84255605D01*
X113184521Y-84139296D01*
X112991862Y-84139296D01*
X112991862Y-84583183D01*
X112990319Y-84611163D01*
X112985774Y-84637136D01*
X112978585Y-84660360D01*
X112968782Y-84681432D01*
X112956818Y-84699786D01*
X112942584Y-84715863D01*
X112926452Y-84729357D01*
X112908321Y-84740423D01*
X112866461Y-84754829D01*
X112828366Y-84758452D01*
X112803099Y-84756909D01*
X112779539Y-84752360D01*
X112758227Y-84745104D01*
X112738780Y-84735193D01*
X112721502Y-84722897D01*
X112706266Y-84708227D01*
X112682316Y-84672118D01*
X112667739Y-84627057D01*
X112663746Y-84583183D01*
X112663746Y-84139296D01*
X112471087Y-84139296D01*
X112471087Y-84583183D01*
X112353118Y-84583183D01*
X112353118Y-84139296D01*
X112110096Y-84139296D01*
X111916314Y-84509275D01*
X111722581Y-84139296D01*
X111479510Y-84139296D01*
X111479510Y-84924000D01*
X110942176Y-84924000D01*
X110942176Y-84614495D01*
X111228868Y-84614495D01*
X111228868Y-84453246D01*
X110942176Y-84453246D01*
X110942176Y-84306212D01*
X111372239Y-84306212D01*
X111372239Y-84139296D01*
X110749517Y-84139296D01*
X110749517Y-84924000D01*
X110660628Y-84924000D01*
X110660628Y-84037902D01*
X113945126Y-84037902D01*
X113945126Y-85025394D01*
G37*
D16*
X86714700Y-71548178D02*
X86714700Y-70405321D01*
X86714700Y-82548178D02*
X86714700Y-81405321D01*
X87286128Y-81976749D02*
X86143271Y-81976749D01*
D17*
%TO.C,D4*%
X102177500Y-70365000D02*
X102177500Y-71835000D01*
X102177500Y-71835000D02*
X104462500Y-71835000D01*
X104462500Y-70365000D02*
X102177500Y-70365000D01*
%TO.C,TP12*%
X86500000Y-65000000D02*
G75*
G02*
X83500000Y-65000000I-1500000J0D01*
G01*
X83500000Y-65000000D02*
G75*
G02*
X86500000Y-65000000I1500000J0D01*
G01*
%TO.C,J6*%
X111865000Y-65810000D02*
X111865000Y-67510000D01*
X111865000Y-67510000D02*
X114215000Y-67510000D01*
X125735000Y-67510000D02*
X125735000Y-69450000D01*
X126165000Y-60340000D02*
X113785000Y-60340000D01*
X128085000Y-65810000D02*
X128085000Y-67510000D01*
X128085000Y-67510000D02*
X125735000Y-67510000D01*
%TO.C,D19*%
X85586842Y-85942000D02*
X87546842Y-85942000D01*
X85586842Y-87142000D02*
X87546842Y-87142000D01*
X87546842Y-87142000D02*
X87546842Y-85942000D01*
%TO.C,R64*%
X137927500Y-65980242D02*
X137927500Y-66454758D01*
X138972500Y-65980242D02*
X138972500Y-66454758D01*
%TO.C,R56*%
X132103641Y-83240000D02*
X131796359Y-83240000D01*
X132103641Y-84000000D02*
X131796359Y-84000000D01*
%TO.C,C6*%
X94390000Y-76068748D02*
X94390000Y-76591252D01*
X95860000Y-76068748D02*
X95860000Y-76591252D01*
%TO.C,TP5*%
X85881842Y-108370000D02*
X87281842Y-108370000D01*
X85881842Y-109770000D02*
X85881842Y-108370000D01*
X87281842Y-108370000D02*
X87281842Y-109770000D01*
X87281842Y-109770000D02*
X85881842Y-109770000D01*
%TO.C,R50*%
X120370000Y-111253641D02*
X120370000Y-110946359D01*
X121130000Y-111253641D02*
X121130000Y-110946359D01*
%TO.C,R24*%
X121111359Y-89720000D02*
X121418641Y-89720000D01*
X121111359Y-90480000D02*
X121418641Y-90480000D01*
%TO.C,D13*%
X133550000Y-67947500D02*
X133550000Y-65287500D01*
X133550000Y-67947500D02*
X135250000Y-67947500D01*
X135250000Y-67947500D02*
X135250000Y-65287500D01*
%TO.C,R16*%
X121111359Y-72320000D02*
X121418641Y-72320000D01*
X121111359Y-73080000D02*
X121418641Y-73080000D01*
%TO.C,R23*%
X115565000Y-90327064D02*
X115565000Y-88872936D01*
X117385000Y-90327064D02*
X117385000Y-88872936D01*
%TO.C,C39*%
X129740000Y-118287836D02*
X129740000Y-118072164D01*
X130460000Y-118287836D02*
X130460000Y-118072164D01*
%TO.C,U4*%
X91215000Y-71090000D02*
X91265000Y-71090000D01*
X91215000Y-72910000D02*
X91215000Y-71090000D01*
X91265000Y-72910000D02*
X91215000Y-72910000D01*
X92385000Y-71090000D02*
X93165000Y-71090000D01*
X94285000Y-71090000D02*
X94335000Y-71090000D01*
X94335000Y-71090000D02*
X94335000Y-72910000D01*
X94335000Y-72910000D02*
X94285000Y-72910000D01*
X91265000Y-73450000D02*
X90935000Y-73690000D01*
X90935000Y-73210000D01*
X91265000Y-73450000D01*
G36*
X91265000Y-73450000D02*
G01*
X90935000Y-73690000D01*
X90935000Y-73210000D01*
X91265000Y-73450000D01*
G37*
%TO.C,D12*%
X133550000Y-85960000D02*
X133550000Y-83300000D01*
X133550000Y-85960000D02*
X135250000Y-85960000D01*
X135250000Y-85960000D02*
X135250000Y-83300000D01*
%TO.C,R74*%
X90505000Y-127891359D02*
X90505000Y-128198641D01*
X91265000Y-127891359D02*
X91265000Y-128198641D01*
%TO.C,J5*%
X91365000Y-65810000D02*
X91365000Y-67510000D01*
X91365000Y-67510000D02*
X93715000Y-67510000D01*
X105235000Y-67510000D02*
X105235000Y-69450000D01*
X105665000Y-60340000D02*
X93285000Y-60340000D01*
X107585000Y-65810000D02*
X107585000Y-67510000D01*
X107585000Y-67510000D02*
X105235000Y-67510000D01*
%TO.C,R10*%
X90602500Y-76347258D02*
X90602500Y-75872742D01*
X91647500Y-76347258D02*
X91647500Y-75872742D01*
%TO.C,C7*%
X104070000Y-74790000D02*
X104070000Y-77810000D01*
X104070000Y-77810000D02*
X108290000Y-77810000D01*
X108290000Y-74790000D02*
X104070000Y-74790000D01*
%TO.C,R55*%
X131127500Y-87912742D02*
X131127500Y-88387258D01*
X132172500Y-87912742D02*
X132172500Y-88387258D01*
%TO.C,C27*%
X92170222Y-120940000D02*
X93592726Y-120940000D01*
X92170222Y-122760000D02*
X93592726Y-122760000D01*
%TO.C,D6*%
X122677500Y-87765000D02*
X122677500Y-89235000D01*
X122677500Y-89235000D02*
X124962500Y-89235000D01*
X124962500Y-87765000D02*
X122677500Y-87765000D01*
%TO.C,C57*%
X124690000Y-114407836D02*
X124690000Y-114192164D01*
X125410000Y-114407836D02*
X125410000Y-114192164D01*
%TO.C,C25*%
X82584664Y-96796000D02*
X82800336Y-96796000D01*
X82584664Y-97516000D02*
X82800336Y-97516000D01*
%TO.C,R48*%
X93437742Y-112677500D02*
X93912258Y-112677500D01*
X93437742Y-113722500D02*
X93912258Y-113722500D01*
%TO.C,R21*%
X112902500Y-80187258D02*
X112902500Y-79712742D01*
X113947500Y-80187258D02*
X113947500Y-79712742D01*
%TO.C,J9*%
X73770000Y-96766000D02*
X73770000Y-102696000D01*
X76590000Y-95496000D02*
X78040000Y-95496000D01*
X76590000Y-103966000D02*
X78040000Y-103966000D01*
X78040000Y-95496000D02*
X78040000Y-97296000D01*
X78040000Y-97296000D02*
X79030000Y-97296000D01*
X78040000Y-103966000D02*
X78040000Y-102166000D01*
%TO.C,R34*%
X90602500Y-93747258D02*
X90602500Y-93272742D01*
X91647500Y-93747258D02*
X91647500Y-93272742D01*
%TO.C,R47*%
X135953641Y-123420000D02*
X135646359Y-123420000D01*
X135953641Y-124180000D02*
X135646359Y-124180000D01*
%TO.C,C38*%
X128640000Y-118287836D02*
X128640000Y-118072164D01*
X129360000Y-118287836D02*
X129360000Y-118072164D01*
%TO.C,U2*%
X82182500Y-118265000D02*
X85402500Y-118265000D01*
X82182500Y-118490000D02*
X82182500Y-118265000D01*
X82182500Y-121485000D02*
X82182500Y-121260000D01*
X85402500Y-118265000D02*
X85402500Y-118490000D01*
X85402500Y-121260000D02*
X85402500Y-121485000D01*
X85402500Y-121485000D02*
X82182500Y-121485000D01*
X86262500Y-121095000D02*
X85932500Y-120855000D01*
X86262500Y-120615000D01*
X86262500Y-121095000D01*
G36*
X86262500Y-121095000D02*
G01*
X85932500Y-120855000D01*
X86262500Y-120615000D01*
X86262500Y-121095000D01*
G37*
%TO.C,TP2*%
X126025000Y-70700000D02*
X128425000Y-70700000D01*
X126025000Y-73100000D02*
X126025000Y-70700000D01*
X128425000Y-70700000D02*
X128425000Y-73100000D01*
X128425000Y-73100000D02*
X126025000Y-73100000D01*
%TO.C,R67*%
X139070000Y-68968859D02*
X139070000Y-69276141D01*
X139830000Y-68968859D02*
X139830000Y-69276141D01*
%TO.C,R53*%
X139070000Y-86981359D02*
X139070000Y-87288641D01*
X139830000Y-86981359D02*
X139830000Y-87288641D01*
%TO.C,C14*%
X117140000Y-93991252D02*
X117140000Y-93468748D01*
X118610000Y-93991252D02*
X118610000Y-93468748D01*
%TO.C,C21*%
X94390000Y-93468748D02*
X94390000Y-93991252D01*
X95860000Y-93468748D02*
X95860000Y-93991252D01*
%TO.C,U8*%
X111715000Y-88490000D02*
X111765000Y-88490000D01*
X111715000Y-90310000D02*
X111715000Y-88490000D01*
X111765000Y-90310000D02*
X111715000Y-90310000D01*
X112885000Y-88490000D02*
X113665000Y-88490000D01*
X114785000Y-88490000D02*
X114835000Y-88490000D01*
X114835000Y-88490000D02*
X114835000Y-90310000D01*
X114835000Y-90310000D02*
X114785000Y-90310000D01*
X111765000Y-90850000D02*
X111435000Y-91090000D01*
X111435000Y-90610000D01*
X111765000Y-90850000D01*
G36*
X111765000Y-90850000D02*
G01*
X111435000Y-91090000D01*
X111435000Y-90610000D01*
X111765000Y-90850000D01*
G37*
%TO.C,D11*%
X120016474Y-112515000D02*
X120016474Y-114800000D01*
X121486474Y-112515000D02*
X120016474Y-112515000D01*
X121486474Y-114800000D02*
X121486474Y-112515000D01*
%TO.C,C15*%
X116338748Y-100290000D02*
X117761252Y-100290000D01*
X116338748Y-102110000D02*
X117761252Y-102110000D01*
%TO.C,U3*%
X95640000Y-78740000D02*
X97460000Y-78740000D01*
X95640000Y-78790000D02*
X95640000Y-78740000D01*
X95640000Y-81860000D02*
X95640000Y-81810000D01*
X97460000Y-78740000D02*
X97460000Y-78790000D01*
X97460000Y-81810000D02*
X97460000Y-81860000D01*
X97460000Y-81860000D02*
X95640000Y-81860000D01*
X95100000Y-78790000D02*
X94860000Y-78460000D01*
X95340000Y-78460000D01*
X95100000Y-78790000D01*
G36*
X95100000Y-78790000D02*
G01*
X94860000Y-78460000D01*
X95340000Y-78460000D01*
X95100000Y-78790000D01*
G37*
%TO.C,R49*%
X80900000Y-95142141D02*
X80900000Y-94834859D01*
X81660000Y-95142141D02*
X81660000Y-94834859D01*
%TO.C,C1*%
X82972164Y-108240000D02*
X83187836Y-108240000D01*
X82972164Y-108960000D02*
X83187836Y-108960000D01*
%TO.C,R61*%
X132103641Y-65227500D02*
X131796359Y-65227500D01*
X132103641Y-65987500D02*
X131796359Y-65987500D01*
%TO.C,R54*%
X137927500Y-83992742D02*
X137927500Y-84467258D01*
X138972500Y-83992742D02*
X138972500Y-84467258D01*
%TO.C,R6*%
X80900000Y-115386141D02*
X80900000Y-115078859D01*
X81660000Y-115386141D02*
X81660000Y-115078859D01*
%TO.C,C18*%
X124570000Y-92190000D02*
X124570000Y-95210000D01*
X124570000Y-95210000D02*
X128790000Y-95210000D01*
X128790000Y-92190000D02*
X124570000Y-92190000D01*
%TO.C,R4*%
X80140000Y-110136359D02*
X80140000Y-110443641D01*
X80900000Y-110136359D02*
X80900000Y-110443641D01*
%TO.C,R58*%
X137327500Y-88847258D02*
X137327500Y-88372742D01*
X138372500Y-88847258D02*
X138372500Y-88372742D01*
%TO.C,C2*%
X82584664Y-117040000D02*
X82800336Y-117040000D01*
X82584664Y-117760000D02*
X82800336Y-117760000D01*
%TO.C,D9*%
X79886842Y-99596000D02*
X80086842Y-99596000D01*
%TO.C,C50*%
X90040000Y-88212164D02*
X90040000Y-88427836D01*
X90760000Y-88212164D02*
X90760000Y-88427836D01*
%TO.C,R29*%
X112902500Y-97587258D02*
X112902500Y-97112742D01*
X113947500Y-97587258D02*
X113947500Y-97112742D01*
%TO.C,R18*%
X111102500Y-76347258D02*
X111102500Y-75872742D01*
X112147500Y-76347258D02*
X112147500Y-75872742D01*
%TO.C,C45*%
X86975000Y-130204420D02*
X86975000Y-130485580D01*
X87995000Y-130204420D02*
X87995000Y-130485580D01*
%TO.C,R60*%
X138203641Y-92480000D02*
X137896359Y-92480000D01*
X138203641Y-93240000D02*
X137896359Y-93240000D01*
%TO.C,C44*%
X103972836Y-128940000D02*
X103757164Y-128940000D01*
X103972836Y-129660000D02*
X103757164Y-129660000D01*
%TO.C,D20*%
X116715000Y-130015000D02*
X116715000Y-131485000D01*
X116715000Y-131485000D02*
X119000000Y-131485000D01*
X119000000Y-130015000D02*
X116715000Y-130015000D01*
%TO.C,U7*%
X116140000Y-96140000D02*
X117960000Y-96140000D01*
X116140000Y-96190000D02*
X116140000Y-96140000D01*
X116140000Y-99260000D02*
X116140000Y-99210000D01*
X117960000Y-96140000D02*
X117960000Y-96190000D01*
X117960000Y-99210000D02*
X117960000Y-99260000D01*
X117960000Y-99260000D02*
X116140000Y-99260000D01*
X115600000Y-96190000D02*
X115360000Y-95860000D01*
X115840000Y-95860000D01*
X115600000Y-96190000D01*
G36*
X115600000Y-96190000D02*
G01*
X115360000Y-95860000D01*
X115840000Y-95860000D01*
X115600000Y-96190000D01*
G37*
%TO.C,J4*%
X137890000Y-78500000D02*
X136610000Y-78500000D01*
X137890000Y-79100000D02*
X136610000Y-79100000D01*
X139700000Y-76200000D02*
X140300000Y-76200000D01*
X140000000Y-76800000D02*
X139700000Y-76200000D01*
X140300000Y-76200000D02*
X140000000Y-76800000D01*
X140990000Y-75990000D02*
X154010000Y-75990000D01*
X140990000Y-76800000D02*
X140990000Y-75990000D01*
X140990000Y-80800000D02*
X140990000Y-81610000D01*
X140990000Y-81610000D02*
X154010000Y-81610000D01*
X154010000Y-75990000D02*
X154010000Y-78800000D01*
X154010000Y-81610000D02*
X154010000Y-78800000D01*
%TO.C,F5*%
X97565000Y-88997936D02*
X97565000Y-90202064D01*
X99385000Y-88997936D02*
X99385000Y-90202064D01*
%TO.C,TP6*%
X131250000Y-84750000D02*
X132650000Y-84750000D01*
X131250000Y-86150000D02*
X131250000Y-84750000D01*
X132650000Y-84750000D02*
X132650000Y-86150000D01*
X132650000Y-86150000D02*
X131250000Y-86150000D01*
%TO.C,TP7*%
X131250000Y-66737500D02*
X132650000Y-66737500D01*
X131250000Y-68137500D02*
X131250000Y-66737500D01*
X132650000Y-66737500D02*
X132650000Y-68137500D01*
X132650000Y-68137500D02*
X131250000Y-68137500D01*
%TO.C,J10*%
X137890000Y-110519758D02*
X136610000Y-110519758D01*
X137890000Y-111119758D02*
X136610000Y-111119758D01*
X137890000Y-114719758D02*
X136610000Y-114719758D01*
X137890000Y-115319758D02*
X136610000Y-115319758D01*
X139700000Y-108219758D02*
X140300000Y-108219758D01*
X140000000Y-108819758D02*
X139700000Y-108219758D01*
X140300000Y-108219758D02*
X140000000Y-108819758D01*
X140990000Y-108009758D02*
X154010000Y-108009758D01*
X140990000Y-108819758D02*
X140990000Y-108009758D01*
X140990000Y-117019758D02*
X140990000Y-117829758D01*
X140990000Y-117829758D02*
X154010000Y-117829758D01*
X141000000Y-112429758D02*
X141000000Y-113409758D01*
X154010000Y-108009758D02*
X154010000Y-112919758D01*
X154010000Y-117829758D02*
X154010000Y-112919758D01*
%TO.C,C17*%
X120150000Y-95210000D02*
X124370000Y-95210000D01*
X124370000Y-92190000D02*
X120150000Y-92190000D01*
X124370000Y-95210000D02*
X124370000Y-92190000D01*
%TO.C,C29*%
X93440000Y-109538748D02*
X93440000Y-110061252D01*
X94910000Y-109538748D02*
X94910000Y-110061252D01*
%TO.C,C11*%
X114890000Y-76068748D02*
X114890000Y-76591252D01*
X116360000Y-76068748D02*
X116360000Y-76591252D01*
%TO.C,C34*%
X135210000Y-73696920D02*
X135210000Y-73978080D01*
X136230000Y-73696920D02*
X136230000Y-73978080D01*
%TO.C,R14*%
X90602500Y-79712742D02*
X90602500Y-80187258D01*
X91647500Y-79712742D02*
X91647500Y-80187258D01*
%TO.C,C47*%
X90040000Y-70812164D02*
X90040000Y-71027836D01*
X90760000Y-70812164D02*
X90760000Y-71027836D01*
%TO.C,R13*%
X92402500Y-80187258D02*
X92402500Y-79712742D01*
X93447500Y-80187258D02*
X93447500Y-79712742D01*
%TO.C,C16*%
X114890000Y-93468748D02*
X114890000Y-93991252D01*
X116360000Y-93468748D02*
X116360000Y-93991252D01*
%TO.C,Q3*%
X119440000Y-126040000D02*
X120960000Y-126040000D01*
X119440000Y-127040000D02*
X119440000Y-126040000D01*
X119440000Y-129160000D02*
X119440000Y-128160000D01*
X120960000Y-126040000D02*
X120960000Y-126090000D01*
X120960000Y-127210000D02*
X120960000Y-127990000D01*
X120960000Y-129110000D02*
X120960000Y-129160000D01*
X120960000Y-129160000D02*
X119440000Y-129160000D01*
X121500000Y-127980000D02*
X121260000Y-127650000D01*
X121740000Y-127650000D01*
X121500000Y-127980000D01*
G36*
X121500000Y-127980000D02*
G01*
X121260000Y-127650000D01*
X121740000Y-127650000D01*
X121500000Y-127980000D01*
G37*
%TO.C,R51*%
X120228974Y-120837258D02*
X120228974Y-120362742D01*
X121273974Y-120837258D02*
X121273974Y-120362742D01*
%TO.C,D21*%
X131710000Y-105550000D02*
X129050000Y-105550000D01*
X131710000Y-107250000D02*
X129050000Y-107250000D01*
X131710000Y-107250000D02*
X131710000Y-105550000D01*
%TO.C,C9*%
X117140000Y-76591252D02*
X117140000Y-76068748D01*
X118610000Y-76591252D02*
X118610000Y-76068748D01*
%TO.C,Q1*%
X82370000Y-109440000D02*
X84190000Y-109440000D01*
X82370000Y-109490000D02*
X82370000Y-109440000D01*
X82370000Y-111390000D02*
X82370000Y-110610000D01*
X82370000Y-112560000D02*
X82370000Y-112510000D01*
X84190000Y-109440000D02*
X84190000Y-110440000D01*
X84190000Y-111560000D02*
X84190000Y-112560000D01*
X84190000Y-112560000D02*
X82370000Y-112560000D01*
X82070000Y-110950000D02*
X81590000Y-110950000D01*
X81830000Y-110620000D01*
X82070000Y-110950000D01*
G36*
X82070000Y-110950000D02*
G01*
X81590000Y-110950000D01*
X81830000Y-110620000D01*
X82070000Y-110950000D01*
G37*
%TO.C,J13*%
X137890000Y-103900000D02*
X136610000Y-103900000D01*
X137890000Y-104500000D02*
X136610000Y-104500000D01*
X139700000Y-101600000D02*
X140300000Y-101600000D01*
X140000000Y-102200000D02*
X139700000Y-101600000D01*
X140300000Y-101600000D02*
X140000000Y-102200000D01*
X140990000Y-101390000D02*
X154010000Y-101390000D01*
X140990000Y-102200000D02*
X140990000Y-101390000D01*
X140990000Y-106200000D02*
X140990000Y-107010000D01*
X140990000Y-107010000D02*
X154010000Y-107010000D01*
X154010000Y-101390000D02*
X154010000Y-104200000D01*
X154010000Y-107010000D02*
X154010000Y-104200000D01*
%TO.C,R9*%
X92402500Y-75872742D02*
X92402500Y-76347258D01*
X93447500Y-75872742D02*
X93447500Y-76347258D01*
%TO.C,U1*%
X124490000Y-121090000D02*
X124965000Y-121090000D01*
X124490000Y-121565000D02*
X124490000Y-121090000D01*
X124490000Y-128310000D02*
X124490000Y-127835000D01*
X124965000Y-128310000D02*
X124490000Y-128310000D01*
X131235000Y-121090000D02*
X131710000Y-121090000D01*
X131710000Y-121090000D02*
X131710000Y-121565000D01*
X131710000Y-127835000D02*
X131710000Y-128310000D01*
X131710000Y-128310000D02*
X131235000Y-128310000D01*
X130850000Y-120560000D02*
X130610000Y-120230000D01*
X131090000Y-120230000D01*
X130850000Y-120560000D01*
G36*
X130850000Y-120560000D02*
G01*
X130610000Y-120230000D01*
X131090000Y-120230000D01*
X130850000Y-120560000D01*
G37*
%TO.C,R33*%
X92402500Y-93272742D02*
X92402500Y-93747258D01*
X93447500Y-93272742D02*
X93447500Y-93747258D01*
%TO.C,R82*%
X143162742Y-120377500D02*
X143637258Y-120377500D01*
X143162742Y-121422500D02*
X143637258Y-121422500D01*
%TO.C,C36*%
X133270000Y-73696920D02*
X133270000Y-73978080D01*
X134290000Y-73696920D02*
X134290000Y-73978080D01*
%TO.C,D1*%
X79886842Y-118590000D02*
X80086842Y-118590000D01*
%TO.C,R30*%
X111102500Y-97112742D02*
X111102500Y-97587258D01*
X112147500Y-97112742D02*
X112147500Y-97587258D01*
%TO.C,C30*%
X136140000Y-84370580D02*
X136140000Y-84089420D01*
X137160000Y-84370580D02*
X137160000Y-84089420D01*
%TO.C,R17*%
X112902500Y-75872742D02*
X112902500Y-76347258D01*
X113947500Y-75872742D02*
X113947500Y-76347258D01*
%TO.C,R59*%
X138362742Y-90712500D02*
X138837258Y-90712500D01*
X138362742Y-91757500D02*
X138837258Y-91757500D01*
%TO.C,R62*%
X137327500Y-70834758D02*
X137327500Y-70360242D01*
X138372500Y-70834758D02*
X138372500Y-70360242D01*
%TO.C,R70*%
X97096359Y-125990000D02*
X97403641Y-125990000D01*
X97096359Y-126750000D02*
X97403641Y-126750000D01*
%TO.C,TP9*%
X92900000Y-131230000D02*
X94300000Y-131230000D01*
X92900000Y-132630000D02*
X92900000Y-131230000D01*
X94300000Y-131230000D02*
X94300000Y-132630000D01*
X94300000Y-132630000D02*
X92900000Y-132630000D01*
%TO.C,R44*%
X90920000Y-112846359D02*
X90920000Y-113153641D01*
X91680000Y-112846359D02*
X91680000Y-113153641D01*
%TO.C,R39*%
X80826359Y-87976000D02*
X81133641Y-87976000D01*
X80826359Y-88736000D02*
X81133641Y-88736000D01*
%TO.C,R66*%
X138203641Y-74467500D02*
X137896359Y-74467500D01*
X138203641Y-75227500D02*
X137896359Y-75227500D01*
%TO.C,D14*%
X137040000Y-118650000D02*
X137040000Y-120350000D01*
X137040000Y-118650000D02*
X139700000Y-118650000D01*
X137040000Y-120350000D02*
X139700000Y-120350000D01*
%TO.C,C33*%
X136140000Y-66358080D02*
X136140000Y-66076920D01*
X137160000Y-66358080D02*
X137160000Y-66076920D01*
%TO.C,R46*%
X84718859Y-101776000D02*
X85026141Y-101776000D01*
X84718859Y-102536000D02*
X85026141Y-102536000D01*
%TO.C,F2*%
X97565000Y-71597936D02*
X97565000Y-72802064D01*
X99385000Y-71597936D02*
X99385000Y-72802064D01*
%TO.C,R12*%
X102918859Y-72320000D02*
X103226141Y-72320000D01*
X102918859Y-73080000D02*
X103226141Y-73080000D01*
%TO.C,C31*%
X135210000Y-91709420D02*
X135210000Y-91990580D01*
X136230000Y-91709420D02*
X136230000Y-91990580D01*
%TO.C,Q4*%
X138240000Y-121990000D02*
X138290000Y-121990000D01*
X138240000Y-123810000D02*
X138240000Y-121990000D01*
X138290000Y-123810000D02*
X138240000Y-123810000D01*
X141310000Y-121990000D02*
X141360000Y-121990000D01*
X141360000Y-121990000D02*
X141360000Y-123810000D01*
X141360000Y-123810000D02*
X141310000Y-123810000D01*
X141640000Y-121690000D02*
X141310000Y-121450000D01*
X141640000Y-121210000D01*
X141640000Y-121690000D01*
G36*
X141640000Y-121690000D02*
G01*
X141310000Y-121450000D01*
X141640000Y-121210000D01*
X141640000Y-121690000D01*
G37*
%TO.C,D2*%
X79886842Y-119840000D02*
X80086842Y-119840000D01*
%TO.C,C19*%
X96640000Y-93991252D02*
X96640000Y-93468748D01*
X98110000Y-93991252D02*
X98110000Y-93468748D01*
%TO.C,R77*%
X90163641Y-132320000D02*
X89856359Y-132320000D01*
X90163641Y-133080000D02*
X89856359Y-133080000D01*
%TO.C,L4*%
X100740000Y-97250000D02*
X100740000Y-96400000D01*
X100740000Y-101950000D02*
X100740000Y-101150000D01*
X101350000Y-95790000D02*
X107050000Y-95790000D01*
X107050000Y-102610000D02*
X101400000Y-102610000D01*
X107660000Y-96400000D02*
X107660000Y-97250000D01*
X107660000Y-101150000D02*
X107660000Y-102000000D01*
X100740000Y-96400000D02*
G75*
G02*
X101350000Y-95790000I610000J0D01*
G01*
X101400000Y-102610000D02*
G75*
G02*
X100740000Y-101950000I2J660002D01*
G01*
X107050000Y-95790000D02*
G75*
G02*
X107660000Y-96400000I0J-610000D01*
G01*
X107660000Y-102000000D02*
G75*
G02*
X107050000Y-102610000I-610000J0D01*
G01*
%TO.C,D18*%
X93612500Y-127105000D02*
X95897500Y-127105000D01*
X95897500Y-125635000D02*
X93612500Y-125635000D01*
X95897500Y-127105000D02*
X95897500Y-125635000D01*
%TO.C,R8*%
X100611359Y-72320000D02*
X100918641Y-72320000D01*
X100611359Y-73080000D02*
X100918641Y-73080000D01*
%TO.C,C42*%
X105225000Y-126987836D02*
X105225000Y-126772164D01*
X105945000Y-126987836D02*
X105945000Y-126772164D01*
%TO.C,C49*%
X110540000Y-88212164D02*
X110540000Y-88427836D01*
X111260000Y-88212164D02*
X111260000Y-88427836D01*
%TO.C,U16*%
X95527500Y-127720000D02*
X97347500Y-127720000D01*
X95527500Y-127770000D02*
X95527500Y-127720000D01*
X95527500Y-130840000D02*
X95527500Y-130790000D01*
X97347500Y-127720000D02*
X97347500Y-127770000D01*
X97347500Y-128890000D02*
X97347500Y-129670000D01*
X97347500Y-130790000D02*
X97347500Y-130840000D01*
X97347500Y-130840000D02*
X95527500Y-130840000D01*
X94987500Y-127770000D02*
X94747500Y-127440000D01*
X95227500Y-127440000D01*
X94987500Y-127770000D01*
G36*
X94987500Y-127770000D02*
G01*
X94747500Y-127440000D01*
X95227500Y-127440000D01*
X94987500Y-127770000D01*
G37*
%TO.C,R1*%
X80826359Y-108220000D02*
X81133641Y-108220000D01*
X80826359Y-108980000D02*
X81133641Y-108980000D01*
%TO.C,R40*%
X82538859Y-101776000D02*
X82846141Y-101776000D01*
X82538859Y-102536000D02*
X82846141Y-102536000D01*
%TO.C,D3*%
X79045000Y-114412500D02*
X79045000Y-116697500D01*
X79045000Y-116697500D02*
X80515000Y-116697500D01*
X80515000Y-116697500D02*
X80515000Y-114412500D01*
%TO.C,C48*%
X110540000Y-70812164D02*
X110540000Y-71027836D01*
X111260000Y-70812164D02*
X111260000Y-71027836D01*
%TO.C,D16*%
X108850000Y-66110000D02*
X108850000Y-63450000D01*
X108850000Y-66110000D02*
X110550000Y-66110000D01*
X110550000Y-66110000D02*
X110550000Y-63450000D01*
%TO.C,L3*%
X121240000Y-97250000D02*
X121240000Y-96400000D01*
X121240000Y-101950000D02*
X121240000Y-101150000D01*
X121850000Y-95790000D02*
X127550000Y-95790000D01*
X127550000Y-102610000D02*
X121900000Y-102610000D01*
X128160000Y-96400000D02*
X128160000Y-97250000D01*
X128160000Y-101150000D02*
X128160000Y-102000000D01*
X121240000Y-96400000D02*
G75*
G02*
X121850000Y-95790000I610000J0D01*
G01*
X121900000Y-102610000D02*
G75*
G02*
X121240000Y-101950000I2J660002D01*
G01*
X127550000Y-95790000D02*
G75*
G02*
X128160000Y-96400000I0J-610000D01*
G01*
X128160000Y-102000000D02*
G75*
G02*
X127550000Y-102610000I-610000J0D01*
G01*
%TO.C,R69*%
X135953641Y-122420000D02*
X135646359Y-122420000D01*
X135953641Y-123180000D02*
X135646359Y-123180000D01*
%TO.C,C23*%
X104070000Y-92190000D02*
X104070000Y-95210000D01*
X104070000Y-95210000D02*
X108290000Y-95210000D01*
X108290000Y-92190000D02*
X104070000Y-92190000D01*
%TO.C,F1*%
X81727936Y-105865000D02*
X82932064Y-105865000D01*
X81727936Y-107685000D02*
X82932064Y-107685000D01*
%TO.C,D7*%
X102177500Y-87765000D02*
X102177500Y-89235000D01*
X102177500Y-89235000D02*
X104462500Y-89235000D01*
X104462500Y-87765000D02*
X102177500Y-87765000D01*
%TO.C,U11*%
X82182500Y-98021000D02*
X85402500Y-98021000D01*
X82182500Y-98246000D02*
X82182500Y-98021000D01*
X82182500Y-101241000D02*
X82182500Y-101016000D01*
X85402500Y-98021000D02*
X85402500Y-98246000D01*
X85402500Y-101016000D02*
X85402500Y-101241000D01*
X85402500Y-101241000D02*
X82182500Y-101241000D01*
X86262500Y-100851000D02*
X85932500Y-100611000D01*
X86262500Y-100371000D01*
X86262500Y-100851000D01*
G36*
X86262500Y-100851000D02*
G01*
X85932500Y-100611000D01*
X86262500Y-100371000D01*
X86262500Y-100851000D01*
G37*
%TO.C,Q2*%
X82370000Y-89196000D02*
X84190000Y-89196000D01*
X82370000Y-89246000D02*
X82370000Y-89196000D01*
X82370000Y-91146000D02*
X82370000Y-90366000D01*
X82370000Y-92316000D02*
X82370000Y-92266000D01*
X84190000Y-89196000D02*
X84190000Y-90196000D01*
X84190000Y-91316000D02*
X84190000Y-92316000D01*
X84190000Y-92316000D02*
X82370000Y-92316000D01*
X82070000Y-90706000D02*
X81590000Y-90706000D01*
X81830000Y-90376000D01*
X82070000Y-90706000D01*
G36*
X82070000Y-90706000D02*
G01*
X81590000Y-90706000D01*
X81830000Y-90376000D01*
X82070000Y-90706000D01*
G37*
%TO.C,L2*%
X121240000Y-79850000D02*
X121240000Y-79000000D01*
X121240000Y-84550000D02*
X121240000Y-83750000D01*
X121850000Y-78390000D02*
X127550000Y-78390000D01*
X127550000Y-85210000D02*
X121900000Y-85210000D01*
X128160000Y-79000000D02*
X128160000Y-79850000D01*
X128160000Y-83750000D02*
X128160000Y-84600000D01*
X121240000Y-79000000D02*
G75*
G02*
X121850000Y-78390000I610000J0D01*
G01*
X121900000Y-85210000D02*
G75*
G02*
X121240000Y-84550000I2J660002D01*
G01*
X127550000Y-78390000D02*
G75*
G02*
X128160000Y-79000000I0J-610000D01*
G01*
X128160000Y-84600000D02*
G75*
G02*
X127550000Y-85210000I-610000J0D01*
G01*
%TO.C,U5*%
X116140000Y-78740000D02*
X117960000Y-78740000D01*
X116140000Y-78790000D02*
X116140000Y-78740000D01*
X116140000Y-81860000D02*
X116140000Y-81810000D01*
X117960000Y-78740000D02*
X117960000Y-78790000D01*
X117960000Y-81810000D02*
X117960000Y-81860000D01*
X117960000Y-81860000D02*
X116140000Y-81860000D01*
X115600000Y-78790000D02*
X115360000Y-78460000D01*
X115840000Y-78460000D01*
X115600000Y-78790000D01*
G36*
X115600000Y-78790000D02*
G01*
X115360000Y-78460000D01*
X115840000Y-78460000D01*
X115600000Y-78790000D01*
G37*
%TO.C,C37*%
X133270000Y-91709420D02*
X133270000Y-91990580D01*
X134290000Y-91709420D02*
X134290000Y-91990580D01*
%TO.C,R19*%
X121393641Y-71020000D02*
X121086359Y-71020000D01*
X121393641Y-71780000D02*
X121086359Y-71780000D01*
%TO.C,D8*%
X79886842Y-98346000D02*
X80086842Y-98346000D01*
%TO.C,R65*%
X139070000Y-70993859D02*
X139070000Y-71301141D01*
X139830000Y-70993859D02*
X139830000Y-71301141D01*
%TO.C,U18*%
X89385000Y-129390000D02*
X90685000Y-129390000D01*
X89385000Y-131710000D02*
X90435000Y-131710000D01*
X90795000Y-131990000D02*
X90795000Y-131710000D01*
X91075000Y-131710000D01*
X90795000Y-131990000D01*
G36*
X90795000Y-131990000D02*
G01*
X90795000Y-131710000D01*
X91075000Y-131710000D01*
X90795000Y-131990000D01*
G37*
%TO.C,R15*%
X115565000Y-72927064D02*
X115565000Y-71472936D01*
X117385000Y-72927064D02*
X117385000Y-71472936D01*
%TO.C,C4*%
X96640000Y-76591252D02*
X96640000Y-76068748D01*
X98110000Y-76591252D02*
X98110000Y-76068748D01*
%TO.C,J2*%
X73770000Y-107410000D02*
X73770000Y-113340000D01*
X76590000Y-106140000D02*
X78040000Y-106140000D01*
X76590000Y-114610000D02*
X78040000Y-114610000D01*
X78040000Y-106140000D02*
X78040000Y-107940000D01*
X78040000Y-107940000D02*
X79030000Y-107940000D01*
X78040000Y-114610000D02*
X78040000Y-112810000D01*
%TO.C,C12*%
X124570000Y-74790000D02*
X124570000Y-77810000D01*
X124570000Y-77810000D02*
X128790000Y-77810000D01*
X128790000Y-74790000D02*
X124570000Y-74790000D01*
%TO.C,F3*%
X118065000Y-71597936D02*
X118065000Y-72802064D01*
X119885000Y-71597936D02*
X119885000Y-72802064D01*
%TO.C,R31*%
X95065000Y-90327064D02*
X95065000Y-88872936D01*
X96885000Y-90327064D02*
X96885000Y-88872936D01*
%TO.C,U14*%
X133500000Y-87040000D02*
X133940000Y-87040000D01*
X136000000Y-87040000D02*
X135560000Y-87040000D01*
X136000000Y-89260000D02*
X135560000Y-89260000D01*
X133940000Y-89540000D02*
X133660000Y-89260000D01*
X133940000Y-89260000D01*
X133940000Y-89540000D01*
G36*
X133940000Y-89540000D02*
G01*
X133660000Y-89260000D01*
X133940000Y-89260000D01*
X133940000Y-89540000D01*
G37*
%TO.C,R84*%
X119920000Y-130853641D02*
X119920000Y-130546359D01*
X120680000Y-130853641D02*
X120680000Y-130546359D01*
%TO.C,C10*%
X116338748Y-82890000D02*
X117761252Y-82890000D01*
X116338748Y-84710000D02*
X117761252Y-84710000D01*
%TO.C,R22*%
X111102500Y-79712742D02*
X111102500Y-80187258D01*
X112147500Y-79712742D02*
X112147500Y-80187258D01*
%TO.C,C40*%
X92820000Y-128989420D02*
X92820000Y-129270580D01*
X93840000Y-128989420D02*
X93840000Y-129270580D01*
%TO.C,U6*%
X111715000Y-71090000D02*
X111765000Y-71090000D01*
X111715000Y-72910000D02*
X111715000Y-71090000D01*
X111765000Y-72910000D02*
X111715000Y-72910000D01*
X112885000Y-71090000D02*
X113665000Y-71090000D01*
X114785000Y-71090000D02*
X114835000Y-71090000D01*
X114835000Y-71090000D02*
X114835000Y-72910000D01*
X114835000Y-72910000D02*
X114785000Y-72910000D01*
X111765000Y-73450000D02*
X111435000Y-73690000D01*
X111435000Y-73210000D01*
X111765000Y-73450000D01*
G36*
X111765000Y-73450000D02*
G01*
X111435000Y-73690000D01*
X111435000Y-73210000D01*
X111765000Y-73450000D01*
G37*
%TO.C,C51*%
X89640000Y-120612164D02*
X89640000Y-120827836D01*
X90360000Y-120612164D02*
X90360000Y-120827836D01*
%TO.C,C46*%
X106325000Y-126987836D02*
X106325000Y-126772164D01*
X107045000Y-126987836D02*
X107045000Y-126772164D01*
%TO.C,C24*%
X82972164Y-87996000D02*
X83187836Y-87996000D01*
X82972164Y-88716000D02*
X83187836Y-88716000D01*
%TO.C,R25*%
X112902500Y-93272742D02*
X112902500Y-93747258D01*
X113947500Y-93272742D02*
X113947500Y-93747258D01*
%TO.C,C13*%
X120150000Y-77810000D02*
X124370000Y-77810000D01*
X124370000Y-74790000D02*
X120150000Y-74790000D01*
X124370000Y-77810000D02*
X124370000Y-74790000D01*
%TO.C,R73*%
X103701359Y-130020000D02*
X104008641Y-130020000D01*
X103701359Y-130780000D02*
X104008641Y-130780000D01*
%TO.C,D15*%
X88550000Y-66537500D02*
X88550000Y-63877500D01*
X88550000Y-66537500D02*
X90250000Y-66537500D01*
X90250000Y-66537500D02*
X90250000Y-63877500D01*
%TO.C,R45*%
X80140000Y-89892359D02*
X80140000Y-90199641D01*
X80900000Y-89892359D02*
X80900000Y-90199641D01*
%TO.C,TP11*%
X145450000Y-121030000D02*
X147350000Y-121030000D01*
X145450000Y-122930000D02*
X145450000Y-121030000D01*
X147350000Y-121030000D02*
X147350000Y-122930000D01*
X147350000Y-122930000D02*
X145450000Y-122930000D01*
%TO.C,J3*%
X137890000Y-97150000D02*
X136610000Y-97150000D01*
X137890000Y-97750000D02*
X136610000Y-97750000D01*
X139700000Y-94850000D02*
X140300000Y-94850000D01*
X140000000Y-95450000D02*
X139700000Y-94850000D01*
X140300000Y-94850000D02*
X140000000Y-95450000D01*
X140990000Y-94640000D02*
X154010000Y-94640000D01*
X140990000Y-95450000D02*
X140990000Y-94640000D01*
X140990000Y-99450000D02*
X140990000Y-100260000D01*
X140990000Y-100260000D02*
X154010000Y-100260000D01*
X154010000Y-94640000D02*
X154010000Y-97450000D01*
X154010000Y-100260000D02*
X154010000Y-97450000D01*
%TO.C,F4*%
X118065000Y-88997936D02*
X118065000Y-90202064D01*
X119885000Y-88997936D02*
X119885000Y-90202064D01*
%TO.C,J8*%
X125040000Y-134480000D02*
X125040000Y-133100000D01*
X126420000Y-134480000D02*
X125040000Y-134480000D01*
X127690000Y-131720000D02*
X137960000Y-131720000D01*
X127690000Y-134480000D02*
X127690000Y-131720000D01*
X127690000Y-134480000D02*
X137960000Y-134480000D01*
X137960000Y-134480000D02*
X137960000Y-131720000D01*
%TO.C,U15*%
X133500000Y-69027500D02*
X133940000Y-69027500D01*
X136000000Y-69027500D02*
X135560000Y-69027500D01*
X136000000Y-71247500D02*
X135560000Y-71247500D01*
X133940000Y-71527500D02*
X133660000Y-71247500D01*
X133940000Y-71247500D01*
X133940000Y-71527500D01*
G36*
X133940000Y-71527500D02*
G01*
X133660000Y-71247500D01*
X133940000Y-71247500D01*
X133940000Y-71527500D01*
G37*
%TO.C,D5*%
X122677500Y-70365000D02*
X122677500Y-71835000D01*
X122677500Y-71835000D02*
X124962500Y-71835000D01*
X124962500Y-70365000D02*
X122677500Y-70365000D01*
%TO.C,C43*%
X87650580Y-127335000D02*
X87369420Y-127335000D01*
X87650580Y-128355000D02*
X87369420Y-128355000D01*
%TO.C,R81*%
X143637258Y-118777500D02*
X143162742Y-118777500D01*
X143637258Y-119822500D02*
X143162742Y-119822500D01*
%TO.C,U17*%
X105732500Y-128740000D02*
X106207500Y-128740000D01*
X105732500Y-129215000D02*
X105732500Y-128740000D01*
X105732500Y-131960000D02*
X105732500Y-131485000D01*
X106207500Y-131960000D02*
X105732500Y-131960000D01*
X108477500Y-128740000D02*
X108952500Y-128740000D01*
X108952500Y-128740000D02*
X108952500Y-129215000D01*
X108952500Y-131485000D02*
X108952500Y-131960000D01*
X108952500Y-131960000D02*
X108477500Y-131960000D01*
X109812500Y-131340000D02*
X109482500Y-131100000D01*
X109812500Y-130860000D01*
X109812500Y-131340000D01*
G36*
X109812500Y-131340000D02*
G01*
X109482500Y-131100000D01*
X109812500Y-130860000D01*
X109812500Y-131340000D01*
G37*
%TO.C,R43*%
X120202500Y-108287258D02*
X120202500Y-107812742D01*
X121247500Y-108287258D02*
X121247500Y-107812742D01*
%TO.C,R3*%
X84600000Y-108916359D02*
X84600000Y-109223641D01*
X85360000Y-108916359D02*
X85360000Y-109223641D01*
%TO.C,TP3*%
X126025000Y-88100000D02*
X128425000Y-88100000D01*
X126025000Y-90500000D02*
X126025000Y-88100000D01*
X128425000Y-88100000D02*
X128425000Y-90500000D01*
X128425000Y-90500000D02*
X126025000Y-90500000D01*
%TO.C,C35*%
X131140000Y-73696920D02*
X131140000Y-73978080D01*
X132160000Y-73696920D02*
X132160000Y-73978080D01*
%TO.C,R35*%
X100893641Y-88420000D02*
X100586359Y-88420000D01*
X100893641Y-89180000D02*
X100586359Y-89180000D01*
%TO.C,L1*%
X100740000Y-79850000D02*
X100740000Y-79000000D01*
X100740000Y-84550000D02*
X100740000Y-83750000D01*
X101350000Y-78390000D02*
X107050000Y-78390000D01*
X107050000Y-85210000D02*
X101400000Y-85210000D01*
X107660000Y-79000000D02*
X107660000Y-79850000D01*
X107660000Y-83750000D02*
X107660000Y-84600000D01*
X100740000Y-79000000D02*
G75*
G02*
X101350000Y-78390000I610000J0D01*
G01*
X101400000Y-85210000D02*
G75*
G02*
X100740000Y-84550000I2J660002D01*
G01*
X107050000Y-78390000D02*
G75*
G02*
X107660000Y-79000000I0J-610000D01*
G01*
X107660000Y-84600000D02*
G75*
G02*
X107050000Y-85210000I-610000J0D01*
G01*
%TO.C,D17*%
X85586842Y-106186000D02*
X87546842Y-106186000D01*
X85586842Y-107386000D02*
X87546842Y-107386000D01*
X87546842Y-107386000D02*
X87546842Y-106186000D01*
%TO.C,C28*%
X93440000Y-105888748D02*
X93440000Y-106411252D01*
X94910000Y-105888748D02*
X94910000Y-106411252D01*
%TO.C,C55*%
X126742164Y-112540000D02*
X126957836Y-112540000D01*
X126742164Y-113260000D02*
X126957836Y-113260000D01*
%TO.C,R7*%
X95065000Y-72927064D02*
X95065000Y-71472936D01*
X96885000Y-72927064D02*
X96885000Y-71472936D01*
%TO.C,R83*%
X143162742Y-121977500D02*
X143637258Y-121977500D01*
X143162742Y-123022500D02*
X143637258Y-123022500D01*
%TO.C,C20*%
X95838748Y-100290000D02*
X97261252Y-100290000D01*
X95838748Y-102110000D02*
X97261252Y-102110000D01*
%TO.C,J1*%
X73770000Y-117010000D02*
X73770000Y-122940000D01*
X76590000Y-115740000D02*
X78040000Y-115740000D01*
X76590000Y-124210000D02*
X78040000Y-124210000D01*
X78040000Y-115740000D02*
X78040000Y-117540000D01*
X78040000Y-117540000D02*
X79030000Y-117540000D01*
X78040000Y-124210000D02*
X78040000Y-122410000D01*
%TO.C,D22*%
X115440000Y-125900000D02*
X115440000Y-127100000D01*
X117400000Y-125900000D02*
X115440000Y-125900000D01*
X117400000Y-127100000D02*
X115440000Y-127100000D01*
%TO.C,TP10*%
X99200000Y-128600000D02*
X100600000Y-128600000D01*
X99200000Y-130000000D02*
X99200000Y-128600000D01*
X100600000Y-128600000D02*
X100600000Y-130000000D01*
X100600000Y-130000000D02*
X99200000Y-130000000D01*
%TO.C,Y1*%
X125990000Y-116610000D02*
X128410000Y-116610000D01*
X128410000Y-116610000D02*
X128410000Y-113790000D01*
%TO.C,C22*%
X99650000Y-95210000D02*
X103870000Y-95210000D01*
X103870000Y-92190000D02*
X99650000Y-92190000D01*
X103870000Y-95210000D02*
X103870000Y-92190000D01*
%TO.C,U13*%
X91971474Y-117090000D02*
X93791474Y-117090000D01*
X91971474Y-117140000D02*
X91971474Y-117090000D01*
X91971474Y-119040000D02*
X91971474Y-118260000D01*
X91971474Y-120210000D02*
X91971474Y-120160000D01*
X93791474Y-117090000D02*
X93791474Y-117140000D01*
X93791474Y-120160000D02*
X93791474Y-120210000D01*
X93791474Y-120210000D02*
X91971474Y-120210000D01*
X94571474Y-120490000D02*
X94091474Y-120490000D01*
X94331474Y-120160000D01*
X94571474Y-120490000D01*
G36*
X94571474Y-120490000D02*
G01*
X94091474Y-120490000D01*
X94331474Y-120160000D01*
X94571474Y-120490000D01*
G37*
%TO.C,R75*%
X104008641Y-131120000D02*
X103701359Y-131120000D01*
X104008641Y-131880000D02*
X103701359Y-131880000D01*
%TO.C,R38*%
X90602500Y-97112742D02*
X90602500Y-97587258D01*
X91647500Y-97112742D02*
X91647500Y-97587258D01*
%TO.C,TP8*%
X85881842Y-88126000D02*
X87281842Y-88126000D01*
X85881842Y-89526000D02*
X85881842Y-88126000D01*
X87281842Y-88126000D02*
X87281842Y-89526000D01*
X87281842Y-89526000D02*
X85881842Y-89526000D01*
%TO.C,C54*%
X128890000Y-115877836D02*
X128890000Y-115662164D01*
X129610000Y-115877836D02*
X129610000Y-115662164D01*
%TO.C,R78*%
X117498859Y-131770000D02*
X117806141Y-131770000D01*
X117498859Y-132530000D02*
X117806141Y-132530000D01*
%TO.C,R71*%
X123470000Y-114146359D02*
X123470000Y-114453641D01*
X124230000Y-114146359D02*
X124230000Y-114453641D01*
%TO.C,C5*%
X95838748Y-82890000D02*
X97261252Y-82890000D01*
X95838748Y-84710000D02*
X97261252Y-84710000D01*
%TO.C,R76*%
X89405000Y-128198641D02*
X89405000Y-127891359D01*
X90165000Y-128198641D02*
X90165000Y-127891359D01*
%TO.C,C8*%
X99650000Y-77810000D02*
X103870000Y-77810000D01*
X103870000Y-74790000D02*
X99650000Y-74790000D01*
X103870000Y-77810000D02*
X103870000Y-74790000D01*
%TO.C,R2*%
X82538859Y-122020000D02*
X82846141Y-122020000D01*
X82538859Y-122780000D02*
X82846141Y-122780000D01*
%TO.C,J14*%
X143870000Y-83120000D02*
X145250000Y-83120000D01*
X143870000Y-84500000D02*
X143870000Y-83120000D01*
X143870000Y-85770000D02*
X143870000Y-88420000D01*
X143870000Y-85770000D02*
X146630000Y-85770000D01*
X143870000Y-88420000D02*
X146630000Y-88420000D01*
X146630000Y-85770000D02*
X146630000Y-88420000D01*
%TO.C,TP1*%
X105525000Y-70700000D02*
X107925000Y-70700000D01*
X105525000Y-73100000D02*
X105525000Y-70700000D01*
X107925000Y-70700000D02*
X107925000Y-73100000D01*
X107925000Y-73100000D02*
X105525000Y-73100000D01*
%TO.C,R36*%
X102918859Y-89720000D02*
X103226141Y-89720000D01*
X102918859Y-90480000D02*
X103226141Y-90480000D01*
%TO.C,U10*%
X91215000Y-88490000D02*
X91265000Y-88490000D01*
X91215000Y-90310000D02*
X91215000Y-88490000D01*
X91265000Y-90310000D02*
X91215000Y-90310000D01*
X92385000Y-88490000D02*
X93165000Y-88490000D01*
X94285000Y-88490000D02*
X94335000Y-88490000D01*
X94335000Y-88490000D02*
X94335000Y-90310000D01*
X94335000Y-90310000D02*
X94285000Y-90310000D01*
X91265000Y-90850000D02*
X90935000Y-91090000D01*
X90935000Y-90610000D01*
X91265000Y-90850000D01*
G36*
X91265000Y-90850000D02*
G01*
X90935000Y-91090000D01*
X90935000Y-90610000D01*
X91265000Y-90850000D01*
G37*
%TO.C,R85*%
X123363641Y-128450000D02*
X123056359Y-128450000D01*
X123363641Y-129210000D02*
X123056359Y-129210000D01*
%TO.C,R68*%
X131127500Y-69900242D02*
X131127500Y-70374758D01*
X132172500Y-69900242D02*
X132172500Y-70374758D01*
%TO.C,U9*%
X95640000Y-96140000D02*
X97460000Y-96140000D01*
X95640000Y-96190000D02*
X95640000Y-96140000D01*
X95640000Y-99260000D02*
X95640000Y-99210000D01*
X97460000Y-96140000D02*
X97460000Y-96190000D01*
X97460000Y-99210000D02*
X97460000Y-99260000D01*
X97460000Y-99260000D02*
X95640000Y-99260000D01*
X95100000Y-96190000D02*
X94860000Y-95860000D01*
X95340000Y-95860000D01*
X95100000Y-96190000D01*
G36*
X95100000Y-96190000D02*
G01*
X94860000Y-95860000D01*
X95340000Y-95860000D01*
X95100000Y-96190000D01*
G37*
%TO.C,C3*%
X84980336Y-117040000D02*
X84764664Y-117040000D01*
X84980336Y-117760000D02*
X84764664Y-117760000D01*
D18*
%TO.C,U12*%
X95851474Y-104450000D02*
X95851474Y-122550000D01*
X95851474Y-122550000D02*
X96851474Y-123550000D01*
X96851474Y-123550000D02*
X119251474Y-123550000D01*
X119251474Y-104450000D02*
X95851474Y-104450000D01*
X119251474Y-123550000D02*
X119251474Y-104450000D01*
D19*
X100031474Y-124250000D02*
G75*
G02*
X99831474Y-124250000I-100000J0D01*
G01*
X99831474Y-124250000D02*
G75*
G02*
X100031474Y-124250000I100000J0D01*
G01*
D17*
%TO.C,R27*%
X121393641Y-88420000D02*
X121086359Y-88420000D01*
X121393641Y-89180000D02*
X121086359Y-89180000D01*
%TO.C,R37*%
X92402500Y-97587258D02*
X92402500Y-97112742D01*
X93447500Y-97587258D02*
X93447500Y-97112742D01*
%TO.C,R11*%
X100893641Y-71020000D02*
X100586359Y-71020000D01*
X100893641Y-71780000D02*
X100586359Y-71780000D01*
%TO.C,R41*%
X84600000Y-88672359D02*
X84600000Y-88979641D01*
X85360000Y-88672359D02*
X85360000Y-88979641D01*
%TO.C,C41*%
X96259420Y-131690000D02*
X96540580Y-131690000D01*
X96259420Y-132710000D02*
X96540580Y-132710000D01*
%TO.C,R42*%
X93608538Y-114590000D02*
X92154410Y-114590000D01*
X93608538Y-116410000D02*
X92154410Y-116410000D01*
%TO.C,R28*%
X123418859Y-89720000D02*
X123726141Y-89720000D01*
X123418859Y-90480000D02*
X123726141Y-90480000D01*
%TO.C,R20*%
X123418859Y-72320000D02*
X123726141Y-72320000D01*
X123418859Y-73080000D02*
X123726141Y-73080000D01*
%TO.C,TP4*%
X105525000Y-88100000D02*
X107925000Y-88100000D01*
X105525000Y-90500000D02*
X105525000Y-88100000D01*
X107925000Y-88100000D02*
X107925000Y-90500000D01*
X107925000Y-90500000D02*
X105525000Y-90500000D01*
%TO.C,R57*%
X139070000Y-89006359D02*
X139070000Y-89313641D01*
X139830000Y-89006359D02*
X139830000Y-89313641D01*
%TO.C,R52*%
X120227500Y-117637258D02*
X120227500Y-117162742D01*
X121272500Y-117637258D02*
X121272500Y-117162742D01*
%TO.C,R26*%
X111102500Y-93747258D02*
X111102500Y-93272742D01*
X112147500Y-93747258D02*
X112147500Y-93272742D01*
%TO.C,R63*%
X138362742Y-72700000D02*
X138837258Y-72700000D01*
X138362742Y-73745000D02*
X138837258Y-73745000D01*
%TO.C,F6*%
X81727936Y-85621000D02*
X82932064Y-85621000D01*
X81727936Y-87441000D02*
X82932064Y-87441000D01*
%TO.C,C32*%
X131140000Y-91709420D02*
X131140000Y-91990580D01*
X132160000Y-91709420D02*
X132160000Y-91990580D01*
%TO.C,J11*%
X73390000Y-71416750D02*
X75490000Y-71416750D01*
X73390000Y-81536750D02*
X73390000Y-71416750D01*
X73390000Y-81536750D02*
X75490000Y-81536750D01*
X75490000Y-71416750D02*
X75490000Y-70826750D01*
X75490000Y-82126750D02*
X75490000Y-81536750D01*
X77710000Y-71416750D02*
X77710000Y-70826750D01*
X77710000Y-71416750D02*
X82610000Y-71416750D01*
X77710000Y-81536750D02*
X82610000Y-81536750D01*
X77710000Y-82126750D02*
X77710000Y-81536750D01*
X82610000Y-81536750D02*
X82610000Y-71416750D01*
X75490000Y-70826750D02*
G75*
G02*
X77710000Y-70826750I1110000J0D01*
G01*
X77710000Y-82126750D02*
G75*
G02*
X75490000Y-82126750I-1110000J0D01*
G01*
%TO.C,J7*%
X73770000Y-87166000D02*
X73770000Y-93096000D01*
X76590000Y-85896000D02*
X78040000Y-85896000D01*
X76590000Y-94366000D02*
X78040000Y-94366000D01*
X78040000Y-85896000D02*
X78040000Y-87696000D01*
X78040000Y-87696000D02*
X79030000Y-87696000D01*
X78040000Y-94366000D02*
X78040000Y-92566000D01*
%TO.C,R5*%
X84718859Y-122020000D02*
X85026141Y-122020000D01*
X84718859Y-122780000D02*
X85026141Y-122780000D01*
%TO.C,D10*%
X79045000Y-94168500D02*
X79045000Y-96453500D01*
X79045000Y-96453500D02*
X80515000Y-96453500D01*
X80515000Y-96453500D02*
X80515000Y-94168500D01*
%TO.C,R72*%
X124603641Y-115610000D02*
X124296359Y-115610000D01*
X124603641Y-116370000D02*
X124296359Y-116370000D01*
%TO.C,R32*%
X100611359Y-89720000D02*
X100918641Y-89720000D01*
X100611359Y-90480000D02*
X100918641Y-90480000D01*
%TO.C,C26*%
X84980336Y-96796000D02*
X84764664Y-96796000D01*
X84980336Y-97516000D02*
X84764664Y-97516000D01*
%TO.C,R79*%
X141836359Y-82870000D02*
X142143641Y-82870000D01*
X141836359Y-83630000D02*
X142143641Y-83630000D01*
%TD*%
M02*
