%TF.GenerationSoftware,KiCad,Pcbnew,9.0.6*%
%TF.CreationDate,2026-01-12T10:20:26-08:00*%
%TF.ProjectId,vrb,7672622e-6b69-4636-9164-5f7063625858,rev?*%
%TF.SameCoordinates,Original*%
%TF.FileFunction,Soldermask,Top*%
%TF.FilePolarity,Negative*%
%FSLAX46Y46*%
G04 Gerber Fmt 4.6, Leading zero omitted, Abs format (unit mm)*
G04 Created by KiCad (PCBNEW 9.0.6) date 2026-01-12 10:20:26*
%MOMM*%
%LPD*%
G01*
G04 APERTURE LIST*
G04 Aperture macros list*
%AMRoundRect*
0 Rectangle with rounded corners*
0 $1 Rounding radius*
0 $2 $3 $4 $5 $6 $7 $8 $9 X,Y pos of 4 corners*
0 Add a 4 corners polygon primitive as box body*
4,1,4,$2,$3,$4,$5,$6,$7,$8,$9,$2,$3,0*
0 Add four circle primitives for the rounded corners*
1,1,$1+$1,$2,$3*
1,1,$1+$1,$4,$5*
1,1,$1+$1,$6,$7*
1,1,$1+$1,$8,$9*
0 Add four rect primitives between the rounded corners*
20,1,$1+$1,$2,$3,$4,$5,0*
20,1,$1+$1,$4,$5,$6,$7,0*
20,1,$1+$1,$6,$7,$8,$9,0*
20,1,$1+$1,$8,$9,$2,$3,0*%
G04 Aperture macros list end*
%ADD10RoundRect,0.218750X-0.218750X-0.256250X0.218750X-0.256250X0.218750X0.256250X-0.218750X0.256250X0*%
%ADD11C,2.000000*%
%ADD12C,0.800000*%
%ADD13C,6.400000*%
%ADD14RoundRect,0.250000X0.250000X1.100000X-0.250000X1.100000X-0.250000X-1.100000X0.250000X-1.100000X0*%
%ADD15RoundRect,0.250000X0.650000X1.650000X-0.650000X1.650000X-0.650000X-1.650000X0.650000X-1.650000X0*%
%ADD16RoundRect,0.150000X-0.150000X-0.200000X0.150000X-0.200000X0.150000X0.200000X-0.150000X0.200000X0*%
%ADD17RoundRect,0.200000X-0.275000X0.200000X-0.275000X-0.200000X0.275000X-0.200000X0.275000X0.200000X0*%
%ADD18RoundRect,0.135000X0.135000X0.185000X-0.135000X0.185000X-0.135000X-0.185000X0.135000X-0.185000X0*%
%ADD19RoundRect,0.250000X-0.475000X0.250000X-0.475000X-0.250000X0.475000X-0.250000X0.475000X0.250000X0*%
%ADD20R,1.000000X1.000000*%
%ADD21RoundRect,0.135000X0.185000X-0.135000X0.185000X0.135000X-0.185000X0.135000X-0.185000X-0.135000X0*%
%ADD22RoundRect,0.135000X-0.135000X-0.185000X0.135000X-0.185000X0.135000X0.185000X-0.135000X0.185000X0*%
%ADD23RoundRect,0.125000X0.125000X-0.125000X0.125000X0.125000X-0.125000X0.125000X-0.125000X-0.125000X0*%
%ADD24RoundRect,0.250000X0.625000X-0.312500X0.625000X0.312500X-0.625000X0.312500X-0.625000X-0.312500X0*%
%ADD25RoundRect,0.140000X0.170000X-0.140000X0.170000X0.140000X-0.170000X0.140000X-0.170000X-0.140000X0*%
%ADD26RoundRect,0.150000X0.150000X-0.512500X0.150000X0.512500X-0.150000X0.512500X-0.150000X-0.512500X0*%
%ADD27RoundRect,0.135000X-0.185000X0.135000X-0.185000X-0.135000X0.185000X-0.135000X0.185000X0.135000X0*%
%ADD28RoundRect,0.200000X0.275000X-0.200000X0.275000X0.200000X-0.275000X0.200000X-0.275000X-0.200000X0*%
%ADD29RoundRect,0.250000X-0.420000X-0.945000X0.420000X-0.945000X0.420000X0.945000X-0.420000X0.945000X0*%
%ADD30RoundRect,0.250000X-0.325000X-0.650000X0.325000X-0.650000X0.325000X0.650000X-0.325000X0.650000X0*%
%ADD31RoundRect,0.140000X-0.140000X-0.170000X0.140000X-0.170000X0.140000X0.170000X-0.140000X0.170000X0*%
%ADD32RoundRect,0.200000X-0.200000X-0.275000X0.200000X-0.275000X0.200000X0.275000X-0.200000X0.275000X0*%
%ADD33RoundRect,0.150000X-0.700000X0.150000X-0.700000X-0.150000X0.700000X-0.150000X0.700000X0.150000X0*%
%ADD34RoundRect,0.250000X-1.100000X0.250000X-1.100000X-0.250000X1.100000X-0.250000X1.100000X0.250000X0*%
%ADD35RoundRect,0.075000X0.350000X0.075000X-0.350000X0.075000X-0.350000X-0.075000X0.350000X-0.075000X0*%
%ADD36R,1.600000X2.400000*%
%ADD37R,2.000000X2.000000*%
%ADD38RoundRect,0.250000X0.475000X-0.250000X0.475000X0.250000X-0.475000X0.250000X-0.475000X-0.250000X0*%
%ADD39RoundRect,0.218750X-0.256250X0.218750X-0.256250X-0.218750X0.256250X-0.218750X0.256250X0.218750X0*%
%ADD40RoundRect,0.150000X-0.512500X-0.150000X0.512500X-0.150000X0.512500X0.150000X-0.512500X0.150000X0*%
%ADD41RoundRect,0.050000X-0.140000X-0.100000X0.140000X-0.100000X0.140000X0.100000X-0.140000X0.100000X0*%
%ADD42RoundRect,0.140000X-0.170000X0.140000X-0.170000X-0.140000X0.170000X-0.140000X0.170000X0.140000X0*%
%ADD43RoundRect,0.225000X-0.250000X0.225000X-0.250000X-0.225000X0.250000X-0.225000X0.250000X0.225000X0*%
%ADD44RoundRect,0.140000X0.140000X0.170000X-0.140000X0.170000X-0.140000X-0.170000X0.140000X-0.170000X0*%
%ADD45C,3.000000*%
%ADD46RoundRect,0.250001X-1.599999X1.099999X-1.599999X-1.099999X1.599999X-1.099999X1.599999X1.099999X0*%
%ADD47O,3.700000X2.700000*%
%ADD48RoundRect,0.250000X-0.625000X0.375000X-0.625000X-0.375000X0.625000X-0.375000X0.625000X0.375000X0*%
%ADD49RoundRect,0.250000X0.420000X0.945000X-0.420000X0.945000X-0.420000X-0.945000X0.420000X-0.945000X0*%
%ADD50RoundRect,0.150000X0.587500X0.150000X-0.587500X0.150000X-0.587500X-0.150000X0.587500X-0.150000X0*%
%ADD51RoundRect,0.125000X0.125000X0.125000X-0.125000X0.125000X-0.125000X-0.125000X0.125000X-0.125000X0*%
%ADD52RoundRect,0.062500X-0.062500X0.375000X-0.062500X-0.375000X0.062500X-0.375000X0.062500X0.375000X0*%
%ADD53RoundRect,0.062500X-0.375000X0.062500X-0.375000X-0.062500X0.375000X-0.062500X0.375000X0.062500X0*%
%ADD54R,5.600000X5.600000*%
%ADD55RoundRect,0.225000X0.250000X-0.225000X0.250000X0.225000X-0.250000X0.225000X-0.250000X-0.225000X0*%
%ADD56RoundRect,0.125000X-0.125000X-0.125000X0.125000X-0.125000X0.125000X0.125000X-0.125000X0.125000X0*%
%ADD57RoundRect,0.150000X-0.150000X0.512500X-0.150000X-0.512500X0.150000X-0.512500X0.150000X0.512500X0*%
%ADD58R,2.950000X3.500000*%
%ADD59RoundRect,0.218750X0.218750X0.256250X-0.218750X0.256250X-0.218750X-0.256250X0.218750X-0.256250X0*%
%ADD60RoundRect,0.218750X0.256250X-0.218750X0.256250X0.218750X-0.256250X0.218750X-0.256250X-0.218750X0*%
%ADD61RoundRect,0.250000X-0.375000X-0.625000X0.375000X-0.625000X0.375000X0.625000X-0.375000X0.625000X0*%
%ADD62RoundRect,0.050000X0.285000X0.100000X-0.285000X0.100000X-0.285000X-0.100000X0.285000X-0.100000X0*%
%ADD63RoundRect,0.100000X0.100000X-0.425000X0.100000X0.425000X-0.100000X0.425000X-0.100000X-0.425000X0*%
%ADD64RoundRect,0.050000X0.250000X-0.050000X0.250000X0.050000X-0.250000X0.050000X-0.250000X-0.050000X0*%
%ADD65R,1.500000X1.500000*%
%ADD66R,1.700000X1.700000*%
%ADD67C,1.700000*%
%ADD68RoundRect,0.225000X0.225000X0.250000X-0.225000X0.250000X-0.225000X-0.250000X0.225000X-0.250000X0*%
%ADD69RoundRect,0.200000X0.200000X0.275000X-0.200000X0.275000X-0.200000X-0.275000X0.200000X-0.275000X0*%
%ADD70RoundRect,0.062500X0.355000X0.062500X-0.355000X0.062500X-0.355000X-0.062500X0.355000X-0.062500X0*%
%ADD71RoundRect,0.062500X0.062500X0.355000X-0.062500X0.355000X-0.062500X-0.355000X0.062500X-0.355000X0*%
%ADD72R,1.680000X1.680000*%
%ADD73RoundRect,0.150000X0.150000X0.200000X-0.150000X0.200000X-0.150000X-0.200000X0.150000X-0.200000X0*%
%ADD74RoundRect,0.200000X0.200000X-0.250000X0.200000X0.250000X-0.200000X0.250000X-0.200000X-0.250000X0*%
%ADD75RoundRect,0.150000X0.512500X0.150000X-0.512500X0.150000X-0.512500X-0.150000X0.512500X-0.150000X0*%
%ADD76RoundRect,0.102000X0.915000X-0.915000X0.915000X0.915000X-0.915000X0.915000X-0.915000X-0.915000X0*%
%ADD77C,2.034000*%
%ADD78C,2.859000*%
%ADD79RoundRect,0.225000X-0.225000X-0.250000X0.225000X-0.250000X0.225000X0.250000X-0.225000X0.250000X0*%
%ADD80RoundRect,0.250000X0.312500X0.625000X-0.312500X0.625000X-0.312500X-0.625000X0.312500X-0.625000X0*%
%ADD81C,1.400000*%
%ADD82RoundRect,0.770000X0.980000X-0.980000X0.980000X0.980000X-0.980000X0.980000X-0.980000X-0.980000X0*%
%ADD83C,3.500000*%
%ADD84C,0.889000*%
%ADD85C,0.711200*%
G04 APERTURE END LIST*
D10*
%TO.C,D4*%
X102875000Y-71100000D03*
X104450000Y-71100000D03*
%TD*%
D11*
%TO.C,TP12*%
X85000000Y-65000000D03*
%TD*%
D12*
%TO.C,H3*%
X140600000Y-130000000D03*
X141302944Y-128302944D03*
X141302944Y-131697056D03*
X143000000Y-127600000D03*
D13*
X143000000Y-130000000D03*
D12*
X143000000Y-132400000D03*
X144697056Y-128302944D03*
X144697056Y-131697056D03*
X145400000Y-130000000D03*
%TD*%
D14*
%TO.C,J6*%
X124975000Y-68100000D03*
X122975000Y-68100000D03*
X120975000Y-68100000D03*
X118975000Y-68100000D03*
X116975000Y-68100000D03*
X114975000Y-68100000D03*
D15*
X127325000Y-63650000D03*
X112625000Y-63650000D03*
%TD*%
D16*
%TO.C,D19*%
X86986842Y-86542000D03*
X85586842Y-86542000D03*
%TD*%
D17*
%TO.C,R64*%
X138450000Y-65392500D03*
X138450000Y-67042500D03*
%TD*%
D18*
%TO.C,R56*%
X132460000Y-83620000D03*
X131440000Y-83620000D03*
%TD*%
D19*
%TO.C,C6*%
X95125000Y-75380000D03*
X95125000Y-77280000D03*
%TD*%
D20*
%TO.C,TP5*%
X86581842Y-109070000D03*
%TD*%
D21*
%TO.C,R50*%
X120750000Y-111610000D03*
X120750000Y-110590000D03*
%TD*%
D22*
%TO.C,R24*%
X120755000Y-90100000D03*
X121775000Y-90100000D03*
%TD*%
D23*
%TO.C,D13*%
X134400000Y-67437500D03*
X134400000Y-65237500D03*
%TD*%
D22*
%TO.C,R16*%
X120755000Y-72700000D03*
X121775000Y-72700000D03*
%TD*%
D24*
%TO.C,R23*%
X116475000Y-91062500D03*
X116475000Y-88137500D03*
%TD*%
D25*
%TO.C,C39*%
X130100000Y-118660000D03*
X130100000Y-117700000D03*
%TD*%
D26*
%TO.C,U4*%
X91825000Y-73137500D03*
X92775000Y-73137500D03*
X93725000Y-73137500D03*
X93725000Y-70862500D03*
X91825000Y-70862500D03*
%TD*%
D23*
%TO.C,D12*%
X134400000Y-85450000D03*
X134400000Y-83250000D03*
%TD*%
D27*
%TO.C,R74*%
X90885000Y-127535000D03*
X90885000Y-128555000D03*
%TD*%
D14*
%TO.C,J5*%
X104475000Y-68100000D03*
X102475000Y-68100000D03*
X100475000Y-68100000D03*
X98475000Y-68100000D03*
X96475000Y-68100000D03*
X94475000Y-68100000D03*
D15*
X106825000Y-63650000D03*
X92125000Y-63650000D03*
%TD*%
D28*
%TO.C,R10*%
X91125000Y-76935000D03*
X91125000Y-75285000D03*
%TD*%
D29*
%TO.C,C7*%
X105000000Y-76300000D03*
X108080000Y-76300000D03*
%TD*%
D17*
%TO.C,R55*%
X131650000Y-87325000D03*
X131650000Y-88975000D03*
%TD*%
D30*
%TO.C,C27*%
X91406474Y-121850000D03*
X94356474Y-121850000D03*
%TD*%
D10*
%TO.C,D6*%
X123375000Y-88500000D03*
X124950000Y-88500000D03*
%TD*%
D25*
%TO.C,C57*%
X125050000Y-114780000D03*
X125050000Y-113820000D03*
%TD*%
D31*
%TO.C,C25*%
X82212500Y-97156000D03*
X83172500Y-97156000D03*
%TD*%
D32*
%TO.C,R48*%
X92850000Y-113200000D03*
X94500000Y-113200000D03*
%TD*%
D28*
%TO.C,R21*%
X113425000Y-80775000D03*
X113425000Y-79125000D03*
%TD*%
D33*
%TO.C,J9*%
X78180000Y-97856000D03*
X78180000Y-99106000D03*
X78180000Y-100356000D03*
X78180000Y-101606000D03*
D34*
X74980000Y-96006000D03*
X74980000Y-103456000D03*
%TD*%
D28*
%TO.C,R34*%
X91125000Y-94335000D03*
X91125000Y-92685000D03*
%TD*%
D18*
%TO.C,R47*%
X136310000Y-123800000D03*
X135290000Y-123800000D03*
%TD*%
D25*
%TO.C,C38*%
X129000000Y-118660000D03*
X129000000Y-117700000D03*
%TD*%
D35*
%TO.C,U2*%
X85242500Y-120850000D03*
X85242500Y-120200000D03*
X85242500Y-119550000D03*
X85242500Y-118900000D03*
X82342500Y-118900000D03*
X82342500Y-119550000D03*
X82342500Y-120200000D03*
X82342500Y-120850000D03*
D36*
X83792500Y-119875000D03*
%TD*%
D37*
%TO.C,TP2*%
X127225000Y-71900000D03*
%TD*%
D27*
%TO.C,R67*%
X139450000Y-68612500D03*
X139450000Y-69632500D03*
%TD*%
%TO.C,R53*%
X139450000Y-86625000D03*
X139450000Y-87645000D03*
%TD*%
D38*
%TO.C,C14*%
X117875000Y-94680000D03*
X117875000Y-92780000D03*
%TD*%
D19*
%TO.C,C21*%
X95125000Y-92780000D03*
X95125000Y-94680000D03*
%TD*%
D26*
%TO.C,U8*%
X112325000Y-90537500D03*
X113275000Y-90537500D03*
X114225000Y-90537500D03*
X114225000Y-88262500D03*
X112325000Y-88262500D03*
%TD*%
D39*
%TO.C,D11*%
X120751474Y-113212500D03*
X120751474Y-114787500D03*
%TD*%
D30*
%TO.C,C15*%
X115575000Y-101200000D03*
X118525000Y-101200000D03*
%TD*%
D40*
%TO.C,U3*%
X95412500Y-79350000D03*
X95412500Y-80300000D03*
X95412500Y-81250000D03*
X97687500Y-81250000D03*
X97687500Y-80300000D03*
X97687500Y-79350000D03*
%TD*%
D21*
%TO.C,R49*%
X81280000Y-95498500D03*
X81280000Y-94478500D03*
%TD*%
D31*
%TO.C,C1*%
X82600000Y-108600000D03*
X83560000Y-108600000D03*
%TD*%
D18*
%TO.C,R61*%
X132460000Y-65607500D03*
X131440000Y-65607500D03*
%TD*%
D17*
%TO.C,R54*%
X138450000Y-83405000D03*
X138450000Y-85055000D03*
%TD*%
D21*
%TO.C,R6*%
X81280000Y-115742500D03*
X81280000Y-114722500D03*
%TD*%
D29*
%TO.C,C18*%
X125500000Y-93700000D03*
X128580000Y-93700000D03*
%TD*%
D27*
%TO.C,R4*%
X80520000Y-109780000D03*
X80520000Y-110800000D03*
%TD*%
D28*
%TO.C,R58*%
X137850000Y-89435000D03*
X137850000Y-87785000D03*
%TD*%
D31*
%TO.C,C2*%
X82212500Y-117400000D03*
X83172500Y-117400000D03*
%TD*%
D41*
%TO.C,D9*%
X79986842Y-99956000D03*
X79986842Y-100356000D03*
%TD*%
D42*
%TO.C,C50*%
X90400000Y-87840000D03*
X90400000Y-88800000D03*
%TD*%
D28*
%TO.C,R29*%
X113425000Y-98175000D03*
X113425000Y-96525000D03*
%TD*%
%TO.C,R18*%
X111625000Y-76935000D03*
X111625000Y-75285000D03*
%TD*%
D43*
%TO.C,C45*%
X87485000Y-129570000D03*
X87485000Y-131120000D03*
%TD*%
D18*
%TO.C,R60*%
X138560000Y-92860000D03*
X137540000Y-92860000D03*
%TD*%
D44*
%TO.C,C44*%
X104345000Y-129300000D03*
X103385000Y-129300000D03*
%TD*%
D10*
%TO.C,D20*%
X117412500Y-130750000D03*
X118987500Y-130750000D03*
%TD*%
D40*
%TO.C,U7*%
X115912500Y-96750000D03*
X115912500Y-97700000D03*
X115912500Y-98650000D03*
X118187500Y-98650000D03*
X118187500Y-97700000D03*
X118187500Y-96750000D03*
%TD*%
D45*
%TO.C,J4*%
X147300000Y-78800000D03*
D46*
X140000000Y-78800000D03*
D47*
X134500000Y-78800000D03*
%TD*%
D48*
%TO.C,F5*%
X98475000Y-88200000D03*
X98475000Y-91000000D03*
%TD*%
D20*
%TO.C,TP6*%
X131950000Y-85450000D03*
%TD*%
%TO.C,TP7*%
X131950000Y-67437500D03*
%TD*%
D45*
%TO.C,J10*%
X147300000Y-112919758D03*
D46*
X140000000Y-110819758D03*
D47*
X140000000Y-115019758D03*
X134500000Y-110819758D03*
X134500000Y-115019758D03*
%TD*%
D49*
%TO.C,C17*%
X123440000Y-93700000D03*
X120360000Y-93700000D03*
%TD*%
D19*
%TO.C,C29*%
X94175000Y-108850000D03*
X94175000Y-110750000D03*
%TD*%
%TO.C,C11*%
X115625000Y-75380000D03*
X115625000Y-77280000D03*
%TD*%
D43*
%TO.C,C34*%
X135720000Y-73062500D03*
X135720000Y-74612500D03*
%TD*%
D17*
%TO.C,R14*%
X91125000Y-79125000D03*
X91125000Y-80775000D03*
%TD*%
D42*
%TO.C,C47*%
X90400000Y-70440000D03*
X90400000Y-71400000D03*
%TD*%
D28*
%TO.C,R13*%
X92925000Y-80775000D03*
X92925000Y-79125000D03*
%TD*%
D19*
%TO.C,C16*%
X115625000Y-92780000D03*
X115625000Y-94680000D03*
%TD*%
D50*
%TO.C,Q3*%
X121137500Y-128550000D03*
X121137500Y-126650000D03*
X119262500Y-127600000D03*
%TD*%
D28*
%TO.C,R51*%
X120751474Y-121425000D03*
X120751474Y-119775000D03*
%TD*%
D51*
%TO.C,D21*%
X131200000Y-106400000D03*
X129000000Y-106400000D03*
%TD*%
D38*
%TO.C,C9*%
X117875000Y-77280000D03*
X117875000Y-75380000D03*
%TD*%
D40*
%TO.C,Q1*%
X82142500Y-110050000D03*
X82142500Y-111950000D03*
X84417500Y-111000000D03*
%TD*%
D45*
%TO.C,J13*%
X147300000Y-104200000D03*
D46*
X140000000Y-104200000D03*
D47*
X134500000Y-104200000D03*
%TD*%
D17*
%TO.C,R9*%
X92925000Y-75285000D03*
X92925000Y-76935000D03*
%TD*%
D52*
%TO.C,U1*%
X130850000Y-121262500D03*
X130350000Y-121262500D03*
X129850000Y-121262500D03*
X129350000Y-121262500D03*
X128850000Y-121262500D03*
X128350000Y-121262500D03*
X127850000Y-121262500D03*
X127350000Y-121262500D03*
X126850000Y-121262500D03*
X126350000Y-121262500D03*
X125850000Y-121262500D03*
X125350000Y-121262500D03*
D53*
X124662500Y-121950000D03*
X124662500Y-122450000D03*
X124662500Y-122950000D03*
X124662500Y-123450000D03*
X124662500Y-123950000D03*
X124662500Y-124450000D03*
X124662500Y-124950000D03*
X124662500Y-125450000D03*
X124662500Y-125950000D03*
X124662500Y-126450000D03*
X124662500Y-126950000D03*
X124662500Y-127450000D03*
D52*
X125350000Y-128137500D03*
X125850000Y-128137500D03*
X126350000Y-128137500D03*
X126850000Y-128137500D03*
X127350000Y-128137500D03*
X127850000Y-128137500D03*
X128350000Y-128137500D03*
X128850000Y-128137500D03*
X129350000Y-128137500D03*
X129850000Y-128137500D03*
X130350000Y-128137500D03*
X130850000Y-128137500D03*
D53*
X131537500Y-127450000D03*
X131537500Y-126950000D03*
X131537500Y-126450000D03*
X131537500Y-125950000D03*
X131537500Y-125450000D03*
X131537500Y-124950000D03*
X131537500Y-124450000D03*
X131537500Y-123950000D03*
X131537500Y-123450000D03*
X131537500Y-122950000D03*
X131537500Y-122450000D03*
X131537500Y-121950000D03*
D54*
X128100000Y-124700000D03*
%TD*%
D17*
%TO.C,R33*%
X92925000Y-92685000D03*
X92925000Y-94335000D03*
%TD*%
D32*
%TO.C,R82*%
X142575000Y-120900000D03*
X144225000Y-120900000D03*
%TD*%
D43*
%TO.C,C36*%
X133780000Y-73062500D03*
X133780000Y-74612500D03*
%TD*%
D41*
%TO.C,D1*%
X79986842Y-118950000D03*
X79986842Y-119350000D03*
%TD*%
D17*
%TO.C,R30*%
X111625000Y-96525000D03*
X111625000Y-98175000D03*
%TD*%
D55*
%TO.C,C30*%
X136650000Y-85005000D03*
X136650000Y-83455000D03*
%TD*%
D17*
%TO.C,R17*%
X113425000Y-75285000D03*
X113425000Y-76935000D03*
%TD*%
D32*
%TO.C,R59*%
X137775000Y-91235000D03*
X139425000Y-91235000D03*
%TD*%
D28*
%TO.C,R62*%
X137850000Y-71422500D03*
X137850000Y-69772500D03*
%TD*%
D22*
%TO.C,R70*%
X96740000Y-126370000D03*
X97760000Y-126370000D03*
%TD*%
D20*
%TO.C,TP9*%
X93600000Y-131930000D03*
%TD*%
D27*
%TO.C,R44*%
X91300000Y-112490000D03*
X91300000Y-113510000D03*
%TD*%
D22*
%TO.C,R39*%
X80470000Y-88356000D03*
X81490000Y-88356000D03*
%TD*%
D18*
%TO.C,R66*%
X138560000Y-74847500D03*
X137540000Y-74847500D03*
%TD*%
D56*
%TO.C,D14*%
X137550000Y-119500000D03*
X139750000Y-119500000D03*
%TD*%
D55*
%TO.C,C33*%
X136650000Y-66992500D03*
X136650000Y-65442500D03*
%TD*%
D22*
%TO.C,R46*%
X84362500Y-102156000D03*
X85382500Y-102156000D03*
%TD*%
D48*
%TO.C,F2*%
X98475000Y-70800000D03*
X98475000Y-73600000D03*
%TD*%
D22*
%TO.C,R12*%
X102562500Y-72700000D03*
X103582500Y-72700000D03*
%TD*%
D43*
%TO.C,C31*%
X135720000Y-91075000D03*
X135720000Y-92625000D03*
%TD*%
D57*
%TO.C,Q4*%
X140750000Y-121762500D03*
X139800000Y-121762500D03*
X138850000Y-121762500D03*
X138850000Y-124037500D03*
X139800000Y-124037500D03*
X140750000Y-124037500D03*
%TD*%
D41*
%TO.C,D2*%
X79986842Y-120200000D03*
X79986842Y-120600000D03*
%TD*%
D38*
%TO.C,C19*%
X97375000Y-94680000D03*
X97375000Y-92780000D03*
%TD*%
D18*
%TO.C,R77*%
X90520000Y-132700000D03*
X89500000Y-132700000D03*
%TD*%
D58*
%TO.C,L4*%
X101475000Y-99200000D03*
X106925000Y-99200000D03*
%TD*%
D59*
%TO.C,D18*%
X95200000Y-126370000D03*
X93625000Y-126370000D03*
%TD*%
D22*
%TO.C,R8*%
X100255000Y-72700000D03*
X101275000Y-72700000D03*
%TD*%
D25*
%TO.C,C42*%
X105585000Y-127360000D03*
X105585000Y-126400000D03*
%TD*%
D42*
%TO.C,C49*%
X110900000Y-87840000D03*
X110900000Y-88800000D03*
%TD*%
D40*
%TO.C,U16*%
X95300000Y-128330000D03*
X95300000Y-129280000D03*
X95300000Y-130230000D03*
X97575000Y-130230000D03*
X97575000Y-128330000D03*
%TD*%
D22*
%TO.C,R1*%
X80470000Y-108600000D03*
X81490000Y-108600000D03*
%TD*%
%TO.C,R40*%
X82182500Y-102156000D03*
X83202500Y-102156000D03*
%TD*%
D60*
%TO.C,D3*%
X79780000Y-116000000D03*
X79780000Y-114425000D03*
%TD*%
D42*
%TO.C,C48*%
X110900000Y-70440000D03*
X110900000Y-71400000D03*
%TD*%
D23*
%TO.C,D16*%
X109700000Y-65600000D03*
X109700000Y-63400000D03*
%TD*%
D58*
%TO.C,L3*%
X121975000Y-99200000D03*
X127425000Y-99200000D03*
%TD*%
D18*
%TO.C,R69*%
X136310000Y-122800000D03*
X135290000Y-122800000D03*
%TD*%
D29*
%TO.C,C23*%
X105000000Y-93700000D03*
X108080000Y-93700000D03*
%TD*%
D61*
%TO.C,F1*%
X80930000Y-106775000D03*
X83730000Y-106775000D03*
%TD*%
D10*
%TO.C,D7*%
X102875000Y-88500000D03*
X104450000Y-88500000D03*
%TD*%
D35*
%TO.C,U11*%
X85242500Y-100606000D03*
X85242500Y-99956000D03*
X85242500Y-99306000D03*
X85242500Y-98656000D03*
X82342500Y-98656000D03*
X82342500Y-99306000D03*
X82342500Y-99956000D03*
X82342500Y-100606000D03*
D36*
X83792500Y-99631000D03*
%TD*%
D40*
%TO.C,Q2*%
X82142500Y-89806000D03*
X82142500Y-91706000D03*
X84417500Y-90756000D03*
%TD*%
D58*
%TO.C,L2*%
X121975000Y-81800000D03*
X127425000Y-81800000D03*
%TD*%
D40*
%TO.C,U5*%
X115912500Y-79350000D03*
X115912500Y-80300000D03*
X115912500Y-81250000D03*
X118187500Y-81250000D03*
X118187500Y-80300000D03*
X118187500Y-79350000D03*
%TD*%
D43*
%TO.C,C37*%
X133780000Y-91075000D03*
X133780000Y-92625000D03*
%TD*%
D18*
%TO.C,R19*%
X121750000Y-71400000D03*
X120730000Y-71400000D03*
%TD*%
D41*
%TO.C,D8*%
X79986842Y-98706000D03*
X79986842Y-99106000D03*
%TD*%
D12*
%TO.C,H1*%
X75600000Y-65000000D03*
X76302944Y-63302944D03*
X76302944Y-66697056D03*
X78000000Y-62600000D03*
D13*
X78000000Y-65000000D03*
D12*
X78000000Y-67400000D03*
X79697056Y-63302944D03*
X79697056Y-66697056D03*
X80400000Y-65000000D03*
%TD*%
D27*
%TO.C,R65*%
X139450000Y-70637500D03*
X139450000Y-71657500D03*
%TD*%
D62*
%TO.C,U18*%
X90775000Y-131300000D03*
X90775000Y-130800000D03*
X90775000Y-130300000D03*
X90775000Y-129800000D03*
X89295000Y-129800000D03*
X89295000Y-130300000D03*
X89295000Y-130800000D03*
X89295000Y-131300000D03*
%TD*%
D24*
%TO.C,R15*%
X116475000Y-73662500D03*
X116475000Y-70737500D03*
%TD*%
D38*
%TO.C,C4*%
X97375000Y-77280000D03*
X97375000Y-75380000D03*
%TD*%
D33*
%TO.C,J2*%
X78180000Y-108500000D03*
X78180000Y-109750000D03*
X78180000Y-111000000D03*
X78180000Y-112250000D03*
D34*
X74980000Y-106650000D03*
X74980000Y-114100000D03*
%TD*%
D29*
%TO.C,C12*%
X125500000Y-76300000D03*
X128580000Y-76300000D03*
%TD*%
D48*
%TO.C,F3*%
X118975000Y-70800000D03*
X118975000Y-73600000D03*
%TD*%
D24*
%TO.C,R31*%
X95975000Y-91062500D03*
X95975000Y-88137500D03*
%TD*%
D63*
%TO.C,U14*%
X134400000Y-88825000D03*
X135100000Y-88825000D03*
D64*
X135900000Y-88900000D03*
X135900000Y-88400000D03*
X135900000Y-87900000D03*
X135900000Y-87400000D03*
D63*
X135100000Y-87475000D03*
X134400000Y-87475000D03*
D64*
X133600000Y-87400000D03*
X133600000Y-87900000D03*
X133600000Y-88400000D03*
X133600000Y-88900000D03*
%TD*%
D21*
%TO.C,R84*%
X120300000Y-131210000D03*
X120300000Y-130190000D03*
%TD*%
D30*
%TO.C,C10*%
X115575000Y-83800000D03*
X118525000Y-83800000D03*
%TD*%
D17*
%TO.C,R22*%
X111625000Y-79125000D03*
X111625000Y-80775000D03*
%TD*%
D43*
%TO.C,C40*%
X93330000Y-128355000D03*
X93330000Y-129905000D03*
%TD*%
D26*
%TO.C,U6*%
X112325000Y-73137500D03*
X113275000Y-73137500D03*
X114225000Y-73137500D03*
X114225000Y-70862500D03*
X112325000Y-70862500D03*
%TD*%
D42*
%TO.C,C51*%
X90000000Y-120240000D03*
X90000000Y-121200000D03*
%TD*%
D25*
%TO.C,C46*%
X106685000Y-127360000D03*
X106685000Y-126400000D03*
%TD*%
D31*
%TO.C,C24*%
X82600000Y-88356000D03*
X83560000Y-88356000D03*
%TD*%
D17*
%TO.C,R25*%
X113425000Y-92685000D03*
X113425000Y-94335000D03*
%TD*%
D49*
%TO.C,C13*%
X123440000Y-76300000D03*
X120360000Y-76300000D03*
%TD*%
D22*
%TO.C,R73*%
X103345000Y-130400000D03*
X104365000Y-130400000D03*
%TD*%
D23*
%TO.C,D15*%
X89400000Y-66027500D03*
X89400000Y-63827500D03*
%TD*%
D27*
%TO.C,R45*%
X80520000Y-89536000D03*
X80520000Y-90556000D03*
%TD*%
D65*
%TO.C,TP11*%
X146400000Y-121980000D03*
%TD*%
D45*
%TO.C,J3*%
X147300000Y-97450000D03*
D46*
X140000000Y-97450000D03*
D47*
X134500000Y-97450000D03*
%TD*%
D48*
%TO.C,F4*%
X118975000Y-88200000D03*
X118975000Y-91000000D03*
%TD*%
D66*
%TO.C,J8*%
X126420000Y-133100000D03*
D67*
X128960000Y-133100000D03*
X131500000Y-133100000D03*
X134040000Y-133100000D03*
X136580000Y-133100000D03*
%TD*%
D63*
%TO.C,U15*%
X134400000Y-70812500D03*
X135100000Y-70812500D03*
D64*
X135900000Y-70887500D03*
X135900000Y-70387500D03*
X135900000Y-69887500D03*
X135900000Y-69387500D03*
D63*
X135100000Y-69462500D03*
X134400000Y-69462500D03*
D64*
X133600000Y-69387500D03*
X133600000Y-69887500D03*
X133600000Y-70387500D03*
X133600000Y-70887500D03*
%TD*%
D10*
%TO.C,D5*%
X123375000Y-71100000D03*
X124950000Y-71100000D03*
%TD*%
D68*
%TO.C,C43*%
X88285000Y-127845000D03*
X86735000Y-127845000D03*
%TD*%
D69*
%TO.C,R81*%
X144225000Y-119300000D03*
X142575000Y-119300000D03*
%TD*%
D70*
%TO.C,U17*%
X108800000Y-131100000D03*
X108800000Y-130600000D03*
X108800000Y-130100000D03*
X108800000Y-129600000D03*
D71*
X108092500Y-128892500D03*
X107592500Y-128892500D03*
X107092500Y-128892500D03*
X106592500Y-128892500D03*
D70*
X105885000Y-129600000D03*
X105885000Y-130100000D03*
X105885000Y-130600000D03*
X105885000Y-131100000D03*
D71*
X106592500Y-131807500D03*
X107092500Y-131807500D03*
X107592500Y-131807500D03*
X108092500Y-131807500D03*
D72*
X107342500Y-130350000D03*
%TD*%
D28*
%TO.C,R43*%
X120725000Y-108875000D03*
X120725000Y-107225000D03*
%TD*%
D27*
%TO.C,R3*%
X84980000Y-108560000D03*
X84980000Y-109580000D03*
%TD*%
D37*
%TO.C,TP3*%
X127225000Y-89300000D03*
%TD*%
D43*
%TO.C,C35*%
X131650000Y-73062500D03*
X131650000Y-74612500D03*
%TD*%
D18*
%TO.C,R35*%
X101250000Y-88800000D03*
X100230000Y-88800000D03*
%TD*%
D58*
%TO.C,L1*%
X101475000Y-81800000D03*
X106925000Y-81800000D03*
%TD*%
D16*
%TO.C,D17*%
X86986842Y-106786000D03*
X85586842Y-106786000D03*
%TD*%
D19*
%TO.C,C28*%
X94175000Y-105200000D03*
X94175000Y-107100000D03*
%TD*%
D31*
%TO.C,C55*%
X126370000Y-112900000D03*
X127330000Y-112900000D03*
%TD*%
D24*
%TO.C,R7*%
X95975000Y-73662500D03*
X95975000Y-70737500D03*
%TD*%
D32*
%TO.C,R83*%
X142575000Y-122500000D03*
X144225000Y-122500000D03*
%TD*%
D30*
%TO.C,C20*%
X95075000Y-101200000D03*
X98025000Y-101200000D03*
%TD*%
D33*
%TO.C,J1*%
X78180000Y-118100000D03*
X78180000Y-119350000D03*
X78180000Y-120600000D03*
X78180000Y-121850000D03*
D34*
X74980000Y-116250000D03*
X74980000Y-123700000D03*
%TD*%
D73*
%TO.C,D22*%
X116000000Y-126500000D03*
X117400000Y-126500000D03*
%TD*%
D20*
%TO.C,TP10*%
X99900000Y-129300000D03*
%TD*%
D74*
%TO.C,Y1*%
X127750000Y-115900000D03*
X127750000Y-114500000D03*
X126650000Y-114500000D03*
X126650000Y-115900000D03*
%TD*%
D12*
%TO.C,H2*%
X140600000Y-65000000D03*
X141302944Y-63302944D03*
X141302944Y-66697056D03*
X143000000Y-62600000D03*
D13*
X143000000Y-65000000D03*
D12*
X143000000Y-67400000D03*
X144697056Y-63302944D03*
X144697056Y-66697056D03*
X145400000Y-65000000D03*
%TD*%
D49*
%TO.C,C22*%
X102940000Y-93700000D03*
X99860000Y-93700000D03*
%TD*%
D75*
%TO.C,U13*%
X94018974Y-119600000D03*
X94018974Y-118650000D03*
X94018974Y-117700000D03*
X91743974Y-117700000D03*
X91743974Y-119600000D03*
%TD*%
D18*
%TO.C,R75*%
X104365000Y-131500000D03*
X103345000Y-131500000D03*
%TD*%
D17*
%TO.C,R38*%
X91125000Y-96525000D03*
X91125000Y-98175000D03*
%TD*%
D20*
%TO.C,TP8*%
X86581842Y-88826000D03*
%TD*%
D25*
%TO.C,C54*%
X129250000Y-116250000D03*
X129250000Y-115290000D03*
%TD*%
D22*
%TO.C,R78*%
X117142500Y-132150000D03*
X118162500Y-132150000D03*
%TD*%
D27*
%TO.C,R71*%
X123850000Y-113790000D03*
X123850000Y-114810000D03*
%TD*%
D30*
%TO.C,C5*%
X95075000Y-83800000D03*
X98025000Y-83800000D03*
%TD*%
D21*
%TO.C,R76*%
X89785000Y-128555000D03*
X89785000Y-127535000D03*
%TD*%
D49*
%TO.C,C8*%
X102940000Y-76300000D03*
X99860000Y-76300000D03*
%TD*%
D22*
%TO.C,R2*%
X82182500Y-122400000D03*
X83202500Y-122400000D03*
%TD*%
D66*
%TO.C,J14*%
X145250000Y-84500000D03*
D67*
X145250000Y-87040000D03*
%TD*%
D37*
%TO.C,TP1*%
X106725000Y-71900000D03*
%TD*%
D22*
%TO.C,R36*%
X102562500Y-90100000D03*
X103582500Y-90100000D03*
%TD*%
D26*
%TO.C,U10*%
X91825000Y-90537500D03*
X92775000Y-90537500D03*
X93725000Y-90537500D03*
X93725000Y-88262500D03*
X91825000Y-88262500D03*
%TD*%
D18*
%TO.C,R85*%
X123720000Y-128830000D03*
X122700000Y-128830000D03*
%TD*%
D17*
%TO.C,R68*%
X131650000Y-69312500D03*
X131650000Y-70962500D03*
%TD*%
D40*
%TO.C,U9*%
X95412500Y-96750000D03*
X95412500Y-97700000D03*
X95412500Y-98650000D03*
X97687500Y-98650000D03*
X97687500Y-97700000D03*
X97687500Y-96750000D03*
%TD*%
D44*
%TO.C,C3*%
X85352500Y-117400000D03*
X84392500Y-117400000D03*
%TD*%
D76*
%TO.C,U12*%
X99931474Y-120850000D03*
D77*
X107551474Y-120850000D03*
X115171474Y-120850000D03*
D78*
X115171474Y-107250000D03*
D77*
X107551474Y-107250000D03*
X103741474Y-107250000D03*
D78*
X99931474Y-107250000D03*
%TD*%
D18*
%TO.C,R27*%
X121750000Y-88800000D03*
X120730000Y-88800000D03*
%TD*%
D28*
%TO.C,R37*%
X92925000Y-98175000D03*
X92925000Y-96525000D03*
%TD*%
D18*
%TO.C,R11*%
X101250000Y-71400000D03*
X100230000Y-71400000D03*
%TD*%
D27*
%TO.C,R41*%
X84980000Y-88316000D03*
X84980000Y-89336000D03*
%TD*%
D79*
%TO.C,C41*%
X95625000Y-132200000D03*
X97175000Y-132200000D03*
%TD*%
D80*
%TO.C,R42*%
X94343974Y-115500000D03*
X91418974Y-115500000D03*
%TD*%
D22*
%TO.C,R28*%
X123062500Y-90100000D03*
X124082500Y-90100000D03*
%TD*%
%TO.C,R20*%
X123062500Y-72700000D03*
X124082500Y-72700000D03*
%TD*%
D37*
%TO.C,TP4*%
X106725000Y-89300000D03*
%TD*%
D27*
%TO.C,R57*%
X139450000Y-88650000D03*
X139450000Y-89670000D03*
%TD*%
D28*
%TO.C,R52*%
X120750000Y-118225000D03*
X120750000Y-116575000D03*
%TD*%
%TO.C,R26*%
X111625000Y-94335000D03*
X111625000Y-92685000D03*
%TD*%
D32*
%TO.C,R63*%
X137775000Y-73222500D03*
X139425000Y-73222500D03*
%TD*%
D61*
%TO.C,F6*%
X80930000Y-86531000D03*
X83730000Y-86531000D03*
%TD*%
D43*
%TO.C,C32*%
X131650000Y-91075000D03*
X131650000Y-92625000D03*
%TD*%
D81*
%TO.C,J11*%
X76600000Y-81976750D03*
X76600000Y-70976750D03*
D82*
X86600000Y-73976750D03*
D83*
X86600000Y-78976750D03*
%TD*%
D33*
%TO.C,J7*%
X78180000Y-88256000D03*
X78180000Y-89506000D03*
X78180000Y-90756000D03*
X78180000Y-92006000D03*
D34*
X74980000Y-86406000D03*
X74980000Y-93856000D03*
%TD*%
D22*
%TO.C,R5*%
X84362500Y-122400000D03*
X85382500Y-122400000D03*
%TD*%
D60*
%TO.C,D10*%
X79780000Y-95756000D03*
X79780000Y-94181000D03*
%TD*%
D18*
%TO.C,R72*%
X124960000Y-115990000D03*
X123940000Y-115990000D03*
%TD*%
D12*
%TO.C,H4*%
X75600000Y-130000000D03*
X76302944Y-128302944D03*
X76302944Y-131697056D03*
X78000000Y-127600000D03*
D13*
X78000000Y-130000000D03*
D12*
X78000000Y-132400000D03*
X79697056Y-128302944D03*
X79697056Y-131697056D03*
X80400000Y-130000000D03*
%TD*%
D22*
%TO.C,R32*%
X100255000Y-90100000D03*
X101275000Y-90100000D03*
%TD*%
D44*
%TO.C,C26*%
X85352500Y-97156000D03*
X84392500Y-97156000D03*
%TD*%
D22*
%TO.C,R79*%
X141480000Y-83250000D03*
X142500000Y-83250000D03*
%TD*%
D84*
%TO.C,J12*%
X101954910Y-129000000D03*
D85*
X117347310Y-129000000D03*
%TD*%
M02*
