%TF.GenerationSoftware,KiCad,Pcbnew,9.0.6*%
%TF.CreationDate,2026-01-12T10:20:26-08:00*%
%TF.ProjectId,vrb,7672622e-6b69-4636-9164-5f7063625858,rev?*%
%TF.SameCoordinates,Original*%
%TF.FileFunction,Profile,NP*%
%FSLAX46Y46*%
G04 Gerber Fmt 4.6, Leading zero omitted, Abs format (unit mm)*
G04 Created by KiCad (PCBNEW 9.0.6) date 2026-01-12 10:20:26*
%MOMM*%
%LPD*%
G01*
G04 APERTURE LIST*
%TA.AperFunction,Profile*%
%ADD10C,0.050000*%
%TD*%
G04 APERTURE END LIST*
D10*
X155000000Y-119000000D02*
G75*
G02*
X154000000Y-120000000I-1000000J0D01*
G01*
X149000000Y-74000000D02*
G75*
G02*
X148000000Y-73000000I0J1000000D01*
G01*
X148000000Y-84000000D02*
X148000000Y-92000000D01*
X148000000Y-134000000D02*
X148000000Y-121000000D01*
X149000000Y-93000000D02*
G75*
G02*
X148000000Y-92000000I0J1000000D01*
G01*
X74000000Y-60000000D02*
X147000000Y-60000000D01*
X154000000Y-120000000D02*
X149000000Y-120000000D01*
X147000000Y-60000000D02*
G75*
G02*
X148000000Y-61000000I0J-1000000D01*
G01*
X154000000Y-83000000D02*
X149000000Y-83000000D01*
X148000000Y-134000000D02*
G75*
G02*
X147000000Y-135000000I-1000000J0D01*
G01*
X73000000Y-134000000D02*
X73000000Y-61000000D01*
X147000000Y-135000000D02*
X74000000Y-135000000D01*
X73000000Y-61000000D02*
G75*
G02*
X74000000Y-60000000I1000000J0D01*
G01*
X148000000Y-61000000D02*
X148000000Y-73000000D01*
X154000000Y-93000000D02*
G75*
G02*
X155000000Y-94000000I0J-1000000D01*
G01*
X149000000Y-74000000D02*
X154000000Y-74000000D01*
X74000000Y-135000000D02*
G75*
G02*
X73000000Y-134000000I0J1000000D01*
G01*
X155000000Y-94000000D02*
X155000000Y-119000000D01*
X148000000Y-84000000D02*
G75*
G02*
X149000000Y-83000000I1000000J0D01*
G01*
X155000000Y-82000000D02*
X155000000Y-75000000D01*
X149000000Y-93000000D02*
X154000000Y-93000000D01*
X148000000Y-121000000D02*
G75*
G02*
X149000000Y-120000000I1000000J0D01*
G01*
X154000000Y-74000000D02*
G75*
G02*
X155000000Y-75000000I0J-1000000D01*
G01*
X155000000Y-82000000D02*
G75*
G02*
X154000000Y-83000000I-1000000J0D01*
G01*
M02*
