%TF.GenerationSoftware,KiCad,Pcbnew,9.0.5*%
%TF.CreationDate,2025-12-30T00:31:24-08:00*%
%TF.ProjectId,vrb,7672622e-6b69-4636-9164-5f7063625858,rev?*%
%TF.SameCoordinates,Original*%
%TF.FileFunction,Copper,L6,Bot*%
%TF.FilePolarity,Positive*%
%FSLAX46Y46*%
G04 Gerber Fmt 4.6, Leading zero omitted, Abs format (unit mm)*
G04 Created by KiCad (PCBNEW 9.0.5) date 2025-12-30 00:31:24*
%MOMM*%
%LPD*%
G01*
G04 APERTURE LIST*
G04 Aperture macros list*
%AMRoundRect*
0 Rectangle with rounded corners*
0 $1 Rounding radius*
0 $2 $3 $4 $5 $6 $7 $8 $9 X,Y pos of 4 corners*
0 Add a 4 corners polygon primitive as box body*
4,1,4,$2,$3,$4,$5,$6,$7,$8,$9,$2,$3,0*
0 Add four circle primitives for the rounded corners*
1,1,$1+$1,$2,$3*
1,1,$1+$1,$4,$5*
1,1,$1+$1,$6,$7*
1,1,$1+$1,$8,$9*
0 Add four rect primitives between the rounded corners*
20,1,$1+$1,$2,$3,$4,$5,0*
20,1,$1+$1,$4,$5,$6,$7,0*
20,1,$1+$1,$6,$7,$8,$9,0*
20,1,$1+$1,$8,$9,$2,$3,0*%
G04 Aperture macros list end*
%TA.AperFunction,ComponentPad*%
%ADD10C,3.600000*%
%TD*%
%TA.AperFunction,ConnectorPad*%
%ADD11C,6.400000*%
%TD*%
%TA.AperFunction,ComponentPad*%
%ADD12RoundRect,0.250001X-1.599999X1.099999X-1.599999X-1.099999X1.599999X-1.099999X1.599999X1.099999X0*%
%TD*%
%TA.AperFunction,ComponentPad*%
%ADD13O,3.700000X2.700000*%
%TD*%
%TA.AperFunction,ComponentPad*%
%ADD14R,1.700000X1.700000*%
%TD*%
%TA.AperFunction,ComponentPad*%
%ADD15C,1.700000*%
%TD*%
%TA.AperFunction,ComponentPad*%
%ADD16R,1.830000X1.830000*%
%TD*%
%TA.AperFunction,ComponentPad*%
%ADD17C,1.830000*%
%TD*%
%TA.AperFunction,ComponentPad*%
%ADD18C,2.655000*%
%TD*%
%TA.AperFunction,ComponentPad*%
%ADD19C,1.400000*%
%TD*%
%TA.AperFunction,ComponentPad*%
%ADD20RoundRect,0.770000X0.980000X-0.980000X0.980000X0.980000X-0.980000X0.980000X-0.980000X-0.980000X0*%
%TD*%
%TA.AperFunction,ComponentPad*%
%ADD21C,3.500000*%
%TD*%
%TA.AperFunction,SMDPad,CuDef*%
%ADD22R,0.350000X2.500000*%
%TD*%
%TA.AperFunction,SMDPad,CuDef*%
%ADD23R,2.500000X2.000000*%
%TD*%
%TA.AperFunction,ViaPad*%
%ADD24C,0.500000*%
%TD*%
%TA.AperFunction,ViaPad*%
%ADD25C,0.600000*%
%TD*%
%TA.AperFunction,ViaPad*%
%ADD26C,0.800000*%
%TD*%
%TA.AperFunction,Conductor*%
%ADD27C,0.150000*%
%TD*%
%TA.AperFunction,Conductor*%
%ADD28C,0.300000*%
%TD*%
%TA.AperFunction,Conductor*%
%ADD29C,0.350000*%
%TD*%
%TA.AperFunction,Conductor*%
%ADD30C,0.200000*%
%TD*%
G04 APERTURE END LIST*
D10*
%TO.P,H3,1,1*%
%TO.N,GND*%
X143000000Y-130000000D03*
D11*
X143000000Y-130000000D03*
%TD*%
D12*
%TO.P,J4,1,Pin_1*%
%TO.N,GND*%
X140050000Y-78000000D03*
D13*
%TO.P,J4,2,Pin_2*%
%TO.N,/RC Radio/VOUT*%
X134550000Y-78000000D03*
%TD*%
D12*
%TO.P,J10,1,Pin_1*%
%TO.N,/CM_VOUT*%
X140000000Y-112900000D03*
D13*
%TO.P,J10,2,Pin_2*%
X140000000Y-117100000D03*
%TO.P,J10,3,Pin_3*%
%TO.N,GND*%
X134500000Y-112900000D03*
%TO.P,J10,4,Pin_4*%
X134500000Y-117100000D03*
%TD*%
D10*
%TO.P,H1,1,1*%
%TO.N,GND*%
X78000000Y-65000000D03*
D11*
X78000000Y-65000000D03*
%TD*%
D12*
%TO.P,J3,1,Pin_1*%
%TO.N,GND*%
X140050000Y-95450000D03*
D13*
%TO.P,J3,2,Pin_2*%
%TO.N,/Telemetry Radio/VOUT*%
X134550000Y-95450000D03*
%TD*%
D14*
%TO.P,J8,1,Pin_1*%
%TO.N,+3V3*%
X126420000Y-133100000D03*
D15*
%TO.P,J8,2,Pin_2*%
%TO.N,/USART1_TX_DEBUG*%
X128960000Y-133100000D03*
%TO.P,J8,3,Pin_3*%
%TO.N,/SWDIO*%
X131500000Y-133100000D03*
%TO.P,J8,4,Pin_4*%
%TO.N,/SWCLK*%
X134040000Y-133100000D03*
%TO.P,J8,5,Pin_5*%
%TO.N,GND*%
X136580000Y-133100000D03*
%TD*%
D10*
%TO.P,H2,1,1*%
%TO.N,GND*%
X143000000Y-65000000D03*
D11*
X143000000Y-65000000D03*
%TD*%
D16*
%TO.P,U12,1,VIN+*%
%TO.N,+BATT*%
X99931474Y-120850000D03*
D17*
%TO.P,U12,2,ON*%
%TO.N,/CM_EN*%
X107551474Y-120850000D03*
%TO.P,U12,3,VIN-*%
%TO.N,GND*%
X115171474Y-120850000D03*
D18*
%TO.P,U12,4,VOUT-*%
%TO.N,Net-(U12-VOUT-)*%
X115171474Y-107250000D03*
D17*
%TO.P,U12,6,TRIM*%
%TO.N,Net-(U12-TRIM)*%
X107551474Y-107250000D03*
%TO.P,U12,7,SENSE*%
%TO.N,/Compute Module Domain/ISENSE+*%
X103741474Y-107250000D03*
D18*
%TO.P,U12,8,VOUT+*%
X99931474Y-107250000D03*
%TD*%
D19*
%TO.P,J11,*%
%TO.N,*%
X76600000Y-81976750D03*
X76600000Y-70976750D03*
D20*
%TO.P,J11,1,Pin_1*%
%TO.N,+BATT*%
X86600000Y-73976750D03*
D21*
%TO.P,J11,2,Pin_2*%
%TO.N,GND*%
X86600000Y-78976750D03*
%TD*%
D10*
%TO.P,H4,1,1*%
%TO.N,GND*%
X78000000Y-130000000D03*
D11*
X78000000Y-130000000D03*
%TD*%
D22*
%TO.P,J12,1,Pin_1*%
%TO.N,GND*%
X103618610Y-126650000D03*
%TO.P,J12,2,Pin_2*%
X104253610Y-126650000D03*
%TO.P,J12,3,Pin_3*%
X104888610Y-126650000D03*
%TO.P,J12,4,Pin_4*%
X105523610Y-126650000D03*
%TO.P,J12,5,Pin_5*%
X106158610Y-126650000D03*
%TO.P,J12,6,Pin_6*%
X106793610Y-126650000D03*
%TO.P,J12,7,Pin_7*%
X107428610Y-126650000D03*
%TO.P,J12,8,Pin_8*%
X108063610Y-126650000D03*
%TO.P,J12,9,Pin_9*%
X108698610Y-126650000D03*
%TO.P,J12,10,Pin_10*%
X109333610Y-126650000D03*
%TO.P,J12,11,Pin_11*%
X109968610Y-126650000D03*
%TO.P,J12,12,Pin_12*%
X110603610Y-126650000D03*
%TO.P,J12,13,Pin_13*%
X111238610Y-126650000D03*
%TO.P,J12,14,Pin_14*%
X111873610Y-126650000D03*
%TO.P,J12,15,Pin_15*%
X112508610Y-126650000D03*
%TO.P,J12,16,Pin_16*%
X113143610Y-126650000D03*
%TO.P,J12,17,Pin_17*%
X113778610Y-126650000D03*
%TO.P,J12,18,Pin_18*%
X114413610Y-126650000D03*
%TO.P,J12,19,Pin_19*%
X115048610Y-126650000D03*
%TO.P,J12,20,Pin_20*%
X115683610Y-126650000D03*
%TO.P,J12,21,Pin_21*%
%TO.N,+BATT*%
X103618610Y-131350000D03*
%TO.P,J12,22,Pin_22*%
X104253610Y-131350000D03*
%TO.P,J12,23,Pin_23*%
X104888610Y-131350000D03*
%TO.P,J12,24,Pin_24*%
X105523610Y-131350000D03*
%TO.P,J12,25,Pin_25*%
X106158610Y-131350000D03*
%TO.P,J12,26,Pin_26*%
X106793610Y-131350000D03*
%TO.P,J12,27,Pin_27*%
X107428610Y-131350000D03*
%TO.P,J12,28,Pin_28*%
X108063610Y-131350000D03*
%TO.P,J12,29,Pin_29*%
X108698610Y-131350000D03*
%TO.P,J12,30,Pin_30*%
X109333610Y-131350000D03*
%TO.P,J12,31,Pin_31*%
X109968610Y-131350000D03*
%TO.P,J12,32,Pin_32*%
X110603610Y-131350000D03*
%TO.P,J12,33,Pin_33*%
%TO.N,/IESC1*%
X111238610Y-131350000D03*
%TO.P,J12,34,Pin_34*%
%TO.N,/IESC2*%
X111873610Y-131350000D03*
%TO.P,J12,35,Pin_35*%
%TO.N,/IESC3*%
X112508610Y-131350000D03*
%TO.P,J12,36,Pin_36*%
%TO.N,/IESC4*%
X113143610Y-131350000D03*
%TO.P,J12,37,Pin_37*%
%TO.N,/IPAYLOAD*%
X113778610Y-131350000D03*
%TO.P,J12,38,Pin_38*%
%TO.N,/RESV0*%
X114413610Y-131350000D03*
%TO.P,J12,39,Pin_39*%
%TO.N,/RESV1*%
X115048610Y-131350000D03*
%TO.P,J12,40,Pin_40*%
%TO.N,/RESV2*%
X115683610Y-131350000D03*
D23*
%TO.P,J12,P1*%
%TO.N,N/C*%
X99916130Y-129000000D03*
%TO.P,J12,P2*%
X119386090Y-129000000D03*
%TD*%
D24*
%TO.N,/I2C3_SCL_SMBUS*%
X100475000Y-65950000D03*
%TO.N,/I2C3_SDA_SMBUS*%
X98450000Y-66350000D03*
D25*
%TO.N,GND*%
X91125000Y-98950000D03*
X98000000Y-132200000D03*
X135800000Y-81950000D03*
D24*
X97375000Y-82200000D03*
D26*
X94400000Y-66000000D03*
D25*
X79380000Y-92006000D03*
D24*
X117875000Y-82200000D03*
D25*
X104225000Y-90100000D03*
X107475000Y-93100000D03*
X76686842Y-123686000D03*
X120755000Y-88150000D03*
D26*
X108400000Y-122600000D03*
X107000000Y-122600000D03*
D25*
X100975000Y-91950000D03*
X76686842Y-106650000D03*
D24*
X118975000Y-99600000D03*
D26*
X102200000Y-126200000D03*
D25*
X93400000Y-121850000D03*
X127975000Y-75700000D03*
X93100000Y-110750000D03*
X134400000Y-82350000D03*
X127850000Y-119300000D03*
X92770000Y-74150000D03*
X107475000Y-75700000D03*
X91125000Y-81550000D03*
D26*
X102200000Y-127200000D03*
D24*
X79986842Y-118236000D03*
D26*
X102800000Y-122600000D03*
D25*
X79380000Y-121850000D03*
X134400000Y-65837500D03*
D24*
X117875000Y-99600000D03*
D25*
X128450000Y-114500000D03*
X138825000Y-88170000D03*
X83780000Y-98106000D03*
X81180000Y-90556000D03*
X125050000Y-113200000D03*
X85950000Y-127850000D03*
X132450000Y-91125000D03*
X100975000Y-74550000D03*
D26*
X100800000Y-127200000D03*
D24*
X98475000Y-82200000D03*
D26*
X104200000Y-122600000D03*
D24*
X79337176Y-119900000D03*
D25*
X113270000Y-74150000D03*
D26*
X111200000Y-122600000D03*
D25*
X91125000Y-91900000D03*
X74986842Y-92942000D03*
X92770000Y-91550000D03*
X102750000Y-131500000D03*
X113270000Y-91550000D03*
X128777834Y-117075000D03*
X103400000Y-128650000D03*
D26*
X116100000Y-65400000D03*
D25*
X111625000Y-74500000D03*
X85980000Y-122400000D03*
X120400000Y-130600000D03*
D26*
X114000000Y-122600000D03*
D25*
X124725000Y-72700000D03*
X81180000Y-110800000D03*
X95076474Y-118650000D03*
D26*
X99400000Y-127200000D03*
D25*
X134600000Y-74612500D03*
X111625000Y-98950000D03*
X129250000Y-114600000D03*
X128000000Y-112900000D03*
D26*
X96600000Y-66000000D03*
D25*
X81280000Y-114100000D03*
X85980000Y-102156000D03*
X138825000Y-86145000D03*
X123300000Y-116000000D03*
X74986842Y-113186000D03*
X92500000Y-129900000D03*
X87500000Y-131950000D03*
X81280000Y-93856000D03*
X96400000Y-129300000D03*
D26*
X109800000Y-122600000D03*
D25*
X104225000Y-72700000D03*
X121475000Y-74550000D03*
X137549277Y-74197464D03*
D24*
X92125000Y-63650000D03*
X79986842Y-97992000D03*
D25*
X120755000Y-70750000D03*
X137549277Y-90709964D03*
D26*
X89400000Y-63100000D03*
D24*
X97375000Y-99600000D03*
D25*
X91125000Y-74500000D03*
X130100000Y-117100000D03*
X83180000Y-116750000D03*
X135800000Y-65437500D03*
D24*
X118975000Y-82200000D03*
D25*
X94500000Y-112350000D03*
D26*
X117200000Y-66000000D03*
D25*
X76686842Y-86406000D03*
X93100000Y-107100000D03*
D24*
X98475000Y-99600000D03*
D25*
X79380000Y-112250000D03*
X111625000Y-91900000D03*
X136550000Y-91125000D03*
X83780000Y-118350000D03*
X120082174Y-116198290D03*
X90775000Y-131800000D03*
X105900000Y-129100000D03*
X124725000Y-90100000D03*
X97750000Y-127050000D03*
D26*
X112600000Y-122600000D03*
D25*
X83780000Y-101156000D03*
D26*
X99400000Y-126200000D03*
D25*
X76686842Y-103442000D03*
X136550000Y-74612500D03*
X84380000Y-116750000D03*
X138825000Y-69632500D03*
D26*
X95500000Y-65400000D03*
D25*
X89785000Y-126900000D03*
D26*
X105600000Y-122600000D03*
D24*
X79337176Y-99656000D03*
D25*
X74986842Y-96842000D03*
X132450000Y-74612500D03*
D26*
X115000000Y-66000000D03*
X109700000Y-62700000D03*
D25*
X111625000Y-81550000D03*
X74986842Y-117086000D03*
X100255000Y-88150000D03*
X84160000Y-108598254D03*
X100255000Y-70750000D03*
X79380000Y-101606000D03*
X131650000Y-71737500D03*
X121475000Y-91950000D03*
X134700000Y-109700000D03*
X126650000Y-116700000D03*
X84160000Y-88354254D03*
D26*
X100800000Y-126200000D03*
D25*
X138825000Y-71657500D03*
X120100000Y-110600000D03*
D24*
X127325000Y-63650000D03*
X106825000Y-63650000D03*
X112625000Y-63650000D03*
D25*
X134600000Y-91125000D03*
X127975000Y-93100000D03*
X83180000Y-96506000D03*
X131650000Y-88250000D03*
X83780000Y-121400000D03*
X84380000Y-96506000D03*
%TO.N,VBUS1*%
X87500000Y-114150000D03*
D26*
X87400000Y-105400000D03*
D25*
X90900000Y-126950000D03*
D26*
X85800000Y-123825000D03*
D25*
X88300000Y-127050000D03*
X91150000Y-132700000D03*
%TO.N,+3V3*%
X117000000Y-127950000D03*
D24*
X128800000Y-120200000D03*
D25*
X113425000Y-98950000D03*
D26*
X113400000Y-86000000D03*
D25*
X137000000Y-122800000D03*
X92500000Y-128350000D03*
X81580000Y-102156000D03*
X86600000Y-95000000D03*
X133050000Y-65607500D03*
D24*
X128800000Y-119400000D03*
D25*
X113425000Y-81550000D03*
X120750000Y-122200000D03*
X137000000Y-123800000D03*
D26*
X130000000Y-82200000D03*
D25*
X81580000Y-97156000D03*
X116250000Y-122750000D03*
X92925000Y-81550000D03*
X104350000Y-128650000D03*
X123850000Y-113200000D03*
X133050000Y-82120000D03*
X92925000Y-98950000D03*
X96550000Y-128350000D03*
X81580000Y-117400000D03*
X81580000Y-122400000D03*
%TO.N,+5V*%
X86430000Y-119550000D03*
X85980000Y-117400000D03*
X81500000Y-103300000D03*
X84650000Y-123900000D03*
X86430000Y-99306000D03*
D24*
%TO.N,+BATT*%
X101600000Y-133200000D03*
X95675000Y-99600000D03*
X112970000Y-88262500D03*
X92470000Y-70862500D03*
X94675000Y-82200000D03*
X116175000Y-82200000D03*
X105600000Y-133200000D03*
D26*
X100400000Y-131000000D03*
D24*
X115175000Y-82200000D03*
D26*
X99200000Y-132200000D03*
D24*
X102600000Y-133200000D03*
X116175000Y-99600000D03*
X94675000Y-99600000D03*
X115175000Y-99600000D03*
X95675000Y-82200000D03*
D26*
X101600000Y-132200000D03*
D24*
X112970000Y-70862500D03*
X99200000Y-133200000D03*
D26*
X101600000Y-131000000D03*
D24*
X103600000Y-133200000D03*
X104600000Y-133200000D03*
D26*
X100400000Y-132200000D03*
D24*
X92470000Y-88262500D03*
X100400000Y-133200000D03*
D26*
X99200000Y-131000000D03*
D24*
%TO.N,/FMU1_VOUT*%
X94550000Y-70450000D03*
D25*
X105400000Y-68100000D03*
D24*
X94550000Y-71250000D03*
D25*
X103400000Y-68100000D03*
%TO.N,/FMU2_VOUT*%
X123900000Y-68100000D03*
D24*
X136600000Y-67987500D03*
X138350000Y-67987500D03*
D25*
X125900000Y-68100000D03*
D24*
X137300000Y-67987500D03*
X115050000Y-71300000D03*
D25*
X137850000Y-70687500D03*
D24*
X115050000Y-70500000D03*
%TO.N,/RADIO_VOUT*%
X115050000Y-87850000D03*
X137300000Y-84500000D03*
X136600000Y-84500000D03*
X115050000Y-86950000D03*
X136600000Y-72337500D03*
X138350000Y-84500000D03*
X138350000Y-72337500D03*
D25*
X137850000Y-87200000D03*
D24*
X137300000Y-72337500D03*
%TO.N,/RADAR_VOUT*%
X94550000Y-88650000D03*
X136600000Y-88850000D03*
X137300000Y-88850000D03*
X94550000Y-87900000D03*
%TO.N,/CM_VOUT*%
X90400000Y-115400000D03*
X90400000Y-114700000D03*
X90400000Y-116800000D03*
X91400000Y-116800000D03*
X90400000Y-114000000D03*
X92300000Y-116800000D03*
X90400000Y-116100000D03*
%TO.N,/CAN2_STATUS*%
X79780000Y-113700000D03*
X132250000Y-123950000D03*
%TO.N,/FMU1_STATUS*%
X128850000Y-128850000D03*
X104450000Y-71900000D03*
%TO.N,/FMU2_STATUS*%
X124950000Y-71900000D03*
X129850000Y-128850000D03*
%TO.N,/RADIO_STATUS*%
X129850000Y-120100000D03*
X124950000Y-89300000D03*
%TO.N,/RADAR_STATUS*%
X128282974Y-112205428D03*
X104450000Y-89300000D03*
%TO.N,/CAN1_STATUS*%
X79780000Y-93456000D03*
X125850000Y-128850000D03*
%TO.N,/CM_STATUS*%
X122850000Y-125975000D03*
X118100000Y-117600000D03*
%TO.N,/CANFD 2 (Redundant)/FDCAN_P*%
X77030000Y-109750000D03*
X77030000Y-119350000D03*
%TO.N,/CANFD 2 (Redundant)/FDCAN_N*%
X76480000Y-111000000D03*
X76480000Y-120600000D03*
X80536842Y-120600000D03*
X81572842Y-119562500D03*
D25*
%TO.N,VBUS2*%
X86650000Y-129570000D03*
X87850000Y-124300000D03*
D24*
%TO.N,/CANFD 1 (Primary)/FDCAN_P*%
X77030000Y-99106000D03*
X77030000Y-89506000D03*
%TO.N,/CANFD 1 (Primary)/FDCAN_N*%
X81572842Y-99318500D03*
X80536842Y-100356000D03*
X76480000Y-100356000D03*
X76480000Y-90756000D03*
%TO.N,/CAN2_SILENT*%
X132678030Y-127439176D03*
X84350000Y-122994000D03*
%TO.N,/CAN2_TERM*%
X132250000Y-122950000D03*
X83080000Y-110050000D03*
%TO.N,/FMU1_VSENSE*%
X89050000Y-72700000D03*
X101250000Y-70750000D03*
%TO.N,/FMU1_EN*%
X128350000Y-129300000D03*
X91125000Y-78450000D03*
%TO.N,/FMU2_VSENSE*%
X125850001Y-120134666D03*
X130000000Y-71400000D03*
X121750000Y-70750000D03*
X126400000Y-111800000D03*
%TO.N,/FMU2_EN*%
X111625000Y-78450000D03*
X129350001Y-129265334D03*
%TO.N,/RADIO_VSENSE*%
X125850000Y-111300000D03*
X121750000Y-88150000D03*
X125350000Y-119600000D03*
X129850000Y-88150000D03*
%TO.N,/RADIO_EN*%
X127850000Y-128850000D03*
X111625000Y-95850000D03*
%TO.N,/RADAR_VSENSE*%
X108850000Y-88200000D03*
X101250000Y-88150000D03*
%TO.N,/RADAR_EN*%
X91125000Y-95850000D03*
X126850000Y-128850000D03*
%TO.N,/CAN1_SILENT*%
X84350000Y-102750000D03*
X125350000Y-129350000D03*
%TO.N,/CM_VSENSE*%
X92850000Y-112450000D03*
X123534665Y-126950001D03*
%TO.N,/CAN1_TERM*%
X83080000Y-89806000D03*
X126350001Y-129265335D03*
%TO.N,/CM_EN*%
X119976474Y-119775000D03*
X123534666Y-125949999D03*
%TO.N,/CANFD 2 (Redundant)/VIN*%
X75786842Y-118100000D03*
X75786842Y-108500000D03*
%TO.N,/IESC1*%
X111244405Y-133057649D03*
%TO.N,/FMU1_ISENSE*%
X91820000Y-74150000D03*
X89750000Y-74150000D03*
%TO.N,/FMU2_ISENSE*%
X112320000Y-74150000D03*
X109700000Y-74150000D03*
%TO.N,/RADIO_ISENSE*%
X110450000Y-91550000D03*
X112320000Y-91550000D03*
%TO.N,/RADAR_ISENSE*%
X89400000Y-91550000D03*
X91820000Y-91550000D03*
%TO.N,/FDCAN1_RX*%
X85930000Y-98656000D03*
X127401000Y-109531310D03*
%TO.N,/FDCAN1_TX*%
X85930000Y-100606000D03*
X126900000Y-108950000D03*
%TO.N,/CM_ISENSE*%
X123950000Y-126450000D03*
X95100000Y-119600000D03*
%TO.N,/RC Radio/VOUT*%
X134396250Y-72446250D03*
X134400000Y-71650000D03*
%TO.N,/Telemetry Radio/VOUT*%
X134400000Y-88900000D03*
X134400000Y-88150000D03*
%TO.N,/I2C3_SCL_SMBUS*%
X132250000Y-124950000D03*
X123200000Y-130800000D03*
X120975000Y-65700000D03*
%TO.N,/I2C3_SDA_SMBUS*%
X132665335Y-124449999D03*
X131575001Y-131021015D03*
X135300000Y-122200000D03*
X118975000Y-66400000D03*
%TO.N,/TELEM_STATUS*%
X132250000Y-125950000D03*
X131450000Y-81500000D03*
%TO.N,/Telemetry Radio/OV2*%
X136997118Y-87113234D03*
X139425000Y-88950000D03*
%TO.N,/RC_STATUS*%
X132665334Y-125450001D03*
X131450000Y-64987500D03*
%TO.N,/RC Radio/OV2*%
X136997118Y-70600734D03*
X139425000Y-72437500D03*
%TO.N,/USART1_TX_DEBUG*%
X132050000Y-131775000D03*
X137300000Y-121175000D03*
%TO.N,/CANFD 1 (Primary)/VIN*%
X75786842Y-88256000D03*
X75786842Y-97856000D03*
%TO.N,/RESV0*%
X114414737Y-132909692D03*
%TO.N,/IESC3*%
X112509435Y-133053295D03*
%TO.N,/RESV1*%
X115044730Y-133069728D03*
%TO.N,/IESC4*%
X113145343Y-132918671D03*
%TO.N,/IPAYLOAD*%
X113781031Y-133054330D03*
%TO.N,/RESV2*%
X115683610Y-132950000D03*
%TO.N,/IESC2*%
X111875000Y-132900000D03*
%TO.N,/REG_STATUS*%
X132665335Y-126449999D03*
X89500000Y-133400000D03*
%TD*%
D27*
%TO.N,/I2C3_SCL_SMBUS*%
X120975000Y-65700000D02*
X118500000Y-65700000D01*
X118500000Y-65700000D02*
X117200000Y-64400000D01*
X117200000Y-64400000D02*
X114950000Y-64400000D01*
X114950000Y-64400000D02*
X113400000Y-65950000D01*
X113400000Y-65950000D02*
X100475000Y-65950000D01*
%TO.N,/I2C3_SDA_SMBUS*%
X98450000Y-66350000D02*
X98776000Y-66676000D01*
X98776000Y-66676000D02*
X118699000Y-66676000D01*
X118699000Y-66676000D02*
X118975000Y-66400000D01*
D28*
%TO.N,VBUS1*%
X88300000Y-127050000D02*
X88300000Y-130850000D01*
X88300000Y-130850000D02*
X90150000Y-132700000D01*
D29*
X90900000Y-126950000D02*
X90174000Y-126224000D01*
X89126000Y-126224000D02*
X88300000Y-127050000D01*
X87400000Y-105400000D02*
X86550000Y-106250000D01*
X90174000Y-126224000D02*
X89126000Y-126224000D01*
D28*
X90150000Y-132700000D02*
X91150000Y-132700000D01*
D29*
X86550000Y-106250000D02*
X86550000Y-113200000D01*
X86550000Y-113200000D02*
X87500000Y-114150000D01*
%TO.N,+3V3*%
X86600000Y-95000000D02*
X86600000Y-92500000D01*
X131600000Y-80670000D02*
X131600000Y-73200000D01*
X105250000Y-128650000D02*
X105476000Y-128424000D01*
X86600000Y-92500000D02*
X92925000Y-86175000D01*
X116250000Y-123400000D02*
X117000000Y-124150000D01*
X105476000Y-128424000D02*
X116576000Y-128424000D01*
X92925000Y-98950000D02*
X92925000Y-96175000D01*
X113425000Y-81550000D02*
X113425000Y-85975000D01*
X117000000Y-124150000D02*
X117000000Y-127950000D01*
X133050000Y-71750000D02*
X133050000Y-65607500D01*
X131600000Y-73200000D02*
X133050000Y-71750000D01*
X112225000Y-100150000D02*
X106850000Y-100150000D01*
X81580000Y-117380000D02*
X77800000Y-113600000D01*
X81580000Y-117400000D02*
X81580000Y-117380000D01*
X113425000Y-85975000D02*
X113400000Y-86000000D01*
X81580000Y-117400000D02*
X82198842Y-118018842D01*
X92500000Y-127100000D02*
X90650000Y-125250000D01*
X82198842Y-118018842D02*
X82198842Y-120801158D01*
X77800000Y-113600000D02*
X77800000Y-105936000D01*
X84430000Y-125250000D02*
X81580000Y-122400000D01*
X116250000Y-122750000D02*
X116250000Y-123400000D01*
X77800000Y-105936000D02*
X81580000Y-102156000D01*
X104350000Y-128650000D02*
X105250000Y-128650000D01*
X92925000Y-96175000D02*
X91750000Y-95000000D01*
X117000000Y-128000000D02*
X117000000Y-127950000D01*
X106850000Y-100150000D02*
X105650000Y-98950000D01*
X81580000Y-121420000D02*
X81580000Y-122400000D01*
X133050000Y-82120000D02*
X131600000Y-80670000D01*
X92925000Y-86175000D02*
X92925000Y-81550000D01*
X81580000Y-102156000D02*
X82198842Y-101537158D01*
X92500000Y-128350000D02*
X92500000Y-127100000D01*
X90650000Y-125250000D02*
X84430000Y-125250000D01*
X91750000Y-95000000D02*
X86600000Y-95000000D01*
X82198842Y-120801158D02*
X81580000Y-121420000D01*
X113425000Y-98950000D02*
X112225000Y-100150000D01*
X137000000Y-122800000D02*
X137000000Y-123800000D01*
X82198842Y-101537158D02*
X82198842Y-97774842D01*
X105650000Y-98950000D02*
X92925000Y-98950000D01*
X116576000Y-128424000D02*
X117000000Y-128000000D01*
X82198842Y-97774842D02*
X81580000Y-97156000D01*
%TO.N,+5V*%
X81450000Y-103300000D02*
X81500000Y-103300000D01*
X85980000Y-117380000D02*
X84400000Y-115800000D01*
X86430000Y-119550000D02*
X86556000Y-119424000D01*
X78500000Y-106250000D02*
X81450000Y-103300000D01*
X85980000Y-117400000D02*
X85980000Y-117380000D01*
X86556000Y-117976000D02*
X85980000Y-117400000D01*
X80994702Y-115800000D02*
X84400000Y-115800000D01*
X86556000Y-119424000D02*
X86556000Y-117976000D01*
X78500000Y-113305298D02*
X78500000Y-106250000D01*
X78500000Y-113305298D02*
X80994702Y-115800000D01*
D27*
%TO.N,/CAN2_STATUS*%
X79780000Y-113705000D02*
X79780000Y-113700000D01*
X117050000Y-119950000D02*
X116400000Y-119300000D01*
X95650000Y-121100000D02*
X92750000Y-121100000D01*
X116400000Y-119300000D02*
X97450000Y-119300000D01*
X130900000Y-125300000D02*
X130900000Y-129200000D01*
X124000000Y-130300000D02*
X117050000Y-123350000D01*
X97450000Y-119300000D02*
X95650000Y-121100000D01*
X129800000Y-130300000D02*
X124000000Y-130300000D01*
X132250000Y-123950000D02*
X130900000Y-125300000D01*
X117050000Y-123350000D02*
X117050000Y-119950000D01*
X86850000Y-115200000D02*
X81275000Y-115200000D01*
X92750000Y-121100000D02*
X86850000Y-115200000D01*
X130900000Y-129200000D02*
X129800000Y-130300000D01*
X81275000Y-115200000D02*
X79780000Y-113705000D01*
%TO.N,/FMU1_STATUS*%
X128850000Y-123050000D02*
X127274000Y-121474000D01*
X129350000Y-113499264D02*
X129350000Y-103500000D01*
X104450000Y-71900000D02*
X105300000Y-72750000D01*
X129826000Y-115074000D02*
X129826000Y-113975264D01*
X128850000Y-128850000D02*
X128850000Y-123050000D01*
X127274000Y-118576000D02*
X128202834Y-117647166D01*
X105300000Y-79450000D02*
X105300000Y-72750000D01*
X127274000Y-121474000D02*
X127274000Y-118576000D01*
X128202834Y-117647166D02*
X128202834Y-116697166D01*
X129350000Y-103500000D02*
X105300000Y-79450000D01*
X129826000Y-113975264D02*
X129350000Y-113499264D01*
X128202834Y-116697166D02*
X129826000Y-115074000D01*
%TO.N,/FMU2_STATUS*%
X130375000Y-93975000D02*
X131250000Y-94850000D01*
X131250000Y-119625000D02*
X129850000Y-121025000D01*
X131250000Y-94850000D02*
X131250000Y-119625000D01*
X125725000Y-72675000D02*
X125725000Y-82358940D01*
X129850000Y-121025000D02*
X129850000Y-128850000D01*
X130375000Y-87008940D02*
X130375000Y-93975000D01*
X125725000Y-82358940D02*
X130375000Y-87008940D01*
X124950000Y-71900000D02*
X125725000Y-72675000D01*
%TO.N,/RADIO_STATUS*%
X129850000Y-120100000D02*
X129850000Y-118300000D01*
X130725000Y-117425000D02*
X130725000Y-95035412D01*
X130725000Y-95035412D02*
X124989588Y-89300000D01*
X124989588Y-89300000D02*
X124950000Y-89300000D01*
X129850000Y-118300000D02*
X130725000Y-117425000D01*
%TO.N,/RADAR_STATUS*%
X104450000Y-89300000D02*
X111834588Y-89300000D01*
X128275000Y-105740412D02*
X128275000Y-112360412D01*
X111834588Y-89300000D02*
X128275000Y-105740412D01*
%TO.N,/CAN1_STATUS*%
X83200000Y-99761412D02*
X84550000Y-101111412D01*
X83200000Y-97500000D02*
X83200000Y-99761412D01*
X117850000Y-115500000D02*
X117850000Y-115900000D01*
X84550000Y-101111412D02*
X84550000Y-101600000D01*
X79780000Y-94080000D02*
X83200000Y-97500000D01*
X85850000Y-102900000D02*
X105250000Y-102900000D01*
X79780000Y-93456000D02*
X79780000Y-94080000D01*
X117850000Y-115900000D02*
X125850000Y-123900000D01*
X125850000Y-123900000D02*
X125850000Y-128850000D01*
X105250000Y-102900000D02*
X117850000Y-115500000D01*
X84550000Y-101600000D02*
X85850000Y-102900000D01*
%TO.N,/CM_STATUS*%
X119225000Y-122325000D02*
X119225000Y-118725000D01*
X122850000Y-125950000D02*
X119225000Y-122325000D01*
X119225000Y-118725000D02*
X118100000Y-117600000D01*
X122850000Y-125975000D02*
X122850000Y-125950000D01*
D30*
%TO.N,/CANFD 2 (Redundant)/FDCAN_P*%
X77030000Y-119350000D02*
X77030000Y-109750000D01*
%TO.N,/CANFD 2 (Redundant)/FDCAN_N*%
X76480000Y-111000000D02*
X76480000Y-120600000D01*
X80536842Y-120598500D02*
X80536842Y-120600000D01*
X81572842Y-119562500D02*
X80536842Y-120598500D01*
%TO.N,/CANFD 1 (Primary)/FDCAN_P*%
X77030000Y-99106000D02*
X77030000Y-89506000D01*
%TO.N,/CANFD 1 (Primary)/FDCAN_N*%
X76480000Y-90756000D02*
X76480000Y-100356000D01*
X80536842Y-100354500D02*
X80536842Y-100356000D01*
X81572842Y-99318500D02*
X80536842Y-100354500D01*
D27*
%TO.N,/CAN2_SILENT*%
X120150000Y-133800000D02*
X122650000Y-131300000D01*
X84350000Y-122994000D02*
X89394000Y-122994000D01*
X129950000Y-131300000D02*
X132678030Y-128571970D01*
X93400000Y-127000000D02*
X93400000Y-128435412D01*
X93400000Y-128435412D02*
X98764588Y-133800000D01*
X98764588Y-133800000D02*
X120150000Y-133800000D01*
X122650000Y-131300000D02*
X129950000Y-131300000D01*
X132678030Y-128571970D02*
X132678030Y-127439176D01*
X89394000Y-122994000D02*
X93400000Y-127000000D01*
%TO.N,/CAN2_TERM*%
X117650000Y-119700000D02*
X117650000Y-123150000D01*
X117650000Y-123150000D02*
X124350000Y-129850000D01*
X83080000Y-110050000D02*
X83080000Y-110630000D01*
X83080000Y-110630000D02*
X93050000Y-120600000D01*
X130400000Y-124800000D02*
X132250000Y-122950000D01*
X124350000Y-129850000D02*
X129600000Y-129850000D01*
X130400000Y-129050000D02*
X130400000Y-124800000D01*
X129600000Y-129850000D02*
X130400000Y-129050000D01*
X97250000Y-118800000D02*
X116750000Y-118800000D01*
X116750000Y-118800000D02*
X117650000Y-119700000D01*
X93050000Y-120600000D02*
X95450000Y-120600000D01*
X95450000Y-120600000D02*
X97250000Y-118800000D01*
%TO.N,/FMU1_VSENSE*%
X89050000Y-72700000D02*
X99300000Y-72700000D01*
X99300000Y-72700000D02*
X101250000Y-70750000D01*
%TO.N,/FMU1_EN*%
X128825000Y-105475000D02*
X101800000Y-78450000D01*
X128825000Y-112889588D02*
X128825000Y-105475000D01*
X126800000Y-121850000D02*
X126800000Y-118300000D01*
X101800000Y-78450000D02*
X91125000Y-78450000D01*
X128350000Y-129300000D02*
X128350000Y-123400000D01*
X128350000Y-123400000D02*
X126800000Y-121850000D01*
X127700000Y-114014588D02*
X128825000Y-112889588D01*
X126800000Y-118300000D02*
X127700000Y-117400000D01*
X127700000Y-117400000D02*
X127700000Y-114014588D01*
%TO.N,/FMU2_VSENSE*%
X125850001Y-116299999D02*
X125850001Y-120134666D01*
X122100000Y-70400000D02*
X121750000Y-70750000D01*
X126400000Y-111800000D02*
X126400000Y-115750000D01*
X129000000Y-70400000D02*
X122100000Y-70400000D01*
X126400000Y-115750000D02*
X125850001Y-116299999D01*
X130000000Y-71400000D02*
X129000000Y-70400000D01*
%TO.N,/FMU2_EN*%
X129353834Y-116836412D02*
X129350001Y-116832579D01*
X129900000Y-103475000D02*
X112275000Y-85850000D01*
X129350001Y-116832579D02*
X129350001Y-116274999D01*
X129350001Y-117317421D02*
X129353834Y-117313588D01*
X130275000Y-113650000D02*
X129900000Y-113275000D01*
X112275000Y-79100000D02*
X111625000Y-78450000D01*
X129353834Y-117313588D02*
X129353834Y-116836412D01*
X129900000Y-113275000D02*
X129900000Y-103475000D01*
X129350001Y-116274999D02*
X130275000Y-115350000D01*
X130275000Y-115350000D02*
X130275000Y-113650000D01*
X129350001Y-129265334D02*
X129350001Y-117317421D01*
X112275000Y-85850000D02*
X112275000Y-79100000D01*
%TO.N,/RADIO_VSENSE*%
X125350000Y-119600000D02*
X125350000Y-116100000D01*
X125350000Y-116100000D02*
X125824000Y-115626000D01*
X125824000Y-111326000D02*
X125850000Y-111300000D01*
X129850000Y-88150000D02*
X121750000Y-88150000D01*
X125824000Y-115626000D02*
X125824000Y-111326000D01*
%TO.N,/RADIO_EN*%
X127226000Y-117124000D02*
X127226000Y-110611500D01*
X127876000Y-106026000D02*
X117700000Y-95850000D01*
X127226000Y-110611500D02*
X127876000Y-109961500D01*
X126350000Y-122150000D02*
X126350000Y-118000000D01*
X127850000Y-123650000D02*
X126350000Y-122150000D01*
X117700000Y-95850000D02*
X111625000Y-95850000D01*
X126350000Y-118000000D02*
X127226000Y-117124000D01*
X127876000Y-109961500D02*
X127876000Y-106026000D01*
X127850000Y-128850000D02*
X127850000Y-123650000D01*
%TO.N,/RADAR_VSENSE*%
X101300000Y-88200000D02*
X101250000Y-88150000D01*
X108850000Y-88200000D02*
X101300000Y-88200000D01*
%TO.N,/RADAR_EN*%
X120098472Y-115400000D02*
X119300000Y-115400000D01*
X85050000Y-100399166D02*
X85050000Y-97250000D01*
X120658174Y-115959702D02*
X120098472Y-115400000D01*
X104982000Y-101082000D02*
X85732834Y-101082000D01*
X126850000Y-123425000D02*
X120658174Y-117233174D01*
X86450000Y-95850000D02*
X91125000Y-95850000D01*
X120658174Y-117233174D02*
X120658174Y-115959702D01*
X85732834Y-101082000D02*
X85050000Y-100399166D01*
X119300000Y-115400000D02*
X104982000Y-101082000D01*
X85050000Y-97250000D02*
X86450000Y-95850000D01*
X126850000Y-128850000D02*
X126850000Y-123425000D01*
%TO.N,/CAN1_SILENT*%
X98950000Y-109250000D02*
X93100000Y-103400000D01*
X85625000Y-103400000D02*
X84975000Y-102750000D01*
X84975000Y-102750000D02*
X84350000Y-102750000D01*
X110481587Y-109250000D02*
X98950000Y-109250000D01*
X125350000Y-129350000D02*
X125350000Y-124118413D01*
X125350000Y-124118413D02*
X110481587Y-109250000D01*
X93100000Y-103400000D02*
X85625000Y-103400000D01*
%TO.N,/CM_VSENSE*%
X123534665Y-126950001D02*
X122200001Y-126950001D01*
X118150000Y-119450000D02*
X116950000Y-118250000D01*
X93500000Y-120150000D02*
X92850000Y-119500000D01*
X95250000Y-120150000D02*
X93500000Y-120150000D01*
X116950000Y-118250000D02*
X97150000Y-118250000D01*
X118150000Y-122900000D02*
X118150000Y-119450000D01*
X92850000Y-119500000D02*
X92850000Y-112450000D01*
X122200001Y-126950001D02*
X118150000Y-122900000D01*
X97150000Y-118250000D02*
X95250000Y-120150000D01*
%TO.N,/CAN1_TERM*%
X118325000Y-115175000D02*
X104730000Y-101580000D01*
X84600000Y-97100588D02*
X84956000Y-96744588D01*
X84956000Y-96744588D02*
X84956000Y-91682000D01*
X84956000Y-91682000D02*
X83080000Y-89806000D01*
X84600000Y-100550000D02*
X84600000Y-97100588D01*
X126350001Y-129265335D02*
X126350001Y-123650001D01*
X104730000Y-101580000D02*
X85630000Y-101580000D01*
X85630000Y-101580000D02*
X84600000Y-100550000D01*
X118325000Y-115625000D02*
X118325000Y-115175000D01*
X126350001Y-123650001D02*
X118325000Y-115625000D01*
%TO.N,/CM_EN*%
X120325737Y-119775000D02*
X119976474Y-119775000D01*
X123534666Y-122983929D02*
X120325737Y-119775000D01*
X123534666Y-125949999D02*
X123534666Y-122983929D01*
D29*
%TO.N,/CANFD 2 (Redundant)/VIN*%
X75786842Y-108500000D02*
X75786842Y-118100000D01*
D27*
%TO.N,/IESC1*%
X111238610Y-131350000D02*
X111238610Y-133051854D01*
X111238610Y-133051854D02*
X111244405Y-133057649D01*
D30*
%TO.N,/FMU1_ISENSE*%
X90001000Y-73899000D02*
X89750000Y-74150000D01*
X91569000Y-73899000D02*
X90001000Y-73899000D01*
X91820000Y-74150000D02*
X91569000Y-73899000D01*
D27*
%TO.N,/FMU2_ISENSE*%
X109700000Y-74150000D02*
X111000000Y-74150000D01*
X111226000Y-73924000D02*
X112094000Y-73924000D01*
X111000000Y-74150000D02*
X111226000Y-73924000D01*
X112094000Y-73924000D02*
X112320000Y-74150000D01*
%TO.N,/RADIO_ISENSE*%
X110701000Y-91299000D02*
X110450000Y-91550000D01*
X112320000Y-91550000D02*
X112069000Y-91299000D01*
X112069000Y-91299000D02*
X110701000Y-91299000D01*
%TO.N,/RADAR_ISENSE*%
X89400000Y-91550000D02*
X89626000Y-91324000D01*
X89626000Y-91324000D02*
X91594000Y-91324000D01*
X91594000Y-91324000D02*
X91820000Y-91550000D01*
%TO.N,/FDCAN1_RX*%
X86806000Y-98656000D02*
X85930000Y-98656000D01*
X127401000Y-109531310D02*
X114181310Y-109531310D01*
X114181310Y-109531310D02*
X105250000Y-100600000D01*
X105250000Y-100600000D02*
X88750000Y-100600000D01*
X88750000Y-100600000D02*
X86806000Y-98656000D01*
%TO.N,/FDCAN1_TX*%
X85700000Y-98050000D02*
X85454000Y-98296000D01*
X105550000Y-100150000D02*
X89000000Y-100150000D01*
X89000000Y-100150000D02*
X86900000Y-98050000D01*
X126900000Y-108950000D02*
X114350000Y-108950000D01*
X85454000Y-100130000D02*
X85930000Y-100606000D01*
X114350000Y-108950000D02*
X105550000Y-100150000D01*
X85454000Y-98296000D02*
X85454000Y-100130000D01*
X86900000Y-98050000D02*
X85700000Y-98050000D01*
%TO.N,/CM_ISENSE*%
X96950000Y-117750000D02*
X117250000Y-117750000D01*
X122500000Y-126450000D02*
X123950000Y-126450000D01*
X95100000Y-119600000D02*
X96950000Y-117750000D01*
X118700000Y-122650000D02*
X122500000Y-126450000D01*
X118700000Y-119200000D02*
X118700000Y-122650000D01*
X117250000Y-117750000D02*
X118700000Y-119200000D01*
%TO.N,/I2C3_SCL_SMBUS*%
X119875000Y-67625000D02*
X119875000Y-70925000D01*
X131275000Y-89875000D02*
X131275000Y-93350000D01*
X133600000Y-122575000D02*
X133600000Y-124350000D01*
X131400000Y-125800000D02*
X131400000Y-129250000D01*
X120625000Y-71675000D02*
X123250000Y-71675000D01*
X125425000Y-70900000D02*
X126750000Y-72225000D01*
X126750000Y-81825000D02*
X132226000Y-87301000D01*
X126750000Y-72225000D02*
X126750000Y-81825000D01*
X124025000Y-70900000D02*
X125425000Y-70900000D01*
X129850000Y-130800000D02*
X131400000Y-129250000D01*
X132250000Y-94325000D02*
X132250000Y-121225000D01*
X132226000Y-87301000D02*
X132226000Y-88924000D01*
X119875000Y-70925000D02*
X120625000Y-71675000D01*
X120975000Y-66525000D02*
X119875000Y-67625000D01*
X132226000Y-88924000D02*
X131275000Y-89875000D01*
X133600000Y-124350000D02*
X133000000Y-124950000D01*
X131275000Y-93350000D02*
X132250000Y-94325000D01*
X132250000Y-121225000D02*
X133600000Y-122575000D01*
X132250000Y-124950000D02*
X131400000Y-125800000D01*
X129850000Y-130800000D02*
X123200000Y-130800000D01*
X133000000Y-124950000D02*
X132250000Y-124950000D01*
X120975000Y-65700000D02*
X120975000Y-66525000D01*
X123250000Y-71675000D02*
X124025000Y-70900000D01*
%TO.N,/I2C3_SDA_SMBUS*%
X131575001Y-131021015D02*
X135300000Y-127296016D01*
X132665335Y-124449999D02*
X133141335Y-123973999D01*
X123650000Y-72200000D02*
X120425000Y-72200000D01*
X126225000Y-82125000D02*
X126225000Y-72501834D01*
X125147166Y-71424000D02*
X124426000Y-71424000D01*
X130775000Y-93625000D02*
X130775000Y-86675000D01*
X131725000Y-94575000D02*
X130775000Y-93625000D01*
X130775000Y-86675000D02*
X126225000Y-82125000D01*
X120425000Y-72200000D02*
X119350000Y-71125000D01*
X124426000Y-71424000D02*
X123650000Y-72200000D01*
X131725000Y-121400000D02*
X131725000Y-94575000D01*
X119350000Y-66775000D02*
X118975000Y-66400000D01*
X133141335Y-122816335D02*
X131725000Y-121400000D01*
X126225000Y-72501834D02*
X125147166Y-71424000D01*
X119350000Y-67900000D02*
X119350000Y-66775000D01*
X119350000Y-71125000D02*
X119350000Y-67900000D01*
X135300000Y-127296016D02*
X135300000Y-122200000D01*
X133141335Y-123973999D02*
X133141335Y-122816335D01*
%TO.N,/TELEM_STATUS*%
X137475000Y-119175000D02*
X137475000Y-92925000D01*
X132250000Y-125950000D02*
X133425000Y-125950000D01*
X134500000Y-122150000D02*
X137475000Y-119175000D01*
X137475000Y-92925000D02*
X133875000Y-89325000D01*
X134500000Y-124875000D02*
X134500000Y-122150000D01*
X133425000Y-125950000D02*
X134500000Y-124875000D01*
X133875000Y-83925000D02*
X131450000Y-81500000D01*
X133875000Y-89325000D02*
X133875000Y-83925000D01*
%TO.N,/Telemetry Radio/OV2*%
X139425000Y-87575000D02*
X138474000Y-86624000D01*
X139425000Y-88950000D02*
X139425000Y-87575000D01*
X138474000Y-86624000D02*
X137486352Y-86624000D01*
X137486352Y-86624000D02*
X136997118Y-87113234D01*
%TO.N,/RC_STATUS*%
X133199999Y-125450001D02*
X134050000Y-124600000D01*
X136975000Y-119025000D02*
X136975000Y-94625000D01*
X133375000Y-84175000D02*
X130524000Y-81324000D01*
X130968750Y-72655250D02*
X130524000Y-73100000D01*
X130968750Y-65468750D02*
X131450000Y-64987500D01*
X134050000Y-124600000D02*
X134050000Y-121950000D01*
X134050000Y-121950000D02*
X136975000Y-119025000D01*
X136975000Y-94625000D02*
X133375000Y-91025000D01*
X130968750Y-65468750D02*
X130968750Y-72655250D01*
X133375000Y-91025000D02*
X133375000Y-84175000D01*
X132665334Y-125450001D02*
X133199999Y-125450001D01*
X130524000Y-81324000D02*
X130524000Y-73100000D01*
D30*
%TO.N,/RC Radio/OV2*%
X139425000Y-71125000D02*
X139425000Y-72437500D01*
X136997118Y-70600734D02*
X137511352Y-70086500D01*
X137511352Y-70086500D02*
X138386500Y-70086500D01*
X138386500Y-70086500D02*
X139425000Y-71125000D01*
D27*
%TO.N,/USART1_TX_DEBUG*%
X132050000Y-131775000D02*
X132050000Y-131200000D01*
X135850000Y-122612500D02*
X137287500Y-121175000D01*
X137287500Y-121175000D02*
X137300000Y-121175000D01*
X132050000Y-131200000D02*
X135850000Y-127400000D01*
X135850000Y-127400000D02*
X135850000Y-122612500D01*
D29*
%TO.N,/CANFD 1 (Primary)/VIN*%
X75786842Y-88256000D02*
X75786842Y-97856000D01*
D27*
%TO.N,/RESV0*%
X114413610Y-131350000D02*
X114413610Y-132908565D01*
X114413610Y-132908565D02*
X114414737Y-132909692D01*
%TO.N,/IESC3*%
X112508610Y-131350000D02*
X112508610Y-133052470D01*
X112508610Y-133052470D02*
X112509435Y-133053295D01*
%TO.N,/RESV1*%
X115048610Y-131350000D02*
X115048610Y-133065848D01*
X115048610Y-133065848D02*
X115044730Y-133069728D01*
%TO.N,/IESC4*%
X113143610Y-132916938D02*
X113145343Y-132918671D01*
X113143610Y-131350000D02*
X113143610Y-132916938D01*
%TO.N,/IPAYLOAD*%
X113778610Y-133051909D02*
X113781031Y-133054330D01*
X113778610Y-131350000D02*
X113778610Y-133051909D01*
%TO.N,/RESV2*%
X115683610Y-132933610D02*
X115700000Y-132950000D01*
X115683610Y-131350000D02*
X115683610Y-132933610D01*
%TO.N,/IESC2*%
X111873610Y-131350000D02*
X111873610Y-132898610D01*
X111873610Y-132898610D02*
X111875000Y-132900000D01*
%TO.N,/REG_STATUS*%
X133154030Y-128770234D02*
X133154030Y-126938694D01*
X133154030Y-126938694D02*
X132665335Y-126449999D01*
X120250000Y-134400000D02*
X122850000Y-131800000D01*
X130124264Y-131800000D02*
X133154030Y-128770234D01*
X93700000Y-134400000D02*
X120250000Y-134400000D01*
X92700000Y-133400000D02*
X93700000Y-134400000D01*
X89500000Y-133400000D02*
X92700000Y-133400000D01*
X122850000Y-131800000D02*
X130124264Y-131800000D01*
%TD*%
%TA.AperFunction,Conductor*%
%TO.N,GND*%
G36*
X98759013Y-121419685D02*
G01*
X98804768Y-121472489D01*
X98815974Y-121524000D01*
X98815974Y-121784752D01*
X98827605Y-121843229D01*
X98827606Y-121843230D01*
X98871921Y-121909552D01*
X98938243Y-121953867D01*
X98938244Y-121953868D01*
X98996721Y-121965499D01*
X98996724Y-121965500D01*
X98996726Y-121965500D01*
X100866224Y-121965500D01*
X100866225Y-121965499D01*
X100881042Y-121962552D01*
X100924703Y-121953868D01*
X100924703Y-121953867D01*
X100924705Y-121953867D01*
X100991026Y-121909552D01*
X101035341Y-121843231D01*
X101035341Y-121843229D01*
X101035342Y-121843229D01*
X101046973Y-121784752D01*
X101046974Y-121784750D01*
X101046974Y-121524000D01*
X101066659Y-121456961D01*
X101119463Y-121411206D01*
X101170974Y-121400000D01*
X106509058Y-121400000D01*
X106576097Y-121419685D01*
X106609374Y-121451112D01*
X106700619Y-121576699D01*
X106824775Y-121700855D01*
X106966825Y-121804061D01*
X107043557Y-121843157D01*
X107123270Y-121883774D01*
X107123273Y-121883775D01*
X107279027Y-121934382D01*
X107290261Y-121938032D01*
X107463682Y-121965500D01*
X107463683Y-121965500D01*
X107639265Y-121965500D01*
X107639266Y-121965500D01*
X107812687Y-121938032D01*
X107812690Y-121938031D01*
X107812691Y-121938031D01*
X107979674Y-121883775D01*
X107979677Y-121883774D01*
X108136123Y-121804061D01*
X108278173Y-121700855D01*
X108402329Y-121576699D01*
X108493572Y-121451113D01*
X108548902Y-121408449D01*
X108593890Y-121400000D01*
X116476000Y-121400000D01*
X116543039Y-121419685D01*
X116588794Y-121472489D01*
X116600000Y-121524000D01*
X116600000Y-122164026D01*
X116580315Y-122231065D01*
X116527511Y-122276820D01*
X116458353Y-122286764D01*
X116443907Y-122283801D01*
X116390870Y-122269590D01*
X116315892Y-122249500D01*
X116184108Y-122249500D01*
X116056812Y-122283608D01*
X115942686Y-122349500D01*
X115942683Y-122349502D01*
X115849502Y-122442683D01*
X115849500Y-122442686D01*
X115783608Y-122556812D01*
X115749500Y-122684108D01*
X115749500Y-122815891D01*
X115783608Y-122943187D01*
X115817959Y-123002684D01*
X115849500Y-123057314D01*
X115849501Y-123057315D01*
X115853564Y-123064352D01*
X115852211Y-123065133D01*
X115874069Y-123121660D01*
X115874500Y-123131986D01*
X115874500Y-123449435D01*
X115900090Y-123544938D01*
X115900091Y-123544939D01*
X115900091Y-123544940D01*
X115949526Y-123630563D01*
X116563681Y-124244718D01*
X116597166Y-124306041D01*
X116600000Y-124332399D01*
X116600000Y-127608594D01*
X116583387Y-127670594D01*
X116533609Y-127756810D01*
X116533609Y-127756811D01*
X116533608Y-127756813D01*
X116533608Y-127756814D01*
X116518492Y-127813227D01*
X116499500Y-127884108D01*
X116499500Y-127918101D01*
X116490855Y-127947541D01*
X116484332Y-127977528D01*
X116480577Y-127982543D01*
X116479815Y-127985140D01*
X116463181Y-128005782D01*
X116456782Y-128012181D01*
X116395459Y-128045666D01*
X116369101Y-128048500D01*
X105426564Y-128048500D01*
X105378812Y-128061295D01*
X105378811Y-128061294D01*
X105331063Y-128074089D01*
X105331062Y-128074089D01*
X105245435Y-128123527D01*
X105130782Y-128238181D01*
X105069459Y-128271666D01*
X105043101Y-128274500D01*
X104731987Y-128274500D01*
X104664948Y-128254815D01*
X104657733Y-128249742D01*
X104543187Y-128183608D01*
X104454754Y-128159913D01*
X104415892Y-128149500D01*
X104284108Y-128149500D01*
X104156812Y-128183608D01*
X104042686Y-128249500D01*
X104042683Y-128249502D01*
X103949502Y-128342683D01*
X103949500Y-128342686D01*
X103883608Y-128456812D01*
X103849500Y-128584108D01*
X103849500Y-128679142D01*
X103829815Y-128746181D01*
X103777011Y-128791936D01*
X103763575Y-128797152D01*
X103751235Y-128801133D01*
X103751177Y-128800725D01*
X103744977Y-128801617D01*
X103714487Y-128812989D01*
X103711830Y-128813847D01*
X103711748Y-128813849D01*
X103710797Y-128814175D01*
X103698461Y-128818036D01*
X103684380Y-128822443D01*
X103684379Y-128822443D01*
X103681857Y-128823819D01*
X103681858Y-128823820D01*
X103674087Y-128828059D01*
X103663143Y-128832143D01*
X103643669Y-128844656D01*
X103639791Y-128846773D01*
X103639788Y-128846776D01*
X103637109Y-128848238D01*
X103636966Y-128848333D01*
X103623007Y-128855956D01*
X103623004Y-128855958D01*
X103594313Y-128877436D01*
X103582005Y-128885555D01*
X103528004Y-128916733D01*
X103498099Y-128929120D01*
X103479887Y-128934000D01*
X103454607Y-128940774D01*
X103422513Y-128945000D01*
X103377489Y-128945000D01*
X103345397Y-128940775D01*
X103301902Y-128929121D01*
X103271993Y-128916732D01*
X103228518Y-128891631D01*
X103208780Y-128877309D01*
X103208716Y-128877385D01*
X103207742Y-128876556D01*
X103207659Y-128876496D01*
X103207443Y-128876302D01*
X103186808Y-128859674D01*
X103115761Y-128822509D01*
X103048729Y-128802826D01*
X103048080Y-128802732D01*
X102990824Y-128794500D01*
X102765290Y-128794500D01*
X102765271Y-128794500D01*
X102748898Y-128795450D01*
X102748819Y-128795456D01*
X102741498Y-128795882D01*
X102735079Y-128796630D01*
X102735058Y-128796632D01*
X102721161Y-128798252D01*
X102652293Y-128786461D01*
X102600733Y-128739310D01*
X102592249Y-128722551D01*
X102570811Y-128670794D01*
X102494752Y-128556963D01*
X102494750Y-128556960D01*
X102397949Y-128460159D01*
X102298784Y-128393900D01*
X102284116Y-128384099D01*
X102271161Y-128378733D01*
X102157634Y-128331708D01*
X102157626Y-128331706D01*
X102023366Y-128305000D01*
X102023362Y-128305000D01*
X101886458Y-128305000D01*
X101886453Y-128305000D01*
X101752193Y-128331706D01*
X101752185Y-128331708D01*
X101625705Y-128384098D01*
X101559520Y-128428321D01*
X101492842Y-128449198D01*
X101425462Y-128430713D01*
X101378772Y-128378733D01*
X101366630Y-128325218D01*
X101366630Y-127980249D01*
X101366629Y-127980247D01*
X101354998Y-127921770D01*
X101354997Y-127921769D01*
X101310682Y-127855447D01*
X101244360Y-127811132D01*
X101244359Y-127811131D01*
X101185882Y-127799500D01*
X101185878Y-127799500D01*
X98646382Y-127799500D01*
X98646377Y-127799500D01*
X98587900Y-127811131D01*
X98576617Y-127815806D01*
X98575549Y-127813227D01*
X98526211Y-127828675D01*
X98458831Y-127810189D01*
X98412142Y-127758209D01*
X98400000Y-127704695D01*
X98400000Y-121524000D01*
X98402550Y-121515314D01*
X98401262Y-121506353D01*
X98412240Y-121482312D01*
X98419685Y-121456961D01*
X98426525Y-121451033D01*
X98430287Y-121442797D01*
X98452521Y-121428507D01*
X98472489Y-121411206D01*
X98483003Y-121408918D01*
X98489065Y-121405023D01*
X98524000Y-121400000D01*
X98691974Y-121400000D01*
X98759013Y-121419685D01*
G37*
%TD.AperFunction*%
%TD*%
%TA.AperFunction,Conductor*%
%TO.N,/RADIO_VOUT*%
G36*
X138267539Y-71619685D02*
G01*
X138313294Y-71672489D01*
X138322637Y-71715437D01*
X138323439Y-71715332D01*
X138324500Y-71723391D01*
X138358608Y-71850687D01*
X138391554Y-71907750D01*
X138424500Y-71964814D01*
X138517686Y-72058000D01*
X138631814Y-72123892D01*
X138759108Y-72158000D01*
X138759110Y-72158000D01*
X138871900Y-72158000D01*
X138938939Y-72177685D01*
X138984694Y-72230489D01*
X138994638Y-72299647D01*
X138991675Y-72314093D01*
X138974500Y-72378191D01*
X138974500Y-72496809D01*
X138995775Y-72576209D01*
X139000000Y-72608300D01*
X139000000Y-76325500D01*
X138980315Y-76392539D01*
X138927511Y-76438294D01*
X138876000Y-76449500D01*
X138395741Y-76449500D01*
X138365301Y-76452354D01*
X138365300Y-76452354D01*
X138237118Y-76497206D01*
X138127850Y-76577850D01*
X138047206Y-76687118D01*
X138002353Y-76815302D01*
X137999500Y-76845731D01*
X137999500Y-79154258D01*
X138002354Y-79184698D01*
X138002354Y-79184699D01*
X138047206Y-79312881D01*
X138047207Y-79312882D01*
X138127850Y-79422150D01*
X138237118Y-79502793D01*
X138365302Y-79547646D01*
X138365301Y-79547646D01*
X138369271Y-79548018D01*
X138395735Y-79550500D01*
X138876002Y-79550499D01*
X138943039Y-79570183D01*
X138988794Y-79622987D01*
X139000000Y-79674499D01*
X139000000Y-85076000D01*
X138980315Y-85143039D01*
X138927511Y-85188794D01*
X138876000Y-85200000D01*
X136024000Y-85200000D01*
X135956961Y-85180315D01*
X135911206Y-85127511D01*
X135900000Y-85076000D01*
X135900000Y-82536509D01*
X135919685Y-82469470D01*
X135972489Y-82423715D01*
X135991917Y-82416731D01*
X135993186Y-82416392D01*
X136107314Y-82350500D01*
X136200500Y-82257314D01*
X136266392Y-82143186D01*
X136300500Y-82015892D01*
X136300500Y-81884108D01*
X136266392Y-81756814D01*
X136200500Y-81642686D01*
X136107314Y-81549500D01*
X136041421Y-81511456D01*
X135993185Y-81483607D01*
X135993186Y-81483607D01*
X135991899Y-81483263D01*
X135990936Y-81482676D01*
X135985682Y-81480500D01*
X135986021Y-81479680D01*
X135932241Y-81446894D01*
X135901716Y-81384045D01*
X135900000Y-81363490D01*
X135900000Y-79362142D01*
X135919685Y-79295103D01*
X135951113Y-79261825D01*
X136060083Y-79182655D01*
X136232655Y-79010083D01*
X136376106Y-78812639D01*
X136486904Y-78595185D01*
X136562321Y-78363076D01*
X136600500Y-78122027D01*
X136600500Y-77877973D01*
X136562321Y-77636924D01*
X136486904Y-77404815D01*
X136376106Y-77187361D01*
X136357779Y-77162136D01*
X136232660Y-76989923D01*
X136232656Y-76989918D01*
X136060085Y-76817347D01*
X136060079Y-76817342D01*
X135951115Y-76738175D01*
X135908449Y-76682845D01*
X135900000Y-76637857D01*
X135900000Y-74950441D01*
X135919685Y-74883402D01*
X135972489Y-74837647D01*
X136041647Y-74827703D01*
X136105203Y-74856728D01*
X136131386Y-74888439D01*
X136149500Y-74919814D01*
X136242686Y-75013000D01*
X136356814Y-75078892D01*
X136484108Y-75113000D01*
X136484110Y-75113000D01*
X136615890Y-75113000D01*
X136615892Y-75113000D01*
X136743186Y-75078892D01*
X136857314Y-75013000D01*
X136950500Y-74919814D01*
X137016392Y-74805686D01*
X137050500Y-74678392D01*
X137050500Y-74678390D01*
X137052603Y-74670542D01*
X137055623Y-74671351D01*
X137077902Y-74620966D01*
X137136219Y-74582484D01*
X137206083Y-74581639D01*
X137233952Y-74595584D01*
X137234925Y-74593900D01*
X137241961Y-74597962D01*
X137241963Y-74597964D01*
X137356091Y-74663856D01*
X137483385Y-74697964D01*
X137483387Y-74697964D01*
X137615167Y-74697964D01*
X137615169Y-74697964D01*
X137742463Y-74663856D01*
X137856591Y-74597964D01*
X137949777Y-74504778D01*
X138015669Y-74390650D01*
X138049777Y-74263356D01*
X138049777Y-74131572D01*
X138015669Y-74004278D01*
X137949777Y-73890150D01*
X137856591Y-73796964D01*
X137799527Y-73764018D01*
X137742464Y-73731072D01*
X137678816Y-73714018D01*
X137615169Y-73696964D01*
X137483385Y-73696964D01*
X137356089Y-73731072D01*
X137241963Y-73796964D01*
X137241960Y-73796966D01*
X137148779Y-73890147D01*
X137148777Y-73890150D01*
X137082885Y-74004276D01*
X137046674Y-74139422D01*
X137043666Y-74138616D01*
X137021319Y-74189063D01*
X136962975Y-74227504D01*
X136893110Y-74228300D01*
X136865318Y-74214389D01*
X136864352Y-74216064D01*
X136857315Y-74212001D01*
X136857314Y-74212000D01*
X136802684Y-74180459D01*
X136743187Y-74146108D01*
X136679539Y-74129054D01*
X136615892Y-74112000D01*
X136484108Y-74112000D01*
X136356812Y-74146108D01*
X136242686Y-74212000D01*
X136242683Y-74212002D01*
X136149502Y-74305183D01*
X136149500Y-74305186D01*
X136131387Y-74336559D01*
X136080819Y-74384774D01*
X136012212Y-74397996D01*
X135947348Y-74372028D01*
X135906820Y-74315114D01*
X135900000Y-74274558D01*
X135900000Y-71724000D01*
X135919685Y-71656961D01*
X135972489Y-71611206D01*
X136024000Y-71600000D01*
X138200500Y-71600000D01*
X138267539Y-71619685D01*
G37*
%TD.AperFunction*%
%TD*%
%TA.AperFunction,Conductor*%
%TO.N,+BATT*%
G36*
X103057863Y-129019685D02*
G01*
X103078505Y-129036319D01*
X103092686Y-129050500D01*
X103206814Y-129116392D01*
X103334108Y-129150500D01*
X103334110Y-129150500D01*
X103465890Y-129150500D01*
X103465892Y-129150500D01*
X103593186Y-129116392D01*
X103707314Y-129050500D01*
X103721495Y-129036319D01*
X103748422Y-129021615D01*
X103774241Y-129005023D01*
X103780441Y-129004131D01*
X103782818Y-129002834D01*
X103809176Y-129000000D01*
X103940824Y-129000000D01*
X104007863Y-129019685D01*
X104028505Y-129036319D01*
X104042686Y-129050500D01*
X104156814Y-129116392D01*
X104284108Y-129150500D01*
X104284110Y-129150500D01*
X104415890Y-129150500D01*
X104415892Y-129150500D01*
X104543186Y-129116392D01*
X104657314Y-129050500D01*
X104657315Y-129050498D01*
X104664352Y-129046436D01*
X104665131Y-129047786D01*
X104721671Y-129025930D01*
X104731987Y-129025500D01*
X105275500Y-129025500D01*
X105342539Y-129045185D01*
X105388294Y-129097989D01*
X105399500Y-129149500D01*
X105399500Y-129165891D01*
X105433608Y-129293187D01*
X105454403Y-129329204D01*
X105499500Y-129407314D01*
X105592686Y-129500500D01*
X105706814Y-129566392D01*
X105834108Y-129600500D01*
X105834110Y-129600500D01*
X105965890Y-129600500D01*
X105965892Y-129600500D01*
X106093186Y-129566392D01*
X106207314Y-129500500D01*
X106300500Y-129407314D01*
X106366392Y-129293186D01*
X106400500Y-129165892D01*
X106400500Y-129124000D01*
X106420185Y-129056961D01*
X106472989Y-129011206D01*
X106524500Y-129000000D01*
X110876000Y-129000000D01*
X110943039Y-129019685D01*
X110988794Y-129072489D01*
X111000000Y-129124000D01*
X111000000Y-129835084D01*
X110980315Y-129902123D01*
X110944892Y-129938185D01*
X110919058Y-129955446D01*
X110874742Y-130021769D01*
X110874741Y-130021770D01*
X110863110Y-130080247D01*
X110863110Y-132619752D01*
X110874741Y-132678229D01*
X110879416Y-132689513D01*
X110875545Y-132691116D01*
X110889544Y-132735781D01*
X110872951Y-132800027D01*
X110824606Y-132883763D01*
X110793905Y-132998340D01*
X110793905Y-133116958D01*
X110824606Y-133231535D01*
X110883916Y-133334262D01*
X110883917Y-133334263D01*
X110886363Y-133338499D01*
X110902836Y-133406399D01*
X110879984Y-133472426D01*
X110825063Y-133515617D01*
X110778976Y-133524500D01*
X98930066Y-133524500D01*
X98863027Y-133504815D01*
X98842385Y-133488181D01*
X98436319Y-133082115D01*
X98402834Y-133020792D01*
X98400000Y-132994434D01*
X98400000Y-132541405D01*
X98416612Y-132479406D01*
X98466392Y-132393186D01*
X98500500Y-132265892D01*
X98500500Y-132134108D01*
X98466392Y-132006814D01*
X98443054Y-131966392D01*
X98416613Y-131920594D01*
X98400000Y-131858594D01*
X98400000Y-131434108D01*
X102249500Y-131434108D01*
X102249500Y-131565891D01*
X102283608Y-131693187D01*
X102287253Y-131699500D01*
X102349500Y-131807314D01*
X102442686Y-131900500D01*
X102556814Y-131966392D01*
X102684108Y-132000500D01*
X102684110Y-132000500D01*
X102815890Y-132000500D01*
X102815892Y-132000500D01*
X102943186Y-131966392D01*
X103057314Y-131900500D01*
X103150500Y-131807314D01*
X103216392Y-131693186D01*
X103250500Y-131565892D01*
X103250500Y-131434108D01*
X103216392Y-131306814D01*
X103150500Y-131192686D01*
X103057314Y-131099500D01*
X103000250Y-131066554D01*
X102943187Y-131033608D01*
X102879539Y-131016554D01*
X102815892Y-130999500D01*
X102684108Y-130999500D01*
X102556812Y-131033608D01*
X102442686Y-131099500D01*
X102442683Y-131099502D01*
X102349502Y-131192683D01*
X102349500Y-131192686D01*
X102283608Y-131306812D01*
X102249500Y-131434108D01*
X98400000Y-131434108D01*
X98400000Y-130295304D01*
X98419685Y-130228265D01*
X98472489Y-130182510D01*
X98541647Y-130172566D01*
X98575982Y-130185725D01*
X98576617Y-130184194D01*
X98587900Y-130188868D01*
X98646377Y-130200499D01*
X98646380Y-130200500D01*
X98646382Y-130200500D01*
X101185880Y-130200500D01*
X101185881Y-130200499D01*
X101200698Y-130197552D01*
X101244359Y-130188868D01*
X101244359Y-130188867D01*
X101244361Y-130188867D01*
X101310682Y-130144552D01*
X101354997Y-130078231D01*
X101354997Y-130078229D01*
X101354998Y-130078229D01*
X101366629Y-130019752D01*
X101366630Y-130019750D01*
X101366630Y-129674781D01*
X101386315Y-129607742D01*
X101439119Y-129561987D01*
X101508277Y-129552043D01*
X101559520Y-129571678D01*
X101625704Y-129615901D01*
X101752186Y-129668292D01*
X101886453Y-129694999D01*
X101886457Y-129695000D01*
X101886458Y-129695000D01*
X102023363Y-129695000D01*
X102023364Y-129694999D01*
X102157634Y-129668292D01*
X102284116Y-129615901D01*
X102397947Y-129539842D01*
X102494752Y-129443037D01*
X102570811Y-129329206D01*
X102623202Y-129202724D01*
X102640374Y-129116392D01*
X102643673Y-129099809D01*
X102658387Y-129071678D01*
X102671577Y-129042797D01*
X102674465Y-129040940D01*
X102676057Y-129037898D01*
X102703644Y-129022188D01*
X102730355Y-129005023D01*
X102734949Y-129004362D01*
X102736773Y-129003324D01*
X102765290Y-129000000D01*
X102990824Y-129000000D01*
X103057863Y-129019685D01*
G37*
%TD.AperFunction*%
%TD*%
M02*
