M48
; DRILL file {KiCad 9.0.5} date 2025-12-30T00:31:28-0800
; FORMAT={-:-/ absolute / inch / decimal}
; #@! TF.CreationDate,2025-12-30T00:31:28-08:00
; #@! TF.GenerationSoftware,Kicad,Pcbnew,9.0.5
; #@! TF.FileFunction,Plated,1,6,PTH
FMAT,2
INCH
; #@! TA.AperFunction,Plated,PTH,ViaDrill
T1C0.0098
; #@! TA.AperFunction,Plated,PTH,ViaDrill
T2C0.0118
; #@! TA.AperFunction,Plated,PTH,ViaDrill
T3C0.0157
; #@! TA.AperFunction,Plated,PTH,ComponentDrill
T4C0.0394
; #@! TA.AperFunction,Plated,PTH,ComponentDrill
T5C0.0480
; #@! TA.AperFunction,Plated,PTH,ComponentDrill
T6C0.0697
; #@! TA.AperFunction,Plated,PTH,ComponentDrill
T7C0.0709
; #@! TA.AperFunction,Plated,PTH,ComponentDrill
T8C0.0748
; #@! TA.AperFunction,Plated,PTH,ComponentDrill
T9C0.1260
%
G90
G05
T1
X2.9837Y-3.4746
X2.9837Y-3.8526
X2.9837Y-4.2717
X2.9837Y-4.6496
X3.011Y-3.5731
X3.011Y-3.951
X3.011Y-4.3701
X3.011Y-4.748
X3.0327Y-3.5239
X3.0327Y-3.9018
X3.0327Y-4.3209
X3.0327Y-4.6988
X3.1235Y-3.9235
X3.1235Y-4.7205
X3.1409Y-3.6794
X3.1409Y-4.4764
X3.1491Y-3.858
X3.1491Y-4.655
X3.1707Y-3.951
X3.1707Y-4.748
X3.2115Y-3.9102
X3.2115Y-4.7072
X3.2709Y-3.5357
X3.2709Y-4.3327
X3.3209Y-4.0453
X3.3209Y-4.8423
X3.3831Y-3.8841
X3.3831Y-3.9609
X3.5059Y-2.8622
X3.5197Y-3.6043
X3.5236Y-5.252
X3.5335Y-2.9193
X3.5591Y-4.4882
X3.5591Y-4.5157
X3.5591Y-4.5433
X3.5591Y-4.5709
X3.5591Y-4.5984
X3.5876Y-3.0886
X3.5876Y-3.7736
X3.5984Y-4.5984
X3.615Y-2.9193
X3.615Y-3.6043
X3.627Y-2.5059
X3.6339Y-4.5984
X3.6406Y-2.7899
X3.6406Y-3.4749
X3.6555Y-4.4272
X3.7224Y-2.7736
X3.7224Y-2.8051
X3.7224Y-3.4606
X3.7224Y-3.4902
X3.7274Y-3.2362
X3.7274Y-3.9213
X3.7441Y-4.7087
X3.7667Y-3.2362
X3.7667Y-3.9213
X3.8337Y-3.2362
X3.8337Y-3.9213
X3.876Y-2.6122
X3.877Y-3.2362
X3.877Y-3.9213
X3.9055Y-5.2441
X3.9528Y-5.2441
X3.9557Y-2.5965
X3.9862Y-2.7854
X3.9862Y-3.4705
X4.0Y-5.2441
X4.0394Y-5.2441
X4.0787Y-5.2441
X4.1122Y-2.8307
X4.1122Y-3.5157
X4.1181Y-5.2441
X4.1575Y-5.2441
X4.2057Y-2.5059
X4.2854Y-3.4724
X4.3189Y-2.9193
X4.3484Y-3.6043
X4.3797Y-5.2385
X4.3947Y-3.0886
X4.3947Y-3.7736
X4.4045Y-5.2323
X4.422Y-2.9193
X4.422Y-3.6043
X4.4295Y-5.2383
X4.4341Y-2.5059
X4.4476Y-2.7899
X4.4476Y-3.4749
X4.4545Y-5.233
X4.4796Y-5.2384
X4.5045Y-5.2327
X4.5293Y-5.239
X4.5295Y-2.7756
X4.5295Y-2.8071
X4.5295Y-3.4232
X4.5295Y-3.4587
X4.5344Y-3.2362
X4.5344Y-3.9213
X4.5545Y-5.2343
X4.5738Y-3.2362
X4.5738Y-3.9213
X4.6407Y-3.2362
X4.6407Y-3.9213
X4.6496Y-4.6299
X4.6841Y-2.6142
X4.6841Y-3.2362
X4.6841Y-3.9213
X4.7235Y-4.7156
X4.7628Y-2.5866
X4.7933Y-2.7854
X4.7933Y-3.4705
X4.8366Y-4.9596
X4.8504Y-5.1496
X4.8636Y-4.998
X4.8636Y-4.9587
X4.8799Y-4.9783
X4.9193Y-2.8307
X4.9193Y-3.5157
X4.935Y-4.7087
X4.935Y-5.0925
X4.9547Y-4.3819
X4.9547Y-5.0728
X4.9547Y-4.7297
X4.9744Y-5.0892
X4.9764Y-4.4016
X4.9941Y-5.0728
X4.9961Y-4.2894
X5.0128Y-2.5059
X5.0158Y-4.3123
X5.0335Y-5.0728
X5.0505Y-4.4175
X5.0531Y-5.0906
X5.0709Y-4.7008
X5.0709Y-4.7323
X5.0728Y-5.0728
X5.0925Y-5.0892
X5.1122Y-3.4705
X5.1122Y-4.7283
X5.1122Y-5.0728
X5.1181Y-2.811
X5.1752Y-2.5586
X5.1752Y-3.2087
X5.1801Y-5.1583
X5.1988Y-5.188
X5.2067Y-4.8406
X5.2067Y-4.8799
X5.2067Y-4.9193
X5.2067Y-4.9587
X5.223Y-4.939
X5.223Y-4.8996
X5.223Y-4.9783
X5.2235Y-5.0173
X5.2912Y-2.8522
X5.2913Y-2.8209
X5.2913Y-3.4705
X5.2913Y-3.5
X5.3268Y-4.811
X5.378Y-2.6767
X5.378Y-2.8479
X5.378Y-3.3268
X5.378Y-3.498
X5.3936Y-2.7796
X5.3936Y-3.4297
X5.4055Y-2.6767
X5.4055Y-2.8479
X5.4055Y-3.3268
X5.4055Y-3.498
X5.4055Y-4.7707
X5.4469Y-2.6767
X5.4469Y-2.8479
X5.4469Y-3.3268
X5.4892Y-2.8519
X5.4892Y-3.502
T2
X2.9522Y-3.6591
X2.9522Y-3.8127
X2.9522Y-4.4561
X2.9522Y-4.6097
X3.0192Y-3.4018
X3.0192Y-4.0725
X3.0192Y-4.1988
X3.0192Y-4.8695
X3.1252Y-3.6223
X3.1252Y-4.0002
X3.1252Y-4.4193
X3.1252Y-4.7972
X3.1961Y-3.5652
X3.1961Y-4.3622
X3.2Y-3.6951
X3.2Y-4.4921
X3.2087Y-4.0669
X3.2118Y-3.825
X3.2118Y-4.0219
X3.2118Y-4.622
X3.2118Y-4.8189
X3.2748Y-3.7994
X3.2748Y-4.5965
X3.2984Y-3.8624
X3.2984Y-3.9825
X3.2984Y-4.6594
X3.2984Y-4.7795
X3.3134Y-3.4785
X3.3134Y-4.2755
X3.322Y-3.7994
X3.322Y-4.5965
X3.3327Y-4.878
X3.3839Y-5.0335
X3.385Y-4.0219
X3.385Y-4.622
X3.385Y-4.8189
X3.4028Y-3.9097
X3.4028Y-4.7067
X3.4094Y-3.7402
X3.4114Y-5.1012
X3.4449Y-4.4941
X3.4449Y-5.1949
X3.4587Y-4.8937
X3.4764Y-5.002
X3.5348Y-4.9961
X3.5738Y-5.189
X3.5787Y-4.998
X3.5876Y-2.9331
X3.5876Y-3.2106
X3.5876Y-3.6181
X3.5876Y-3.8957
X3.5886Y-5.2244
X3.6417Y-5.0531
X3.6417Y-5.1142
X3.6524Y-2.9193
X3.6524Y-3.6043
X3.6585Y-3.2106
X3.6585Y-3.8957
X3.6654Y-4.2165
X3.6654Y-4.3602
X3.6772Y-4.7972
X3.7205Y-4.4232
X3.7432Y-4.6713
X3.7953Y-5.0906
X3.8012Y-5.0531
X3.8484Y-5.002
X3.8583Y-5.2047
X3.947Y-2.7854
X3.947Y-3.4705
X3.9754Y-2.935
X3.9754Y-3.6201
X4.0453Y-5.1772
X4.0709Y-2.6811
X4.0709Y-5.065
X4.1033Y-2.8622
X4.1033Y-3.5472
X4.1083Y-5.065
X4.1496Y-2.6811
X4.1693Y-5.0827
X4.2313Y-2.9803
X4.2313Y-3.6654
X4.3947Y-2.9331
X4.3947Y-3.2106
X4.3947Y-3.6181
X4.3947Y-3.8957
X4.4594Y-2.9193
X4.4594Y-3.6043
X4.4656Y-3.2106
X4.4656Y-3.8957
X4.5768Y-4.8327
X4.6063Y-5.0374
X4.7276Y-4.5747
X4.7283Y-4.3543
X4.7402Y-5.1417
X4.7539Y-4.811
X4.7541Y-2.7854
X4.7541Y-3.4705
X4.7825Y-2.935
X4.7825Y-3.6201
X4.8543Y-4.5669
X4.876Y-4.4567
X4.878Y-2.6811
X4.9104Y-2.8622
X4.9104Y-3.5472
X4.9232Y-4.4567
X4.9567Y-2.6811
X4.9862Y-4.5945
X5.0335Y-4.6969
X5.0384Y-2.9803
X5.0384Y-3.6654
X5.0394Y-4.4449
X5.0571Y-4.5079
X5.07Y-4.6093
X5.0886Y-4.5118
X5.122Y-4.6102
X5.1831Y-2.8243
X5.1831Y-3.4744
X5.2146Y-2.9375
X5.2146Y-3.5876
X5.2382Y-2.583
X5.2382Y-3.2331
X5.2913Y-2.592
X5.2913Y-3.2421
X5.2992Y-2.9375
X5.2992Y-3.5876
X5.3031Y-4.3189
X5.3465Y-2.5763
X5.3465Y-3.2264
X5.376Y-2.9375
X5.376Y-3.5876
X5.3937Y-4.8346
X5.3937Y-4.874
X5.4153Y-2.9212
X5.4153Y-3.5713
X5.4272Y-2.783
X5.4272Y-3.4331
X5.4656Y-2.7414
X5.4656Y-2.8212
X5.4656Y-3.3915
X5.4656Y-3.4713
T3
X3.378Y-4.875
X3.4409Y-4.1496
X3.5197Y-2.4843
X3.7165Y-2.5984
X3.7598Y-2.5748
X3.8031Y-2.5984
X3.9055Y-5.1575
X3.9055Y-5.2047
X3.9134Y-4.9685
X3.9134Y-5.0079
X3.9528Y-5.1575
X3.9528Y-5.2047
X3.9685Y-4.9685
X3.9685Y-5.0079
X4.0Y-5.1575
X4.0Y-5.2047
X4.0236Y-4.9685
X4.0236Y-5.0079
X4.0472Y-4.8268
X4.1024Y-4.8268
X4.1575Y-4.8268
X4.2126Y-4.8268
X4.2677Y-4.8268
X4.3189Y-2.4685
X4.3228Y-4.8268
X4.378Y-4.8268
X4.4331Y-4.8268
X4.4646Y-3.3858
X4.4882Y-4.8268
X4.5276Y-2.5984
X4.5709Y-2.5748
X4.6142Y-2.5984
X5.1181Y-3.2362
T4
X3.0157Y-2.7944
X3.0157Y-3.2274
X4.9772Y-5.2402
X5.0772Y-5.2402
X5.1772Y-5.2402
X5.2772Y-5.2402
X5.3772Y-5.2402
T5
X3.9343Y-4.7579
X4.0843Y-4.2224
X4.2343Y-4.2224
X4.2343Y-4.7579
X4.5343Y-4.7579
T6
X3.9343Y-4.2224
X4.5343Y-4.2224
T7
X5.2953Y-4.4449
X5.2953Y-4.6102
X5.2972Y-3.0709
X5.2972Y-3.7579
X5.5118Y-4.4449
X5.5118Y-4.6102
X5.5138Y-3.0709
X5.5138Y-3.7579
T8
X3.4094Y-2.9125
X3.4094Y-3.1093
T9
X3.0709Y-2.5591
X3.0709Y-5.1181
X5.6299Y-2.5591
X5.6299Y-5.1181
M30
